<?xml version="1.0" encoding="utf-8"?>
<!-- Generator: Adobe Illustrator 22.0.0, SVG Export Plug-In . SVG Version: 6.00 Build 0)  -->
<svg version="1.1" id="Layer_1" xmlns="http://www.w3.org/2000/svg" xmlns:xlink="http://www.w3.org/1999/xlink" x="0px" y="0px"
	 viewBox="0 0 720 720" style="enable-background:new 0 0 720 720;" xml:space="preserve">
<style type="text/css">
	.st0{fill:#FFFFFF;}
</style>
<path class="st0" d="M684.8,274.6c-0.6-2.7-1.6-5.3-2.8-7.8c-0.6-1.2-1.3-2.4-2-3.6c-0.6-1.1-0.5-2.3-0.1-3.4
	c1.4-4.4,0.6-8.6-1.6-12.6c-1.7-3.2-4.2-5.7-7.1-7.7c-3.9-2.8-8.5-4.8-13.4-5.9c-3.3-49-27.9-96.2-71.1-126.5h0
	C550.7,82,506,75.2,460.6,88C419.3,99.7,381,126.9,355,162.9c-26.4-35.7-65-62.5-106.3-73.8c-45.5-12.4-90.2-5.2-125.8,20.3
	c-46.7,33.4-71.1,86.5-70.1,140c-3-1.7-6.2-3-9.4-4.2c-0.7-0.2-1.3-0.6-1.9-0.9c-0.7-0.5-1.3-1.1-2-1.5c-0.9-0.6-1.9-1.2-2.9-1.7
	c-0.7-0.4-1.5-0.6-2.3-0.9c0,0.4,0.2,0.7,0.4,1c1,1.6,2,3.2,2.7,5.1c1,2.6,1.7,5.3,2,8.1c0.8,6.3,1.4,12.6,2.3,18.9
	c0.5,3.9,1.1,7.8,1.5,11.7c0.2,2,0.2,4,0.4,6c0.1,1.7,0,3.4,0.4,5.1c0.1,0.6,0.1,1.4,0.1,2c0.1,1.4,0.2,2.7,0.4,4.1
	c0.4,2.8,1,5.5,2,8.2c0.8,2.2,2,4.3,3,6.4c1,2,1.5,4.1,2.5,6c0.7,1.3,1.2,2.6,1.8,3.9c0.9,1.8,1.2,3.8,1.1,5.8
	c-0.1,1.1-0.1,2.3,0.1,3.4c0.8,4,2.2,7.8,4.6,11.1c1.5,2.1,3,4.1,4.5,6.2c1.7,2.3,3.7,4.3,5.9,6.1c3.2,2.5,5.8,5.4,7.2,9.4
	c1.2,3.3,3.4,6,6.2,8.2c2.3,1.9,4.6,3.9,6.9,5.8c2.9,2.3,3.9,5.6,4.8,8.9c0.4,1.3,0.7,2.7,1.5,3.9c1.2,1.8,2.5,3.5,4,5.1
	c2.2,2.4,4.5,4.7,7.3,6.3c-0.1,0-0.2,0.1-0.4,0.1c-2.7,1-4.9,2.8-7,4.6c-0.4,0.3-0.7,0.6-1.1,0.9c-1.5,1.2-2.8,2.7-4.1,4.8
	c-1.8,2.9-3.7,5.9-6,8.4c-1.8,2.1-3.8,4.1-5.8,6.1c-1.1,1.1-2.3,2.3-3.4,3.4l-0.4,0.4c-1.7,1.8-3.4,3.6-5,5.6
	c-3.7,4.8-4.4,10.6-4.6,15.1c-0.1,1.2,0.1,2.3,0.4,3.1c1.6,4.7,3.6,8.4,6.1,11.6l0.3,0.3c2.2,2.7,4.4,5.6,6.1,8.7
	c1,1.9,2.5,3.4,4.6,4.7c2,1.2,3.9,2.5,5.7,3.7c5.1,3.5,10.4,0.1,13.7-3.8c0.8-0.9,1.8-2,2.9-1.7c-3,4.1-2.5,10-2.7,14.9
	c-0.2,3.9-0.1,8.4,1.2,12.8c0.9,2.9,2.1,5.8,5,7.7c2.1,1.4,4.1,3.2,5.7,5.5c1.9,2.6,4.3,4.8,7.8,7.2c2.9,1.9,6.3,3,10.9,3.5
	c0.1,0,0.2,0,0.2,0c4,0.4,8.2-0.1,12.7-1.5c4.8-1.5,9.8-2.2,14.1-2.7c4.1-0.5,7.6,0,10.7,1.5c0.8,0.4,1.6,0.7,2.3,1
	c2.8,0.9,5.4,1.3,7.7,1.1c1.3,4.8,3,9.4,5.5,13.8c0.3,0.5,0.5,0.9,0.9,1.3c1.6,1.8,3.9,1.9,5.7,0.3c1.4-1.3,2-3,3.2-4.6
	c-0.5,4-1.3,7.9-1.7,11.9c-0.2,2.4,0.1,4.7,1.4,6.8c0.6,1,1.2,2.1,1.9,3c4.5,5.8,9.1,11.7,13.7,17.5c0.8,1,1.6,1.9,2.4,2.8
	c1,1,2.2,1.6,3.6,1.8c1.8,0.3,3.2-0.3,4-1.9c0.3-0.7,0.6-1.4,0.7-2.2c0.3-2.7,0.5-5.5,0.1-8.3c-1-7-1.4-14.1-0.9-21.2
	c0.2-2.6,1.2-4.8,2.7-6.8c0.9-1.2,1.7-1.2,2.8-0.2c0.3,0.3,0.6,0.8,0.8,1.2c1,2.4,1.7,4.8,1.7,7.4c0,6-1.1,11.8-3.3,17.4
	c-1.7,4.3-2.8,8.8-2.9,13.4c-0.1,4.2,1.3,7.6,4.8,10.1c3.3,2.3,7,3.5,11,3.7c6.9,0.4,13.6-1.4,20.4-1.4c1.2,0,2-1.1,2.1-2.4
	c0-0.7-0.1-1.4-0.4-2.1c-0.6-1.6-1.4-3.1-2.1-4.7c-1.9-4.2-3.9-8.5-5.8-12.7c-1.7-3.7-2.5-7.6-3.4-11.5c-0.6-2.7-0.4-5.3,0.4-7.8
	c0.2-0.5,0.4-1,0.7-1.4c0.9-1.2,1.9-1.4,3-0.4c0.9,0.8,1.7,1.7,2.3,2.6c1.2,1.7,1.7,3.6,2,5.6c0.6,4.3,0.9,8.6,0.6,12.9
	c-0.2,3.8,0.1,7.5,0.9,11.3c0.4,2.2,1.3,4.2,2.3,6.1c0.9,1.6,2.2,2.8,3.9,3.5c3.4,1.4,6.8,2.4,10.5,2.3c4-0.1,8.1-0.1,12.1-0.2
	c0.5,0,1-0.1,1.4-0.2c1.5-0.4,1.9-1.2,1.4-2.6c-0.2-0.5-0.4-1-0.7-1.4c-0.8-1.5-1.7-3-2.5-4.5c-1.8-3.2-3.3-6.6-4-10.2
	c-0.4-1.9-0.8-3.7-1.3-5.5c-0.6-2.2-0.7-4.5-0.7-6.7c0-0.9,0-1.7,0-2.6c0-0.3,0.2-0.5,0.3-0.7c0.3,0,0.5,0,0.6,0.1
	c0.2,0.1,0.5,0.2,0.7,0.2c2.3,1,4,2.5,4.9,4.9c0.9,2.6,1.7,5.2,2.6,7.8c0.1,0.3,0.2,0.6,0.3,0.9c1.1,3.1,2.1,6.3,3.3,9.4
	c0.6,1.6,1.6,3,2.8,4.3c2.4,2.5,5.5,3.4,8.8,2.9c0.3-0.1,0.7-0.1,1-0.2l34.4,36.5c2.6,3.3,6.6,5.3,10.8,5.3c0,0,0,0,0.1,0
	c4.3,0,8.3-2,10.9-5.4l68.6-74.4c4.2-3.2,8.8-5.9,13.8-8.2c4.5-2.1,9.1-2.6,14-1.5c14.7,3.2,28.5,0.9,41.4-6.9
	c6.6-4,13.3-8,19.9-12.1c1.8-1.1,3.5-2.4,5.1-3.8c3.2-2.6,6.7-4.7,10.2-6.8c2.6-1.6,5.1-3.1,7.7-4.7c1.3-0.8,1.3-0.9,0.7-2.3
	c-0.2-0.4-0.3-0.7-0.5-1.2c0.6-0.4,1.1-0.8,1.7-1.2c11.5-7.6,22.8-15.5,33.9-23.8c11.1-8.3,21.9-17,32.2-26.2
	c7.6-6.8,15-13.8,21.9-21.4c4.4-4.9,8.7-9.9,12.3-15.3c3.8-5.6,7-11.6,8.4-18.3c2.4-12.3-0.2-23.4-8.1-33.2
	c-2.5-3.1-5.6-5.6-8.9-7.7c-2.6-1.7-5.2-3.4-7.8-5.1c-0.5-0.3-0.7-0.7-0.7-1.2c-0.4-2.7-1.8-4.6-4.2-6c-2.5-1.5-4.5-3.4-6-5.9
	c0-0.1-0.1-0.1-0.1-0.2c-3-5-9.4-7.1-14.8-5.2c-0.9,0.3-1.9,1-2.5,1.7c-1.1,1.3-2.2,2.8-3,4.3c-1.5,2.5-1.1,5.2,0.1,7.7
	c1.6,3.6,4.2,6,7.7,7.1c0.9,0.3,1.8,0.5,2.8,0.6c2.3,0.2,4.3,0.9,6.2,2.2c0.7,0.5,1.5,1,2.2,1.4c1.8,1,3.8,1.3,5.9,0.7
	c0.7-0.2,1.3-0.1,1.9,0.3c3.6,2.4,7.4,4.4,10.8,7.1c5.1,3.9,8.4,9.2,10,15.5c2,7.9,0.8,15.5-2.8,22.7c-3,5.9-6.9,11.3-11.2,16.3
	c-3.1,3.6-6.3,7.2-9.7,10.6c-3.9,3.9-7.9,7.8-11.9,11.5c-11.1,10.3-22.8,19.9-34.9,29.1c-11,8.4-22.4,16.4-33.9,24.1
	c-0.5,0.3-1,0.6-1.6,0.9c-0.4-0.6-0.8-1-1.1-1.5c-0.8-1-1-1.1-2.1-0.4c-3.1,1.9-6.3,3.8-9.4,5.7c-3.6,2.2-7.3,4.1-11.1,5.9
	c-3.5,1.7-6.9,3.8-10.3,5.9c-4.6,2.8-9.1,5.7-13.8,8.3c-11.7,6.7-23.4,7.7-35,2.9c-2.1-0.9-4.1-1.9-6.2-3.1
	c-2.7-1.7-5.2-3.6-7.4-5.8c-10.4-10.5-14-26.3-8.8-40.9c2.6-7.2,5.2-14.5,7.8-21.7c0.7-1.9,1.2-3.9,1.6-5.8
	c0.9-4.3,2.4-8.4,3.9-12.6c1-2.8,2-5.6,3-8.4c0.5-1.4,0.5-1.5-0.9-2.1c-0.5-0.2-1-0.5-1.5-0.7c0.2-0.6,0.3-1,0.5-1.5
	c7.7-19,16.3-37.7,25.9-55.8c4.9-9.2,10.1-18.3,15.7-27.2c4.9-7.8,10.1-15.3,16-22.4c3.7-4.4,7.6-8.6,12.1-12.1
	c6.4-5.1,13.6-7.7,21.8-7.3c6.5,0.3,12.4,2.4,17.5,6.4c1.8,1.4,3.4,3.1,5,4.8c1.7,1.7,3.3,3.5,5,5.2c0.5,0.5,0.6,0.9,0.6,1.6
	c-0.2,2.5,0.7,4.6,2.5,6.4c0.7,0.6,1.3,1.3,2,2c1.3,1.4,2.3,3.1,2.8,5c1.7,5.5,6.7,9.2,12.4,9.2c1.4,0,2.6-0.4,3.8-1.1
	c2.1-1.3,3.7-3.1,5.1-5.1c0.6-0.9,0.9-1.9,1-3.1c0.2-5.9-3.2-11.1-8.9-12.9c-2.3-0.8-4.2-2.1-5.9-3.8c-0.6-0.6-1.2-1.2-1.8-1.8
	c-1.6-1.4-3.4-2.1-5.6-2c-0.8,0.1-1.3-0.2-1.8-0.7c-3-3-6-6.1-9.1-9.1c-2.8-2.6-6-4.7-9.5-6.1c-14.4-6-28-4.3-40.6,4.7
	c-5.3,3.8-9.8,8.6-14,13.6c-5.6,6.7-10.6,13.8-15.4,21.2c-14.4,22.5-26.2,46.3-36.9,70.8c-2.4,5.6-4.7,11.2-7,16.8
	c-0.2,0.5-0.5,1.1-0.7,1.7c-0.5-0.1-0.9-0.2-1.2-0.3c-1.5-0.4-1.7-0.3-2.2,1.1c-0.8,2.3-1.6,4.5-2.5,6.8c-0.8,2.1-1.4,4.2-2.3,6.3
	c-1,2.4-2.1,4.7-3.1,7c-1.2,2.7-2.4,5.3-3.4,8c-2.4,6.5-4.7,13-7,19.5c-5,14.1-4.5,28.1,1.6,41.8c2,4.5,2.5,9,1.4,13.7
	c-2.4,10.5-6.8,20-13.7,28.4c-0.4,0.5-0.8,1-1.3,1.5l-55.4,60l-29.1-30.9c0.7-0.3,1.3-0.6,2-0.9c3.1-1.5,6.4-2.2,9.8-1.6
	c1,0.2,2,0.1,3,0c1.5-0.2,2.2-1,2.2-2.5c0-1.1-0.1-2.3-0.3-3.3c-0.9-3.3-1.9-6.5-2.8-9.7c-0.4-1.7-1.4-2.9-2.8-3.7c-1.7-1-3.4-2-5-3
	c-0.5-0.3-1.1-0.5-1.5-1.5c2.4,0.2,4.5,0.5,6.6,0.7c0.9,0.1,1.9,0.2,2.8,0.2c1.1,0,1.4-0.4,1.7-1.5c0.1-0.5,0.2-1,0.2-1.6
	c0.3-3.2,0.5-6.5,0.9-9.7c0.3-2.7,0-5.3-0.6-7.9c-0.7-3.2-2.5-5.8-3.9-8.7c-1-2.1-2.7-3.3-4.9-4.1c-4.7-1.7-9.4-2.8-14.3-3.7
	c-2.7-0.5-5.3-1.3-7.9-2c-1.2-0.3-2.2-0.9-2.7-2.5c0.8-0.4,1.5-0.9,2.2-1.1c0.8-0.2,1.8-0.3,2.6-0.3c4.3-0.3,8.4,0.6,12.5,1.6
	c2.2,0.6,4.5,1.1,6.8,1c1.7-0.1,2.5-0.7,2.8-2.4c0.1-0.6,0.1-1.3,0.1-1.9c-0.3-7-2.4-13.4-6.5-19.2c-2.4-3.4-5.4-6.1-9.4-7.6
	c-0.4-0.2-0.9-0.5-1-0.9c-0.6-2.3-1.8-4.2-3-6.2c-1.2-2.1-2.5-4.2-3.8-6.2c0.1-0.7,0.2-1.4,0.2-2.1c0-0.7,0-1.5,0.1-2.2
	c0-1.4,0.1-2.9,0.2-4.3c0.1-1.5,0.3-2.7,0.7-3.8c0.6-1.7,1-3.4,1.1-5.2c0.2-3,0-6.1-0.3-9c-0.1-0.7-0.1-1.3-0.2-2
	c-0.3-3.5-1.2-6.1-2.9-8.2c-1.6-2-2.7-4.4-3.5-7.9c-1.3-5.9-5.1-10-9.1-13.6c-0.3-0.3-0.6-0.4-0.9-0.6c-0.6-0.3-1.3-0.6-1.9-0.9
	c-1.6-0.8-3.3-1.6-4.9-2.3c-2.9-1.2-5.9-1.4-9-0.7c-1.5,0.3-3,0.4-4.6,0.4c-0.9,0-1.8,0-2.6,0c-2.8,0-5.6-0.1-8.4,0.8
	c0.1-1.1,0.2-1.2,1-1.9c2.1-1.9,4.6-2.4,7.1-2.6c0.3,0,0.6,0,0.8-0.1c0.8-0.1,1.6-0.1,2.4-0.3c2.3-0.6,5.3-1.9,5.7-5.8
	c0.1-1,0.6-1.9,1.5-2.6c0.6-0.5,1.3-0.9,1.9-1.3c0.4-0.3,0.8-0.5,1.2-0.8c0.5-0.3,1-0.7,1.5-1c1.5-1,3-2,4.4-3.1
	c1-0.8,1.8-1.9,2.4-3.1c1.1-2.2,1.7-4.7,1.8-7.4c0.1-1.4,0.1-2.8,0.2-4.2c0-0.8,0-1.6,0.1-2.3c0.1-2-0.5-2.9-2.3-3.7
	c-0.3-0.1-0.6-0.3-0.9-0.4c-1-0.5-2.1-0.9-3.1-1.3c-2.8-0.9-5.8-1.6-9-0.3c-1,0.4-2.1,0.7-3.4,0.3l-0.2-0.1
	c-1.1-0.4-2.1-0.7-2.8-1.6c-0.3-0.4-0.7-0.8-1.1-1.1c-0.3-0.3-0.5-0.5-0.8-0.8c-1.8-2-4.1-3-7.2-2.9c-3.3,0.1-6.4,1-9.2,2l-1.1,0.4
	c-3.6,1.3-7.3,2.7-11.3,2.6l-1.1,0c-3.6-0.1-7.3-0.1-10.9-0.7c-1.9-0.3-3.8-0.6-5.7-0.6c-7.9-0.1-14.4,3.2-19.3,9.8
	c-0.3-0.5-0.6-1-0.9-1.5c-0.8-1.4-1.6-2.8-2.6-3.9c-1.9-2.1-2.7-4.2-2.4-6.7c0.2-1.7-0.5-3.2-1.8-4.4c-2.3-2-4.7-3-7.4-3.2
	c-0.6,0-1.2,0-1.8,0c0,0,0,0,0,0c0.1-0.1,0.3-0.2,0.4-0.2c1-0.5,1.5-1,1.7-1.7c0.2-0.7,0-1.4-0.5-2.3c-0.8-1.3-2-2.2-3.5-2.5
	c-1-0.2-2.2-0.4-3.1,0.8c-0.3,0.4-0.6,0.8-0.8,1.2c0.2-0.7,0.5-1.4,1.1-2c0.8-1,0.8-2.1-0.1-3.2c-1.3-1.5-2.7-1.7-4.8-0.6
	c-0.8,0.4-1.3,1-1.4,1.7c-0.1,0.7,0.1,1.3,0.7,1.9c0.3,0.3,0.6,0.5,1,0.7c0.1,0,0.1,0.1,0.2,0.1c0,1.4-0.6,2.5-1.6,3.8l-0.1-0.2
	c-0.2-0.5-0.4-1-0.7-1.5c-0.3-0.8-0.5-1.4-0.2-2.2c0.5-1.1,0-2.3-1.2-3c-0.9-0.5-2.2-0.6-3.4-0.1c-0.2,0.1-0.4,0.2-0.6,0.3
	c-0.1-0.1-0.1-0.1-0.2-0.2c-1.5-1.9-3.1-3.8-4.8-5.5c-2.6-2.7-5.5-5.1-7.8-8.2c-2.8-3.9-5.6-7.8-7.2-12.3c-0.4-1.2-1.1-2.4-1.8-3.6
	c-3-4.9-7.4-8.3-12.3-11.2c-2.5-1.5-5.1-2.7-7.5-4.3c-5.1-3.4-9-8.1-12.3-13.2c-2.1-3.2-4.2-6.5-6.4-9.7c-4.5-6.6-10.8-10-18.6-11
	c-2.8-0.4-5.6-0.9-8.4-1.5c-2.5-0.6-4.7-1.7-6.7-3.3c-1.5-1.1-2.8-2.5-4.3-3.7c-3.1-2.3-6.2-4.5-9.3-6.7
	c-4.8-52,17.3-105.2,62.8-137.7c31.7-22.6,71.5-29,112.3-17.9c38.8,10.5,75,36.1,99.3,70.1c2.6,3.6,6.8,5.8,11.3,5.8
	c4.5,0,8.7-2.2,11.3-5.9c23.9-34.2,59.9-60.2,98.6-71.1c40.7-11.5,80.6-5.6,112.5,16.7c38.7,27,60.9,69,64.2,112.7
	c-3.5,0.5-6.9,1.5-10,3c-3.4,1.7-6.4,3.9-8.7,6.9c-3.3,4.4-4.1,11.3-6.2,15.4c-2.5,4.9-6.3,6.6-6.1,14.2c0.3,12.1,9,21.6,19.4,25.9
	c0.7,0.3,1.3,0.5,2,0.8c5.2,2,10.5,3.1,15.8,3.4c6,0.3,12-0.5,18-2.3c4.2-1.3,8-3.2,11.4-6c2.5-2,4.7-4.5,6.2-7.3
	c0.8-1.4,1.4-2.9,1.8-4.5c0.2-0.8,0.4-1.6,0.5-2.4C685.9,278,685.3,276.5,684.8,274.6z M41.2,246.3c1.8,0.8,3.5,1.5,5.3,2.3
	c1.6,0.7,3.3,1,4.8,2c0.5,0.3,1,0.6,1.5,1c1.2,0.8,2.4,1.6,3.6,2.4c1.4,1,3.5,1.9,4.4,3.5c0.9,1.6,1.5,3.7,2,5.4
	c1.1,3.9,1.7,7.9,2.1,12c0.1,0.8,0.1,1.7,0.2,2.7c-0.2-0.1-0.3-0.2-0.3-0.3c-1.7-2.6-3.1-5.4-4.9-7.8c-1.8-2.4-3.8-4.5-5.4-7.1
	c-0.3-0.5-0.7-1.1-1.1-1.6c-0.3-0.4-0.5-0.7-0.8-1.1c-1.5-1.8-3.1-3.5-4.6-5.2c-1.2-1.4-2.4-2.8-3.5-4.2c-0.3-0.4-3.4-3.6-3.3-3.9
	C41.2,246.4,41.2,246.4,41.2,246.3z M43.8,273.1c-0.2-0.1-0.3-0.4-0.3-0.7c-0.8-5.7-1.1-11.4-2-17c-0.2-1.1-0.3-2.1-0.5-3.2
	c-0.1-0.7,0-2.9-0.4-3.5c2.9,3.6,5.9,7.2,8.8,10.8c1.5,1.8,3,3.6,4.5,5.4c0.3,0.4,0.6,0.7,0.9,1.1c0.9,1.1,1.7,2.3,2.5,3.5
	c1.1,1.5,2.1,3.2,3.1,4.7c0.9,1.3,2.2,2.4,2.8,3.9c0.9,2,1.9,4,3.1,5.8c-1.8-0.7-3.3-1.2-4.8-1.8c-1.7-0.7-3.4-1.4-5.2-2.2
	c-2.2-0.9-4.5-1.9-6.6-3C47.5,275.9,45.7,274.4,43.8,273.1z M45.1,288.1c0-1,0.1-2.1,0.1-3.1c0-1.5-0.4-3.1-0.6-4.6
	c-0.2-1.8-0.5-3.6-0.7-5.4c0.5,0.4,0.8,0.7,1.1,0.9c2.6,2.2,5.8,3.6,9,4.8c0.9,0.3,1.7,0.7,2.6,1c3.5,1.3,6.9,2.6,10.4,3.9
	c0.2,0.1,0.5,0.2,0.7,0.5c3.4,5.4,6.3,11.1,9.8,16.5c1.4,2.3,3.3,4.3,4.8,6.6c-2.2-0.7-4.2-1.3-6.2-1.9c-4.4-1.3-8.7-2.5-13.1-3.8
	c-1.4-0.4-2.8-0.8-4.2-1.3c-4.6-1.5-8.8-3.9-12.8-6.7c-0.2-0.1-0.3-0.4-0.4-0.6C45.2,292.6,45.2,290.4,45.1,288.1z M53.1,320.9
	c-1.2-2.3-2.4-4.6-3.6-6.9c-0.6-1.1-1-2.6-1.3-3.7c-0.4-1.5-0.7-2.9-1.2-4.4c-0.2-0.7,0-1.5-0.1-2.2c-0.1-1.1-0.6-2.1-0.8-3.1
	c-0.1-0.6,0-3.3-0.5-3.6c0.7,0.5,1.2,0.9,1.7,1.3c4.4,3.2,9.3,5.3,14.5,6.7c0.6,0.2,1.1,0.3,1.7,0.5c6.4,1.8,12.8,3.5,19.2,5.3
	c0.2,0.1,0.4,0.1,0.6,0.2c0.2,0.1,0.3,0.2,0.4,0.4c1.3,1.8,2.5,3.7,3.8,5.6c0.9,1.4,1.7,2.9,2.7,4.2c1.3,1.8,2.8,3.2,4.4,4.8
	c0,0,0,0,0,0c1.2,1.3,2.2,3,3.2,4.4c-1.5-0.4-2.9-0.9-4.2-1.2c-0.3-0.1-0.6-0.2-0.9-0.2c-6.5-1.6-13.1-2.4-19.7-3.1
	c-0.7-0.1-1.4-0.2-2.1-0.2c-5.8-0.6-11.5-1.8-16.9-4.1C53.6,321.4,53.3,321.2,53.1,320.9z M58.6,341.6c-0.8-2.4-1.1-4.8-1.5-7.2
	c-0.2-1.1-0.4-2.2-0.6-3.4c-0.6-2.5-0.9-4.7-2-7.1c-0.1-0.2-0.1-0.3-0.2-0.6c1.4,0.5,2.6,1.1,3.9,1.5c3.9,1.3,7.9,2.1,12.1,2.6
	c1.3,0.1,2.6,0.3,3.9,0.4c6.5,0.7,12.9,1.5,19.3,3c0.6,0.1,1.1,0.3,1.6,0.4c1.3,0.3,2.5,0.7,3.8,1c0.5,0.1,0.9,0.5,1.3,0.9
	c1.4,1.4,15.8,16.5,14.7,18c0,0-0.1,0.1-0.1,0.1c-1-0.4-2-0.8-3.1-1.2c-0.6-0.2-1.2-0.4-1.8-0.5c-1.9-0.5-3.9-0.6-5.9-0.6
	c-5.1,0-10.1,0.1-15.2,0.1c-0.8,0-1.7,0-2.5,0c-3.6-0.1-7.3-0.4-10.9-0.7c-2.3-0.2-4.5-0.6-6.8-0.9c-2.7-0.4-5-1.5-7.3-2.9
	C59.9,343.9,59,342.9,58.6,341.6z M80.3,370.4c-0.2-0.1-0.4-0.3-0.5-0.5c-0.4-0.7-0.7-1.5-1.1-2.2c-0.8-1.8-1.5-4-2.8-5.6
	c-1.4-1.7-3.6-2.7-5.1-4.4c-1.5-1.6-3-2.9-4.4-4.5c-1.7-1.6-3-3.9-4.3-5.7c5.3,2.6,11,3,16.7,3.5c3.9,0.3,7.8,0.5,11.7,0.5
	c3.9,0,7.9-0.1,11.8-0.3c3.2-0.2,6.3,0.1,9.4,0.9c0.5,0.1,1.1,0.3,1.6,0.4c2.2,0.7,4,1.6,5.6,3.3c1.7,2,4,3.6,5.7,5.5
	c3.1,3.5,5.4,7.5,8,11.4c-1.6-0.4-3.3-0.9-4.9-1.2c-0.3-0.1-0.6-0.1-0.9-0.2c-2.2-0.3-4.4-0.5-6.5-0.4c-4.4,0.2-8.8,0.4-13.2,0.7
	c-3.4,0.2-6.8,0.3-10.2,0.4c-4.4,0.1-8.9-0.3-13.3-0.7C82.5,371.3,81.4,370.8,80.3,370.4z M97.1,392.4c-0.5-1.9-1-3.9-1.7-5.8
	c-0.4-0.9-0.7-1.9-1.3-2.8c-0.5-0.7-1.1-1-1.7-1.5c-1.6-1.4-3.3-3-4.8-4.6c-1.7-1.7-3.7-3.2-5.6-4.7c-0.1-0.1-0.2-0.2-0.3-0.4
	c1.2,0.2,2.5,0.4,3.7,0.5c5.4,0.9,10.9,0.9,16.4,0.5c2.2-0.2,4.5-0.3,6.7-0.4c3.7-0.2,7.3-0.3,11-0.6c3.3-0.2,6.6,0,9.8,0.6
	c0.6,0.1,1.2,0.3,1.9,0.4c0.9,0.2,1.9,0.6,2.8,0.9c0.1,0,0.2,0.2,0.3,0.3c0.8,1.1,1.6,2.2,2.4,3.4c-0.9,0.3-1.7,0.6-2.5,1
	c-5,2.5-8.1,6.5-9.1,12.1c-0.1,0.6-0.2,1.2-0.3,1.7c0,0.2,0,0.3-0.1,0.5c0,0.3-0.1,0.6-0.1,0.8c-1.9,0.2-3.8,0.4-5.8,0.6
	c-3,0.3-5.9,0.3-8.9,0.4c-2.8,0-5.5-0.1-8.3-0.3c-0.9,0-1.8-0.4-2.7-0.6C98,394.4,97.4,393.6,97.1,392.4z M107.1,404.2
	c-1.3-0.9-2.3-2-3.3-3.1c-1.4-1.5-2.9-2.9-4.4-4.4l0.2-0.2c0.8,0.2,1.6,0.4,2.4,0.5c4.5,0.6,9.1,0.6,13.6,0.3
	c2.9-0.2,5.8-0.5,8.7-0.8c-0.2,0.5-0.5,1-0.9,1.5c-1.1,1.3-1.7,2.7-1.7,4.4c0,0.6-0.4,1-1,1.2c-0.2,0.1-0.5,0.1-0.7,0.2
	c-1.5,0.3-2.9,0.7-4.4,1c-0.6,0.2-1.2,0.3-1.7,0.4c-1.2,0.3-2.4,0.6-3.6,0.9C109.3,405.5,108.1,404.9,107.1,404.2z M100,486.8
	c-1.9,0.9-3.1,0.2-4.8-0.7l-0.4-0.2c-0.7-0.4-1.2-1-1.8-1.6c-0.4-0.4-0.8-0.9-1.3-1.3c-0.6-0.5-1.3-0.8-2-1.1
	c-0.7-0.3-1.3-0.6-1.8-1c-1.4-1.1-2.2-2.5-3-3.9c-0.5-0.8-0.9-1.6-1.5-2.3c0-0.1-0.1-0.2-0.3-0.4c-0.9-1.3-1.6-2.2-2.1-2.9
	c-0.5-0.6-0.3-1.5,0.4-1.9c5.9-3,11.3-5.5,16.6-7.5c2.3-0.9,4.5-1.6,6.7-2.3c1.1-0.4,2.3-0.7,3.4-1l0.2,0c0.5-0.1,1.2-0.3,1.3-0.8
	c0-0.3-0.1-0.5-0.4-0.7c-0.8-0.6-2.3-0.1-3.4,0.2c-0.2,0-0.3,0.1-0.4,0.1c-0.6,0.2-1.1,0.3-1.7,0.5c-0.4,0.1-0.9,0.3-1.3,0.4
	c-2.4,0.7-4.8,1.4-7.5,2.4c-3.7,1.3-7,2.7-10.1,4.2l-0.1,0.1c-1.7,0.8-3.5,1.7-5.1,2.8c-0.8-0.2-1.1-0.3-1.9-0.5
	c-0.2-0.4-0.4-0.7-0.6-1.1c-1.2-2.2-2.4-4.5-3.5-6.8c-0.5-1-0.5-2.3-0.5-3.5c0-1.7,0.3-3.4,0.7-4.9c0.7-3.2,2.1-6.2,4-8.7
	c0.7-0.9,1.7-1.4,2.8-1.4c1.4,0,2.8-0.1,4.2-0.1c3.5-0.1,7-0.2,10.5-0.2c3.7,0,7.6,0.3,11.3,0.7c0.1,0,0.2,0,0.4,0.1
	c1.6,0.3,2.3,0.4,2.5-0.1c0.1-0.2,0.1-0.4,0.1-0.5c-0.1-0.3-0.3-0.4-0.5-0.5l-0.1-0.1c-0.5-0.3-1.2-0.4-1.7-0.4
	c-0.2,0-0.4,0-0.6-0.1c-1.2-0.2-2.4-0.4-3.7-0.6c-2.4-0.3-4.8-0.5-7.4-0.7c-2.4-0.1-4.9-0.2-7.6-0.2l-0.6,0c-1.2,0-2.2,0-3,0
	c-1.1,0-1.7-1.4-0.9-2.2c0.4-0.4,0.8-0.7,1.1-1.1c3.2-3.1,6.2-6,8.8-9.6l3.3-4.4c0,0,0.1-0.2,0.2-0.3c0.1-0.2,0.4-0.7,0.6-0.9
	c4.5,0,9,1.1,13.8,3.3c2.7,1.3,5.3,2.6,7.3,3.6c1.2,0.6,2.4,1.2,3.6,1.8l0.1,0c0.1,0.1,0.3,0.2,0.5,0.3c0.9,0.5,2.1,1.3,2.9,0.7
	c0.3-0.2,0.4-0.5,0.4-0.7c0-0.7-0.9-1.3-2.5-2.2c-0.2-0.1-0.3-0.2-0.4-0.2c-1.4-0.9-2.6-1.6-3.9-2.4c-2.8-1.6-5.4-2.9-8-4
	c-5-2.1-7.1-2.6-12.4-2.8c0.1-0.1,0.2-0.2,0.3-0.3c0.7-0.8,2.1-2.3,2.3-2.5c0.6-0.5,1.1-0.9,1.6-1.4c2.2-1.9,4.3-3.8,7.2-4.5
	c0.2-0.1,0.4-0.1,0.7-0.1c0.9-0.2,1.9-0.2,2.9-0.2c1.6,0,3.4,0.3,5.2,0.9c3.1,0.9,6.1,2.2,8.9,3.8c1,0.6,1.9,1.2,2.9,1.8
	c0.4,0.3,0.8,0.5,1.2,0.8l0.1,0.1c0.2,0.1,0.4,0.3,0.5,0.4c1.5,1.1,2.1,1.2,2.4,1c0.1-0.1,0.3-0.2,0.3-0.6c0-0.2-0.2-0.4-0.4-0.6
	c-0.2-0.2-0.4-0.4-0.7-0.6c-0.1-0.1-0.2-0.2-0.2-0.2c-0.2-0.2-0.4-0.4-0.6-0.6c-0.6-0.6-1.3-1.1-2-1.6c-4-2.9-8.4-4.2-13-5.9
	c1.9-0.3,3.7-0.9,5.6-1.3c3.2-0.8,6.5-1.2,9.9-1.3c3.1-0.1,6.2,0.1,9.4,0.6c1.8,0.3,3.6,0.7,5.3,1.2c1.9,0.5,3.7,1.4,5.4,2.5
	c0.6,0.4,1.3,0.8,1.9,1.2c0.6,0.4,1.2,0.8,1.8,1.2c2,1.4,4.1,2.9,6,4.6c0.5,0.4,0.9,0.9,1.4,1.3c0.1,0.1,0.1,0.1,0.2,0.2
	c1.8,1.8,3.5,3.7,5,5.6c0.5,0.6,1,1.3,1.5,1.9c1.8,2.4,3.4,4.9,4.8,7.5c0.6,1.2,1.2,2.3,1.8,3.5c1.8,3.3,3.6,6.8,5.3,10.3
	c1.5,3.2,2.9,6.5,4.3,9.6c0.5,1.2,1,2.3,1.5,3.5c-0.2-0.1-0.3-0.3-0.4-0.3c-0.5-0.6-0.9-1.1-1.2-1.7c-0.2-0.3-0.4-0.7-0.6-1
	c-0.1-0.2-0.3-0.5-0.4-0.7c0,0,0-0.1-0.1-0.1c-0.3-0.5-0.5-0.8-0.8-0.8c-0.4,0-0.5,0.2-0.6,0.3c-0.3,0.5,0.1,1.4,0.8,2.7
	c0,0.1,0.1,0.2,0.1,0.2l1.6,3.4c0.1,0.1,0.2,0.5,0.5,1c0.5,1,1.3,2.7,2,4c-0.3-0.4-0.6-0.8-0.9-1.1c-1.5-1.9-3-3.9-4.6-5.7
	c-0.9-1.1-1.9-2.1-2.9-3.1c-0.1-0.1-0.2-0.3-0.4-0.4c-0.3-0.4-0.7-0.9-1.2-1.1c-0.5-0.3-0.8-0.1-0.9,0c-0.2,0.2-0.3,0.6-0.1,1
	c0,0,0,0,0,0.1c0.2,0.5,0.7,1.1,1.2,1.6c0.2,0.2,0.4,0.5,0.6,0.7c1.3,1.7,2.5,3.2,3.5,4.6c1.8,2.5,3.5,4.8,4.9,7l-0.1-0.1
	c-1.6-1.5-3.2-3.1-4.8-4.6c-1.2-1.1-2.4-2.2-3.6-3.3c-0.6-0.5-1.2-1.1-1.8-1.6c-0.1-0.1-0.2-0.2-0.4-0.3c-0.4-0.4-0.8-0.8-1.3-1
	l-0.4-0.1l-0.1,0.4c-0.3,1.1,0.6,1.9,1.2,2.5c0.2,0.1,0.3,0.3,0.4,0.4l7.4,7.8c-1,0-2.3-0.3-3.4-0.9c-2.2-1.1-3.6-2.2-4.6-3.8
	c-1.9-2.9-4.9-5.1-9-6.7c-6.5-2.5-13.1-3.8-19.4-3.6c-4.1,0.1-8.2,0.4-12.2,0.7l-2.2,0.2c-1.1,0.1-2.2,0.4-3,0.9
	c-2.3,1.3-4.6,2.8-6.2,5.2c-0.7,1.1-1.7,2.2-3,3.3c-3.7,3.2-7.2,7-11.2,12.4C109.2,481.1,105.3,484.2,100,486.8z M133,531.1
	L133,531.1L133,531.1L133,531.1z M187.6,530c-3.1,0.8-6.4,0.4-10.4-0.9c-0.8-0.3-1.6-0.5-2.4-0.8c-1.1-0.4-2.2-0.8-3.4-1.1
	c-1-0.3-2.3-0.3-3.4-0.3c-0.3,0-0.6,0-0.9,0l0.4-1.1c0.5-1.2,0.9-2.5,1.3-3.7c0.7-1.8,1.3-3.7,1.9-5.5c0-0.1,0.1-0.2,0.2-0.4
	c0.6-1.4,1.2-2.9,0.8-3.7c-0.1-0.2-0.3-0.4-0.6-0.4c-0.8-0.2-1.2,1.2-1.5,2.4c-0.1,0.3-0.1,0.5-0.2,0.6c-0.5,1.2-1,2.3-1.6,3.5
	c-1.3,2.9-2.2,5.1-3.1,7.2c-0.5,1.1-1,1.5-2,1.5c-0.7,0-1.4,0.1-2.2,0.3c-0.2,0-0.4,0.1-0.5,0.1l0.6-1.2c0.6-1.3,1.1-2.4,1.6-3.6
	c0.8-1.8,1.5-3.7,2.2-5.4c0.4-0.9,0.7-1.8,1.1-2.8c0.3-0.8,0.6-1.7,1-2.5c0.1-0.3,0.3-0.6,0.4-1c0.2-0.5,0.4-1,0.6-1.5
	c0.3-0.9,0.3-1.4,0-1.6c-0.4-0.3-0.9,0.1-1,0.3c-0.4,0.4-0.6,0.9-0.8,1.4c-0.1,0.2-0.1,0.4-0.2,0.5c-0.5,1-1,2.1-1.5,3.1
	c-0.4,0.8-0.8,1.7-1.2,2.5c-0.6,1.2-1.1,2.4-1.7,3.6c-1.3,2.6-2.5,5.3-3.6,7.7c-0.3,0.7-0.7,1-1.4,1.2c-2.7,0.6-5.3,1.4-7.9,2.1
	c-3.8,1.1-7.8,1.2-12.7,0.5c-0.9-0.1-1.4-1.1-0.9-1.9c0-0.1,0.1-0.1,0.1-0.2c0.1-0.2,0.2-0.4,0.3-0.5c0.6-0.9,1.2-1.9,1.8-2.8
	c1.3-1.9,2.6-3.8,3.9-5.6c1.3-1.8,2.7-3.6,4.1-5.4c0.7-0.9,1.4-1.7,2.1-2.5c0.2-0.2,0.4-0.4,0.5-0.6c0.5-0.6,1.1-1.2,1.4-1.9
	l0.1-0.3l-0.2-0.2c-0.4-0.3-1.4,0.3-1.4,0.3c-0.4,0.2-0.7,0.6-1,0.9c-0.1,0.1-0.2,0.2-0.3,0.3c-0.8,0.7-1.6,1.5-2.3,2.3
	c-1.4,1.5-2.9,3.2-4.4,5.1c-2.4,3.1-5.1,6.8-7.5,10.9c-0.3,0.6-1,0.8-1.6,0.6c-2.2-0.9-4.3-2.7-5.8-4c-0.6-0.5-3.6-3.8-5.1-5.5
	c-0.4-0.5-0.4-1.1,0-1.6c2.1-2.6,4.5-5.3,7-7.8c1.4-1.4,2.8-2.8,4.4-4.1c0.7-0.7,1.5-1.3,2.2-1.9c1.8-1.5,1.5-1.9,1.4-2.1
	c-0.2-0.4-0.8-0.2-1-0.2c-1.3,0.4-2.6,1.6-3.6,2.5c-0.3,0.2-0.5,0.4-0.7,0.6c-2.6,2.2-4.7,4.1-6.5,5.9c-1.4,1.4-2.7,2.9-4,4.4
	c-0.3,0.3-0.6,0.7-0.9,1c-0.4,0.5-1.1,0.6-1.6,0.3c-2.5-1.5-4.2-3.7-5.1-6.7c-0.9-3.1-1.4-6.7-1.5-10.2c0-0.7,0-1.5,0.1-2.3
	c0-0.7,0.1-1.5,0.1-2.3c0-0.8,0.3-1.3,1.1-1.9c4-3.1,8.6-6.1,14.6-9.5l1.5-0.9l-0.2-0.9l-0.3,0c-0.1,0-0.2,0-0.3,0
	c-0.3,0-0.6,0-0.9,0.1c-4.1,1.2-7.7,3.4-10.7,5.4c-0.6,0.4-1.1,0.8-1.7,1.2c-0.4,0.3-0.8,0.5-1.1,0.8c-0.5,0.3-0.6,0.4-1.4,0.2
	c0.1-0.4,0.2-0.7,0.3-1.1c0.2-0.8,0.4-1.5,0.7-2.3c1.4-3.6,3.2-7.2,5.7-11.1c1.9-3,4.5-5.5,7-7.8c1.7-1.6,3.4-3.4,5.2-5.5
	c2.3-2.8,4.8-4.2,7.7-4.3c2.7-0.1,6-0.3,9.3-0.5l1-0.1c2.3-0.2,4.6-0.3,6.9-0.1c0,0,0.1,0,0.1,0c6.5,0.6,12.1,2.1,17,4.6
	c1.9,1,3.5,1.9,4.1,3.9c0.1,0.3,0.4,0.5,0.6,0.7c0.1,0.1,0.2,0.1,0.3,0.2c0.4,0.4,0.8,0.9,1.3,1.4l0.1,0.1
	c-4.3,0.2-8.1,0.6-11.8,1.4c-4.2,0.9-8.2,2.1-11.8,3.8c-1.9,0.9-3.8,1.9-5.5,2.9c-0.9,0.6-1.8,1.2-2.7,1.8c-0.2,0.1-0.3,0.2-0.5,0.3
	c-0.6,0.4-1.3,0.8-1.6,1.5l-0.1,0.2l0.2,0.2c0.6,0.6,1.4,0,1.8-0.3c0.1-0.1,0.2-0.2,0.3-0.2c6.9-4,15.2-6.6,25.3-8
	c2-0.3,4.1-0.2,6.1-0.1c0.5,0,0.9,0,1.4,0.1c0.9,0,1.7,0.3,2.4,0.6c0.8,0.5,0.8,1.7,0,2.2c-1.7,1-3.9,2.4-3.9,2.5
	c-3.5,2.4-6.7,5-9.4,7.8c-1.4,1.5-2.8,3.1-4,4.7c-0.6,0.8-1.2,1.7-1.8,2.6c-0.1,0.1-0.2,0.3-0.4,0.5c-0.7,0.9-1.2,1.7-1.2,2.4
	c0.1,0.5,0.3,0.6,0.5,0.7c0.4,0.1,0.8-0.3,1.2-0.7c5.3-6.5,11.6-12.1,18.7-16.5c0.8-0.5,1.6-1,2.5-1.4c0.4-0.2,0.8-0.4,1.2-0.6
	c0.4-0.2,0.9-0.2,1.5,0c2.2,1,4.8,5,5.1,6.4c0.1,0.3-0.1,0.7-0.2,1.1c0,0.1-0.1,0.2-0.1,0.3c-1.3,4.4-2.7,8.9-4,13.3
	c-0.3,0.9-0.6,1.8-0.8,2.7c0,0.1-0.1,0.3-0.2,0.5c-0.6,1.6-0.9,2.4-0.5,2.8c0.2,0.2,0.4,0.3,0.6,0.3c0,0,0.1,0,0.1,0
	c0.5-0.1,0.8-0.8,1.1-1.5c0-0.1,0.1-0.2,0.1-0.2c0.4-0.8,0.7-1.5,1.1-2.3c0,0,0-0.1,0-0.1c0.8-1.7,1.4-3.3,2.1-4.9
	c0.3-0.8,0.6-1.7,0.9-2.5c0.9-2.5,1.6-5,2.1-7.4c0.2-0.7,0.4-1.1,1-1.3c0.5-0.2,0.9-0.4,1.4-0.7l0.4-0.2c0.8,1,1.1,2.2,1.5,3.4
	l0.2,0.6c0.1,0.3,0.2,0.6,0.3,1c0.2,0.8,0.4,1.6,0.5,2.5c0.5,3.1,0.4,6.4-0.2,10c-0.5,2.7-1,5.3-1.5,7.5c-0.2,1-0.4,2-0.7,3l-0.2,1
	c-0.1,0.2-0.1,0.5-0.2,0.7c-0.2,0.7-0.3,1.4-0.4,2.1c0,0.2,0,0.5,0.1,0.8c0.1,0.5,0.3,0.7,0.6,0.8c0.6,0.1,1-0.9,1.1-1.1
	c0.3-0.8,0.6-1.5,0.9-2.3c0.1-0.2,0.1-0.4,0.2-0.6c0.5-1.4,1-2.8,1.4-4.2c1-3.3,1.7-6.6,2-9.7c0.3-3.5,0.2-6.5-0.3-9.2
	c-0.1-0.6-0.3-1.2-0.4-1.8c-0.1-0.2-0.1-0.4-0.1-0.6c-0.2-1.5,0.4-2.8,1.4-4.2c0.1-0.2,0.2-0.2,0.2-0.2c0.6-0.2,1.1-0.4,1.7-0.6
	c0.6-0.2,1.2-0.4,1.8-0.7c1-0.4,1.9-0.7,2.9-1.1c0.2-0.1,0.4-0.2,0.7-0.3c0.9-0.4,1.6-0.7,2.4-0.4c1.1,0.4,2.8,2.4,3.9,4
	c0.2,0.3,0.4,0.6,0.6,0.9c0.2,0.3,0.3,0.5,0.5,0.8c0.3,0.5,0.6,1,0.9,1.4c0.6,0.8,1.3,1.5,2.4,2.2c0.1,0.1,0.2,0.1,0.3,0.1
	c0.1,0.1,0.2,0.1,0.4,0.2c1.4,1.1,2.3,2.2,1.8,3.9c-0.2,0.7-0.1,1.6,0.3,2.8c0.6,1.8,0.2,3.4-1.2,4.9c-0.1,0.1-0.1,0.1-0.2,0.2
	c-0.7,0.7-1.5,1.3-2.4,1.9c-0.9,0.6-1.8,1.2-2.7,1.7c-1.3,0.8-2.5,1.5-3.6,2.4c-0.4,0.3-0.8,0.6-1.2,1c-2.7,2.3-5.3,5-7.9,8.4
	l-0.6,0.8c-2.5,3.3-5,6.7-8.3,9.4C192.2,528.2,189.9,529.4,187.6,530z M215.4,579c-2.5-3.2-5-6.3-7.5-9.5c-1-1.2-1.9-2.4-2.9-3.6
	c-0.4-0.6-0.9-1.1-1.3-1.7c-1.4-1.9-2.1-3.9-2.1-6.2c0-3.7,0.5-7.4,1.4-11c0.1-0.5,0.3-1,0.4-1.5c0.5-4.7,3.1-8.3,5.8-11.9
	c0.3-0.4,0.6-0.7,0.7-1.2c-0.3,0.2-0.6,0.3-0.8,0.6c-2.3,2.3-4.6,4.5-6.6,7.1c-1.9,2.4-4.2,4.6-6.1,7.1c-1.2,1.4-2.5,1.1-3.3-0.4
	c-2.1-4.3-4-8.6-5.1-13.3c0.5-0.1,1.1-0.3,1.6-0.5c2.7-1.1,5.4-2.7,7.8-4.9c3.1-2.8,5.7-6.1,8.1-9.3c0.4-0.6,0.9-1.1,1.3-1.7
	c3.8-4.9,7.8-8.4,12.5-10.9l0.3-0.2c0.4-0.2,0.7-0.4,1.1-0.6c0.6-0.4,1.2-0.9,1.8-1.3c0.5-0.4,0.9-0.8,1.4-1.3
	c0.6-0.6,1.1-1.2,1.5-2c0.3-0.6,0.6-1.2,0.7-1.9c0.2-0.7,0.2-1.4,0.3-2c0-0.1,0-0.2,0-0.3l0.6,0.4c0.8,0.6,1.7,1.2,2.5,1.7
	c0.4,0.3,0.8,0.5,1.2,0.8c0.7,0.4,1.3,0.8,2,1.2c0.1,0,0.1,0.1,0.2,0.1c0.2,0.1,0.4,0.2,0.6,0.3c0.9,0.5,1.8,1,2.7,1.3
	c0.4,0.1,0.9,0.3,1.2,0.4c0.8,0.6,1.6,1.2,2.2,2c0.2,0.3,0.6,0.8,0.6,1.1c0,0.5-0.6,1.4-0.8,1.8c-1.1,2.3-2.6,4.4-4.3,6.3
	c-0.1,0.2-0.3,0.3-0.4,0.5c-2.1,2.4-4,4.9-5.7,7.5c-1.6,2.6-3.5,5-5.3,7.5c-3.6,5-5.8,10.6-6.6,16.8c-1.1,9.1-1.7,18.3-1.4,27.5
	c0.1,2,0.4,4,0.6,6.2C215.9,579.5,215.6,579.3,215.4,579z M336.7,585.2c-0.4,0-0.9,0-1.3,0.1c-2.4,0.5-4.4,1.3-6.7,2.3
	c-0.7,0.3-1.4,0.6-2.1,1c-0.4,0.2-0.9,0.4-1.3,0.7c-0.8,0.4-1.5,0.7-2.3,1.1c-0.8,0.4-1.7,0.4-2.6,0.7c-1,0.3-1.6,0.9-2.5,1.3
	c-0.9,0.5-1.9,0.8-2.8,1c-0.7,0.2-1.3,0.3-2,0.5c-1,0.3-2.1,0.4-3.1,0.5c-1.9,0.1-3.8-0.3-5.4-1.7c-1.3-1.1-2.3-2.4-2.9-4
	c-0.6-1.7-1.3-3.4-1.9-5.2c-0.5-1.3-0.9-2.6-1.3-3.8c-1-3-1.9-6-3-8.9c-1-2.7-2.8-4.6-5.4-5.9c-0.6-0.3-1.3-0.6-2-0.8
	c-2-0.5-3.4,0.5-3.5,2.6c0,0.2,0,0.4,0,0.6c-0.1,1.6-0.2,3.2,0,4.7c0.8,6.1,1.8,12.2,4.4,17.8c1,2.1,2.2,4.2,3.4,6.2
	c0.4,0.8,0.9,1.5,1.3,2.3c0.1,0.2-2,0.1-2.1,0.1c-0.6,0-1.2-0.1-1.8-0.1c-1.6,0.1-3.3,0.2-4.9,0.2c-1.7,0-3.3,0-4.9-0.2
	c-2.2-0.3-4.6-0.1-6.7-0.9c-1.8-0.7-3.7-1.8-4.6-3.5c-1.1-2-1.9-4.2-2.3-6.5c-0.5-3.2-0.8-6.3-0.6-9.5c0.2-4.6-0.1-9.2-0.8-13.7
	c-0.6-3.3-1.8-6.4-4.4-8.7c-3-2.7-6.2-2.1-7.7,1.7c-0.9,2.3-1.4,4.6-1,7.1c0.6,4.6,1.7,9,3.4,13.4c1.7,4.6,3.8,9,6.1,13.4
	c0.8,1.4,1.4,2.9,2.1,4.3c0.3,0.6,0.3,1.3,0.6,2.2c-0.1-0.4-6.7,0.4-7.2,0.4c-1,0.1-2,0.2-3.1,0.4c-0.9,0.1-1.8,0.5-2.7,0.5
	c-0.7,0-1.4-0.2-2-0.2c-0.4,0-0.8,0.1-1.2,0.1c-1,0.1-2,0.1-3,0.1c-2.8,0-5.5-0.5-8-1.7c-2.2-1.1-4.5-2.4-5.6-4.7
	c-0.7-1.4-1.1-3-1-4.6c0.2-4.2,0.9-8.2,2.4-12.1c2.3-5.9,3.6-11.9,3.7-18.2c0.1-3.3-0.7-6.3-1.9-9.3c-0.6-1.4-1.6-2.3-3-2.9
	c-1.3-0.6-2.5-0.5-3.4,0.5c-0.8,0.9-1.7,1.9-2.3,2.9c-1.1,2-1.8,4.2-1.9,6.5c-0.5,7-0.1,14,0.9,21c0.4,2.5,0.1,5.1-0.1,7.6
	c0,0.2,0,0.4-0.1,0.5c-0.5,1.7-1.3,2.1-2.9,1.3c-0.6-0.3-1.2-0.8-1.7-1.3c-1-1.1-1.9-2.2-2.9-3.3c0.1-0.6,0.1-1.1,0.1-1.6
	c0.2-11.3,1.1-22.5,2.6-33.6c0.7-5.7,2.9-10.9,6.3-15.6c2.5-3.4,4.8-7,7.2-10.5c0.6-0.8,1.2-1.6,1.9-2.3c0.4-0.5,0.8-0.9,1.2-1.4
	c2-2.4,3.7-5,5-8c0.1-0.2,0.2-0.4,0.3-0.6c0.2-0.3,9.2,5.9,10,6.6c1.5,1.3,0.9,2.7,0.8,4.5c-0.1,2.1-0.4,4.2-1,6.3
	c-0.6,1.8-1.1,3.7-1.6,5.6c-0.4,1.3-0.7,2.5-1.1,3.8c-1,3.4-2.4,6.8-3.2,10.3c-3.2,12.4-3.2,24.8-0.5,37.3c0.7,3.2,1.7,6.4,3.4,9.3
	c0.4,0.6,0.8,1.1,1.5,1.6c0-0.2,0-0.4-0.1-0.6c-0.7-2.3-1.6-4.6-2-7c-1.7-8.5-2.7-17-2.1-25.7c0.5-7.4,1.8-14.6,4.3-21.6
	c0.6-1.8,1.2-3.6,1.7-5.4c0.8-2.7,1.5-5.4,2.2-8.1c0.4-1.5,0.5-3.1,0.7-4.7c0.1-0.6,0.1-1.1,0.1-2c2.6,2.2,5.2,4.3,7.9,6.3
	c1.4,1,2.7,2,4.2,2.9c1.3,0.9,2.7,1.5,3.9,2.7c2.1,2.2,3.4,5.3,3.3,8.3c-0.1,2.9-0.3,5.8-0.5,8.6c-0.1,1.3-0.2,2.7-0.4,4
	c-0.2,1.4-0.3,2.7-0.4,4.1c-0.5,7.2,0.6,14.3,2.2,21.4c0.9,4,2.5,7.8,4.8,11.2c0.9,1.3,1.9,2.5,3.1,4.1c-0.1-0.7-0.1-1-0.2-1.4
	c-0.4-0.8-0.7-1.7-1.2-2.4c-2.1-2.6-2.9-5.8-3.6-9c-1.3-5.8-2.2-11.6-2.5-17.5c-0.1-1.2,0-2.4,0-3.6c0.1-2.3,0.3-4.6,0.4-6.9
	c0.1-1.9,0.3-3.9,0.5-5.8c0.2-1.7-0.1-6.1,0.9-8.6c0.5-1.2,1.3-1.9,2.6-1.6c3.2,0.6,5.6,4.5,8.4,6.1c1.1,0.6,2,1.3,3,2.1
	c1.1,0.9,2.3,1.5,3,2.8c1,1.7,1.4,3.6,1.8,5.5c0.5,2.2,1,4.5,1.5,6.7c0.5,2.3,1.1,4.5,1.7,6.7c0.6,2.2,1.4,4.4,2.5,6.4
	c2.5,4.5,5.2,8.9,8,13.2c1.1,1.8,2.7,3.3,4,4.9c0.3,0.3,0.7,0.6,1.3,0.7c-0.1-0.3-0.3-0.7-0.4-1c-3-5.3-6.1-10.7-9.2-16
	c-2.1-3.7-3.7-7.5-4.7-11.6c0,0,0,0,0,0c-1-4.3-2.2-8.6-3.3-12.9c0-0.2,0-0.3-0.1-0.7c0.9,0.5,1.8,1.1,2.5,1.8
	c1.5,1.4,3.3,2.7,4.8,4.1c1.4,1.3,3.1,2.2,4.5,3.5c5.3,4.5,10.5,9.1,15.8,13.5c3.1,2.6,6.3,5,9.4,7.7c2.8,2.4,5.5,5.1,8.2,7.6
	c0.1,0.1,0.1,0.2,0.2,0.5C340.5,586,338.6,585.3,336.7,585.2z M335.6,522.2c-1.3,0.3-2.4,0.2-3.6,0c-3.4-0.7-6.7-1.5-10.1-2.2
	c-2.8-0.6-5.6-0.5-8.3-0.2c-1.6,0.2-3,0.6-4.1,1.9c-1,1.1-1.1,2.1-0.4,3.4c0.8,1.5,2.2,2.4,3.7,2.8c2.7,0.8,5.5,1.6,8.3,2.1
	c4.8,0.8,9.4,2,14,3.6c1.7,0.6,3,1.5,3.8,3.2c0.8,1.8,1.8,3.5,2.7,5.2c1.1,2.2,1.8,5.6,1.6,8.1c-0.4,4.2-0.8,8.3-1.2,12.7
	c-0.6-0.1-1.3-0.1-1.9-0.1c-1.9-0.2-3.8-0.5-5.7-0.6c-1-0.1-2,0.1-3,0.3c-1.3,0.4-1.7,1.6-0.9,2.7c0.7,0.9,1.6,1.6,2.5,2.2
	c1.6,1.1,3.4,2,5,3c1.1,0.6,1.7,1.5,2.1,2.7c0.9,3.2,1.9,6.3,2.8,9.5c0.2,0.8,0.3,1.6,0.3,2.5c-2.3-1.6-3.9-3.9-5.9-5.7
	c-2.1-1.9-4.1-3.7-6.3-5.5c-3.2-2.7-6.6-5.2-9.6-8c-1.9-1.8-3.8-3.7-6-5.2c-2-1.5-3.7-3.1-5.6-4.8c-1.8-1.6-3.6-3.1-5.5-4.7
	c-0.8-0.6-1.3-1.3-2.1-1.9c-0.9-0.7-1.8-1.4-2.7-2.2c-1.1-1-2.4-1.8-3.5-2.9c0.7,0,1,0,1.4-0.1c1.5-0.1,3.1-0.1,4.6-0.3
	c4.1-0.7,8.1-0.9,12.2-1c4.5-0.1,8.8,1.2,13,2.7c3.7,1.3,7.3,2.8,10.7,4.9c0.1,0.1,0.3,0.1,0.8,0.1c-0.4-0.4-0.5-0.7-0.8-0.9
	c-7.7-6.1-16.3-9.7-26.3-9.1c-2.5,0.1-5,0.3-7.5,0.5c-2.7,0.3-5.5,0.1-8.2-0.4c-2.5-0.4-5.3-0.7-7.4-2.3c-5.4-4.3-12.1-8.1-17-12.9
	c-0.8-0.8-1.5-1.8-2.3-2.5c-0.5-0.4-1-0.7-1.4-1.2c-0.4-0.5,1.3-1.3,1.5-1.4c4.1-2.1,8.4-3.6,12.8-4.6c4.3-1,8.6-1.9,12.8-3
	c4.9-1.4,9.9-1.8,15-1.1c7.1,1,14,2.6,20.9,4.4c1.4,0.4,2.8,0.7,4.3,1.1C335.7,518.5,335.8,520.3,335.6,522.2z M323.3,496.4
	c2.3,1.3,4.7,3.1,6,5.4c0.6,1,1.2,2,1.8,2.9c1,1.7,2.2,3.9,2.6,5.8c0.4,2,1.2,3.7,1.6,5.8c-2.9-1-5.5-2-8.2-2.9
	c-5.6-1.9-11.4-3.5-17.3-4.3c-5.1-0.7-10.2-0.3-15.2,1c-4.3,1.2-8.8,2.1-13.1,3.1c-5.5,1.3-11.1,2.6-16.6,3.9
	c-2.5,0.6-4.8-1.5-6.3-3.3c-1-1.1-2.1-2.2-3.2-3.2c2.2-1.5,4.8-1.9,8-1.2l1.7,0.4c1.9,0.4,3.9,0.8,5.9,1.2c1.6,0.3,3.5,0.6,5.5,0.8
	c2.4,0.2,4.5-0.3,6.2-1.6c0.6-0.5,1.3-0.9,2-1.4c2.7-1.8,5.4-3.8,7.3-6.6c0.4,0,0.7-0.1,1.1-0.1c4.6-0.7,9.1-1.6,13.5-3
	c1.5-0.5,3-1.2,4.4-1.8c1.5-0.6,3-1.2,4.4-1.8C318.3,494.5,320.9,495,323.3,496.4z M298.2,499c3.4-1.2,5.8-2.8,7.6-5.1
	c0.5,0.1,1,0.2,1.5,0.4c0.8,0.2,1.6,0.6,2.5,0.9c0,0.1,0,0.3-0.1,0.4c-0.8,0.3-1.6,0.8-2.4,1c-2.9,0.8-5.8,1.6-8.8,2.3
	C298.4,499,298.3,499,298.2,499z M316.7,489.1c0,0.1,0,0.2,0,0.4c-0.2,1.3-1.4,1.5-2.4,1.8c-0.9,0.2-1.8,0.8-2.8,0.9
	c-0.8,0.1-1.4-0.1-2.2,0c-0.7,0.1-1.5,0.2-2.2,0.1c0.5-0.7,1.1-1.4,1.6-2.1c0.7-0.9,1.5-1.9,2.2-2.8c0.3-0.4,0.7-0.9,1-1.4
	c0.6,0.1,1.2,0.1,1.8,0.2C315.1,486.4,316.7,487.6,316.7,489.1z M314.2,484.5c0.2,0.3,0.3,0.6,0.6,1.1c-0.7-0.1-1.2-0.2-1.7-0.3
	c-0.2-0.1-0.5-0.1-0.7-0.2c0.1-0.2,0.2-0.3,0.3-0.5c0.2-0.5,0.4-1,0.6-1.6C313.6,483.6,313.9,484.1,314.2,484.5z M268.9,421.2
	c1.6-0.5,3.3-0.8,5.5-0.7c2.1,0,4.1,0.1,6.1,0c1.3,0,2.4-0.2,3.5-0.5c2.7-0.7,5.3-0.5,8.1,0.7c1.4,0.6,2.9,1.3,4.3,2
	c0.6,0.3,1.1,0.5,1.8,0.9c0.2,0.1,0.4,0.2,0.5,0.3c4.3,3.9,6.8,8,8.6,14.1c0.2,0.5,0.3,1.1,0.4,1.6c-0.7-0.1-1.9-0.2-4.2-0.3
	c-0.4,0-0.6,0-0.7,0c-2-0.1-3.8-0.2-5.5-0.3c-2-0.1-3.9,0-5.7,0c-0.1,0-0.3,0-0.5,0c-1.9,0-4,0.1-4.2,1.2c0,0.1,0,0.3,0.1,0.4
	c0.3,0.4,1.4,0.6,4.1,0.7c0.2,0,0.3,0,0.4,0c1.7,0.1,3.4,0.2,5.1,0.3c4,0.3,7.2,0.4,10.1,0.6c2.5,0.1,3.9,2.9,5,5.2
	c0.2,0.4,0.3,0.7,0.5,1.1c1.8,3.6,1.6,9.4,1.1,14.7c-0.1,0.7-0.2,1.3-0.3,1.8c-0.2,0.7-1,1.1-1.7,0.8c-2.3-1-5-1.9-8.1-2.5
	c-0.1,0-0.2,0-0.3-0.1c-1.8-0.5-3.1-0.7-3.6-0.3c-0.2,0.1-0.2,0.3-0.3,0.5c0,0.7,1.1,1,1.8,1.3l0.2,0.1c1.2,0.4,2.5,0.8,3.7,1.3
	c1.4,0.5,2.6,0.9,3.7,1.4c0.1,0,0.2,0.1,0.4,0.2c0.8,0.3,1.5,0.5,2,0.7c0.5,0.2,0.8,0.7,0.8,1.2l-0.1,2.7c0,0.9-1,1.5-1.8,1.1
	c-0.5-0.3-1.1-0.5-1.6-0.8c-2.2-1.9-5.2-3.4-8.3-4c-1.2-0.6-2.4-1.2-3.6-1.7c-2-0.9-4.1-1.7-6.4-2.4c-0.3-0.1-0.6-0.2-1-0.3
	c-1.2-0.4-2.5-0.7-3.9-1c0,0,0,0,0,0c-0.1,0-0.3-0.1-0.4-0.1c-0.5-0.2-1.1-0.4-1.6-0.2c-0.4,0.2-0.6,0.4-0.5,0.7
	c0,0.1,0,0.1,0.1,0.2c0.2,0.4,0.8,0.6,1.6,0.8c0.1,0,0.2,0.1,0.3,0.1c0.5,0.2,1,0.4,1.5,0.5c0.6,0.2,1.2,0.5,1.8,0.7
	c2,0.8,4.1,1.7,6.2,2.6c0.1,0,0.2,0.1,0.3,0.1c1.4,0.6,2.8,1.3,4.2,2c2.6,1.3,5.2,2.7,8.1,4.3c0.6,0.3,1.2,0.7,1.8,1
	c0.3,0.4,0.6,0.8,0.9,1.2c0.7,1,1.4,2,2.1,3c-0.3,1.8-0.9,3.3-1.7,4.6c-0.1,0.2-0.3,0.4-0.5,0.7c-0.1,0.2-0.2,0.3-0.4,0.5
	c-0.6,0.8-1.2,1.6-1.8,2.4c-0.9,1.3-1.9,2.6-2.9,3.9c-0.4,0.5-0.8,1-1.3,1.5c-0.2,0.3-0.5,0.6-0.7,0.8c-0.1,0.1-0.3,0.2-0.4,0.3
	c-0.3,0.1-0.9,0.3-1.3,0.5c-0.3,0.1-0.6,0.2-0.8,0.3c-0.5,0.2-1.1,0-1.4-0.4c-0.4-0.5-0.9-1.1-1.3-1.6c-0.6-0.7-1.3-1.3-2-1.8
	c-2.3-2-4.9-3.6-7.5-5.1c-0.6-0.4-1.3-0.7-1.9-1.1l-0.4-0.2l-0.7,0.8l0.9,0.7l1.3,1c1.4,1.1,2.9,2.3,4.3,3.5
	c0.3,0.3,0.6,0.5,0.9,0.8c0.6,0.5,1.3,1.1,1.9,1.7c0.5,0.4,1,0.9,1.5,1.4c0.7,0.7,0.4,1.8-0.5,2.1l-1.6,0.6
	c-0.4,0.1-0.8,0.1-1.2-0.2c-1-0.8-2.1-1.6-3.2-2.4c-0.6-0.4-1.2-0.8-1.8-1.3c-2.8-1.9-5.8-3.7-9-5.4c-0.9-0.5-1.8-1-2.8-1.4
	c-1-0.5-2.1-1-3.1-1.5c-0.1,0-0.2-0.1-0.4-0.2c-1.7-0.9-2.9-1.4-3.6-1.2c-0.2,0.1-0.4,0.2-0.4,0.4c-0.1,0.3,0,0.6,0.2,0.9
	c0.5,0.5,1.2,0.9,1.8,1.2c0.2,0.1,0.5,0.2,0.7,0.4c0.7,0.4,1.5,0.9,2.2,1.3c0.3,0.2,0.5,0.3,0.8,0.5c0.6,0.3,1.1,0.7,1.7,1
	c1.4,0.8,2.9,1.7,4.3,2.5c1.9,1.2,3.6,2.2,5.3,3.3c0.6,0.4,1.2,0.8,1.8,1.2c1.2,0.8,2.3,1.6,3.4,2.4c0.4,0.3,0.6,0.7,0.5,1.2
	c0,0.3-0.1,0.5-0.3,0.7c-0.4,0.4-0.9,0.9-1.4,1.4c-2.1,2-5.1,4.4-5.8,4.9c-3.9,2.5-9.6,1.3-14.6,0.1c-1.4-0.3-2.7-0.6-4-0.8
	c-3.8-0.6-6.8-0.1-9.4,1.6c-0.4,0.3-1,0.4-1.5,0.4c0,0,0,0,0,0c-0.7-0.1-1.3-0.3-1.9-0.4c-0.4-0.1-0.9-0.3-1.2-0.4
	c-2.8-1.2-5.3-2.9-7.3-5c-1.4-1.4-3.1-2.4-5.2-3c-0.7-0.2-1.5-0.6-2.2-1.1c-0.2-0.1-0.4-0.2-0.6-0.3c-0.3-0.2-0.7-0.4-1-0.7
	c-0.5-0.3-1-0.7-1.6-1c-1-0.5-2-1.1-2.9-1.9c-0.8-0.7-1.6-1.6-2.3-2.7c-0.1-0.1-0.1-0.2-0.2-0.3c-0.1-0.1-0.1-0.2-0.2-0.3
	c-0.1-0.1-0.1-0.1-0.2-0.2c-0.2-0.3-0.3-0.5-0.5-0.8c0-0.1-0.1-0.1-0.1-0.2c-0.6-1.2-1.3-2.2-2.2-3c-0.7-0.7-1.5-1.3-2.4-1.7
	c0,0-0.1,0-0.1-0.1c-0.8-0.4-1.5-1.1-2-2c-0.1-0.2-0.3-0.5-0.4-0.7c-0.1-0.3-0.3-0.7-0.4-1c-0.7-1.6-1.7-3-3.1-4.5
	c-0.4-0.4-0.6-0.8-0.5-1.3c0.1-1,1.5-2,2.5-2.8c0.2-0.2,0.5-0.3,0.7-0.5c0,0,0,0,0.1-0.1c0.2-0.2,0.5-0.4,0.8-0.7
	c0.7-0.6,1.5-1.3,2.1-1.5c0.3-0.1,0.6-0.1,1-0.1c0.4,0,0.8,0.2,1.2,0.3c0.7,0.3,1.4,0.7,2,1.1c0.2,0.1,0.4,0.3,0.6,0.4
	c0.2,0.1,0.3,0.2,0.5,0.3c0.8,0.5,1.6,0.9,2.4,1.4c3.1,2,6.1,4.3,9.4,6.9l1.5,1.2c1.7,1.4,3.5,2.8,5.3,4.2c0.6,0.5,1.2,0.9,1.8,1.4
	c0.9,0.7,1.9,1.5,2.8,2.2c4.2,3.3,5.1,2.9,5.3,2.8c0.2-0.1,0.4-0.3,0.4-0.6c0.1-0.8-1.1-1.6-2.1-2.3c-0.3-0.2-0.5-0.3-0.6-0.4
	c-1-0.9-2-1.7-3-2.6c-0.7-0.6-1.4-1.2-2-1.7c-0.7-0.6-1.3-1.1-2-1.6c-0.8-0.7-1.6-1.3-2.3-1.9c-3.6-3-7.5-6-11.5-8.9
	c-0.9-0.7-1.9-1.3-3-1.9c-0.8-0.5-1.6-0.9-2.4-1.3c-0.8-0.4-1.5-0.7-2.3-1.1c-0.7-0.3-1-1.2-0.6-1.8c0.7-1.2,1.9-2.1,3.3-2.4
	c0.3-0.1,0.6-0.1,1-0.2c0.9-0.2,1.9-0.3,2.9-0.4c2-0.1,4,0,6.1,0.3c0.5,0.1,1,0.2,1.6,0.3c1.4,0.3,2.9,0.7,4.4,1.2
	c0.1,0,0.2,0.1,0.4,0.1c0.5,0.2,1,0.3,1.4,0.5c1.8,0.6,3.6,1.4,5.4,2.2c0.7,0.3,1.4,0.6,2.2,1c1.8,0.8,3.6,1.7,5.6,2.8
	c0.2,0.1,0.5,0.3,0.8,0.5c0.8,0.5,1.7,1,2.5,1.1c0,0,0,0,0,0c0.5,0,0.8-0.1,0.9-0.4c0.1-0.3,0-0.7-0.4-1.1c-0.7-0.7-1.5-1.1-2.3-1.6
	c-0.4-0.2-0.8-0.4-1.1-0.6c-1.6-1-3.1-1.9-4.6-2.7c-0.1-0.1-0.2-0.1-0.4-0.2c-0.7-0.4-1.4-0.8-2.1-1.1c-1.8-0.9-3.6-1.7-5.3-2.3
	c-0.5-0.2-1-0.4-1.5-0.5c-0.1,0-0.3-0.1-0.4-0.1c-1.6-0.5-3.3-1-5-1.4c-0.5-0.1-1.1-0.2-1.6-0.3c-1.7-0.3-3.4-0.4-5.2-0.4
	c-0.5,0-1.1,0.1-1.6,0.1c-0.4,0.1-0.9,0.1-1.3,0.2c-0.5,0.1-1,0.2-1.6,0.3c-0.3,0.1-0.5,0.1-0.8,0.2c0.3-0.6,0.7-0.9,1.1-1.3
	l0.2-0.2c0.8-0.8,1.7-1.5,2.6-2.1c1.2-0.8,2.5-1.5,4-2.1c0.5-0.2,1.1-0.5,1.6-0.7c2.8-1.1,5.6-1.9,8.3-2.6c2.1-0.5,4.1-0.8,6.1-1
	c1.2-0.1,2.4-0.2,3.6-0.2c2.8-0.1,5.5,0.3,8.2,1.1c0.6,0.2,1.2,0.4,1.8,0.6c0.2,0.1,0.3,0.1,0.5,0.2c0.5,0.2,1.1,0.4,1.5,0.5
	l0.4,0.1c0.2,0.1,0.4-0.1,0.5-0.2l0.5-0.4l-0.6-0.5c-0.2-0.2-0.6-0.5-0.9-0.7c0,0-0.1-0.1-0.1-0.1c-0.6-0.4-1.2-0.7-1.8-1
	c-4-2.1-8.4-2.9-13.4-2.5c-3.1,0.3-6.1,0.8-9.1,1.6c-2.7,0.7-5.4,1.7-8,2.9c-0.3,0.2-0.7,0.3-1,0.5c-0.1,0-0.1,0.1-0.2,0.1
	c0.1-0.2,0.2-0.3,0.2-0.5c0.4-0.8,0.7-1.5,1.1-2.3c1.4-2.4,2.2-4.7,2.5-7c0.2-1.2,0.7-1.9,1.7-2.3c0.3-0.1,0.6-0.3,1-0.4
	c1.1-0.4,2.2-0.9,3.3-1.1c6.7-1.2,13.8-2.4,21.5-3.7c1.1-0.2,2.3-0.2,3.5-0.1c0.2,0,0.4,0.1,0.7,0.1c0.9,0.2,2,0.4,2.6-0.1
	c0.2-0.1,0.3-0.3,0.2-0.6c-0.2-0.8-3.7-1.4-3.7-1.4l-0.5,0c-2.2-0.2-4.5-0.3-6.7,0c-4.5,0.6-9.1,1.4-13.6,2.2l-2.9,0.5
	c-0.5,0.1-1.1,0.2-1.6,0.3c-0.1,0-0.2,0.1-0.3,0.1c0.4-0.2,0.8-0.4,1.2-0.6c0.3-0.2,0.7-0.4,1.1-0.5c0.6-0.3,1.2-0.6,1.8-1
	c1.5-1,2.6-2.1,3.2-3.5c0.2-0.5,0.7-1.1,1.4-1.5l1.1-0.7c2.7-1.8,5.5-3.6,8.3-5.3c1.9-1.1,4-2.1,6.4-2.2
	C266.5,422,267.8,421.6,268.9,421.2z M213.5,383.5c3.8-3.9,8.1-6.2,13.1-7.1l0,0.1c-0.1,0.4-0.1,0.7-0.2,1l-1.8,7.5
	c-0.3,1.3-0.6,2.6-0.9,3.9l0,0.1c-0.2,0.6-0.4,1.4,0.1,1.7c0.1,0.1,0.3,0.1,0.4,0c0.3-0.1,0.6-0.6,0.7-0.8c0.1-0.3,0.2-0.7,0.3-1.1
	c0-0.2,0.1-0.5,0.1-0.7l2.8-10.7c0.2-0.6,0.7-1,1.3-0.9l2.4,0.1l-0.4-0.2c1,0,2,0.3,3,0.6c0.9,0.2,1.9,0.5,2.9,0.6
	c0.7,0.1,1.5,0,2.3,0c1.5-0.1,3.1-0.1,4.4,0.5l0,0l0,0l0,0l0.1-0.2l0,0.2l1.9-0.1c-0.3,0.6-0.7,1.2-1,1.9c-1.2,2.1-2.4,4.2-3.4,6.4
	c-0.1,0.2-0.2,0.4-0.3,0.6c-0.3,0.5-0.5,1-0.7,1.6c-0.1,0.3-0.2,0.6,0.1,0.8c0.3,0.2,0.6,0,0.8-0.2c0.5-0.4,0.8-1.1,1.1-1.7
	c0.1-0.3,0.2-0.5,0.3-0.7l4.5-8.2c0.2-0.4,0.6-0.6,1-0.7l0.2,0c1.1-0.1,1.7,1.2,1.1,2c-1.8,2.3-3.4,4.7-5,7.2
	c-0.4,0.6-0.8,1.2-1.1,1.9c-0.6,1-1.2,2-1.8,3c-0.2,0.3-0.4,0.9-0.1,1.3c0.1,0.1,0.4,0.3,0.8,0.2c0.4-0.1,0.7-0.6,0.9-0.9
	c0.1-0.1,0.1-0.2,0.1-0.2c0.5-0.7,1-1.4,1.4-2.1c0.9-1.3,1.9-2.7,3-4.1c1.8-2.5,3.8-5.1,5.9-7.7c0.8-1,1.9-1.7,3.1-2.1
	c0.9-0.3,1.7-0.6,2.5-0.9c1.1-0.4,2.2-0.8,3.3-1.1c2.4-0.7,4.6-1.2,6.6-1.4c2.1-0.3,3.9,0.4,5.3,2c0.7,0.8,1.4,1.5,2.2,2.3
	c0.3,0.3,0.5,0.5,0.8,0.8c-5,4-8.9,7.5-12.2,11c-1.6,1.7-3,3.4-4.2,5.1c-0.7,0.9-1.3,1.9-1.9,2.8c-0.1,0.1-0.2,0.3-0.3,0.5
	c-0.6,0.9-1.2,1.6-1.1,2.2c0.1,0.3,0.3,0.6,0.6,0.6c0.6,0,0.9-0.5,1.2-0.8l0.1-0.1c4.8-6.3,10.8-12.2,19.6-19.1
	c0.5-0.4,1-0.6,1.6-0.6c1.3,0.1,3,0.1,4.5-0.6c2.3-1.1,4.6-0.7,7.3,0.2c0.8,0.3,1.6,0.7,2.4,1.1c0.5,0.2,0.9,0.4,1.4,0.7
	c0.7,0.3,0.9,0.7,0.8,1.4c-0.1,0.8-0.1,1.7-0.1,2.5c0,1.2,0,2.4-0.2,3.6c-0.3,2.1-0.8,4.3-1.6,6.5c-0.3,0.8-0.9,1.6-1.8,2.3
	c-1.3,1-2.7,2-4,2.9c-0.4,0.3-0.9,0.6-1.3,0.9c-0.4,0.3-0.8,0.5-1.2,0.8c-0.3,0.2-0.5,0.4-0.8,0.5c-1.8,1.2-3.2,3.1-3.8,5.2
	c-0.5,2.2-2,3.4-4.6,3.7l-1,0.1c-1.8,0.2-3.6,0.4-5.4,0.9c-3.3,1-5.3,2.8-6.1,5.4c-0.1,0.3-0.4,0.6-0.6,0.8
	c-1.3,0.7-2.6,1.3-3.9,1.9l-0.5,0.2c-0.3,0.2-0.7,0.3-1,0.5c-0.6,0.3-1.3,0.5-1.9,0.9c-2.7,1.7-5.4,3.5-8.1,5.2l-1.2,0.8
	c-1.2,0.8-2.1,1.8-2.5,3c-0.5,1.3-1.7,2-2.8,2.6c-1.2,0.7-2.4,1.3-3.7,2l-0.2,0.1c-1.8,1-3.2,2.4-4,4.2c-0.2,0.4-0.4,0.7-0.6,1
	c-1.4,1.2-2.4,2.7-3.4,4.2c-0.3,0.5-0.7,1-1.1,1.6c-0.5,0.7-1,1.4-1.5,2.2l0,0c0-0.1,0-0.2,0-0.3c0-0.3,0-0.6,0-0.7
	c0.1-0.9,0.2-1.7,0.4-2.5c0.2-0.8,0.4-1.6,0.7-2.3c0.1-0.1,0.2-0.3,0.3-0.5c0.3-0.6,0.8-1.4,0.3-2c-0.2-0.2-0.4-0.3-0.5-0.3
	c-0.4,0-0.6,0.4-0.8,0.7c-0.1,0.1-0.1,0.2-0.1,0.2c-0.4,0.5-0.9,1-1.3,1.5c-0.8,1-1.6,2-2.5,3.2c-1.4,1.9-2.6,3.9-4,6
	c0-0.2,0-0.3,0-0.4c0-4.6,0.8-8.6,2.6-12.2c0.7-1.5,1.4-3,2.1-4.5c0.7-1.6,1.5-3.3,2.3-4.9c0.6-1.1,1.1-2.2,1.7-3.2l0.4-0.6
	c0.2-0.3,0.4-0.7,0.5-1c0.2-0.3,0.2-0.6,0.3-0.8c0-0.2,0.1-0.4,0.2-0.5l0.1-0.3l-0.3-0.2c-0.3-0.2-0.7-0.2-1,0c-1,0.6-1.8,2-2.5,3.2
	c-0.2,0.3-0.4,0.6-0.5,0.9c-0.9,1.4-1.7,2.9-2.6,4.6c-2.8,5.3-5.4,11-8,17.5c-0.2,0.5-0.4,1-0.7,1.5c-0.1,0.2-0.2,0.5-0.4,0.7
	l-0.3,0.4c-0.1,0.1-0.2,0.3-0.3,0.4c-0.2,0.3-0.5,0.6-0.6,1c0-0.1-0.1-0.1-0.1-0.2c0.1-0.7,0.1-1.4,0.2-2.1c0.2-1.6,0.4-3.4,0.8-5.3
	c0.3-1.5,0.6-3.2,1-5.2l0-0.2c0.2-0.8,0.3-1.7,0.5-2.6c0,0,0-0.1,0-0.1c0.3-0.9,0.3-1.4,0-1.7c-0.1,0-0.1-0.1-0.2-0.1
	c-0.1,0-0.3,0-0.4,0.1c-1,0.6-1.4,1.9-1.8,2.9c-0.1,0.3-0.2,0.6-0.3,0.9l-0.4,1c-0.3,0.8-0.6,1.5-1,2.3c0-0.4,0-0.9,0.1-1.3
	c0.1-1.3,0.2-2.6-0.1-3.9c-0.7-4.4-0.4-8.9-0.1-13.3l0.1-1.1c0.1-2.1,0.3-4.3,0.5-6.4c0.3-3.8,0.6-7.7,0.8-11.6
	c0.1-3.1,0-6.3-0.2-9.4l-0.1-1.7c-0.1-1.2-0.3-2.4-0.8-3.6C211.1,387.8,211.5,385.6,213.5,383.5z M189.7,371.6
	c0.3-1.7,1.3-3.4,2.2-4.9c0.2-0.3,0.9-0.6,1.5-0.7c2.8-0.3,5.3,0.7,7.8,3c0.8,0.7,0.8,1.7,0.7,2.3c-0.4,3.1,0.5,5.7,3,8.5
	c2.2,2.5,3.4,5.4,3.7,8.7l0,0.1c0,0.5,0.1,1,0.3,1.5c1.2,2.5,1.3,5.3,1.4,8c0,0.8,0.1,1.5,0.1,2.3c0.1,0.9,0.1,1.8,0.2,2.6
	c0.2,2.2,0.4,4.6,0.2,6.9c-0.3,3.4-0.6,7-0.9,10.9c-0.1,2.2-0.3,4.4-0.4,6.6c0,0.5-0.1,0.9-0.1,1.4c-0.2,2.4-0.3,4.9,0.1,7.4
	c0.2,1.3,0,3.3-0.5,4.5c0,0.1-0.1,0.1-0.1,0.2c-0.2,0.5-0.3,0.9-0.4,1.3c-0.2,0.7-0.4,1.3-0.8,1.9c-0.2,0.3-0.4,0.7-0.6,1.1
	c-0.1,0.2-0.2,0.5-0.4,0.7c-0.1,0.1-0.2,0.3-0.3,0.5c-0.1,0.2-0.3,0.3-0.4,0.5c-0.4-2.5-0.8-5.1-1.1-7.9c-0.1-1.4-0.3-3-0.4-4.5
	c-0.1-0.8-0.1-1.5-0.1-2.3c0,0,0-0.1,0-0.2c0-0.4,0-0.9-0.3-1.1l-0.2-0.1l-0.2,0.1c-0.7,0.4-0.8,6.6-0.8,6.7c0,2.4,0.2,4.8,0.4,7.2
	c-0.6-0.5-0.9-1.1-1.1-2.1c-0.8-4.6-1.5-9.2-2.3-13.8c-0.5-3.1-1.1-6.2-1.6-9.4c-0.8-4.8-1.7-10.2-3.3-15.3c-0.1-0.4-0.2-0.7-0.2-1
	l0.1-0.3c0,0.1,0,0.1,0,0.2c0.3,1.6,1.1,2.5,2.5,2.7c0.1,0,0.1,0,0.1,0c1.3,0.1,2.3-0.5,2.9-1.8c0.8-1.5,0.7-3.2-0.2-4
	c-0.3-0.3-0.8-0.5-1.3-0.7c-1.6-0.3-2.6-0.1-3.5,1c-0.1-0.6-0.2-1.2-0.5-1.5c0.3,0.1,0.6,0.2,0.9,0.2c0.9,0.1,2.1-0.2,2.7-2.1
	c0.3-0.9,0.5-1.9,0.2-3c-1-3.1-1.8-6.2-2.6-9.2c-0.1-0.5-0.3-1.1-0.7-1.5c-0.4-0.5-0.4-1.1,0-1.6c0.7-0.9,1.2-2.1,0.6-3.5
	c-0.7-1.9-2.3-2.5-3.6-2.7c-0.3-0.1-0.5-0.2-0.7-0.4l-1.7-2.2C189.7,372.3,189.6,372,189.7,371.6z M189.3,407.6
	C189.3,407.6,189.3,407.6,189.3,407.6c0.2,0,0.3,0,0.4,0.1c0.9,0.3,1.6,0.3,2.1,0c0,0,0,0,0,0c0.8-0.5,1.8-0.2,2,0.7
	c0.8,3.2,1.4,6.5,2,9.8c0.4,2.5,0.8,5.1,1.2,7.6c0.7,4.6,1.5,9.3,2.3,13.9l0.1,0.8c0.9,5.2,1.9,10.6,3.9,15.7
	c0.2,0.6,0.5,1.2,0.7,1.8c0.2,0.4,0.4,0.9,0.6,1.3c1,2.4,2,4.7,3.1,7c1.3,2.9,1.2,5.4,0.8,8.4c-0.3,3-0.9,3.1-4.2,3.7
	c-0.2,0-0.4,0.1-0.5,0.1c-0.7,0.1-1.4-0.4-1.5-1.1l-0.1-1.4c-0.1-1.5-0.3-3.1-0.4-4.6c-0.2-2-0.5-4.1-0.8-6.2
	c-0.8-4-1.6-8.3-2.5-12.5c-0.1-0.4-0.2-0.9-0.3-1.3c-0.5-2.4-1.3-4.8-2-7.1l-0.3-1.1c-1-3.3-1.6-5.9-1.9-8.4
	c-0.5-3.8-1.2-7.6-2-11.7c-0.6-2.9-1.1-5.8-1.7-8.7c0-0.2-0.1-0.5-0.2-0.9C188.9,408.8,189.1,407.8,189.3,407.6z M180.5,375.2
	c0.1,0.3,0.1,0.6,0.1,0.9c-0.6-1.1-1.7-1.6-3.2-1.3c-0.9,0.2-1.6,0.7-1.9,1.3c-0.3,0.5-0.3,1-0.2,1.5c0.3,0.8,0.7,1.6,1.1,2.4
	c0.4,0.7,1,1.1,1.7,1.1c0.3,0,0.6,0,1-0.1c0.9-0.3,1.6-1.3,1.8-2.4c0,0.3,0.1,0.5,0.1,0.8c0.1,0.4,0.2,0.7,0.3,1l0.1,0.3
	c0.2,0.5,0.3,0.9,0.5,1.5l0,0.1c-0.4-0.2-0.8-0.3-1.1-0.4c-1.1-0.2-2.1,0.1-2.8,0.9c-0.7,0.8-0.4,1.6-0.1,2.3l0.1,0.2
	c0.5,1.4,1.4,2.2,2.7,2.4l-0.4,0.3c-0.8-0.6-2.3-1.6-3.7-0.6c-1.4,1-1.4,2.5-1.1,3.8c0.1,0.5-0.1,0.9-0.4,1.3
	c-1,0.9-1.2,2.2-1.2,3.2c0,1,0.2,1.8,0.7,2.3c0.6,0.5,1.4,0.8,2.4,0.7c0.1,0,0.2,0,0.3,0c0,0.1,0.1,0.2,0.1,0.3
	c0.1,0.4,0.2,0.8,0.4,1.1c0.6,1.2,1.7,2,2.9,2.1c0.5,0.1,0.9,0,1.3-0.2c0.6-0.2,1.1-0.5,1.6-1.1c0.2-0.2,0.4-0.4,0.7-0.6
	c0,0,0,0,0.1-0.1l0.4,1.2l0.1,0.2c-0.1,0-0.1,0-0.2,0c-0.2,0-0.4,0.1-0.6,0.1c-0.9,0.2-2,0.3-2.4,1.6c-0.2,0.7,0.1,1.9,0.7,2.8
	c0.3,0.5,0.7,0.9,1,1.1c1.3,0.8,2.4,0.2,3.4-0.6l0.3,1.5c0.4,1.7,0.7,3.4,1.1,5c0.2,1.1,0.4,2.2,0.6,3.3l3.5,20.5
	c0.1,0.4,0.1,0.8,0.2,1.2l0,0.2c0.6,2.4,0.4,5.1,1.5,7.4c0.1,0.2,0.2,0.4,0.2,0.6c0.1,0.5,0.2,0.9,0.3,1.4c0,0.1,0,0.2,0.1,0.3
	c0.1,0.4,0.2,0.7,0.3,1.1c0.4,1.9,0.5,4.3,0.3,6.1c-0.1-0.2-0.3-0.3-0.4-0.5c-0.1-0.1-0.2-0.2-0.2-0.3l-2.6-3.7c0,0-0.1-0.1-0.1-0.2
	c-0.2-0.4-0.4-0.7-0.7-0.8c-0.4-0.1-0.6,0-0.7,0.1c-0.4,0.4-0.2,1.1,0.3,2.3l2.4,7.2l-0.6-1.4c-1.4-3.3-2.8-6.7-4.2-10
	c-1.9-4.7-4.4-9.3-6.7-13.7c0,0,0-0.1-0.1-0.1c-0.5-0.9-0.9-1.8-1.4-2.6c-1.7-3.3-3.6-6.3-5.8-9.2c-2.2-3-4.7-5.7-7.4-8.4
	c-2.7-2.6-5.7-4.7-8.7-6.8c-0.5-0.3-1-0.7-1.4-1l-0.2-0.1l-1-0.7c-2.3-1.6-5-2.6-7.9-3c-1.2-0.2-2.4-0.3-3.5-0.5l-2.8-0.4
	c-0.6-0.1-1.2-0.2-1.8-0.2c-0.7-0.1-1.4-0.1-2.1-0.1c-1.9-0.1-3.7,0-5.6,0.1c-1.3,0.1-2.6,0.2-3.9,0.3l-0.2,0
	c-0.8,0.1-1.6,0.2-2.4,0.4c-0.2,0-0.4,0.1-0.7,0.1c0.1-0.5,0.3-1.1,0.4-1.4c0-0.1,0.1-0.2,0.1-0.2c0.2-0.4,0.4-0.7,0.7-1
	c0.1-0.2,0.3-0.4,0.4-0.6c0.5-0.8,1-1.8,1.2-3c0,0,0,0,0,0c0.1-0.6,0.2-1.2,0.3-1.9c0,0,0-0.1,0-0.1c0.1-1.5,0.3-2.8,0.7-4
	c0.8-2.6,2.3-4.8,4.4-6.5c1-0.8,2.1-1.4,3.4-2c0.6-0.3,1.3-0.5,2-0.7c0.1,0,0.3-0.1,0.4-0.1c0.7-0.1,1.3,0,1.8,0.5
	c0.5,0.4,1,0.8,1.5,1.2c1,0.8,2,1.7,2.9,2.6c0,0,0.1,0.1,0.1,0.1c1.1,1.1,2.1,2.2,3.1,3.2c0.5,0.5,0.9,0.9,1.3,1.4l1.4,1.5l0.8,0.8
	c0,0,0.1,0.1,0.2,0.3c0.8,1,1.3,1.5,1.8,1.5c0.1,0,0.3,0,0.4-0.1c0.4-0.4,0.4-1.1-3.1-5c-0.5-0.5-1-1.1-1.6-1.7
	c-0.2-0.2-0.4-0.4-0.6-0.7l-0.2-0.3c-1.2-1.3-2.3-2.4-3.5-3.5c-0.6-0.6-1.2-1.1-1.9-1.7c0,0-0.1-0.1-0.2-0.2
	c-0.4-0.3-0.7-0.6-0.9-0.8l7.3-2.5c0.1,0.1,0.1,0.1,0.2,0.2c0.2,0.2,0.5,0.5,0.7,0.8c0.1,0.1,0.1,0.2,0.2,0.3c0.5,0.6,1,1.2,1.4,1.9
	c1,1.2,1.9,2.5,2.9,3.7l5.5,7.1c0.2,0.3,0.4,0.6,0.7,1c0.3,0.5,0.7,1,1,1.4c0.5,0.6,1,1.1,1.7,1.4c0,0,0,0,0,0
	c0.4,0.1,0.6,0,0.6-0.1c0.1-0.1,0.3-0.4-0.3-1.5c-0.1-0.2-0.2-0.5-0.4-0.7c-0.3-0.6-0.7-1.1-1-1.7c-0.2-0.3-0.4-0.6-0.5-0.9
	c-1.1-1.8-2.2-3.4-3.3-5c-0.1-0.1-4-5.4-6.2-8c0,0-0.1-0.1-0.1-0.1c-0.4-0.5-0.4-1.3,0.1-1.8l0.3-0.3c0,0,0,0,0.1,0
	c0.5-0.4,1.3-0.4,1.8,0.2c2,2.4,3.9,5,5.6,7.5l1.6,2.3c0,0.1,0.1,0.1,0.2,0.2c0.3,0.5,0.7,1.2,1.3,1.1c0.2,0,0.4-0.1,0.6-0.5
	c0.3-0.8-0.3-1.7-0.9-2.5c-0.2-0.2-0.3-0.4-0.4-0.5c-0.7-1.3-1.5-2.6-2.3-3.7c-1.4-2.1-3-4.1-4.6-5.9c-0.4-0.4-0.5-1.1-0.1-1.6
	c0.6-0.9,1.6-2,1.8-2.2c2.1-2,6.2-3.4,9.3-3.3c0.2,0,0.5,0.1,0.7,0.1c0.3,0.1,0.6,0.1,0.9,0.1c0,0,0.1,0,0.1,0c0.7,0,1.3,0.1,2,0.2
	c0.1,0,0.2,0,0.4,0.1c0.9,0.2,1.9,0.3,2.9,0.2c0.5,0,0.8,0.1,1.1,0.5l0.7,0.8c0.5,0.5,0.9,1.1,1.4,1.6c0.1,0.1,0.2,0.2,0.3,0.3
	c0.3,0.4,0.7,0.8,1.1,1C179.7,372,180.1,373.5,180.5,375.2z M169,348.6c1.6,1.9,3.9,3.9,5.5,6.2c0.3,0.4,0.6,0.9,0.8,1.3
	c-0.1,0.1-0.1,0.2-0.2,0.4c-0.4,1.2,0,2,1.1,2.5c0,0,0.1,0,0.1,0c0.4,0.1,0.7,0.3,1.1,0.4c0.1,0,0.2,0,0.3,0.1
	c0,0.7,0.2,1.3,0.5,1.9c0.4,0.9,0.7,1.7,0.1,2.6l-0.7-0.6l0-0.2c0.1-0.3,0.1-0.5,0.2-0.8c0.2-1.5-0.5-2.8-1.5-3.4
	c-0.2-0.1-0.5-0.2-0.7-0.3c-1.8-0.3-3,0.6-3.5,2.6c-0.3,1.2-0.2,2.3,0.2,3.4c-0.1,0-0.2-0.1-0.3-0.1c-0.4-0.1-0.7-0.2-1.1-0.3
	c-0.2,0-0.3-0.1-0.5-0.1c0.2-3.3,0.2-6.6-0.1-9.9c-0.1-1.6-0.8-3.2-1.2-4.8c-0.1-0.3-0.2-0.5-0.3-0.8
	C168.8,348.8,168.9,348.7,169,348.6z M155.9,349c0.4-2.9,0.6-5.8,0.6-8.6c0-2.8-0.2-5.7-0.4-8.5c0,0,0.1,0,0.1,0.1
	c1.3,2.3,2.7,4.6,4.1,6.8c0.4,0.6,0.7,1.4,1.1,2c0.4,0.7,1.1,1.1,1.6,1.7c1.3,1.6,2.7,3.1,4.1,4.6c0.1,0.1,0.1,0.4,0.2,0.5
	c0.2,1.3,0.2,2.6,0.5,3.9c0.7,3.3,0.6,6.6,0.5,10c0,0.8-0.1,1.6-0.1,2.4c-1.9-0.4-4-0.5-6,0.1c-3.2,1-6.6,2.3-8.7,5.5
	C154.5,362.7,155.1,355.9,155.9,349z M137,312.5c3,1.8,6,3.5,8.7,5.7c1.6,1.2,3.2,2.4,4.7,3.8c0.4,0.4,0.8,0.8,1.1,1.3
	c1.2,1.5,2.1,3.1,2.3,5.2c0.4,5.5,1,11,0.6,16.5c-0.4,4.2-1.1,8.3-1.4,12.5c-0.3,5.1-1.2,10.2-2,15.2c-0.1,0.1-0.2,0.2-0.3,0.3
	c-1.3,1-2.7,1.8-4.2,2.3c-2.4,0.9-4.9,1.7-7.3,2.4l-0.1,0c-2.1-2.2-4.8-4.8-4.5-7.6c0.4-3.7,0.9-7.4,1.3-11.2
	c0.7-6.1,1.7-12.1,2-18.2c0.4-6.2,0.7-12.5,0-18.8c-0.2-2.3-0.7-4.5-1-6.8c-0.1-0.8-0.2-1.6-0.3-2.4
	C136.9,312.6,136.9,312.6,137,312.5z M121.1,297.8c0-0.3-0.2-0.6-0.2-1c0,1.7,2.2,3.5,3.2,4.6c2.4,2.6,3.8,5.1,6.7,7.1
	c0.3,0.2,0.5,0.4,0.7,0.6c2.5,2,3.2,4.3,4,7.6c1,3.7,0.9,7.5,1,11.3c0.1,10.3-0.7,20.5-2.2,30.7c-0.5,3.6-0.8,7.2-1.1,10.8
	c0-0.4-1.1-1.6-1.3-2c-1.8-2.9-4-5.6-6.3-8c-2.3-2.4-6.3-5-7.1-8.4c-1.2-5.3-1.1-10.6-0.4-15.9c0.9-6.7,1.9-13.4,2.7-20.1
	c0.5-3.7,0.9-7.5,1-11.3C121.9,301.8,121.4,299.8,121.1,297.8z M111.2,283.5c0.4,0.3,0.7,0.7,1.1,1c0.2,0.2,0.4,0.3,0.6,0.5
	c2.7,2.4,4.7,6.1,6.6,9.2c0,0.1,0,0.2,0,0.2c-0.6,2.1,0.3,4.1,0.5,6.1c0.1,1.4,0.2,2.9,0.1,4.3c-0.4,4.7-0.9,9.4-1.5,14.2
	c-0.7,5.6-1.5,11.2-2.2,16.7c-0.6,4.8-0.6,9.5,0.5,14.3c-0.2-0.6-1.2-1.3-1.6-1.8c-0.5-0.6-0.9-1.2-1.3-1.8
	c-1.1-1.4-2.2-2.8-3.3-4.2c-1.3-1.5-3-3.2-3.4-5.2c-1.2-5.8-1.1-11.6-0.7-17.4c0.2-3.2,0.8-6.5,1.3-9.7c1-6.3,0.9-12.6,1-18.9
	c0-2.6-0.4-5.3-0.6-7.9c-0.1-0.8-0.4-1.5-0.5-2.3C108.9,281.3,110.1,282.4,111.2,283.5z M90.5,276.1c5.1,1.1,9.9,1.5,14.8,3.4
	c0.1,0.1,0.3,0.3,0.3,0.4c0.6,3.1,1.2,6.3,1.2,9.5c-0.1,8-0.2,15.9-1.6,23.8c-1.2,7.2-1.2,14.4-0.1,21.6c0,0.2,0.1,0.4,0.1,0.8
	c0.1-0.1-3.1-3.3-3.3-3.5c-1.7-1.8-3.2-3.9-4.8-5.8c-0.6-0.8-1.3-1.6-1.9-2.4c-0.5-0.6-0.9-1.3-1.3-1.8c-1.5-1.8-4.1-4.3-4.5-6.7
	c-0.7-4.5-1.2-9.1-0.9-13.6c0.4-6.6,0.3-13.1-0.3-19.7c-0.2-2.3-0.8-4.5-1.2-6.8C88.3,275.6,89.4,275.8,90.5,276.1z M69.6,262.7
	c0.6,0.4,1.2,0.8,1.8,1.2c0.7,0.5,1.4,0.8,2,1.4c2.2,2,4.5,3.8,6.9,5.6c0.8,0.6,1.4,1.4,2.2,1.9c0.7,0.5,1.6,0.9,2.4,1.3
	c0.1,0.1,0.2,0.3,0.3,0.4c1,2.8,1.5,5.7,1.7,8.7c0.4,6.6,0.4,13.2,0.2,19.9c-0.1,3.1,0.4,6.1,0.7,9.2c0,0.3,0.1,0.5,0.1,1
	c-3.2-4.4-6.3-8.9-9.3-13.4c-0.6-1-1.3-1.9-1.9-2.9c-1-1.6-2.1-3.2-3-4.8c-2.1-4.2-4.7-7.9-7.2-11.8c-0.1-0.2-0.1-0.6-0.1-0.9
	c0.4-5.7-0.4-11.2-1.8-16.6c-0.4-1.7-1.3-3.3-2-4.9c0,0,0.1,0,0.1,0.1C65,259.6,67.3,261.2,69.6,262.7z M671.9,257.4
	c-1,2.6-2.9,4.5-5.1,6c-3.1,2.2-6.6,3.4-10.2,4c-1.5,0.2-3.1,0.3-4.6,0.3c-4,0-7.8-0.6-11.3-1.9c-3.5-1.3-6.8-3.4-9.6-6.5
	c-4.4-4.8-4.5-11.3,0.2-16c1.9-1.9,4.2-3.3,6.7-4.2c1.3-0.5,2.6-0.9,4-1.2c5.3-1.2,10.7-0.8,16,0.7c0,0,0.1,0,0.1,0
	c4.6,1.3,8.5,3.7,11.5,7.3C672.5,249.5,673.5,253.2,671.9,257.4z"/>
<path d="M376.9,299.6L376.9,299.6C376.9,299.6,376.9,299.6,376.9,299.6C376.9,299.6,376.9,299.6,376.9,299.6z"/>
<path class="st0" d="M328,579.2c-1.1-1.3-2.3-2.7-3.7-3.7c-2.9-2.1-5.9-4-8.5-6.4c-0.3-0.3-0.6-0.5-1-0.8c-2.3-1.4-4.8-0.4-5.3,2.1
	c0,0.1-0.1,0.3-0.1,0.4c-0.1,0.8,0,1.7,0.3,2.4c0.5,1.2,1.1,2.5,1.9,3.6c2.7,3.6,6.3,6.4,9.7,9.3c0.2,0.2,0.5,0.3,0.5,0.4
	c1.2,0.6,2.3,0.9,3.4,0.8c0.7-0.1,1.4-0.3,2.2-0.7c1.9-1.1,2.6-2.6,1.8-4.7C329,580.9,328.6,580,328,579.2z M327.4,583.8
	c-0.2,0.3-0.3,0.7-0.5,0.9c-0.7,0.8-1.5,1.4-2.6,1c-0.2-0.1-0.4-0.1-0.6-0.2c-0.7-0.3-1.4-0.6-1.9-1c-2.8-2.5-6-4.7-8.3-7.8
	c-0.9-1.2-1.7-2.6-2.4-3.9c-0.1-0.2-0.2-0.5-0.2-0.8c-0.1-0.5-0.1-1,0-1.4c0.2-1.3,1.3-1.8,2.6-1.3c0.7,0.3,1.4,0.7,1.9,1.2
	c2.3,2.2,5,3.8,7.5,5.6c1.5,1,2.8,2.3,4.1,3.7C328.4,581.2,328.4,582,327.4,583.8z"/>
<path class="st0" d="M335.9,553.5c-1.9-2.3-4.3-3.7-7-4.8c-3.3-1.4-6.7-1.3-10.1-0.1c-0.8,0.3-1.5,0.7-2.1,1.2
	c-1.6,1.2-1.6,2.5,0.1,3.5c1.6,0.9,3.3,1.7,5,2.4c2.4,1,4.9,1.9,7,3.5c0.4,0.3,0.8,0.5,1.5,1c0.7,0.2,1.7,0.5,2.7,0.7
	c1.7,0.2,2.9-0.6,3.9-1.9c1.1-1.3,0.8-2.6,0.1-3.9C336.7,554.6,336.3,554,335.9,553.5z M336,557.7c-0.8,1.4-1.9,2.1-3.4,1.7
	c-1.1-0.3-2.3-0.8-3.2-1.4c-2.2-1.6-4.7-2.6-7.1-3.6c-1.5-0.6-3-1.4-4.5-2.1c-0.2-0.1-0.4-0.4-0.7-0.7c1-1.2,2.2-1.7,3.5-2
	c4.5-1.2,8.6,0,12.3,2.6c0.9,0.6,1.7,1.4,2.5,2.2C336.6,555.7,336.7,556.5,336,557.7z"/>
<path class="st0" d="M239,577c-0.6-1.5-2.1-1.7-3.3-0.5c-0.5,0.5-0.9,1.2-1.4,1.9c-0.2,0.8-0.7,1.6-0.7,2.4c0.1,1.8,0.4,3.6,0.8,5.4
	c0.5,1.7,2.5,2.9,4.3,2.9c2.1-0.1,3.7-2.1,3.4-4.2C241.5,582.1,240.1,579.6,239,577z M239.6,587c-0.6,1-1.9,1.1-2.7,0.1
	c-2.2-2.7-2.5-7.2,0.1-9.6c0.2-0.1,0.4-0.2,0.6-0.3c0.9,2.1,1.7,3.9,2.6,5.8C240.9,584.5,240.3,585.8,239.6,587z"/>
<path class="st0" d="M65.6,352c0.3,0.4,0.6,0.7,0.9,1.1c0.3,0.3,0.6,0.5,0.9,0.8L65.6,352z"/>
<path class="st0" d="M173,379l-0.1,0.3c-0.1,0.4-0.2,0.8-0.4,1.2c-0.3,0.9-0.6,1.8-0.7,2.8c-0.2,1.2,0.7,2.4,2,2.8
	c0.2,0,0.3,0.1,0.5,0.1c1.1,0.1,2-0.4,2.6-1.5c0.7-1.2,0.8-2.5,0.2-3.6c-0.7-1.2-2.1-2-3.8-2L173,379z"/>
</svg>
