<svg version="1.1" xmlns="http://www.w3.org/2000/svg" xmlns:xlink="http://www.w3.org/1999/xlink" x="0px" y="0px" width="107.75px" height="31.658px" viewBox="0 0 107.75 31.658" style="enable-background: new 0 0 107.75 31.658" xml:space="preserve">
              <!--<style type="text/css">
      <![CDATA[
        .st0{fill:none;stroke:#FFFFFF;stroke-linecap:round;stroke-linejoin:round;stroke-miterlimit:10;}
        .st1{fill:none;stroke:#FFFFFF;stroke-linecap:round;stroke-linejoin:round;stroke-dasharray:4.1597;}
      ]]>
      </style>
      -->
              <g id="plane">
                <path class="st0" d="M102.25,15.023c0-2.033-1.803-3.087-4.375-3.471c-2.858-0.427-6.454-1.073-9.663-1.077
          c-2.217-1.672-4.143-3.208-5.87-4.273c-0.111-0.836-2.846-1.494-4.106-1.494c-2.714,0-13.593,0.124-16.172,1.074
          c-0.822,0.302-2.771,1-2.965,2.115c-1.978,1.769-4.075,4.111-5.786,4.343c-2.511,0.34-19.063,0.611-21.031-0.136
          c0,0-2.24-0.067-6.583-5.769c-4.343-5.7-4.547-5.836-6.04-5.836s-6.547,0-7.784,0c-2.125,0-1.185,1.946-0.562,3.678
          c1.055,2.936,3.875,10.846,3.875,10.846"></path>
                <path class="st0" d="M30.605,15.79c0,0.352-3.901,0.638-8.715,0.638c-4.813,0-8.714-0.286-8.714-0.638
          c0-0.353,3.901-1.161,8.714-1.161C26.704,14.629,30.605,15.087,30.605,15.79z"></path>
                <path class="st0" d="M82.623,6.379c0.007,0.122-2.754,1.001-3.503,1.145c-1.612,0.312-4.736,0.642-8.334,0.853
          c-5.268,0.31-11.66,0.51-11.822-0.357"></path>
                <path class="st0" d="M15.188,16.046v3.757l7.229,2.355c0,0,23.083,1.02,28.333,1.52c2.822,0.269,10.771,0.952,19.249,1.401
          c1.188-0.61,3.179-0.988,4.833-0.923c1.423,0.056,3.625,0.389,4.604,1.343c4.119,0.097,7.705,0.021,10.688-0.196
          c11.125-0.812,12.125-6.625,12.125-10.279"></path>
                <path class="st0" d="M76.037,7.952c1.01,0.117,1.495,1.443,1.495,1.443l4.843,13.47h1.75L79.929,8.612c0,0-0.229-1.075,0.263-1.388
          "></path>
                <path class="st0" d="M79.853,26.281c0,2.396-2.655,2.125-5.931,2.125s-5.931,0.334-5.931-1.125c0-1.174,2.655-3.125,5.931-3.125
          S79.853,25.107,79.853,26.281z"></path>
                <path class="st0" d="M77.688,28.439c0,1.502-1.217,2.719-2.719,2.719s-2.719-1.217-2.719-2.719"></path>
                <path class="st0" d="M98.053,26.699c0,1.669-1.85,1.479-4.131,1.479s-4.131,0.232-4.131-0.783c0-0.817,1.849-2.177,4.131-2.177
          S98.053,25.881,98.053,26.699z"></path>
                <path class="st0" d="M96.545,28.202c0,1.046-0.848,1.894-1.894,1.894c-1.045,0-1.894-0.848-1.894-1.894"></path>
                <path class="st0" d="M83.876,21.704c9.049-0.238,17.981-1.004,17.981-3.417"></path>
                <path class="st0" d="M13.25,19.808c0,0,44.902,1.995,56.558,1.995c3.167,0,7.602,0.029,12.165-0.057"></path>
                <path class="st0" d="M57.871,11.85c0.729-0.647,1.822-1.628,3.141-1.628c1.894,0,5.273-0.305,5.739,0.082
          c0.252,0.21,0.198,1.518,0.194,2.705c-0.003,1.003,0.09,1.912-0.194,2.106c-0.62,0.423-8.08,0.55-9.927-1.123
          C56.125,13.36,57.871,11.85,57.871,11.85z"></path>
                <path class="st0" d="M77.724,9.929c-2.108,0-8.183-0.012-8.702,0.375c-0.279,0.21-0.216,1.518-0.216,2.705
          c0.004,1.003-0.098,1.912,0.216,2.106c0.691,0.423,8.729,0.44,10.318-0.692C78.949,13.336,78.05,10.836,77.724,9.929z"></path>
                <path class="st0" d="M88.212,10.476c-0.649,0.952-3.087,2.577-4.087,2.827s-1.688-0.969-2.031-1.938s-0.969-2.125,0-2.656
          s2.063-1.283,2.063-1.283"></path>
                <path class="st0" d="M83.298,19.721c9.396-0.217,18.952-0.959,18.952-3.434"></path>
                <path class="st0" d="M69.808,19.803c2.961,0,7.067,0.026,11.364-0.041"></path>
                <path class="st0" d="M34.753,18.663c2.068,0.087,4.207,0.174,6.367,0.261c4.166,0.168,8.41,0.33,12.381,0.469"></path>
                <path class="st0" d="M96.545,11.478c-1.167,1.432-1.148,8.33,0.385,12.292"></path>
                <polyline class="st0" points="11.312,4.178 14.167,4.178 15.188,2.366 15.188,0.5 	"></polyline>
                <line class="st0" x1="14.167" y1="4.178" x2="18.028" y2="14.801"></line>
                <line class="st0" x1="66.936" y1="8.641" x2="66.936" y2="21.775"></line>
              </g>
              <g id="motionblur">
                <g>
                  <path class="st0" d="M11.312,17.803c0,0,7.597,0.174,13.146,0.418"></path>
                </g>
                <g>
                  <line class="st1" x1="13.176" y1="0.5" x2="4.75" y2="0.5"></line>
                </g>
                <g>
                  <line class="st1" x1="9.125" y1="19.808" x2="4.375" y2="19.808"></line>
                </g>
                <g>
                  <line class="st1" x1="65.849" y1="5.137" x2="52.404" y2="5.137"></line>
                </g>
                <g>
                  <line class="st1" x1="74.969" y1="31.158" x2="69.808" y2="31.158"></line>
                </g>
                <g>
                  <line class="st1" x1="70.374" y1="28.439" x2="65.213" y2="28.439"></line>
                </g>
                <g>
                  <line class="st1" x1="92.372" y1="28.202" x2="88.212" y2="28.202"></line>
                </g>
                <g>
                  <line class="st1" x1="2.375" y1="4.178" x2="0.5" y2="4.178"></line>
                </g>
                <g>
                  <line class="st1" x1="11.375" y1="4.178" x2="8.5" y2="4.178"></line>
                </g>
                <path id="middle" class="st0" d="M101.857,13.563c0,0,3.393-0.577,5.393,1.706c-1.875,2.342-5.144,1.843-5.144,1.843"></path>
              </g>
              <g id="propeller">
                <!--<path id="middle" class="st0" d="M101.857,13.563c0,0,3.393-0.577,5.393,1.706c-1.875,2.342-5.144,1.843-5.144,1.843"/>-->
                <path id="top" class="st0" d="M103.626,13.542c0-2.448,0.928-9.864-0.799-9.864c-1.64,0-0.202,7.438-0.015,9.82L103.626,13.542z"></path>
                <path id="bottom" class="st0" d="M103.938,17.201c0.188,2.383,1.625,9.82-0.015,9.82c-1.727,0-0.799-7.416-0.799-9.864
          L103.938,17.201z"></path>
              </g>
            </svg>