<?xml version="1.0" encoding="utf-8"?>
<!-- Generator: Adobe Illustrator 22.0.0, SVG Export Plug-In . SVG Version: 6.00 Build 0)  -->
<svg version="1.1" id="Layer_1" xmlns="http://www.w3.org/2000/svg" xmlns:xlink="http://www.w3.org/1999/xlink" x="0px" y="0px"
	 viewBox="0 0 100 40" style="enable-background:new 0 0 100 40;" xml:space="preserve">
<style type="text/css">
	.st0{display:none;}
	.st1{display:inline;}
	.st2{fill:#E3E6EC;stroke:#939393;stroke-width:0.4687;stroke-miterlimit:10;}
	.st3{opacity:0.7;}
	.st4{fill:#B6BBC1;}
	.st5{opacity:0.5;fill:#408FC5;stroke:#165880;stroke-width:0.4687;stroke-miterlimit:10;}
	.st6{opacity:0.5;fill:#408FC5;}
	.st7{fill:#B7FDF6;}
	.st8{fill:#5BFBE9;}
	.st9{fill:#ED2800;stroke:#9A1700;stroke-width:0.4687;stroke-miterlimit:10;}
	.st10{fill:#D4A9B1;}
	.st11{fill:none;stroke:#146FA1;stroke-width:0.4687;stroke-miterlimit:10;}
	.st12{fill:#C8CBCE;stroke:#828281;stroke-width:0.4687;stroke-miterlimit:10;}
	.st13{fill:#E3E6EC;stroke:#828281;stroke-width:0.4687;stroke-miterlimit:10;}
	.st14{fill:#408FC5;stroke:#165880;stroke-width:0.4687;stroke-miterlimit:10;}
	.st15{fill:#ED2800;}
	.st16{fill:#FFFFFF;}
	.st17{fill:#E3E6EC;}
	.st18{fill:#C8CBCE;}
	.st19{fill:#2E639F;stroke:#165880;stroke-width:0.4293;stroke-miterlimit:10;}
	.st20{fill:#146FA1;stroke:#02496C;stroke-width:0.4293;stroke-miterlimit:10;}
	.st21{fill:#00476B;}
	.st22{fill:#003549;}
	.st23{fill:#408FC5;stroke:#165880;stroke-width:0.4293;stroke-miterlimit:10;}
	.st24{fill:#2E639F;stroke:#165880;stroke-width:0.4687;stroke-miterlimit:10;}
	.st25{fill:#146FA1;stroke:#02496C;stroke-width:0.4687;stroke-miterlimit:10;}
	.st26{opacity:0.5;}
	.st27{fill:#408FC5;}
	.st28{display:inline;opacity:0.5;}
	.st29{display:inline;fill:#FFFFFF;}
	.st30{display:inline;fill:#408FC5;}
	.st31{fill:#102769;}
	.st32{fill:#0A1239;}
	.st33{fill:#E8E9EA;}
	.st34{fill:#B9C4CA;}
	.st35{fill:#D7D9DD;}
	.st36{fill:#003479;}
	.st37{fill:#B5B7BA;}
	.st38{fill:#AFB1BC;}
	.st39{fill:#A2A5B2;}
	.st40{fill:#2D417B;}
	.st41{fill:#080E2E;}
	.st42{fill:#8B95A2;}
	.st43{fill:#0C1E54;}
	.st44{fill:#002861;}
	.st45{fill:#171A49;}
	.st46{fill:#001238;}
	.st47{fill:#0C1035;}
	.st48{fill:#1D215A;}
	.st49{fill:#3B4E84;}
	.st50{fill:#263A77;}
	.st51{fill:#386197;}
	.st52{fill:#0F4181;}
	.st53{fill:#091037;}
	.st54{fill:#90D4E8;}
	.st55{fill:#5DD4E8;}
	.st56{fill:#AEDFEE;}
	.st57{fill:#8BD4E8;}
	.st58{fill:#00B1D0;}
	.st59{fill:#C0C2CD;}
	.st60{fill:#000E2D;}
	.st61{fill:#2C3B6A;}
	.st62{fill:#1D2C5F;}
	.st63{fill:#11143B;}
	.st64{fill:#161948;}
	.st65{fill:#0D0F30;}
	.st66{fill:#000B24;}
	.st67{fill:#091744;}
	.st68{fill:#262A46;}
	.st69{fill:#020720;}
	.st70{fill:#2C2E34;}
	.st71{fill:#5B5D69;}
	.st72{fill:#25272C;}
	.st73{fill:#82848D;}
	.st74{fill:#A0A1A8;}
	.st75{fill:#454750;}
	.st76{fill:#3C3E46;}
	.st77{fill:#31333A;}
	.st78{fill:#52545F;}
	.st79{fill:#090C2A;}
	.st80{fill:#0C1014;}
	.st81{clip-path:url(#SVGID_2_);fill:#090C2A;}
</style>
<g class="st0">
	<g class="st1">
		<path class="st2" d="M97.7,4.7c0.9-1.6,0.7-1.4-1.7-1.9c0,0-2.3-0.5-3-0.5c-0.8-0.1-1.4,0-2.3,1.1c-0.9,1.1-3.2,3.6-8.3,9.5
			c-5.1,5.9-8.8,6.5-13.5,5c-4.7-1.4-10.4-3.9-18-6.7c-7.6-2.8-19-7.8-26.7-9.6C16.6,0,13,1.9,11.4,3.1C9.9,4.3,8.2,5.6,6.1,6.5
			c-0.5,1.3-1.6,4.7-2.3,9.9c2.4,2.9,6.9,7.3,13.6,10.2C29.8,32,41.8,34,57.2,35.4c5.4,0.9,5.5,0.9,7.9-0.4c2.4-1.3,1.8-1.2,7.4-0.9
			c5.6,0.3,10.6,0,12.5-0.2c1.9-0.2,3.1-2.7,4.4-2.7c1.2,0-2.2-3.2,0.9-10.3C93.2,13.9,96.9,6.2,97.7,4.7z"/>
		<g class="st3">
			<path class="st4" d="M97.7,4.7c0.9-1.6,0.7-1.4-1.7-1.9c0,0-0.1,0-0.3-0.1c-0.2,2.5-3.1,8.2-5.6,13.5c-3,6.5-3.3,10.1-4.5,9.8
				c-1.2-0.3-2.3,0.6-2-1.5c0.4-2.3-4.3,1.4-7.2,3.2c-2.9,1.8-5.4,0.6-16-3.7c-13.6-5.3-17-6.3-21.3-7.4c-4.2-1.1-6.8-0.9-7.9,1.2
				c-1.2,2.1-8.3-1.2-12.5-3.4c-4.2-2.2-1.4-2.8,0.9-6.8c1.3-2.3-0.8-1.9-4.5-3.8c-1.4-0.7-1.7-1.4-1.5-1.9
				c-1.1,0.4-1.9,0.9-2.4,1.3C9.9,4.3,8.2,5.6,6.1,6.5c-0.5,1.3-1.6,4.7-2.3,9.9c2.4,2.9,6.9,7.3,13.6,10.2
				C29.8,32,41.8,34,57.2,35.4c5.4,0.9,5.5,0.9,7.9-0.4c2.4-1.3,1.8-1.2,7.4-0.9c5.6,0.3,10.6,0,12.5-0.2c1.9-0.2,3.1-2.7,4.4-2.7
				c1.2,0-2.2-3.2,0.9-10.3C93.2,13.9,96.9,6.2,97.7,4.7z"/>
			<g>
				<path class="st4" d="M65.5,31.5c-6.1-1-7.3-0.8-9.1-3c-1.8-2.2-7.5-3.7-9.7-4.3c-2.2-0.6-2.4,0-2.9-0.3
					c-0.5-0.3-2.1-1.5-7.1-2.9c-3.7-1-3.8-1-4.9,0.8c-1.2,1.9-3.4,0.9-13.8-3.5c-6.3-2.6-12.4-6.7-12.1-8.3c0.2-1,0.7-2.8,1-4
					C6.6,6.3,6.3,6.4,6.1,6.5c-0.5,1.3-1.6,4.7-2.3,9.9c2.4,2.9,6.9,7.3,13.6,10.2C29.8,32,41.8,34,57.2,35.4
					c5.4,0.9,5.5,0.9,7.9-0.4c2.4-1.3,1.8-1.2,7.4-0.9c5.6,0.3,10.6,0,12.5-0.2c0.8-0.1,1.4-0.5,2-1c-1.1,0-2.5-0.1-4.5-0.1
					C75,32.7,71.6,32.5,65.5,31.5z"/>
			</g>
		</g>
		<path class="st5" d="M4.6,11.8c-0.3,1.3-0.6,2.9-0.8,4.6c2.4,2.9,6.9,7.3,13.6,10.2C29.8,32,41.8,34,57.2,35.4
			c5.4,0.9,5.5,0.9,7.9-0.4c2.4-1.3,1.8-1.2,7.4-0.9c5.6,0.3,10.6,0,12.5-0.2c0.6-0.1,1.1-0.3,1.6-0.7c-5,0.7-14,0.3-28.5-1.8
			C19.6,23.7,7.5,14.6,4.6,11.8z"/>
		<g>
			<path class="st6" d="M58.1,31.5C19.6,23.7,7.5,14.6,4.6,11.8c-0.3,1.3-0.6,2.9-0.8,4.6c1,1.2,2.4,2.7,4.2,4.3l0-0.1
				c0,0-3.4-3.5-3-5.6c0.4-1.7,7.7,5,17.4,8.4c8,2.7,8,2.8,7.8,4.3c-0.2,1.5-4.1,2.7-11.7-0.6c-0.3-0.1-0.6-0.3-0.9-0.4
				C30,32,41.9,34.1,57.2,35.4c0.2,0,0.4,0.1,0.5,0.1c0.2-0.6,0.4-1.5,0.5-2c0.2-1,0.8-0.4,3.8-0.1c3,0.3,2.1,2.1-0.3,2.6
				c-0.1,0-0.2,0-0.3,0.1c1.5,0.1,2.1-0.2,3.6-1c2.4-1.3,1.8-1.2,7.4-0.9c5.6,0.3,10.6,0,12.5-0.2c0.6-0.1,1.1-0.3,1.6-0.7
				C81.5,34,72.5,33.7,58.1,31.5z"/>
		</g>
		<path class="st7" d="M12.1,9.5c2.9,1.1,4.2,1.5,6.1-0.8c1.9-2.4,1.6-2.5-0.1-3c-3.5-1.1-5.2-2.6-5.7-3.1c-0.4,0.2-0.7,0.4-0.9,0.6
			C10.2,4,9,4.9,7.6,5.7C7.6,7.2,9.3,8.4,12.1,9.5z"/>
		<g>
			<path class="st8" d="M18,5.6c-3.5-1.1-5.2-2.6-5.7-3.1c-0.4,0.2-0.7,0.4-0.9,0.6C10.2,4,9,4.9,7.6,5.7c-0.1,1.4,1.7,2.7,4.5,3.8
				c2.9,1.1,4.2,1.5,6.1-0.8C20.1,6.3,19.7,6.2,18,5.6z M17.1,8.2c-1.6,2-2.7,1.7-5.2,0.7C9.5,8,8,6.9,8.1,5.6
				c1.2-0.7,2.2-1.5,3.2-2.2c0.2-0.2,0.5-0.3,0.8-0.5c0.5,0.4,2,1.7,4.9,2.7C18.5,6,18.8,6.1,17.1,8.2z"/>
		</g>
		<g>
			<path class="st9" d="M99,32.5c0-0.2-0.1-0.5-0.6-0.7c-1.1-0.7-7-2.9-9.3-3.6c-2.3-0.7-6.4-1.7-6.4-1.7s3.4,2.1,8,4.4
				C95.1,33,96.9,33.5,99,32.5z"/>
			<path class="st9" d="M90.7,30.9c-4.6-2.2-8-4.4-8-4.4l-0.2,0.6c0,0,5.1,3.3,7.7,4.5c2.5,1.1,5.2,2.4,7,2c1.1-0.2,1.7-0.6,1.8-1
				C96.9,33.5,95.1,33,90.7,30.9z"/>
		</g>
		<g>
			<path class="st7" d="M30.2,14.6c0,0,1.1,0.5,1.6,0.5c0.5-0.1,1.5-3.7,0.3-4.1c-0.9-0.4-1.4,0.2-1.8,1.6
				C29.9,14,30,14.6,30.2,14.6z"/>
			<path class="st10" d="M30.2,14.2c0,0,0.9,0.5,1.3,0.4c0.4-0.1,1.2-3.1,0.3-3.5c-0.8-0.3-1.2,0.2-1.5,1.4
				C30,13.7,30.1,14.2,30.2,14.2z"/>
			<path class="st11" d="M30.2,14.6c0,0,1.1,0.5,1.6,0.5c0.5-0.1,1.5-3.7,0.3-4.1c-0.9-0.4-1.4,0.2-1.8,1.6
				C29.9,14,30,14.6,30.2,14.6z"/>
		</g>
		<g>
			<path class="st7" d="M36,16.5c0,0,1.1,0.5,1.6,0.5c0.5-0.1,1.5-3.7,0.3-4.1c-0.9-0.4-1.4,0.2-1.8,1.6
				C35.7,15.9,35.8,16.5,36,16.5z"/>
			<path class="st10" d="M36.1,16.1c0,0,0.9,0.5,1.3,0.4c0.4-0.1,1.2-3.1,0.3-3.5c-0.8-0.3-1.2,0.2-1.5,1.4
				C35.8,15.5,35.9,16,36.1,16.1z"/>
			<path class="st11" d="M36,16.5c0,0,1.1,0.5,1.6,0.5c0.5-0.1,1.5-3.7,0.3-4.1c-0.9-0.4-1.4,0.2-1.8,1.6
				C35.7,15.9,35.8,16.5,36,16.5z"/>
		</g>
		<g>
			<path class="st7" d="M42.1,18.6c0,0,1.1,0.5,1.6,0.5c0.5-0.1,1.5-3.7,0.3-4.1c-0.9-0.4-1.4,0.2-1.8,1.6
				C41.9,17.9,41.9,18.5,42.1,18.6z"/>
			<path class="st10" d="M42.2,18.2c0,0,0.9,0.5,1.3,0.4c0.4-0.1,1.2-3.1,0.3-3.5c-0.8-0.3-1.2,0.2-1.5,1.4
				C42,17.6,42,18.1,42.2,18.2z"/>
			<path class="st11" d="M42.1,18.6c0,0,1.1,0.5,1.6,0.5c0.5-0.1,1.5-3.7,0.3-4.1c-0.9-0.4-1.4,0.2-1.8,1.6
				C41.9,17.9,41.9,18.5,42.1,18.6z"/>
		</g>
		<g>
			<path class="st7" d="M48.5,20.9c0,0,1.1,0.5,1.6,0.5c0.5-0.1,1.5-3.7,0.3-4.1c-0.9-0.4-1.4,0.2-1.8,1.6
				C48.2,20.3,48.3,20.9,48.5,20.9z"/>
			<path class="st10" d="M48.6,20.5c0,0,0.9,0.5,1.3,0.4c0.4-0.1,1.2-3.1,0.3-3.5c-0.8-0.3-1.2,0.2-1.5,1.4
				C48.3,20,48.4,20.5,48.6,20.5z"/>
			<path class="st11" d="M48.5,20.9c0,0,1.1,0.5,1.6,0.5c0.5-0.1,1.5-3.7,0.3-4.1c-0.9-0.4-1.4,0.2-1.8,1.6
				C48.2,20.3,48.3,20.9,48.5,20.9z"/>
		</g>
		<g>
			<path class="st7" d="M55.2,23.4c0,0,1.1,0.5,1.6,0.5c0.5-0.1,1.5-3.7,0.3-4.1c-0.9-0.4-1.4,0.2-1.8,1.6
				C54.9,22.7,55,23.3,55.2,23.4z"/>
			<path class="st10" d="M55.3,23c0,0,0.9,0.5,1.3,0.4c0.4-0.1,1.2-3.1,0.3-3.5c-0.8-0.3-1.2,0.2-1.5,1.4C55,22.4,55.1,22.9,55.3,23
				z"/>
			<path class="st11" d="M55.2,23.4c0,0,1.1,0.5,1.6,0.5c0.5-0.1,1.5-3.7,0.3-4.1c-0.9-0.4-1.4,0.2-1.8,1.6
				C54.9,22.7,55,23.3,55.2,23.4z"/>
		</g>
		<g>
			<path class="st7" d="M62.6,26.1c0,0,1.1,0.5,1.6,0.5c0.5-0.1,1.5-3.7,0.3-4.1c-0.9-0.4-1.4,0.2-1.8,1.6
				C62.4,25.4,62.4,26,62.6,26.1z"/>
			<path class="st10" d="M62.7,25.6c0,0,0.9,0.5,1.3,0.4c0.4-0.1,1.2-3.1,0.3-3.5c-0.8-0.3-1.2,0.2-1.5,1.4
				C62.5,25.1,62.5,25.6,62.7,25.6z"/>
			<path class="st11" d="M62.6,26.1c0,0,1.1,0.5,1.6,0.5c0.5-0.1,1.5-3.7,0.3-4.1c-0.9-0.4-1.4,0.2-1.8,1.6
				C62.4,25.4,62.4,26,62.6,26.1z"/>
		</g>
		<g>
			<path class="st7" d="M24.3,12.4c0,0,1.1,0.5,1.6,0.5c0.5-0.1,1.5-3.7,0.3-4.1c-0.9-0.4-1.4,0.2-1.8,1.6
				C24,11.7,24.1,12.3,24.3,12.4z"/>
			<path class="st10" d="M24.3,12c0,0,0.9,0.5,1.3,0.4c0.4-0.1,1.2-3.1,0.3-3.5c-0.8-0.3-1.2,0.2-1.5,1.4
				C24.1,11.4,24.2,11.9,24.3,12z"/>
			<path class="st11" d="M24.3,12.4c0,0,1.1,0.5,1.6,0.5c0.5-0.1,1.5-3.7,0.3-4.1c-0.9-0.4-1.4,0.2-1.8,1.6
				C24,11.7,24.1,12.3,24.3,12.4z"/>
		</g>
		<path class="st12" d="M32.8,17.2c-1,0.8-1,2.1,0.5,2.7c0,0,20.5,5.9,28.8,8.1c4.7,1.3,9.5,2.9,13,3.9l-0.1-0.1L32.8,17.2z"/>
		<g>
			<path class="st13" d="M73.4,29.5c-0.1,0-0.1-0.1-0.2-0.1c-1-0.1-2.2-0.6-4.3-1.5c-11.7-4.7-16.5-6.6-21.2-8.4
				c-4.7-1.8-10.8-3.1-13.3-3c-0.7,0.1-1.2,0.3-1.6,0.6l42.2,14.6l0.1,0.1c2.5,0.7,4.3,1,4.9,0.4C78.6,32.6,74.9,30.3,73.4,29.5z"/>
			<path class="st14" d="M82.9,24.4c-0.8-0.4-5.1,3.5-7.8,4.8c-0.7,0.2-1.2,0.3-1.9,0.2c0.1,0,0.1,0.1,0.2,0.1
				c1.5,0.7,5.2,3.1,6.6,2.8c0,0,0,0,0,0C81.1,30.9,83.6,24.8,82.9,24.4z"/>
		</g>
		<path class="st11" d="M12.1,9.5c2.9,1.1,4.2,1.5,6.1-0.8c1.9-2.4,1.6-2.5-0.1-3c-3.5-1.1-5.2-2.6-5.7-3.1
			c-0.4,0.2-0.7,0.4-0.9,0.6C10.2,4,9,4.9,7.6,5.7C7.6,7.2,9.3,8.4,12.1,9.5z"/>
		<g>
			<path class="st9" d="M6.1,6.5C5.9,6.5,5.8,6.6,5.6,6.7c-5.3,2.2-5.1,4.5-3.9,6.9c0,0,0.7,1.2,2.1,2.9C4.4,11.2,5.6,7.8,6.1,6.5z"
				/>
			<g>
				<path class="st15" d="M1,11.4c0,0.7,0.3,1.4,0.7,2.1c0,0,0.7,1.2,2.1,2.9c0.1-1.2,0.3-2.2,0.5-3.2C2.8,12.6,1.7,12,1,11.4z"/>
				<path class="st15" d="M6.1,6.5C5.9,6.5,5.8,6.6,5.6,6.7C3.7,7.5,2.5,8.3,1.8,9.1C2.5,9,3.6,9,5.2,9.1C5.6,7.9,5.9,7,6.1,6.5z"/>
			</g>
			<path class="st16" d="M1.8,9c0,0,1.4-0.7,3.8-1l0.3-0.8C5.8,7.3,3.9,7.4,1.8,9z"/>
		</g>
		<g>
			<path class="st17" d="M73.4,29.5c-0.1,0-0.1-0.1-0.2-0.1c-1-0.1-2.2-0.6-4.3-1.5c-1.3-0.5-2.4-1-3.6-1.4c4.6,2.4,8.5,4.3,0,1.2
				c-8.5-3.1-24.4-8.8-28-10c-1.7-0.6-1.4-0.8-0.6-1c-0.9-0.1-1.7-0.2-2.3-0.1c-0.7,0.1-1.2,0.3-1.6,0.6l42.2,14.6l0.1,0.1
				c2.5,0.7,4.3,1,4.9,0.4C78.6,32.6,74.9,30.3,73.4,29.5z"/>
		</g>
		<g>
			<path class="st18" d="M75.1,31.9L75.1,31.9L32.8,17.2c-1,0.8-1,2.1,0.5,2.7c0,0,1.9,0.6,4.9,1.4c-0.4-0.2-0.9-0.4-1.4-0.5
				c-2.5-0.6-4.6-3.2,1.4-1.3c6,1.9,21.6,7.1,17.7,6.7c-0.1,0-0.2,0-0.2,0c2.5,0.7,4.8,1.3,6.6,1.8C66.9,29.4,71.7,31,75.1,31.9z"/>
		</g>
		<path class="st18" d="M37.2,20c0,0,7.1,2.1,12.7,4c5.6,1.8,0.1,0.5-4.6-0.8C40.6,21.8,33.7,19.4,37.2,20z"/>
		<g>
			<path class="st17" d="M15.5,2.5c0.1,1.7,5.8,3,20.1,8.1c14.4,5.2,32,11.7,35.9,12.8c3.9,1.1,8.2,0.7,12.1-5.2
				c3-4.5,7.5-12.1,9.6-15.6c0,0-0.1,0-0.1,0c-0.8-0.1-1.4,0-2.3,1.1c-0.8,1.1-3.2,3.6-8.3,9.5c-5.1,5.9-8.8,6.5-13.5,5
				c-4.7-1.4-10.4-3.9-18-6.7C43.5,8.8,32,3.8,24.4,2c-3.5-0.8-6.2-0.8-8.2-0.5C15.8,1.8,15.5,2.1,15.5,2.5z"/>
		</g>
		<path class="st6" d="M7.9,18.7c0,0,4.9,4.7,15.6,7.9c6.2,2.1-0.7,2.9-9.6-2.3C8,20.3,6.8,17.7,7.9,18.7z"/>
		<path class="st17" d="M42.6,18.2c0,0,3.8,1.1,16,6c12.3,4.9,3.6,2-6.2-1.9C44.7,19.5,39.6,17.8,42.6,18.2z"/>
		<g>
			<path class="st19" d="M33.7,20.8c0,0,6.4,0.8,9.3,3.5c1.4,1.3,2.4,2.9,2.2,4.5c-0.2,1.8-1.8,3.5-4.5,4.5c-4.9,1.8-9-0.1-9-0.1
				L33.7,20.8z"/>
			<path class="st6" d="M45.2,28.8c0.1-1.1-0.3-2.3-1.1-3.3c1.5,2.1,1.1,3.9-1.4,5.3c-3.2,1.8-8.4,0.1-8-2.6
				c0.4-2.3,0.6-3.4,0.4-5.9c-0.1-1.3,1.5-0.9,1.5-0.9l0,0c-1.6-0.4-2.9-0.6-2.9-0.6l-2.1,12.4c0,0,4.1,1.9,9,0.1
				C43.4,32.3,45,30.6,45.2,28.8z"/>
			<g>
				<path class="st6" d="M32,31.3l-0.3,1.9c0,0,4.1,1.9,9,0.1c1.6-0.6,2.8-1.4,3.6-2.3C39,34.5,33.6,32.2,32,31.3z"/>
			</g>
			<g>
				<path class="st15" d="M43.8,25.2c-0.2-0.2-0.3-0.4-0.5-0.6c0.1,1.6,0,4.7-1.8,8.3c0.3-0.1,0.5-0.3,0.8-0.4
					C43.7,29.5,43.9,26.8,43.8,25.2z"/>
			</g>
			<path class="st20" d="M33.9,27.3c-0.6,3.4-1.6,6.1-2.2,5.9c-0.7-0.2-0.7-3.1-0.2-6.5c0.6-3.4,1.6-6.1,2.2-5.9
				C34.4,21,34.4,23.9,33.9,27.3z"/>
			<g>
				<path class="st21" d="M33.9,26.6l0.1,0.1C34,26.7,34,26.7,33.9,26.6L33.9,26.6z"/>
				<path class="st22" d="M32.2,32.1c0.5,0.1,1.2-1.9,1.7-4.5L32,31.9C32.1,32,32.1,32,32.2,32.1z"/>
				<path class="st21" d="M33.8,22.2c-0.1,0-0.3,0.1-0.5,0.4l0.6,4C34.3,24.2,34.3,22.3,33.8,22.2z"/>
				<path class="st22" d="M34,26.8l-0.1-0.1l-1.5-1.2c-0.1,0.4-0.2,0.9-0.3,1.4L34,26.8C34,26.8,34,26.8,34,26.8z"/>
				<path class="st21" d="M32.8,24.1c-0.1,0.4-0.2,0.9-0.4,1.3l1.5,1.2L32.8,24.1z"/>
				<path class="st22" d="M34,26.7C34,26.6,34,26.6,34,26.7l-0.6-4.1c-0.2,0.3-0.4,0.8-0.6,1.5L34,26.7L34,26.7z"/>
				<path class="st22" d="M33.9,26.9L32,28c-0.1,0.7-0.1,1.4-0.2,2L33.9,26.9C33.9,26.9,33.9,26.9,33.9,26.9z"/>
				<path class="st21" d="M34,26.8l-1.8,0c0,0,0,0.1,0,0.1C32.1,27.3,32,27.6,32,28l2-1.1C34,26.9,34,26.8,34,26.8z"/>
				<path class="st21" d="M33.9,26.9l-2.1,3c0,0.9,0,1.7,0.2,2l1.8-4.4c0-0.1,0-0.1,0-0.2C33.9,27.2,33.9,27.1,33.9,26.9z"/>
			</g>
			<g>
				<path class="st23" d="M43,24.3c-0.1-0.1-0.3-0.3-0.4-0.4C42.7,24.1,42.9,24.2,43,24.3C43,24.3,43,24.3,43,24.3z"/>
			</g>
			<path class="st6" d="M35.7,24c0,0,6.3,1.3,8.6,3.6c0.5,0.6-0.1-2.9-4.3-4.6c-4.1-1.7-4.3-1.1-4.4-0.4C35.6,23.4,35.7,24,35.7,24z
				"/>
			<path class="st16" d="M36.9,22.7c0,0,3.2,0.6,5.1,2.2c1.2,0.9,0.6-0.4-1.8-1.5C37.8,22.3,35.5,22.2,36.9,22.7z"/>
		</g>
		<g>
			<path class="st24" d="M45,24.5c0,0,7,0.9,10.2,3.8c1.5,1.4,2.6,3.2,2.4,4.9c-0.2,1.9-2,3.8-5,4.9c-5.3,2-9.8-0.1-9.8-0.1L45,24.5
				z"/>
			<path class="st6" d="M57.5,33.3c0.2-1.2-0.4-2.5-1.2-3.7c1.6,2.2,1.2,4.3-1.5,5.8c-3.5,1.9-9.2,0.1-8.7-2.8
				c0.4-2.5,0.7-3.7,0.5-6.5c-0.1-1.5,1.6-1,1.6-1l0,0c-1.8-0.4-3.2-0.6-3.2-0.6L42.7,38c0,0,4.5,2.1,9.8,0.1
				C55.5,37,57.3,35.2,57.5,33.3z"/>
			<g>
				<path class="st6" d="M43.1,35.9L42.7,38c0,0,4.5,2.1,9.8,0.1c1.7-0.6,3-1.5,3.9-2.6C50.8,39.5,44.9,36.9,43.1,35.9z"/>
			</g>
			<g>
				<path class="st15" d="M56,29.3c-0.2-0.2-0.4-0.4-0.6-0.7c0.1,1.7,0,5.2-2,9.1c0.3-0.1,0.6-0.3,0.8-0.5C55.9,34,56.1,31,56,29.3z
					"/>
			</g>
			<path class="st25" d="M45.2,31.6c-0.6,3.7-1.7,6.6-2.4,6.4c-0.7-0.2-0.8-3.4-0.2-7.1c0.6-3.7,1.7-6.6,2.4-6.4
				C45.7,24.7,45.8,27.9,45.2,31.6z"/>
			<g>
				<path class="st21" d="M45.2,30.8l0.1,0.2C45.3,30.9,45.3,30.9,45.2,30.8L45.2,30.8z"/>
				<path class="st22" d="M43.3,36.8c0.5,0.1,1.3-2.1,1.8-5l-2,4.8C43.2,36.7,43.2,36.7,43.3,36.8z"/>
				<path class="st21" d="M45.1,25.9c-0.2,0-0.3,0.1-0.5,0.5l0.7,4.4C45.7,28.2,45.6,26.1,45.1,25.9z"/>
				<path class="st22" d="M45.3,31l-0.1-0.2l-1.6-1.3c-0.1,0.5-0.2,1-0.3,1.5L45.3,31C45.3,31,45.3,31,45.3,31z"/>
				<path class="st21" d="M44,28c-0.1,0.4-0.3,0.9-0.4,1.5l1.6,1.3L44,28z"/>
				<path class="st22" d="M45.3,30.9C45.3,30.9,45.3,30.8,45.3,30.9l-0.7-4.5c-0.2,0.4-0.4,0.9-0.6,1.6L45.3,30.9L45.3,30.9z"/>
				<path class="st22" d="M45.2,31.1l-2.2,1.2c-0.1,0.8-0.2,1.5-0.2,2.2L45.2,31.1C45.2,31.2,45.2,31.1,45.2,31.1z"/>
				<path class="st21" d="M45.3,31l-2,0c0,0,0,0.1,0,0.1c-0.1,0.4-0.1,0.8-0.2,1.2l2.2-1.2C45.3,31.1,45.3,31,45.3,31z"/>
				<path class="st21" d="M45.2,31.2l-2.3,3.3c0,1,0,1.8,0.2,2.1l2-4.8c0-0.1,0-0.1,0-0.2C45.2,31.5,45.2,31.3,45.2,31.2z"/>
			</g>
			<g>
				<path class="st14" d="M55.1,28.3c-0.2-0.1-0.3-0.3-0.5-0.4C54.8,28,55,28.2,55.1,28.3C55.2,28.3,55.2,28.3,55.1,28.3z"/>
			</g>
			<path class="st6" d="M47.2,28c0,0,6.9,1.4,9.4,4c0.5,0.6-0.2-3.1-4.7-5c-4.5-1.9-4.7-1.2-4.8-0.4C47.1,27.3,47.2,28,47.2,28z"/>
			<path class="st16" d="M48.4,26.6c0,0,3.4,0.7,5.6,2.4c1.3,1,0.6-0.4-2-1.6C49.5,26.1,47,26,48.4,26.6z"/>
		</g>
		<g class="st26">
			<path class="st27" d="M82.9,24.4c-0.1,0-0.2,0-0.3,0c0,0.8-0.3,2-0.9,3.5c-1.9,4.3-2.6,3.5-4,3c-1.4-0.5-2.6-1.3-1.2-2.1
				c0.9-0.5,1.9-1.5,2.5-2.1c-1.3,1-2.7,2-3.9,2.5c-0.7,0.2-1.2,0.3-1.9,0.2c0.1,0,0.1,0.1,0.2,0.1c1.5,0.7,5.2,3.1,6.6,2.8
				c0,0,0,0,0,0C81.1,30.9,83.6,24.8,82.9,24.4z"/>
		</g>
		<g>
			<path class="st15" d="M88.1,28.9c-1.1-0.7-0.3-0.8,1-0.7c-2.3-0.7-6.2-1.7-6.2-1.7s3.4,2.1,8,4.4c4.1,2,6,2.5,7.9,1.8
				C95.9,33,90.1,30.3,88.1,28.9z"/>
		</g>
		<path class="st15" d="M92.3,29.7c0,0,5.8,2.2,5.7,2.7C97.8,32.8,100.7,32.3,92.3,29.7z"/>
	</g>
	<g class="st28">
		<path class="st7" d="M13.7,3.6L10.2,4C9.9,4.2,9.6,4.5,9.2,4.7l5.2-0.6C14.2,3.9,13.9,3.8,13.7,3.6z"/>
		<path class="st7" d="M18,5.6c-0.3-0.1-0.5-0.2-0.7-0.2L7.8,6.5C7.9,6.7,8,6.9,8.2,7.2l10.7-1.2C18.7,5.8,18.4,5.7,18,5.6z"/>
		<path class="st7" d="M19.1,7.4L9.8,8.5c0.4,0.2,0.8,0.5,1.3,0.7l7.3-0.8C18.7,7.9,19,7.6,19.1,7.4z"/>
	</g>
	<path class="st29" d="M16.1,5.4c0,0-1.5-0.4-2.7-1.3c-1.2-0.8-1.9,0.1-3.4,1.4C8.3,6.8,8,6.5,9.3,5.4c1.2-1.1,2.3-2.6,3.1-2.1
		C13.2,3.8,16.3,5.4,16.1,5.4z"/>
	<path class="st29" d="M17.2,5.9c0,0.1-0.2,0.1-0.3,0c-0.2-0.1-0.3-0.2-0.3-0.3c0-0.1,0.2-0.1,0.3,0C17.1,5.7,17.2,5.8,17.2,5.9z"/>
	<path class="st30" d="M81.8,25c0,0-2.2,1.3-3.6,2.8c-1.4,1.4-0.1,0.6,1.2-0.4C80.8,26.4,82.6,24.6,81.8,25z"/>
</g>
<g>
	<path class="st31" d="M86.7,19c0,0,2.7,0.4,3,1.2c0.3,0.8,0.4,3.4-1.7,6c-2.1,2.6-1.8,3.9-4.5,2.5C80.8,27.3,86.7,19,86.7,19
		L86.7,19z"/>
	<path class="st32" d="M83.5,28.7c2.8,1.4,2.5,0.1,4.5-2.5c0.6-0.8,1.1-1.6,1.4-2.4c-2-0.1-3.7-0.5-5.1-0.9
		C83.1,25.2,82.1,27.9,83.5,28.7L83.5,28.7z"/>
	<path class="st33" d="M75.5,10.7c1.3-1.1,9.6-7.3,11.2-8.5c1.6-1.2,5.4-2.3,5.1,2.1c-0.2,2.3-1,6-1.8,9.2c-0.7,3-1.4,5.6-1.4,6.1
		c0.1,0.9,0.8,3.5-0.5,4.7c0,0-2.1,1.3-2.4,2.4c-0.3,1-0.4,2.7-2.5,2.8c-1,0.1-2.2-0.1-3.5-0.2c-1.5-0.2-3.1-0.3-4.7-0.2
		c-2.9,0.3-15.1,3.4-22.8,3.3c-7.6,0-18.2-0.6-27.8-2.9c-9.6-2.3-15.1-4.7-18.8-6.7c-3.8-1.9-5.1-4.1-4.3-6.1c0.8-1.9,6.2-3,8.4-4
		c2.4-1.1,5.8-2.8,8.8-4.8c3-2.1,6-3,11.3-3.2c5.9-0.2,31.9,7.1,35.2,7.9c3.7,0.9,4.4,0.9,5.9,0.6C73.2,12.7,75.5,10.7,75.5,10.7
		L75.5,10.7z"/>
	<path class="st34" d="M75.6,10.8c2.1-1.7,4.2-3.2,6.3-4.8c1.2-0.9,2.4-1.8,3.6-2.7C86.3,2.7,87,2,88,1.6c1-0.4,2.5-0.7,3.2,0.3
		c0.5,0.7,0.5,1.6,0.4,2.3c-0.1,1-0.2,1.9-0.4,2.9c-0.4,2.3-1,4.6-1.5,6.9c-0.3,1.1-0.6,2.2-0.8,3.4c-0.2,0.6-0.3,1.3-0.4,1.9
		c0,0.6,0.2,1.2,0.2,1.8c0.1,0.9,0.1,1.8-0.4,2.6c-0.3,0.5-0.9,0.8-1.3,1.1c-0.6,0.5-1.2,1-1.5,1.7c-0.2,0.6-0.3,1.3-0.7,1.9
		c-0.6,0.8-1.7,0.9-2.7,0.9c-2.4-0.1-4.8-0.7-7.3-0.4c-1.2,0.1-2.4,0.4-3.6,0.6c-1.9,0.4-3.7,0.7-5.6,1.1c-4.2,0.8-8.5,1.5-12.8,1.6
		c-2.3,0-4.5,0-6.8-0.1c-2.6-0.1-5.2-0.3-7.8-0.5c-5.6-0.5-11.1-1.5-16.5-2.9c-4.3-1.1-8.4-2.5-12.4-4.2c-1.4-0.6-2.8-1.3-4.2-2
		c-1.8-1-3.7-2.4-4-4.3c-0.1-0.7,0.1-1.4,0.5-1.9c0.5-0.6,1.3-0.9,2-1.2c1.7-0.7,3.4-1.2,5.1-1.8c0.8-0.3,1.6-0.7,2.4-1.1
		c1.1-0.5,2.2-1.1,3.2-1.6c1.2-0.6,2.3-1.3,3.4-2c0.8-0.6,1.7-1.1,2.6-1.6c1.8-0.9,3.7-1.4,5.7-1.7c1.6-0.2,3.2-0.4,4.9-0.2
		c2.6,0.2,5.2,0.8,7.7,1.3c6.6,1.4,13,3.1,19.5,4.8c2,0.5,4.1,1.1,6.1,1.6c1.4,0.4,2.7,0.7,4.2,0.9c1.4,0.2,2.9-0.2,4.1-0.8
		C73.8,12.2,74.8,11.6,75.6,10.8c0.1-0.1-0.1-0.3-0.2-0.2c-1.2,1-2.7,1.9-4.3,2.4c-1.4,0.4-2.7,0.2-4.1-0.1c-2.1-0.4-4.1-1-6.1-1.5
		C54.6,9.8,48.4,8.1,42,6.7c-2.9-0.7-5.8-1.3-8.8-1.8c-1-0.1-2-0.3-2.9-0.3c-1.9-0.1-4,0.2-5.8,0.6c-1.9,0.4-3.6,1.1-5.2,2.1
		c-1,0.6-2,1.3-3,1.9c-1.1,0.7-2.2,1.3-3.4,1.8c-1.7,0.9-3.4,1.7-5.3,2.4c-1.7,0.6-3.5,1.1-5,1.9c-0.6,0.3-1.1,0.7-1.4,1.3
		C1,17.1,1,17.8,1,18.4c0.3,1.7,1.9,3,3.4,3.9c1.4,0.8,2.9,1.5,4.4,2.2c1.6,0.7,3.3,1.4,5,2c4.8,1.7,9.9,3.1,15,4
		c5.3,1,10.6,1.5,16,1.8c4.4,0.2,8.7,0.3,13.1-0.2c4.2-0.5,8.3-1.3,12.4-2.1c1.4-0.3,2.7-0.6,4.1-0.8c2.2-0.3,4.4,0,6.5,0.2
		c1,0.1,2.1,0.2,3.1-0.1c0.7-0.2,1.1-0.8,1.4-1.4c0.3-0.6,0.3-1.3,0.7-1.9c0.5-0.6,1.2-1.2,1.8-1.6c1.3-0.9,1.2-2.5,1-3.8
		c-0.1-0.5-0.2-1.1-0.2-1.6c0.1-0.8,0.3-1.6,0.5-2.4c0.6-2.3,1.2-4.7,1.7-7c0.4-2,0.9-4,1-6c0-1.1-0.3-2.5-1.7-2.7
		c-1.1-0.2-2.3,0.3-3.1,0.8c-0.9,0.5-1.6,1.2-2.4,1.8c-1.3,1-2.5,1.9-3.8,2.9c-1.8,1.4-3.7,2.7-5.4,4.2
		C75.3,10.8,75.5,10.9,75.6,10.8L75.6,10.8z"/>
	<path class="st35" d="M39.8,11.3c-2.7,0-4.6,0.4-5,1.2c-1.4,2.6-1.9,5.9-10.2,6.1c-8.3,0.3-6.7,3.7,0,4.7C27,23.8,29.2,24,31,24
		c3,0,5-0.7,5.2-2.5c0.4-2.3,2.4-2.8,7.7-2.9c-0.8-0.3-1.3-1-1.3-1.7c0-1.1,1-1.9,2.2-1.9c0.1,0,0.1,0,0.2,0c0.1,0,0.1,0,0.2,0
		c1.2,0,2.2,0.9,2.2,1.9c0,0.8-0.5,1.5-1.3,1.8c0.7,0,1.4,0,2.1,0c0.6,0,1.3,0,2.1,0c-0.3-0.3-0.5-0.8-0.5-1.2c0-1.1,1-1.9,2.2-1.9
		c0.1,0,0.1,0,0.2,0c0.1,0,0.1,0,0.2,0c1.2,0,2.2,0.9,2.2,1.9c0,0.5-0.2,1-0.6,1.3c0.9,0,1.9,0,2.9,0.1c-0.1-0.2-0.1-0.4-0.1-0.6
		c0-1.1,1-1.9,2.2-1.9c0.1,0,0.1,0,0.2,0c0.1,0,0.1,0,0.2,0c1.2,0,2.2,0.9,2.2,1.9c0,0.2,0,0.5-0.1,0.7c0.5,0,1,0,1.5,0
		c0.3,0,0.7,0,1,0c0.3-0.7,1.1-1.2,2.1-1.2c0.1,0,0.1,0,0.2,0c0.1,0,0.1,0,0.2,0c0.9,0,1.7,0.5,2,1.1c4.9-0.2,7.3-0.8,1.9-2.3
		C61.3,14.1,47.3,11.3,39.8,11.3L39.8,11.3z"/>
	<path class="st16" d="M13.6,10.9c-1.5,0.8-3,1.5-4,1.9c-2,1-6.8,2.1-8,3.8c1.3,0.5,2.8,1,5.2,1.7c10.6,3,17.7-4,20.3-6.1
		c-2.9-1.2-6.6-2-9.8-3.3C16.1,9.6,14.8,10.2,13.6,10.9z"/>
	<path class="st16" d="M91.8,4.3c0.3-4.3-3.4-3.3-5-2.1c-0.8,0.6-3,2.2-5.3,4l9.6,2.1C91.4,6.8,91.7,5.4,91.8,4.3z"/>
	<path class="st16" d="M91,9.1L80.6,6.8c-1.4,1-2.7,2-3.6,2.8l13.2,2.9C90.5,11.4,90.7,10.2,91,9.1z"/>
	<path class="st16" d="M89.7,14.8l-15.1-3.3c-0.9,0.6-2.3,1.4-3.6,1.7c-1.7,0.3-2.2,0.3-5.9-0.6c-3.2-0.8-29.3-8-35.2-7.9
		c-7.3,0.1-10.7,2.8-10.7,2.8c3.1,8.6,8.3-0.1,26.7,2.7c18,2.7,39.3,8.6,41.1,9.1c0.4,0.1,0.9,0.2,1.7,0.4c0,0,0,0,0-0.1
		C88.6,19.1,89.1,17.2,89.7,14.8z"/>
	<path class="st31" d="M79.9,27.7c-2.6-0.5-6-0.2-11.2,0c-5.1,0.2-12.1,0.4-21.7,0c-23.8-1.1-34.3-6.3-38.5-9.3
		c-1.8-1.3-3.2-2.7-4.2-3.7c-1.4,0.6-2.6,1.2-2.9,2c-0.8,1.9,0.5,4.2,4.3,6.1c3.8,1.9,9.3,4.4,18.8,6.7c9.6,2.3,20.1,2.8,27.8,2.9
		c7.6,0,19.9-3.1,22.8-3.3c1.5-0.2,3.2,0,4.7,0.2c1.3,0.1,2.5,0.3,3.5,0.2c1.1-0.1,1.7-0.6,2-1.2C83.6,28.2,81.8,28.1,79.9,27.7
		L79.9,27.7z"/>
	<path class="st36" d="M8,13.4c-2.5,0.9-6.1,1.8-6.7,3.4c-0.8,1.9,0.5,4.2,4.3,6.1C5.8,22.9,5.9,23,6,23c1.5-1.5,2.4-3.5,2.6-5.8
		C8.7,15.9,8.5,14.6,8,13.4L8,13.4z"/>
	<path class="st31" d="M86.7,2.2c-1.6,1.2-9.9,7.5-11.2,8.5c0,0-2.4,2-4.6,2.5c-1.2,0.3-2.3,0.2-3.5,0c4,0.9,4.2,1.1,7.6,2
		c0.4,0.1,0.7,0.2,0.9,0.2c-0.7-0.3-2.5-1.3-0.9-2.8c3-2.8,8.8-7.1,11.7-9.3c2.9-2.2,5-2.1,5,0.3C91.7,0,88.2,1.1,86.7,2.2z"/>
	<path class="st37" d="M79.9,16.5c-1.8-0.4-3.8-1.1-3.8-1.1l8.6,2C84.7,17.4,82,17,79.9,16.5z"/>
	<path class="st37" d="M87.9,18.7c-0.5-0.5-1.3-0.8-1.3-0.8c0.1,0,1.9,0.5,2.1,1.9C88.8,19.8,88.4,19.2,87.9,18.7z"/>
	<path class="st38" d="M44.6,18.7c-0.2,0-0.4,0-0.6,0c0.3,0.1,0.6,0.2,0.9,0.2c0.1,0,0.1,0,0.2,0c0.1,0,0.1,0,0.2,0
		c0.3,0,0.6-0.1,0.9-0.2C45.6,18.7,45.1,18.7,44.6,18.7L44.6,18.7z"/>
	<path class="st39" d="M45.2,15c-0.1,0-0.1,0-0.2,0c-0.1,0-0.1,0-0.2,0c-1.2,0-2.2,0.9-2.2,1.9c0,0.8,0.5,1.4,1.3,1.7
		c0.2,0,0.4,0,0.6,0c0.5,0,1,0,1.5,0c0.8-0.3,1.3-1,1.3-1.8C47.4,15.9,46.4,15,45.2,15L45.2,15z"/>
	<path class="st38" d="M50.3,18.7c0.4,0.4,1,0.7,1.7,0.7c0.1,0,0.1,0,0.2,0c0.1,0,0.1,0,0.2,0c0.6,0,1.2-0.2,1.6-0.6
		C52.6,18.8,51.4,18.8,50.3,18.7L50.3,18.7z"/>
	<path class="st39" d="M52.3,15.6c-0.1,0-0.1,0-0.2,0c-0.1,0-0.1,0-0.2,0c-1.2,0-2.2,0.9-2.2,1.9c0,0.5,0.2,0.9,0.5,1.2
		c1.1,0,2.3,0.1,3.6,0.1c0.4-0.3,0.6-0.8,0.6-1.3C54.5,16.4,53.5,15.6,52.3,15.6L52.3,15.6z"/>
	<path class="st38" d="M56.8,18.9c0.3,0.8,1.1,1.3,2.1,1.3c0.1,0,0.1,0,0.2,0c0.1,0,0.1,0,0.2,0c1,0,1.8-0.5,2.1-1.3
		C59.8,18.9,58.2,18.9,56.8,18.9L56.8,18.9z"/>
	<path class="st39" d="M59.2,16.3c-0.1,0-0.1,0-0.2,0c-0.1,0-0.1,0-0.2,0c-1.2,0-2.2,0.9-2.2,1.9c0,0.2,0,0.4,0.1,0.6
		c1.5,0,3,0,4.5,0.1c0.1-0.2,0.1-0.4,0.1-0.7C61.4,17.2,60.4,16.3,59.2,16.3L59.2,16.3z"/>
	<path class="st38" d="M68.2,18.8c-1.3,0.1-2.8,0.1-4.4,0.1c-0.1,0.2-0.1,0.4-0.1,0.7c0,1.1,1,1.9,2.2,1.9c0.1,0,0.1,0,0.2,0
		c0.1,0,0.1,0,0.2,0c1.2,0,2.2-0.9,2.2-1.9C68.3,19.3,68.3,19.1,68.2,18.8L68.2,18.8z"/>
	<path class="st39" d="M66.1,17.7c-0.1,0-0.1,0-0.2,0c-0.1,0-0.1,0-0.2,0c-0.9,0-1.7,0.5-2.1,1.2c1.6,0,3.1,0,4.4-0.1
		C67.8,18.2,67,17.7,66.1,17.7L66.1,17.7z"/>
	<path class="st40" d="M70.9,13.2c-1.2,0.3-2.3,0.2-3.5,0c4,0.9,4.2,1.1,7.6,2c0.4,0.1,0.7,0.2,0.9,0.2c-0.7-0.3-2.5-1.3-0.9-2.8
		c0.3-0.3,0.6-0.5,0.9-0.8l-1.4-0.3C73.6,12.1,72.2,12.9,70.9,13.2z"/>
	<path class="st40" d="M77,9.6l1.2,0.3C79.4,9,80.6,8,81.8,7.1l-1.2-0.3C79.3,7.8,78,8.9,77,9.6z"/>
	<path class="st40" d="M86.7,2.2c-0.7,0.6-3,2.2-5.2,4l1.2,0.3c1.6-1.2,3-2.3,4.1-3.1c2.9-2.2,5-2.1,5,0.3C91.7,0,88.2,1.1,86.7,2.2
		z"/>
	<path class="st41" d="M86.7,27.3c-0.5,0.1-0.7,0.3-0.8,0.5c-0.1,0.2-0.1,0.4-0.1,0.4c0,0,0,0,0,0l0,0.1l-0.1,0
		c-0.1-0.1-0.2-0.1-0.3-0.2c-0.2,0.4-0.4,0.7-0.8,1c0.3,0.1,0.5,0.1,0.7,0.1c0.8,0,1.1-0.7,1.9-1.8C87,27.4,86.9,27.4,86.7,27.3
		L86.7,27.3z"/>
	<path class="st38" d="M38.4,22c0.1,1,0.4,3.2,0.8,4.7c-7.8-0.9-13.9-1.9-18.8-2.8c6.1,1.8,14.5,3.3,26.1,3.9
		c-0.9-0.6-1.6-1.1-2.1-1.6c-1.1-0.6-2.2-1.2-3-1.7c-1.1-0.7-2-1.2-2.3-1.6C38.8,22.6,38.6,22.3,38.4,22L38.4,22z M73.1,20.6
		c-0.3,1,0.5,3.9,1.4,6c-1.9,0.1-3.8,0.1-5.9,0.2c0.4,0.3,0.8,0.6,1.2,1c2.5-0.1,4.5-0.2,6.3-0.2c1.5,0,2.7,0.1,3.9,0.3
		c1.9,0.3,3.6,0.5,5.2,0.5c0-0.1,0.1-0.1,0.1-0.2c-1.7-0.9-4.3-2.1-6.6-3.3v0l-0.1,0c0,0,0,0,0,0l0,0c-1.1-0.6-2.1-1.2-2.9-1.7
		c-0.9-0.6-1.6-1.1-2-1.5C73.3,21.1,73.1,20.8,73.1,20.6L73.1,20.6z"/>
	<path class="st42" d="M83.6,29.4c-0.1,0-0.2,0-0.4,0c-0.2,0-0.3,0-0.5,0c-0.1,0-0.1,0-0.2,0c0.1,0,0.2,0,0.3,0
		C83.1,29.5,83.4,29.5,83.6,29.4L83.6,29.4z M79.4,29.2c0.3,0,0.6,0.1,1,0.1c-0.2,0-0.4,0-0.7-0.1C79.6,29.2,79.5,29.2,79.4,29.2
		L79.4,29.2z M76.8,29c0.6,0,1.7,0.1,2.5,0.2C78.5,29.1,77.6,29,76.8,29L76.8,29z M85.2,28c0,0.1-0.1,0.1-0.1,0.2c0.1,0,0.1,0,0.2,0
		c0,0,0,0,0,0l0,0l0,0c-0.2,0.3-0.4,0.7-0.8,0.9c0,0,0.1,0,0.1,0c0.4-0.3,0.6-0.6,0.8-1c0,0,0,0-0.1,0C85.3,28.1,85.2,28.1,85.2,28
		L85.2,28z M1.5,16.5c-0.1,0.1-0.1,0.2-0.1,0.3c-0.1,0.4-0.2,0.7-0.2,1.1c0-0.4,0.1-0.7,0.2-1.1C1.4,16.7,1.5,16.6,1.5,16.5
		C1.5,16.5,1.5,16.5,1.5,16.5L1.5,16.5z"/>
	<path class="st43" d="M76,27.5c-1.7,0-3.8,0.1-6.3,0.2c0.3,0.2,0.6,0.5,0.9,0.7c0,0,0,0,0,0c0,0,0,0,0,0c0.5,0.4,1,0.8,1.4,1.1
		c1.3-0.3,2.3-0.4,3-0.5c0.4,0,0.8-0.1,1.2-0.1c0,0,0.2,0,0.4,0c0.9,0,1.7,0.1,2.5,0.2c0,0,0.1,0,0.1,0c0,0,0,0,0,0
		c0.1,0,0.2,0,0.3,0c0.2,0,0.4,0.1,0.7,0.1c0.7,0.1,1.5,0.2,2.1,0.2c0.1,0,0.1,0,0.2,0c0.2,0,0.3,0,0.5,0c0.1,0,0.2,0,0.4,0
		c0,0,0,0,0,0c0.1,0,0.1,0,0.2-0.1c0.3-0.1,0.5-0.2,0.7-0.3c0,0,0,0,0,0c0.4-0.2,0.6-0.5,0.8-0.9c0,0,0,0,0,0c-0.1,0-0.1,0-0.2,0
		c-1.6,0-3.3-0.2-5.2-0.5C78.8,27.6,77.5,27.5,76,27.5L76,27.5z M7.7,20.6c-0.4,0.9-1,1.7-1.7,2.4c3.8,1.9,9.2,4.3,18.5,6.5
		c6.1,1.5,12.5,2.2,18.4,2.6c0.1-0.3,0.1-0.5,0.2-0.7c0.2-0.7,0.6-1.2,1-1.6c0.2-0.1,0.4-0.3,0.6-0.3c0,0,0.1,0,0.1-0.1
		c1.5-1.2,3.7-0.3,2-1.5c-0.1-0.1-0.2-0.1-0.3-0.2c-11.6-0.5-20.1-2.1-26.1-3.9C14.5,22.7,10.5,21.6,7.7,20.6L7.7,20.6z"/>
	<path class="st44" d="M1.5,16.5c-0.1,0.1-0.1,0.2-0.1,0.2c-0.1,0.4-0.2,0.7-0.2,1.1c0,1.7,1.5,3.4,4.5,5C5.8,22.9,5.9,23,6,23
		c0.7-0.7,1.2-1.5,1.7-2.4C1.3,18.4,1.5,16.7,1.5,16.5L1.5,16.5z"/>
	<path class="st45" d="M79.5,23.4c-6.3-3.1-4.3-3.8-3.3-3.8c-1.4-0.1-2.9,0.1-3,0.9c-0.1,0.9,2.4,2.6,5.4,4.1
		C78.5,24.6,78.4,23.5,79.5,23.4L79.5,23.4z"/>
	<path class="st46" d="M79.5,23.4L79.5,23.4c-1.7-0.9-2.8-1.6-3.5-2.1c-0.3-0.3-0.6-0.5-0.7-0.7c-0.1-0.2-0.2-0.3-0.2-0.5
		c0-0.1,0-0.2,0.1-0.2c0.1-0.1,0.2-0.2,0.4-0.2c0.2,0,0.3-0.1,0.5-0.1c0,0,0,0,0,0l0-0.1c-0.2,0-0.4,0-0.7,0c-0.6,0-1.2,0.1-1.6,0.2
		c-0.2,0.1-0.4,0.2-0.5,0.3c-0.1,0.1-0.2,0.3-0.2,0.4c0,0,0,0,0,0.1c0,0.3,0.2,0.5,0.4,0.8c0.4,0.5,1.1,1,2,1.5
		c0.9,0.6,1.9,1.1,3,1.7l0.1,0l0-0.1c0,0,0,0,0-0.1c0-0.1,0-0.4,0.1-0.6C78.8,23.7,79,23.5,79.5,23.4l0.1,0L79.5,23.4L79.5,23.4
		L79.5,23.4c-0.5,0-0.7,0.3-0.9,0.5c-0.1,0.2-0.2,0.5-0.2,0.6c0,0.1,0,0.1,0,0.1l0,0l0,0c-1.4-0.8-2.8-1.6-3.8-2.3
		c-0.5-0.4-0.9-0.7-1.2-1c-0.3-0.3-0.4-0.6-0.4-0.8c0,0,0,0,0-0.1c0-0.2,0.1-0.3,0.2-0.4c0.2-0.2,0.5-0.3,0.8-0.3
		c0.4-0.1,0.8-0.1,1.2-0.1c0.2,0,0.4,0,0.6,0l0,0l0,0c0,0,0,0,0,0c-0.2,0-0.5,0-0.7,0.1c-0.1,0-0.2,0.1-0.3,0.2
		C75.1,20,75,20.1,75,20.2c0,0.1,0.1,0.3,0.2,0.5C75.7,21.3,76.9,22.1,79.5,23.4L79.5,23.4L79.5,23.4L79.5,23.4L79.5,23.4z"/>
	<path class="st47" d="M98.8,30.3c0,0.4-0.4,0.6-1.5,0.6c-3.3,0-6.9-1.6-10.6-3.6c-1,0.2-1,1-1,1c3.8,1.9,8.7,3.7,12.3,3.3
		C99,31.5,99.1,31,98.8,30.3z"/>
	<path class="st46" d="M98.8,30.3L98.8,30.3c-0.1,0.1-0.1,0.2-0.1,0.2c-0.1,0.1-0.2,0.2-0.4,0.2c-0.2,0.1-0.5,0.1-0.9,0.1
		c0,0,0,0,0,0c-3.3,0-6.9-1.6-10.6-3.6l0,0l0,0c-0.5,0.1-0.7,0.3-0.9,0.5c-0.1,0.2-0.1,0.4-0.1,0.5c0,0,0,0,0,0l0,0l0,0
		c3.4,1.7,7.8,3.4,11.2,3.4c0.4,0,0.7,0,1-0.1c0.3,0,0.6-0.1,0.8-0.3c0.2-0.1,0.2-0.3,0.2-0.5C99,30.7,98.9,30.5,98.8,30.3
		L98.8,30.3L98.8,30.3L98.8,30.3c0.1,0.2,0.1,0.4,0.1,0.6c0,0.2-0.1,0.3-0.2,0.4c-0.1,0.1-0.4,0.2-0.7,0.2c-0.3,0-0.7,0.1-1,0.1
		c-3.4,0-7.7-1.7-11.2-3.4l0,0l0,0h0h0l0,0h0h0v0c0-0.1,0-0.2,0.1-0.4c0.1-0.2,0.4-0.4,0.8-0.5l0,0l0,0c3.7,2,7.3,3.6,10.6,3.6
		c0,0,0,0,0,0c0.5,0,0.9-0.1,1.1-0.2c0.1-0.1,0.2-0.1,0.3-0.2C98.8,30.5,98.8,30.4,98.8,30.3L98.8,30.3L98.8,30.3L98.8,30.3z"/>
	<path class="st48" d="M86.7,27.3c-2.4-1.3-4.8-2.7-7.2-3.9c0,0,0,0,0,0c-1.1,0.1-1,1.2-1,1.2c2.4,1.3,5.1,2.6,6.9,3.5
		c0.1,0.1,0.2,0.1,0.4,0.2C85.7,28.3,85.7,27.5,86.7,27.3L86.7,27.3z"/>
	<path class="st46" d="M86.7,27.3L86.7,27.3c-2.3-1.3-4.7-2.7-7.2-3.9c0,0,0,0,0,0l0,0l0,0c-0.5,0.1-0.7,0.3-0.9,0.5
		c-0.1,0.2-0.2,0.5-0.2,0.6c0,0.1,0,0.1,0,0.1l0,0l0,0c2.4,1.3,5.1,2.6,6.9,3.5c0.1,0.1,0.2,0.1,0.4,0.2l0.1,0l0-0.1c0,0,0,0,0,0
		c0-0.1,0-0.2,0.1-0.4C86,27.6,86.3,27.4,86.7,27.3l0.1,0L86.7,27.3L86.7,27.3L86.7,27.3c-0.5,0.1-0.8,0.3-0.9,0.5
		c-0.1,0.2-0.1,0.4-0.1,0.5c0,0,0,0,0,0l0,0l0,0c-0.1-0.1-0.2-0.1-0.4-0.2c-1.7-0.9-4.4-2.2-6.9-3.5l0,0l0,0h0h0l0,0h0h0
		c0,0,0,0,0-0.1c0-0.1,0-0.4,0.1-0.6c0.1-0.2,0.4-0.4,0.8-0.5l0,0l0,0c0,0,0,0,0,0C81.9,24.7,84.3,26.1,86.7,27.3L86.7,27.3
		L86.7,27.3L86.7,27.3L86.7,27.3z"/>
	<path class="st49" d="M95.8,27.3c-3.6-0.6-9,0-9,0c3.7,2,7.3,3.6,10.6,3.6c1,0,1.4-0.2,1.5-0.6C98.3,29.4,97,28.3,95.8,27.3
		L95.8,27.3z"/>
	<path class="st49" d="M95.8,27.3L95.8,27.3C94.6,27,93.2,27,91.8,27c-2.7,0-5.1,0.3-5.1,0.3l-0.1,0l0.1,0.1c3.7,2,7.3,3.6,10.6,3.6
		c0,0,0,0,0,0c0.5,0,0.9-0.1,1.1-0.2c0.1-0.1,0.2-0.1,0.3-0.2c0.1-0.1,0.1-0.2,0.1-0.3l0,0l0,0C98.3,29.4,97.1,28.3,95.8,27.3
		L95.8,27.3L95.8,27.3L95.8,27.3L95.8,27.3c1.2,1,2.5,2.2,3,3.1l0,0l0,0c0,0.1,0,0.2-0.1,0.2c-0.1,0.1-0.2,0.2-0.4,0.2
		c-0.2,0.1-0.5,0.1-0.9,0.1c0,0,0,0,0,0c-3.3,0-6.8-1.6-10.5-3.6l0,0l0,0c0,0,2.4-0.3,5.1-0.3C93.2,27.1,94.6,27.1,95.8,27.3
		L95.8,27.3L95.8,27.3L95.8,27.3L95.8,27.3z"/>
	<path class="st31" d="M91.7,24.3L91.7,24.3c-1.2-0.9-2.8-2.1-3.7-2.4c-1.3-0.4-2.4-0.5-3.1-0.7c-1.5-0.3-5.3-1-6.8-1.4
		c-0.5-0.1-1.2-0.2-2-0.3c-1,0-3,0.7,3.4,3.8C79.5,23.4,86.9,23.3,91.7,24.3L91.7,24.3z"/>
	<path class="st31" d="M91.7,24.3L91.7,24.3L91.7,24.3l0.1,0L91.7,24.3c-0.6-0.5-1.3-1-1.9-1.5c-0.7-0.4-1.3-0.8-1.8-0.9
		c-1.3-0.4-2.4-0.5-3.1-0.7c-1.5-0.3-5.3-1-6.8-1.4c-0.5-0.1-1.3-0.2-2-0.3h0h0c0,0,0,0,0,0c-0.2,0-0.5,0-0.7,0.1
		c-0.1,0-0.2,0.1-0.3,0.2C75,19.9,75,20,75,20.2c0,0.1,0.1,0.3,0.2,0.5c0.4,0.6,1.6,1.5,4.2,2.8l0,0h0c0,0,0.1,0,0.2,0
		c0.1,0,0.3,0,0.5,0C82.1,23.4,87.8,23.5,91.7,24.3L91.7,24.3L91.7,24.3L91.7,24.3L91.7,24.3c-4-0.9-9.6-0.9-11.5-0.9
		c-0.4,0-0.7,0-0.7,0l0,0l0,0c-1.7-0.9-2.8-1.5-3.5-2.1c-0.3-0.3-0.6-0.5-0.7-0.7c-0.1-0.2-0.2-0.3-0.2-0.5c0-0.1,0-0.2,0.1-0.2
		c0.1-0.1,0.2-0.2,0.4-0.2c0.2,0,0.3-0.1,0.5-0.1c0,0,0,0,0,0l0,0l0,0c0.8,0,1.5,0.2,2,0.3c1.4,0.3,5.3,1.1,6.8,1.4
		c0.7,0.1,1.8,0.3,3.1,0.7c0.5,0.1,1.1,0.5,1.7,0.9C90.4,23.3,91.1,23.8,91.7,24.3L91.7,24.3L91.7,24.3L91.7,24.3L91.7,24.3
		L91.7,24.3L91.7,24.3L91.7,24.3z"/>
	<path class="st50" d="M95.8,27.3c-1.3-1-2.5-1.9-2.9-2.2c-0.3-0.2-0.7-0.5-1.1-0.8l0,0c-4.9-1-12.2-0.9-12.2-0.9
		c2.5,1.2,4.9,2.6,7.2,3.9C86.7,27.3,92.2,26.7,95.8,27.3L95.8,27.3z"/>
	<path class="st50" d="M95.8,27.3L95.8,27.3c-1.2-1.1-2.5-1.9-2.9-2.2c-0.3-0.2-0.7-0.5-1.1-0.8l0,0l0,0l0,0l0,0
		c-4-0.8-9.6-0.9-11.5-0.9c-0.4,0-0.7,0-0.7,0l-0.2,0l0.1,0.1c2.5,1.2,4.9,2.6,7.2,3.9l0,0l0,0c0,0,2.4-0.3,5.1-0.3
		C93.2,27.1,94.6,27.1,95.8,27.3l0.1,0.1L95.8,27.3L95.8,27.3L95.8,27.3C94.6,27,93.2,27,91.8,27c-2.7,0-5.1,0.3-5.1,0.3l0,0l0,0
		c-2.4-1.3-4.8-2.7-7.2-3.9l0,0l0,0c0,0,0.1,0,0.2,0c0.1,0,0.3,0,0.5,0c2,0,7.6,0.1,11.5,0.9l0,0l0,0l0,0l0,0
		c0.4,0.3,0.8,0.6,1.1,0.8C93.2,25.4,94.5,26.3,95.8,27.3L95.8,27.3L95.8,27.3L95.8,27.3L95.8,27.3z"/>
	<path class="st51" d="M8.5,15c-0.1-0.5-0.2-1.1-0.4-1.6c-2.4,0.8-5.6,1.7-6.5,3.1C1.7,16.3,3.4,15,8.5,15z"/>
	<path class="st52" d="M8.6,16.1c-3.9-0.3-6.9,0.3-7.1,0.4l0,0c0.1,0.1,1.8,1.6,6.8,2.2c0.1-0.5,0.2-1,0.2-1.5
		C8.6,16.9,8.6,16.5,8.6,16.1z"/>
	<path class="st47" d="M46.6,16.5c0,1.1-1,1.9-2.2,1.9c-1.2,0-2.2-0.9-2.2-1.9c0-1.1,1-1.9,2.2-1.9C45.6,14.6,46.6,15.4,46.6,16.5z"
		/>
	<path class="st31" d="M46.9,16.5c0,1.1-1,1.9-2.2,1.9c-1.2,0-2.2-0.9-2.2-1.9c0-1.1,1-1.9,2.2-1.9C45.9,14.6,46.9,15.4,46.9,16.5z"
		/>
	<path class="st53" d="M46.4,16.5c0,0.8-0.8,1.5-1.7,1.5c-1,0-1.7-0.7-1.7-1.5c0-0.8,0.8-1.5,1.7-1.5C45.7,15,46.4,15.7,46.4,16.5z"
		/>
	<path class="st54" d="M46.2,16.5c0,0.7-0.7,1.4-1.6,1.4c-0.9,0-1.6-0.6-1.6-1.4c0-0.7,0.7-1.4,1.6-1.4
		C45.6,15.2,46.2,15.8,46.2,16.5z"/>
	<path class="st55" d="M45.8,16.5c0,0.6-0.5,1-1.2,1c-0.7,0-1.2-0.5-1.2-1c0-0.6,0.5-1,1.2-1C45.3,15.5,45.8,15.9,45.8,16.5z"/>
	<path class="st47" d="M53.7,17.1c0,1.1-1,1.9-2.2,1.9s-2.2-0.9-2.2-1.9c0-1.1,1-1.9,2.2-1.9S53.7,16,53.7,17.1z"/>
	<path class="st31" d="M54,17.1c0,1.1-1,1.9-2.2,1.9s-2.2-0.9-2.2-1.9c0-1.1,1-1.9,2.2-1.9S54,16,54,17.1z"/>
	<path class="st53" d="M53.5,17.1c0,0.8-0.8,1.5-1.7,1.5c-1,0-1.7-0.7-1.7-1.5c0-0.8,0.8-1.5,1.7-1.5C52.7,15.6,53.5,16.2,53.5,17.1
		z"/>
	<path class="st54" d="M53.3,17.1c0,0.7-0.7,1.4-1.6,1.4c-0.9,0-1.6-0.6-1.6-1.4c0-0.7,0.7-1.4,1.6-1.4
		C52.6,15.7,53.3,16.3,53.3,17.1z"/>
	<path class="st55" d="M53,17.1c0,0.6-0.5,1-1.2,1s-1.2-0.5-1.2-1c0-0.6,0.5-1,1.2-1S53,16.5,53,17.1z"/>
	<path class="st47" d="M60.6,17.9c0,1.1-1,1.9-2.2,1.9c-1.2,0-2.2-0.9-2.2-1.9c0-1.1,1-1.9,2.2-1.9C59.6,15.9,60.6,16.8,60.6,17.9z"
		/>
	<path class="st31" d="M60.9,17.9c0,1.1-1,1.9-2.2,1.9c-1.2,0-2.2-0.9-2.2-1.9c0-1.1,1-1.9,2.2-1.9C59.9,15.9,60.9,16.8,60.9,17.9z"
		/>
	<path class="st53" d="M60.4,17.9c0,0.8-0.8,1.5-1.7,1.5c-1,0-1.7-0.7-1.7-1.5c0-0.8,0.8-1.5,1.7-1.5C59.6,16.3,60.4,17,60.4,17.9z"
		/>
	<path class="st54" d="M60.2,17.9c0,0.7-0.7,1.4-1.6,1.4c-0.9,0-1.6-0.6-1.6-1.4c0-0.7,0.7-1.4,1.6-1.4
		C59.5,16.5,60.2,17.1,60.2,17.9z"/>
	<path class="st55" d="M59.9,17.9c0,0.6-0.5,1-1.2,1c-0.7,0-1.2-0.5-1.2-1c0-0.6,0.5-1,1.2-1C59.3,16.9,59.9,17.3,59.9,17.9z"/>
	<path class="st47" d="M67.5,19.2c0,1.1-1,1.9-2.2,1.9c-1.2,0-2.2-0.9-2.2-1.9c0-1.1,1-1.9,2.2-1.9C66.5,17.3,67.5,18.2,67.5,19.2z"
		/>
	<path class="st31" d="M67.8,19.2c0,1.1-1,1.9-2.2,1.9c-1.2,0-2.2-0.9-2.2-1.9c0-1.1,1-1.9,2.2-1.9C66.8,17.3,67.8,18.2,67.8,19.2z"
		/>
	<path class="st53" d="M67.4,19.2c0,0.8-0.8,1.5-1.7,1.5s-1.7-0.7-1.7-1.5c0-0.8,0.8-1.5,1.7-1.5S67.4,18.4,67.4,19.2z"/>
	<path class="st54" d="M67.2,19.2c0,0.7-0.7,1.4-1.6,1.4c-0.9,0-1.6-0.6-1.6-1.4c0-0.7,0.7-1.4,1.6-1.4
		C66.5,17.9,67.2,18.5,67.2,19.2z"/>
	<path class="st55" d="M66.8,19.2c0,0.6-0.5,1-1.2,1c-0.7,0-1.2-0.5-1.2-1c0-0.6,0.5-1.1,1.2-1.1C66.3,18.2,66.8,18.6,66.8,19.2z"/>
	<path class="st56" d="M50.2,16.9l1.7,1.5c0.3,0,0.5-0.1,0.7-0.2l-2.2-1.9C50.3,16.5,50.3,16.7,50.2,16.9z"/>
	<path class="st56" d="M53.3,17.1C53.3,17.1,53.3,17,53.3,17.1l-1.5-1.3c0,0-0.1,0-0.1,0c-0.2,0-0.5,0-0.7,0.1l2.1,1.8
		C53.3,17.5,53.3,17.3,53.3,17.1z"/>
	<path class="st56" d="M57.1,17.7l1.7,1.5c0.3,0,0.5-0.1,0.7-0.2l-2.2-1.9C57.2,17.3,57.1,17.5,57.1,17.7z"/>
	<path class="st56" d="M60.2,17.9C60.2,17.8,60.2,17.8,60.2,17.9l-1.5-1.3c0,0-0.1,0-0.1,0c-0.2,0-0.5,0-0.7,0.1l2.1,1.8
		C60.2,18.3,60.2,18.1,60.2,17.9z"/>
	<path class="st56" d="M64.1,19.1l1.7,1.5c0.3,0,0.5-0.1,0.7-0.2l-2.2-1.9C64.2,18.7,64.1,18.9,64.1,19.1z"/>
	<path class="st56" d="M67.2,19.2C67.2,19.2,67.2,19.2,67.2,19.2l-1.5-1.3c0,0-0.1,0-0.1,0c-0.2,0-0.5,0-0.7,0.1l2.1,1.8
		C67.1,19.6,67.2,19.4,67.2,19.2z"/>
	<path class="st56" d="M43.1,16.4l1.7,1.5c0.3,0,0.5-0.1,0.7-0.2l-2.2-1.9C43.3,15.9,43.2,16.1,43.1,16.4z"/>
	<path class="st56" d="M46.2,16.5C46.2,16.5,46.2,16.5,46.2,16.5l-1.5-1.3c0,0-0.1,0-0.1,0c-0.2,0-0.5,0-0.7,0.1l2.1,1.8
		C46.2,16.9,46.2,16.7,46.2,16.5z"/>
	<path class="st16" d="M27.4,7.7c0.7,0.2,7.5,2,6.1,2.2c-1.4,0.2,0.7,0.8-0.3,2.4c-1,1.7-3,5.7-7.1,5.2c-4.1-0.5-4-1.7-6.1-0.4
		c-2.2,1.3-6.1-2.8-6.1-2.8S21.8,6.4,27.4,7.7z"/>
	<path class="st31" d="M23.5,5.5c0,0-0.8,0.5,1,1.3c1.4,0.6,6.3,2.5,7.9,3.1c1.6,0.5,1.3,2.2,0.2,3.5c-1,1.4-2.4,3.8-5.2,4.2
		c-2.7,0.3-15-3.8-13.9-6.7c0,0,2.3-1.2,3.7-2.1C18.8,7.8,20.1,6.5,23.5,5.5z"/>
	<path class="st55" d="M15.1,13.1c2,1.3,4.4,2.2,6.7,2.9c2.3,0.7,5.1,1.7,7.3,0.3c0.9-0.6,1.7-1.3,2.3-2.1c0.4-0.5,0.7-0.9,1-1.4
		c1.1-1.8,0.4-2.6-0.6-3c-1-0.4-4.9-1.8-7.1-2.8c-2.2-0.9-1.9-1.4-1-1.6c-2.1,0.6-3.7,1.3-5.2,2.4c-1.5,1.2-4.9,2.9-4.9,2.9
		C13.5,11.8,14.2,12.5,15.1,13.1z"/>
	<path class="st57" d="M18.2,13.1c7,3.4,9.4,1.9,10.9,0.2c2.4-2.8-1.5-3.5-6.1-5.1c-1.3-0.5-2-1-2.4-1.6C20,7,19.4,7.3,18.8,7.8
		c-1.2,0.8-2.5,1.6-3.8,2.3C15.2,11,16.1,12,18.2,13.1z"/>
	<path class="st56" d="M21.1,6.5c-0.9,0.4-1.6,0.9-2.4,1.4c-0.3,0.2-0.6,0.4-0.9,0.6c-0.6,1.8-0.9,3.7-0.6,5.7
		c0.9,0.4,1.9,0.8,2.8,1.2C19,12.2,19.9,9,21.1,6.5z"/>
	<path class="st56" d="M27.9,8.4c-0.8-0.3-1.5-0.6-2.2-0.9c-1.1,2.7-1.9,6.2-0.3,9.4c0.9,0.1,1.7,0.1,2.5-0.1
		C26.6,14.1,27,11,27.9,8.4z"/>
	<path class="st58" d="M26.5,17.2c-1.6,0-3.2-0.5-4.6-1l-0.1,0c-2-0.7-4.6-1.6-6.7-2.9c-2.1-1.3-1.5-2.3-1.5-2.3
		c-0.1,0.8,0.5,1.5,1.6,2.2c2.1,1.3,4.7,2.3,6.7,2.9l0.1,0c2.2,0.7,4.9,1.6,7.1,0.3c0.8-0.5,1.6-1.2,2.3-2.1
		c0.3-0.4,0.6-0.9,0.9-1.3l0-0.1c0.5-0.8,0.7-1.5,0.5-2c-0.2-0.4-0.5-0.7-1-0.9c-1.1-0.4-4.9-1.9-7.1-2.8c-1.1-0.5-1.7-0.8-1.7-1.2
		c-0.1-0.3,0.6-0.5,0.6-0.5C23.5,5.6,23,5.7,23.1,6c0,0.2,0.4,0.5,1.6,1c2.2,0.9,6,2.4,7.1,2.8c0.6,0.2,1,0.5,1.1,1
		c0.2,0.6,0.1,1.3-0.5,2.1l0,0.1c-0.3,0.5-0.6,0.9-0.9,1.4c-0.7,0.9-1.5,1.6-2.3,2.1C28.3,17,27.4,17.2,26.5,17.2z"/>
	<path class="st59" d="M89.7,22.7C89.7,22.7,89.7,22.8,89.7,22.7C89.7,22.8,89.8,22.8,89.7,22.7c0.7,0.5,1.4,1,2,1.5l0,0l0,0l0,0
		l0.1,0.1l0,0c0.4,0.3,0.7,0.6,1,0.8c0.4,0.3,1.6,1.1,2.9,2.1l0,0l0,0l0.1,0.1h0c0.1,0.1,0.2,0.1,0.3,0.2c0,0,0,0,0,0
		c-0.1-0.1-0.3-0.2-0.4-0.3c-1.3-1-2.5-1.9-2.9-2.2c-0.3-0.2-0.7-0.5-1.1-0.8C91.1,23.7,90.4,23.2,89.7,22.7L89.7,22.7z"/>
	<path class="st43" d="M89.1,22.3C89.1,22.3,89.1,22.3,89.1,22.3c0.2,0.1,0.4,0.3,0.6,0.4c0,0,0,0,0,0
		C89.5,22.6,89.3,22.5,89.1,22.3L89.1,22.3z"/>
	<path class="st38" d="M76.1,19.5c-0.1,0-0.2,0-0.3,0c0,0,0.1,0,0.1,0C76,19.6,76,19.6,76.1,19.5C76.1,19.6,76.1,19.6,76.1,19.5
		C76.1,19.6,76.1,19.6,76.1,19.5L76.1,19.5L76.1,19.5c0.8,0.1,1.5,0.2,2.1,0.3c1.4,0.3,5.3,1.1,6.8,1.4c0.7,0.1,1.8,0.3,3.1,0.7
		c0.2,0.1,0.5,0.2,0.8,0.3c0,0,0,0,0,0c-0.3-0.2-0.6-0.3-0.8-0.4c-1.3-0.4-2.4-0.5-3.1-0.7c-1.5-0.3-5.3-1-6.8-1.4
		C77.6,19.7,76.9,19.6,76.1,19.5C76.1,19.5,76.1,19.5,76.1,19.5L76.1,19.5z"/>
	<path class="st42" d="M88.8,22.2C88.8,22.2,88.8,22.2,88.8,22.2c0.1,0.1,0.2,0.1,0.3,0.2c0,0,0,0,0,0C89,22.3,88.9,22.2,88.8,22.2
		L88.8,22.2z"/>
	<path class="st60" d="M75.8,19.6c-0.1,0-0.1,0-0.2,0c0,0,0,0,0.1,0c0.1,0,0.2,0,0.2,0C75.9,19.6,75.8,19.6,75.8,19.6L75.8,19.6z"/>
	<path class="st61" d="M95.5,27.3c0.1,0,0.2,0.1,0.3,0.1c0,0-0.1-0.1-0.1-0.1C95.7,27.3,95.6,27.3,95.5,27.3L95.5,27.3z"/>
	<path class="st61" d="M95.5,27.3L95.5,27.3c0.1,0,0.1,0,0.2,0c0,0,0.1,0.1,0.1,0.1c0.1,0,0.2,0.1,0.3,0.1c-0.1-0.1-0.2-0.1-0.3-0.2
		l-0.2,0C95.7,27.3,95.6,27.3,95.5,27.3L95.5,27.3z M95.8,27.2C95.8,27.2,95.8,27.2,95.8,27.2L95.8,27.2L95.8,27.2L95.8,27.2
		L95.8,27.2z"/>
	<path class="st43" d="M76.1,19.6c-0.2,0-0.3,0-0.5,0.1c-0.2,0-0.3,0.1-0.4,0.2c-0.1,0.1-0.1,0.1-0.1,0.2c0,0.1,0.1,0.3,0.2,0.5
		c0.1,0.2,0.4,0.4,0.7,0.7c0.6,0.4,1.4,1,2.8,1.7c0.8,0.1,1.6,0.2,2.5,0.4c2.4,0,6.9,0.2,10.3,0.8c-0.6-0.4-1.2-0.9-1.8-1.3
		c-0.7-0.4-1.3-0.8-1.7-0.9c-1.2-0.4-2.4-0.5-3.1-0.7c-1.5-0.3-5.3-1-6.8-1.4C77.6,19.8,76.9,19.7,76.1,19.6
		C76.1,19.6,76.1,19.6,76.1,19.6L76.1,19.6z"/>
	<path class="st43" d="M91.8,24.2C91.8,24.3,91.8,24.3,91.8,24.2L91.8,24.2L91.8,24.2L91.8,24.2z M76.1,19.6
		C76.1,19.6,76.1,19.6,76.1,19.6c-0.1,0-0.1,0-0.2,0c-0.1,0-0.2,0-0.2,0C75.8,19.6,76,19.6,76.1,19.6C76.1,19.6,76.1,19.6,76.1,19.6
		c-0.9,0.1-2.7,0.7,2.5,3.4c0,0,0.1,0,0.1,0c-1.3-0.7-2.2-1.2-2.8-1.7c-0.3-0.3-0.6-0.5-0.7-0.7c-0.1-0.2-0.2-0.3-0.2-0.5
		c0-0.1,0-0.2,0.1-0.2c0.1-0.1,0.2-0.2,0.4-0.2C75.8,19.7,75.9,19.6,76.1,19.6C76.1,19.6,76.1,19.6,76.1,19.6c0.8,0.1,1.5,0.2,2,0.4
		c1.4,0.3,5.3,1.1,6.8,1.4c0.7,0.1,1.8,0.3,3.1,0.7c0.5,0.1,1.1,0.5,1.7,0.9c0.6,0.4,1.3,0.9,1.8,1.3c0.1,0,0.1,0,0.2,0l0,0
		c-0.6-0.5-1.3-1-2-1.4c0,0,0,0-0.1,0c-0.2-0.1-0.4-0.3-0.7-0.4c-0.1-0.1-0.2-0.1-0.3-0.2c-0.3-0.2-0.5-0.3-0.8-0.3
		c-1.3-0.4-2.4-0.5-3.1-0.7c-1.5-0.3-5.3-1-6.8-1.4C77.6,19.7,76.9,19.6,76.1,19.6L76.1,19.6L76.1,19.6
		C76.1,19.6,76.1,19.6,76.1,19.6L76.1,19.6z"/>
	<path class="st62" d="M81.8,23.4c4,0.7,8.9,1.8,13.5,3.7c0.1,0,0.2,0,0.4,0c-1.2-1-2.4-1.8-2.8-2.1c-0.3-0.2-0.7-0.5-1.1-0.8h0l0,0
		C88.6,23.7,84.3,23.5,81.8,23.4L81.8,23.4z"/>
	<path class="st62" d="M95.8,27.3L95.8,27.3L95.8,27.3L95.8,27.3z M95.8,27.2L95.8,27.2L95.8,27.2L95.8,27.2z M81.3,23.4
		c0.2,0,0.3,0.1,0.5,0.1c2.6,0,6.8,0.2,9.9,0.9l0,0h0c0.4,0.3,0.8,0.6,1.1,0.8c0.4,0.3,1.5,1.1,2.8,2.1c-0.1,0-0.2,0-0.4,0
		c0.1,0,0.2,0.1,0.3,0.1c0.1,0,0.1,0,0.2,0l0.2,0h0l-0.1-0.1c0,0,0,0,0,0c-1.3-1-2.5-1.9-2.9-2.1c-0.3-0.2-0.6-0.5-1-0.8
		c0,0-0.1,0-0.1-0.1l0,0l0,0l0,0l0,0c-0.1,0-0.1,0-0.2,0C88.2,23.5,83.7,23.4,81.3,23.4L81.3,23.4z"/>
	<path class="st63" d="M75.5,19.6c-0.4,0-0.9,0-1.2,0.1c-0.4,0.1-0.7,0.2-0.8,0.3c-0.1,0.1-0.2,0.2-0.2,0.4c0,0,0,0,0,0.1
		c0,0.2,0.1,0.5,0.4,0.8c0.3,0.3,0.7,0.6,1.2,1c1,0.7,2.3,1.5,3.7,2.2c0,0,0,0,0,0c0-0.1,0-0.4,0.2-0.6c0.1-0.2,0.3-0.4,0.7-0.5
		c-0.8-0.4-1.5-0.8-2.1-1.1C74.4,20.6,74.8,19.9,75.5,19.6L75.5,19.6z"/>
	<path class="st60" d="M77.3,22.3c0.6,0.3,1.2,0.7,2.1,1.1c0,0,0,0,0,0l0,0h0c-0.3-0.1-0.6-0.3-0.8-0.4c0,0,0,0,0,0
		C78,22.7,77.6,22.5,77.3,22.3L77.3,22.3z M75.5,19.6c-1.2,0-2.3,0.2-2.3,0.9c-0.1,0.9,2.4,2.5,5.3,4.1c0,0,0,0,0,0
		c-1.4-0.8-2.7-1.5-3.7-2.2c-0.5-0.4-0.9-0.7-1.2-1c-0.3-0.3-0.4-0.6-0.4-0.8c0,0,0,0,0-0.1c0-0.2,0.1-0.3,0.2-0.4
		c0.2-0.2,0.5-0.3,0.8-0.3C74.6,19.7,75,19.6,75.5,19.6c0,0,0.1,0,0.1,0C75.6,19.6,75.5,19.6,75.5,19.6L75.5,19.6z"/>
	<path class="st64" d="M79.5,23.4c-0.4,0.1-0.6,0.3-0.8,0.5c-0.1,0.2-0.1,0.5-0.1,0.6c0,0,0,0.1,0,0.1c1.9,1,3.9,2,5.6,2.8
		c-0.4-0.7-0.6-1.4-0.7-1.9C82.1,24.8,80.8,24.1,79.5,23.4C79.5,23.4,79.5,23.4,79.5,23.4L79.5,23.4z"/>
	<path class="st60" d="M79.4,23.4C79.3,23.4,79.3,23.4,79.4,23.4c-0.4,0.1-0.6,0.3-0.7,0.5c-0.1,0.2-0.2,0.5-0.2,0.6c0,0,0,0,0,0
		c0,0,0,0,0,0c0,0,0,0,0,0c1.9,1,4,2.1,5.7,2.9c0,0,0,0,0-0.1c-1.6-0.8-3.7-1.8-5.6-2.8c0,0,0,0,0-0.1c0-0.1,0-0.4,0.1-0.6
		c0.1-0.2,0.3-0.4,0.8-0.5c0,0,0,0,0,0c1.3,0.7,2.6,1.4,3.9,2.1c0,0,0,0,0,0c-1.3-0.7-2.6-1.4-4-2.1l0,0l0,0L79.4,23.4L79.4,23.4z"
		/>
	<path class="st43" d="M78.5,22.9c0.3,0.1,0.5,0.3,0.8,0.4l0.1,0c-0.3-0.1-0.5-0.3-0.8-0.4C78.6,22.9,78.5,22.9,78.5,22.9L78.5,22.9
		z"/>
	<path class="st62" d="M79.4,23.3L79.4,23.3L79.4,23.3L79.4,23.3L79.4,23.3L79.4,23.3c1.4,0.7,2.7,1.4,4,2.2c0,0,0,0,0,0
		c-1.3-0.7-2.6-1.4-3.9-2.1C79.5,23.4,79.5,23.4,79.4,23.3C79.4,23.4,79.4,23.4,79.4,23.3L79.4,23.3z"/>
	<path class="st65" d="M75.5,19.6C75.5,19.6,75.5,19.6,75.5,19.6c-0.7,0.2-1.1,0.9,1.8,2.6c-0.9-0.6-1.5-1-1.9-1.4
		c-0.1-0.1-0.1-0.1-0.2-0.2c-0.1-0.2-0.2-0.4-0.2-0.5c0-0.1,0-0.2,0.1-0.3C75.2,19.8,75.3,19.7,75.5,19.6
		C75.4,19.7,75.5,19.7,75.5,19.6C75.5,19.6,75.5,19.6,75.5,19.6L75.5,19.6z"/>
	<path class="st66" d="M75.4,20.9c0.3,0.4,0.9,0.8,1.9,1.4c0.4,0.2,0.8,0.4,1.2,0.7c0,0,0,0,0,0C76.8,22,75.9,21.4,75.4,20.9
		L75.4,20.9z M75.6,19.6c0,0-0.1,0-0.1,0c0,0,0,0,0,0C75.5,19.6,75.5,19.6,75.6,19.6C75.6,19.6,75.6,19.6,75.6,19.6
		C75.7,19.6,75.6,19.6,75.6,19.6L75.6,19.6z"/>
	<path class="st67" d="M75.7,19.6c-0.1,0-0.1,0-0.2,0c0,0-0.1,0-0.1,0c-0.1,0-0.2,0.1-0.3,0.2C75,19.9,75,20,75,20.2
		c0,0.1,0.1,0.3,0.2,0.5c0.1,0.1,0.1,0.1,0.2,0.2c0.5,0.5,1.4,1.2,3.1,2.1c0,0,0.1,0,0.1,0c-5.2-2.7-3.4-3.3-2.5-3.3c0,0,0,0,0,0
		C76,19.6,75.8,19.6,75.7,19.6L75.7,19.6z"/>
	<path class="st68" d="M44.4,26.2c0.6,0.4,1.3,1,2.1,1.6c0.1,0,0.2,0,0.4,0c0.2,0,0.4,0,0.6,0c-0.7-0.3-1.3-0.7-1.9-1l-0.1,0l0,0
		C45.1,26.5,44.8,26.4,44.4,26.2L44.4,26.2z"/>
	<path class="st69" d="M46.6,27.7c0.1,0.1,0.2,0.1,0.3,0.2c1.7,1.2-0.4,0.3-2,1.5c0.2-0.1,0.3-0.1,0.5-0.1c0,0,0,0,0.1,0l0,0
		c0.1,0,0.2,0,0.3,0h0c0.5,0,1.1,0.1,1.7,0.1c0,0,0-0.1,0-0.1c0.2-0.4,0.2-0.8,0.2-1.1c0-0.2,0-0.3,0-0.4c0,0-0.1,0-0.1-0.1
		c-0.2,0-0.4,0-0.6,0C46.8,27.7,46.7,27.7,46.6,27.7L46.6,27.7z"/>
	<path class="st45" d="M43.8,37c0,0,0.1,1.1,1.5,1.3c0.3,0,0.4,0.7,0.4,0.7c2.4,0,7.3-0.4,11.2-1.1c4.9-0.9,6.5-1.8,5.2-4.8
		c-1.3-3.1-4.3-3.1-6-3.3c-1.7-0.1-7.7-0.2-10.3-0.3C45.7,29.4,43.4,35.6,43.8,37L43.8,37z"/>
	<path class="st46" d="M43.8,37L43.8,37c0,0,0,0.3,0.2,0.6c0.2,0.3,0.6,0.6,1.3,0.7c0,0,0,0,0.1,0c0,0,0.1,0.1,0.1,0.1
		c0.1,0.1,0.1,0.2,0.1,0.3c0,0,0,0.1,0,0.1c0,0,0,0,0,0l0,0h0c2.5,0,7.3-0.4,11.2-1.1c1.9-0.3,3.3-0.7,4.3-1.2
		c0.5-0.2,0.8-0.5,1.1-0.8c0.2-0.3,0.4-0.7,0.4-1.1c0-0.5-0.2-1.1-0.4-1.8c-0.7-1.5-1.8-2.3-2.9-2.8c-1.1-0.4-2.3-0.5-3.2-0.5
		c-0.9-0.1-2.8-0.1-4.8-0.1c-2-0.1-4.2-0.1-5.5-0.2l0,0l0,0c0,0-0.5,1.3-1,2.9c-0.2,0.8-0.5,1.6-0.7,2.4c-0.2,0.8-0.3,1.5-0.3,1.9
		C43.7,36.8,43.7,36.9,43.8,37L43.8,37L43.8,37L43.8,37L43.8,37c0-0.1,0-0.2,0-0.4c0-0.5,0.1-1.2,0.3-1.9c0.3-1.2,0.7-2.5,1-3.5
		c0.2-0.5,0.3-1,0.4-1.3c0.1-0.2,0.1-0.3,0.1-0.4c0-0.1,0-0.1,0-0.1l0,0l0,0c1.3,0.1,3.5,0.1,5.5,0.2c2,0.1,4,0.1,4.8,0.1
		c0.9,0.1,2,0.1,3.1,0.5c1.1,0.4,2.2,1.2,2.8,2.7c0.3,0.7,0.4,1.2,0.4,1.7c0,0.4-0.1,0.8-0.3,1.1c-0.3,0.5-0.9,0.8-1.8,1.1
		c-0.9,0.3-2,0.6-3.4,0.8c-3.9,0.7-8.7,1.1-11.2,1.1l0,0l0,0c0,0,0-0.2-0.1-0.3c0-0.1-0.1-0.2-0.1-0.2c0,0-0.1-0.1-0.1-0.1
		c0,0-0.1,0-0.1,0c-0.7-0.1-1.1-0.4-1.3-0.7c-0.1-0.1-0.2-0.3-0.2-0.4C43.8,37.1,43.8,37.1,43.8,37C43.8,37,43.8,37,43.8,37L43.8,37
		L43.8,37L43.8,37L43.8,37L43.8,37L43.8,37z"/>
	<path class="st47" d="M44.9,33.9c-0.2-0.2-0.4-0.5-0.7-0.8c-0.6,1.7,0.2,2.7,0.4,3.3c0,0-0.9,1.1,0.5,1.3c0.3,0,1.1,1.2,1.1,1.2
		c2.5,0,6.7-0.4,10.7-1.1c3.7-0.7,5.6-1.4,5.6-3c-2.2,0.8-6.8,1-10.6,1.3C46.5,36.5,46.3,35.4,44.9,33.9L44.9,33.9z"/>
	<path class="st46" d="M44.9,33.9L44.9,33.9c-0.1-0.2-0.4-0.5-0.6-0.8L44.2,33l0,0.1c-0.2,0.4-0.2,0.8-0.2,1.2
		c0,0.5,0.1,0.9,0.3,1.3c0.1,0.4,0.3,0.6,0.3,0.9l0,0l0,0c0,0-0.1,0.1-0.2,0.2c-0.1,0.1-0.2,0.3-0.2,0.5c0,0.1,0,0.3,0.2,0.4
		c0.1,0.1,0.3,0.2,0.6,0.2c0,0,0.1,0,0.1,0.1c0.1,0.1,0.2,0.2,0.3,0.3c0.2,0.2,0.3,0.4,0.4,0.6c0.1,0.1,0.1,0.2,0.2,0.2
		c0,0.1,0.1,0.1,0.1,0.1l0,0h0c2.5,0,6.7-0.4,10.7-1.1c1.9-0.3,3.3-0.7,4.2-1.1c0.5-0.2,0.8-0.5,1.1-0.8c0.2-0.3,0.4-0.7,0.4-1.1
		l0-0.1l-0.1,0c-1.1,0.4-2.8,0.7-4.7,0.9c-1.9,0.2-4,0.3-5.9,0.4c-0.7,0-1.3,0.1-1.8,0.1c-1.8,0-2.8-0.3-3.5-0.7
		C46,35.1,45.6,34.5,44.9,33.9L44.9,33.9L44.9,33.9c0.6,0.7,0.9,1.2,1.6,1.7c0.7,0.4,1.7,0.7,3.5,0.7c0.5,0,1.1,0,1.8-0.1
		c1.9-0.1,4-0.2,5.9-0.4c1.9-0.2,3.6-0.4,4.7-0.9l0,0h0c0,0.4-0.1,0.8-0.4,1.1c-0.4,0.5-1,0.8-1.8,1.1c-0.9,0.3-2,0.6-3.4,0.8
		c-3.9,0.7-8.2,1-10.6,1.1l0,0l0,0c0,0-0.2-0.3-0.4-0.6c-0.1-0.2-0.2-0.3-0.4-0.4c-0.1-0.1-0.1-0.1-0.2-0.1c-0.1,0-0.1-0.1-0.1-0.1
		c-0.3,0-0.5-0.1-0.6-0.2c-0.1-0.1-0.1-0.2-0.2-0.3c0-0.2,0.1-0.3,0.1-0.5c0-0.1,0.1-0.1,0.1-0.2c0,0,0,0,0,0l0,0l0,0l0,0l0,0
		c-0.1-0.3-0.2-0.5-0.3-0.9c-0.1-0.3-0.3-0.8-0.3-1.2c0-0.3,0.1-0.7,0.2-1.2l0,0l0,0C44.5,33.5,44.7,33.7,44.9,33.9L44.9,33.9
		L44.9,33.9z"/>
	<path class="st70" d="M48.3,34c0.2,2.7-0.9,4.9-2.3,4.9c-1.5,0.1-2.8-2-3-4.7c-0.2-2.7,0.9-4.9,2.3-4.9
		C46.8,29.3,48.1,31.4,48.3,34L48.3,34z"/>
	<path class="st70" d="M48.3,34L48.3,34c0,0.2,0,0.4,0,0.6c0,1.2-0.2,2.3-0.7,3c-0.2,0.4-0.5,0.7-0.7,0.9c-0.3,0.2-0.6,0.3-0.9,0.4
		c0,0,0,0-0.1,0c-0.3,0-0.7-0.1-1-0.4c-0.5-0.3-0.9-0.9-1.2-1.7c-0.3-0.7-0.5-1.6-0.6-2.6c0-0.2,0-0.4,0-0.6c0-1.2,0.2-2.3,0.7-3
		c0.2-0.4,0.5-0.7,0.7-0.9c0.3-0.2,0.6-0.3,0.9-0.4c0,0,0,0,0.1,0c0.3,0,0.7,0.1,1,0.4c0.5,0.3,0.9,0.9,1.2,1.7
		C48,32.1,48.2,33,48.3,34L48.3,34L48.3,34c0-1.3-0.4-2.5-0.9-3.3c-0.3-0.4-0.6-0.8-0.9-1c-0.3-0.2-0.7-0.4-1.1-0.4c0,0-0.1,0-0.1,0
		c-0.4,0-0.7,0.2-1,0.4c-0.4,0.3-0.8,0.9-1,1.6c-0.2,0.7-0.4,1.5-0.4,2.4c0,0.2,0,0.4,0,0.6c0.1,1.3,0.4,2.5,1,3.3
		c0.3,0.4,0.6,0.8,0.9,1c0.3,0.2,0.7,0.4,1.1,0.4c0,0,0.1,0,0.1,0c0.4,0,0.7-0.2,1-0.4c0.4-0.3,0.8-0.9,1-1.6
		c0.2-0.7,0.4-1.5,0.4-2.4C48.4,34.4,48.4,34.2,48.3,34L48.3,34L48.3,34z"/>
	<path class="st71" d="M48,34.1c0.2,2.6-0.9,4.8-2.3,4.9c-1.4,0.1-2.8-2-2.9-4.6c-0.2-2.6,0.9-4.8,2.3-4.9
		C46.5,29.4,47.9,31.4,48,34.1L48,34.1z"/>
	<path class="st72" d="M48,34.1L48,34.1c0,0.2,0,0.4,0,0.6c0,1.2-0.2,2.2-0.7,3c-0.2,0.4-0.5,0.7-0.7,0.9c-0.3,0.2-0.6,0.3-0.9,0.4
		c0,0,0,0-0.1,0c-0.3,0-0.7-0.1-1-0.4c-0.5-0.3-0.9-0.9-1.2-1.7c-0.3-0.7-0.5-1.6-0.6-2.6c0-0.2,0-0.4,0-0.6c0-1.2,0.2-2.2,0.7-3
		c0.2-0.4,0.5-0.7,0.7-0.9c0.3-0.2,0.6-0.3,0.9-0.4c0,0,0,0,0.1,0c0.3,0,0.7,0.1,1,0.4c0.5,0.3,0.9,0.9,1.2,1.7
		C47.7,32.2,47.9,33.1,48,34.1L48,34.1L48,34.1c0-1.3-0.4-2.5-0.9-3.3c-0.3-0.4-0.6-0.8-0.9-1c-0.3-0.2-0.7-0.4-1-0.4c0,0,0,0-0.1,0
		c-0.3,0-0.7,0.2-1,0.4c-0.4,0.3-0.8,0.9-1,1.6c-0.2,0.7-0.4,1.5-0.4,2.4c0,0.2,0,0.4,0,0.6c0.1,1.3,0.4,2.5,1,3.3
		c0.3,0.4,0.6,0.8,0.9,1c0.3,0.2,0.7,0.4,1,0.4c0,0,0,0,0.1,0c0.3,0,0.7-0.2,1-0.4c0.4-0.3,0.8-0.9,1-1.6c0.2-0.7,0.4-1.5,0.4-2.4
		C48.1,34.4,48.1,34.3,48,34.1L48,34.1L48,34.1z"/>
	<path class="st73" d="M45,30c0,0,0.1,0,0.1,0c0,0,0,0,0.1,0c1.3,0,2.4,1.8,2.6,4.2c0.2,2.4-0.8,4.3-2,4.4c0,0,0,0-0.1,0
		c-0.1,0-0.1,0-0.2,0c0,0,0,0,0,0c1.3,0,2.2-2.1,2.1-4.3C47.5,31.9,46.3,30,45,30C45,30,45,30,45,30L45,30z M45.3,29.6
		C45.3,29.6,45.2,29.6,45.3,29.6c-1.3,0.1-2.3,2.2-2.1,4.7c0.2,2.5,1.3,4.5,2.6,4.5c0,0,0,0,0.1,0c1.3-0.1,2.2-2.2,2-4.7
		C47.7,31.6,46.6,29.6,45.3,29.6L45.3,29.6z"/>
	<path class="st74" d="M45.2,29.9C45.2,29.9,45.2,29.9,45.2,29.9c-0.1,0-0.1,0-0.2,0c0,0,0,0,0,0c1.2,0,2.4,2,2.6,4.2
		c0.2,2.3-0.8,4.3-2.1,4.3c0,0,0,0,0,0c0.1,0,0.1,0,0.2,0c0,0,0,0,0.1,0c1.3-0.1,2.2-2,2-4.4C47.6,31.8,46.5,29.9,45.2,29.9
		L45.2,29.9z"/>
	<path class="st16" d="M45.9,30.5c-0.1,0-0.1,0-0.2,0c-0.9,0-1.5,1.7-1.3,3.6c0.1,2,0.9,3.5,1.8,3.5c0.2,0,0.4-0.1,0.6-0.3
		c0.4-0.7,0.6-1.9,0.6-3.2C47.3,32.5,46.6,31.1,45.9,30.5z"/>
	<path d="M45.9,30.5L45.9,30.5c0,0-0.1,0-0.1,0c0,0,0,0,0,0c-0.2,0-0.4,0.1-0.6,0.3c-0.3,0.2-0.5,0.6-0.6,1.1
		c-0.1,0.5-0.2,1.1-0.2,1.7c0,0.2,0,0.3,0,0.5c0.1,1,0.3,1.8,0.6,2.5c0.2,0.3,0.3,0.6,0.5,0.8c0.2,0.2,0.4,0.3,0.7,0.3c0,0,0,0,0,0
		c0.2,0,0.4-0.1,0.6-0.3l0,0l0,0c0.4-0.6,0.6-1.6,0.6-2.7c0-0.2,0-0.3,0-0.5c-0.1-0.8-0.2-1.6-0.5-2.2
		C46.7,31.3,46.3,30.8,45.9,30.5L45.9,30.5L45.9,30.5L45.9,30.5L45.9,30.5c0.3,0.3,0.7,0.8,0.9,1.4c0.3,0.6,0.4,1.4,0.5,2.2
		c0,0.2,0,0.3,0,0.5c0,1.1-0.2,2-0.6,2.6l0,0l0,0c-0.2,0.2-0.4,0.3-0.6,0.3c0,0,0,0,0,0c-0.2,0-0.4-0.1-0.6-0.3
		c-0.3-0.3-0.5-0.7-0.7-1.2c-0.2-0.6-0.3-1.2-0.4-1.9c0-0.2,0-0.3,0-0.5c0-0.9,0.1-1.6,0.4-2.2c0.1-0.3,0.3-0.5,0.4-0.7
		c0.2-0.2,0.3-0.2,0.5-0.2c0,0,0,0,0,0C45.8,30.5,45.8,30.6,45.9,30.5L45.9,30.5L45.9,30.5L45.9,30.5z"/>
	<path class="st70" d="M46.1,34.1c0.5,0,1,0,1.3,0c0-0.7-0.2-1.4-0.4-1.9C47,32.2,46.5,33.1,46.1,34.1L46.1,34.1z"/>
	<path class="st70" d="M46.1,34.1L46.1,34.1c0.3,0.1,0.5,0.1,0.8,0.1c0.2,0,0.4,0,0.5,0l0,0l0,0c0-0.7-0.2-1.4-0.4-1.9l0-0.1l0,0.1
		l0,0l0,0l0,0l0,0l0,0C46.9,32.2,46.5,33.1,46.1,34.1L46.1,34.1L46.1,34.1L46.1,34.1L46.1,34.1L46.1,34.1L46.1,34.1L46.1,34.1
		L46.1,34.1L46.1,34.1c0.3-0.5,0.5-1,0.7-1.3c0.1-0.2,0.2-0.3,0.2-0.4c0-0.1,0-0.1,0.1-0.1c0,0,0,0,0,0l0,0l0,0l0,0
		c0.2,0.6,0.3,1.2,0.4,1.9l0,0l0,0c-0.1,0-0.3,0-0.5,0C46.6,34.1,46.4,34.1,46.1,34.1L46.1,34.1L46.1,34.1L46.1,34.1z"/>
	<polygon class="st16" points="46.1,34.1 46.1,34.1 46.1,34.1 	"/>
	<polygon points="46.1,34.1 46.1,34.1 46.1,34.1 46.1,34.1 46.1,34.1 46,34.1 46,34.1 46.1,34.1 46.1,34.1 46.1,34.1 46.1,34.1 
		46.1,34.1 46.1,34.2 46.1,34.2 46.1,34.1 46,34.1 46,34.1 46.1,34.1 46.1,34.1 	"/>
	<polygon class="st16" points="46.1,34.1 46.1,34.1 46.1,34.1 	"/>
	<polygon points="46.1,34.1 46.1,34.2 46.1,34.2 46.2,34.2 46.1,34 46,34.2 46.1,34.2 46.1,34.1 46.1,34.1 46.1,34.1 46.1,34.1 
		46,34.1 46,34.1 46.1,34.1 46.1,34.1 46.1,34.1 46.1,34.1 46.1,34.1 	"/>
	<path class="st16" d="M46.1,34.1C46.1,34.1,46.1,34.1,46.1,34.1L46.1,34.1L46.1,34.1L46.1,34.1z"/>
	<path d="M46.1,34.1L46.1,34.1C46,34.1,46,34.1,46.1,34.1L46.1,34.1L46.1,34.1L46.1,34.1L46.1,34.1L46.1,34.1L46.1,34.1L46.1,34.1
		L46.1,34.1L46.1,34.1L46.1,34.1L46.1,34.1L46.1,34.1L46.1,34.1L46.1,34.1L46.1,34.1L46.1,34.1L46.1,34.1L46.1,34.1
		C46.1,34.1,46.1,34.1,46.1,34.1L46.1,34.1L46.1,34.1L46.1,34.1z"/>
	<path class="st70" d="M46.1,34.1L46.1,34.1c0.1,1.2,0.2,2.5,0.2,3.5c0.2,0,0.4-0.1,0.5-0.3c0.2-0.4,0.4-0.9,0.5-1.5
		C47.2,35.6,46.6,34.9,46.1,34.1L46.1,34.1z"/>
	<path class="st70" d="M46.1,34.1L46.1,34.1L46.1,34.1L46.1,34.1L46.1,34.1c0.1,1.2,0.2,2.5,0.2,3.5v0l0.1,0c0.2,0,0.4-0.1,0.5-0.3
		l0,0l0,0c0.2-0.4,0.4-0.9,0.5-1.5l0,0l0,0C47.2,35.6,46.7,34.9,46.1,34.1L46.1,34.1L46.1,34.1L46.1,34.1L46.1,34.1L46.1,34.1
		L46.1,34.1L46.1,34.1L46.1,34.1L46.1,34.1c0.5,0.8,1.1,1.5,1.2,1.7l0,0l0,0c-0.1,0.6-0.3,1.1-0.5,1.5l0,0l0,0
		c-0.2,0.2-0.3,0.3-0.5,0.3l0,0l0,0C46.3,36.7,46.2,35.4,46.1,34.1L46.1,34.1L46.1,34.1L46.1,34.1L46.1,34.1L46.1,34.1L46.1,34.1z"
		/>
	<path class="st70" d="M45.7,30.5L45.7,30.5c-0.5,0.1-0.9,0.7-1.1,1.5c0,0,0.8,1.1,1.5,2C45.9,32.2,45.7,30.5,45.7,30.5z"/>
	<path class="st70" d="M45.7,30.5L45.7,30.5c-0.3,0-0.5,0.2-0.7,0.4c-0.2,0.3-0.3,0.6-0.5,1.1l0,0l0,0c0,0,0.8,1.1,1.5,2l0.1,0
		C45.9,32.2,45.7,30.5,45.7,30.5L45.7,30.5L45.7,30.5L45.7,30.5L45.7,30.5c0,0,0,0.1,0,0.3c0.1,0.6,0.2,1.9,0.4,3.3l0,0l0,0
		c-0.7-1-1.5-2-1.5-2l0,0l0,0c0.1-0.4,0.3-0.8,0.4-1C45.2,30.7,45.4,30.6,45.7,30.5L45.7,30.5L45.7,30.5L45.7,30.5z"/>
	<path class="st70" d="M46.1,34.1c-0.8-0.1-1.7-0.2-1.7-0.2c0,0.1,0,0.1,0,0.2c0.1,1.1,0.3,2,0.7,2.6C45.2,36.1,45.6,35.1,46.1,34.1
		L46.1,34.1z"/>
	<path class="st70" d="M46.1,34.1L46.1,34.1c-0.4-0.1-0.8-0.1-1.1-0.1c-0.2,0-0.3,0-0.4,0c-0.1,0-0.1,0-0.1,0l-0.1,0l0,0
		c0,0.1,0,0.1,0,0.2c0.1,1.1,0.3,2,0.7,2.7l0.1,0.1l0-0.1C45.3,36.1,45.7,35.1,46.1,34.1L46.1,34.1L46.1,34.1L46.1,34.1L46.1,34.1
		L46.1,34.1L46.1,34.1L46.1,34.1L46.1,34.1L46.1,34.1c-0.5,0.9-0.9,2-1,2.7l0,0l0,0c-0.4-0.6-0.6-1.6-0.7-2.6c0-0.1,0-0.1,0-0.2l0,0
		l0,0C44.4,34,45.2,34.1,46.1,34.1L46.1,34.1L46.1,34.1L46.1,34.1z"/>
	<path class="st75" d="M46.1,34.1L46.1,34.1c0.5-1,0.9-1.9,0.9-1.9c-0.3-0.8-0.7-1.4-1.1-1.7c-0.1,0-0.1,0-0.2,0c0,0-0.1,0-0.1,0
		C45.7,30.5,45.9,32.2,46.1,34.1z"/>
	<path class="st72" d="M46.1,34.1L46.1,34.1L46.1,34.1l0,0.1L46.1,34.1c0.3-0.5,0.5-1,0.7-1.3c0.1-0.2,0.2-0.3,0.2-0.4
		c0-0.1,0-0.1,0.1-0.1c0,0,0,0,0,0l0,0l0,0l0,0c-0.3-0.8-0.7-1.4-1.1-1.7l0,0l0,0c0,0-0.1,0-0.1,0c0,0,0,0,0,0c0,0-0.1,0-0.1,0l0,0
		l0,0c0,0,0,0.1,0,0.3C45.7,31.4,45.9,32.7,46.1,34.1L46.1,34.1L46.1,34.1L46.1,34.1L46.1,34.1c-0.1-1.9-0.3-3.6-0.3-3.6l0,0l0,0
		c0,0,0.1,0,0.1,0c0,0,0,0,0,0c0,0,0.1,0,0.1,0l0,0l0,0c0.4,0.3,0.8,0.9,1.1,1.7l0,0l0,0l0,0l0,0l0,0l0,0l0,0
		C46.9,32.2,46.5,33.1,46.1,34.1L46.1,34.1L46.1,34.1L46.1,34.1L46.1,34.1L46.1,34.1L46.1,34.1z"/>
	<path class="st75" d="M46.1,34.1C46.1,34.1,46.1,34.1,46.1,34.1c-0.7-1-1.5-2.1-1.5-2.1c-0.1,0.5-0.2,1.2-0.2,1.9
		C44.4,34,45.2,34.1,46.1,34.1z"/>
	<path class="st72" d="M46.1,34.1L46.1,34.1C46.1,34.1,46.1,34.1,46.1,34.1L46.1,34.1L46.1,34.1c-0.7-1-1.5-2.1-1.5-2.1l-0.1-0.1
		l0,0.1c-0.1,0.5-0.2,1-0.2,1.6c0,0.1,0,0.2,0,0.3l0,0l0,0C44.4,34,45.2,34.1,46.1,34.1L46.1,34.1L46.1,34.1L46.1,34.1L46.1,34.1
		c-0.4-0.1-0.8-0.1-1.1-0.1c-0.2,0-0.3,0-0.4,0c-0.1,0-0.1,0-0.1,0l0,0l0,0c0-0.1,0-0.2,0-0.3c0-0.6,0.1-1.1,0.2-1.6l0,0l0,0
		C44.5,32.1,45.3,33.1,46.1,34.1L46.1,34.1L46.1,34.1C46,34.1,46,34.1,46.1,34.1L46.1,34.1L46.1,34.1L46.1,34.1z"/>
	<path class="st75" d="M46.1,34.1c0.6,0.8,1.1,1.5,1.2,1.7c0.1-0.5,0.1-1.1,0.1-1.7C47,34.2,46.6,34.2,46.1,34.1z"/>
	<path class="st72" d="M46.1,34.1L46.1,34.1c0.5,0.8,1.1,1.5,1.2,1.7l0.1,0.1l0-0.1c0.1-0.4,0.1-0.8,0.1-1.2c0-0.2,0-0.3,0-0.5l0,0
		l0,0c-0.1,0-0.3,0-0.5,0C46.6,34.1,46.4,34.1,46.1,34.1L46.1,34.1L46.1,34.1L46.1,34.1L46.1,34.1c0.3,0.1,0.5,0.1,0.8,0.1
		c0.2,0,0.4,0,0.5,0l0,0l0,0c0,0.2,0,0.3,0,0.5c0,0.4,0,0.8-0.1,1.2l0,0l0,0C47.2,35.6,46.7,34.9,46.1,34.1L46.1,34.1L46.1,34.1
		L46.1,34.1z"/>
	<path class="st75" d="M45.1,36.8c0.3,0.5,0.7,0.8,1.1,0.8c0,0,0.1,0,0.1,0c0-0.9-0.1-2.2-0.2-3.5C45.6,35.1,45.2,36.1,45.1,36.8z"
		/>
	<path class="st72" d="M45.1,36.8L45.1,36.8c0.1,0.3,0.3,0.5,0.5,0.6c0.2,0.1,0.4,0.2,0.6,0.2c0,0,0,0,0,0c0,0,0.1,0,0.1,0l0,0v0
		c0-0.9-0.1-2.3-0.2-3.5l-0.1,0C45.6,35,45.2,36.1,45.1,36.8L45.1,36.8L45.1,36.8L45.1,36.8L45.1,36.8c0.2-0.7,0.6-1.7,1-2.6l0,0
		l0,0c0.1,1.2,0.2,2.5,0.2,3.5h0l0,0c0,0-0.1,0-0.1,0c0,0,0,0,0,0c-0.2,0-0.4-0.1-0.5-0.2C45.5,37.2,45.3,37,45.1,36.8L45.1,36.8
		L45.1,36.8L45.1,36.8z"/>
	<path class="st76" d="M46.2,37.6c-0.9,0-1.7-1.5-1.8-3.5c-0.1-2,0.5-3.6,1.3-3.6c0.1,0,0.1,0,0.2,0c-0.2-0.2-0.5-0.3-0.7-0.2
		c-1.1,0.1-1.8,1.9-1.7,4c0.1,2.2,1.1,3.9,2.2,3.8c0.4,0,0.8-0.3,1.1-0.9C46.6,37.5,46.4,37.6,46.2,37.6z"/>
	<path class="st70" d="M46.2,37.6L46.2,37.6C46.2,37.6,46.2,37.6,46.2,37.6c-0.2,0-0.4-0.1-0.6-0.3c-0.3-0.3-0.5-0.7-0.7-1.2
		c-0.2-0.6-0.3-1.2-0.4-1.9c0-0.2,0-0.3,0-0.5c0-0.9,0.1-1.6,0.4-2.2c0.1-0.3,0.3-0.5,0.4-0.7c0.2-0.2,0.3-0.2,0.5-0.2c0,0,0,0,0,0
		c0,0,0.1,0,0.1,0l0-0.1c-0.2-0.2-0.5-0.2-0.7-0.2c0,0,0,0,0,0c-0.3,0-0.5,0.1-0.7,0.3c-0.3,0.3-0.6,0.7-0.8,1.3
		c-0.2,0.6-0.3,1.2-0.3,2c0,0.2,0,0.3,0,0.5c0.1,1.1,0.3,2,0.7,2.7c0.2,0.4,0.4,0.6,0.7,0.8c0.2,0.2,0.5,0.3,0.8,0.3c0,0,0,0,0.1,0
		c0.2,0,0.5-0.1,0.6-0.3c0.2-0.2,0.4-0.4,0.5-0.6l-0.1,0C46.6,37.5,46.4,37.6,46.2,37.6L46.2,37.6L46.2,37.6c0.2,0,0.5-0.1,0.6-0.3
		l0,0l0,0c-0.1,0.3-0.3,0.5-0.5,0.6c-0.2,0.1-0.4,0.2-0.6,0.2c0,0,0,0,0,0c-0.2,0-0.5-0.1-0.7-0.3c-0.4-0.3-0.7-0.8-0.9-1.4
		c-0.2-0.6-0.4-1.3-0.5-2.2c0-0.2,0-0.3,0-0.5c0-1,0.2-1.8,0.5-2.5c0.1-0.3,0.3-0.6,0.5-0.7c0.2-0.2,0.4-0.3,0.7-0.3c0,0,0,0,0,0
		c0.2,0,0.4,0.1,0.7,0.2l0,0l0,0c0,0-0.1,0-0.1,0c0,0,0,0,0,0c-0.2,0-0.4,0.1-0.6,0.3c-0.3,0.2-0.5,0.6-0.6,1.1
		c-0.1,0.5-0.2,1.1-0.2,1.7c0,0.2,0,0.3,0,0.5c0.1,1,0.3,1.8,0.6,2.5c0.2,0.3,0.3,0.6,0.5,0.8C45.7,37.6,45.9,37.7,46.2,37.6
		C46.2,37.7,46.2,37.7,46.2,37.6L46.2,37.6z"/>
	<path class="st77" d="M43.9,34.2c-0.1-1.9,0.4-3.5,1.3-3.9c-1.1,0.1-1.8,1.9-1.7,4c0.1,2.2,1.1,3.9,2.2,3.8c0.2,0,0.3-0.1,0.4-0.1
		c0,0,0,0,0,0C45,38.1,44,36.4,43.9,34.2z"/>
	<path class="st72" d="M44.4,34.4h1.1l-0.7,1.9C44.8,36.2,44.5,35.3,44.4,34.4z"/>
	<path class="st72" d="M45.4,30.6l0.3,2.3l-1-1.2C44.6,31.8,44.8,31,45.4,30.6z"/>
	<path class="st72" d="M47.2,32.6l-0.8,1.3l1-0.1C47.4,33.8,47.3,33.1,47.2,32.6z"/>
	<path class="st72" d="M47.3,36.2l-0.9-1.3l0.2,2.6C46.6,37.5,46.9,37.4,47.3,36.2z"/>
	<path class="st78" d="M46,31.1l0.2,2l0.5-1C46.7,32.1,46.6,31.5,46,31.1z"/>
	<path class="st78" d="M44.7,32.7l1,1.2l-1-0.2C44.6,33.7,44.4,33.3,44.7,32.7z"/>
	<path class="st78" d="M45.9,35l-0.5,1.7c0,0,0.1,0.5,0.6,0.6L45.9,35z"/>
	<path class="st78" d="M46.4,34.3l0.7,0.1c0,0,0.3,0.6,0,0.8L46.4,34.3z"/>
	<path class="st63" d="M46.5,29.4c1.8,1.3,3.4,3.3,3.4,6c0,0.3,0,0.5,0,0.8c0.1,0,0.2,0,0.2,0c0.5,0,1.1,0,1.8-0.1
		c1.9-0.1,4-0.2,5.9-0.4c1.6-0.2,3.1-0.4,4.2-0.7c-1.4-0.5-2.8-1.2-4.2-1.9c0,0,0,0,0,0l0,0l0,0c0,0,0,0,0,0l0,0
		c-1.1-0.6-2.4-1.2-3.8-2c-0.6,0-1.2,0-1.7,0c-1,0-1.8,0-2.5-0.1c-0.6-0.1-1-0.1-1.4-0.3c-0.1-0.1-0.3-0.1-0.4-0.2
		c-0.2-0.2-0.4-0.3-0.5-0.4c-0.1-0.1-0.2-0.2-0.2-0.4c0-0.1,0-0.2,0.1-0.3C47.1,29.5,46.8,29.5,46.5,29.4L46.5,29.4z"/>
	<path class="st60" d="M46.5,29.4C46.5,29.4,46.5,29.4,46.5,29.4c0.3,0,0.6,0,0.9,0c0,0,0,0,0,0C47.1,29.5,46.8,29.5,46.5,29.4
		L46.5,29.4z"/>
	<path class="st79" d="M62.1,35c-1.1,0.3-2.6,0.6-4.3,0.7c-1.9,0.2-4,0.3-5.9,0.4c-0.7,0-1.3,0.1-1.8,0.1c0,0,0,0,0,0
		c-0.1,0-0.2,0-0.2,0c-0.1,1-0.5,1.8-1.1,2.6c1.6-0.1,3.4-0.3,5.3-0.5c0.9-0.1,1.8-0.3,2.6-0.4c0.1,0,0.1,0,0.2,0
		c1.4-0.3,2.5-0.5,3.4-0.8c0.9-0.3,1.5-0.7,1.8-1.1c0.2-0.2,0.3-0.5,0.3-0.8C62.3,35.1,62.2,35.1,62.1,35L62.1,35z"/>
	<path class="st60" d="M54.1,38.3c-1.9,0.3-3.7,0.4-5.3,0.5c0,0,0,0,0,0C50.4,38.7,52.2,38.5,54.1,38.3L54.1,38.3z M62.4,35.1
		c-0.1,0.3-0.2,0.5-0.3,0.8c-0.4,0.5-1,0.8-1.8,1.1c-0.9,0.3-2,0.6-3.4,0.8c-0.1,0-0.1,0-0.2,0c0.1,0,0.1,0,0.2,0
		C60.3,37.2,62.1,36.6,62.4,35.1C62.4,35.1,62.4,35.1,62.4,35.1L62.4,35.1z M61.9,35c-1.1,0.3-2.6,0.5-4.2,0.7
		c-1.9,0.2-4,0.3-5.9,0.4c-0.7,0-1.3,0.1-1.8,0.1c-0.1,0-0.2,0-0.2,0c0,0,0,0.1,0,0.1c0.1,0,0.2,0,0.2,0c0,0,0,0,0,0
		c0.5,0,1.1,0,1.8-0.1c1.9-0.1,4-0.2,5.9-0.4c1.7-0.2,3.2-0.4,4.3-0.7C62,35,62,35,61.9,35L61.9,35z"/>
	<path class="st80" d="M47.6,25.3c-1.9,0.5,0.1,2.4,0.1,2.4s0.2,0.9-0.2,1.6c-0.3,0.6-0.1,0.8,0.5,1.2c0.6,0.5,0.8-3.1,0.8-3.1
		S49,24.9,47.6,25.3L47.6,25.3z"/>
	<path class="st46" d="M47.6,25.3L47.6,25.3c-0.3,0-0.5,0.2-0.7,0.3c-0.1,0.1-0.2,0.3-0.2,0.5c0,0.4,0.2,0.8,0.5,1.1
		c0.2,0.3,0.5,0.5,0.5,0.5l0,0l0,0c0,0,0,0,0,0c0,0.1,0,0.3,0,0.5c0,0.3,0,0.7-0.2,1.1c-0.1,0.2-0.1,0.3-0.1,0.5
		c0,0.2,0.1,0.3,0.2,0.4c0.1,0.1,0.3,0.2,0.5,0.4c0,0,0.1,0.1,0.1,0.1c0,0,0.1,0,0.1,0c0.1-0.1,0.1-0.1,0.2-0.3
		c0.1-0.2,0.2-0.5,0.2-0.8c0.2-0.9,0.2-2.1,0.2-2.1l0,0l0,0c0,0,0-0.1,0-0.3c0-0.3,0-0.8-0.2-1.2c-0.1-0.2-0.2-0.4-0.3-0.5
		c-0.1-0.1-0.3-0.2-0.5-0.2C47.8,25.2,47.7,25.2,47.6,25.3L47.6,25.3L47.6,25.3c0.1,0,0.2,0,0.3,0c0.2,0,0.4,0.1,0.5,0.2
		c0.2,0.2,0.3,0.5,0.4,0.8c0.1,0.3,0.1,0.6,0.1,0.9c0,0.1,0,0.2,0,0.2c0,0.1,0,0.1,0,0.1v0l0,0c0,0,0,0,0,0.1c0,0.3-0.1,1.1-0.2,1.7
		c-0.1,0.3-0.1,0.7-0.2,0.9c0,0.1-0.1,0.2-0.1,0.3c0,0,0,0.1-0.1,0.1c0,0,0,0-0.1,0c0,0,0,0-0.1,0c-0.2-0.2-0.4-0.3-0.5-0.4
		c-0.1-0.1-0.2-0.2-0.2-0.3c0-0.1,0-0.3,0.1-0.4c0.2-0.4,0.2-0.8,0.2-1.1c0-0.3,0-0.5,0-0.5l0,0l0,0l0,0c-0.1,0-0.3-0.3-0.5-0.6
		c-0.2-0.3-0.4-0.7-0.4-1c0-0.2,0-0.3,0.2-0.4C47.1,25.5,47.3,25.4,47.6,25.3L47.6,25.3L47.6,25.3z"/>
	<path class="st47" d="M47.2,26.3c0.3,0.8,0.8,1.5,0.7,2.5c-0.1,1-0.9,2,1.8,2.2c2.7,0.2,9.6,0.2,9.5-2.1
		C59.2,26.6,46.6,24.8,47.2,26.3L47.2,26.3z"/>
	<path class="st46" d="M47.2,26.3L47.2,26.3c0.3,0.7,0.7,1.4,0.7,2.2c0,0.1,0,0.2,0,0.3c0,0.4-0.2,0.8-0.2,1.1c0,0.1,0,0.3,0.1,0.4
		c0.1,0.2,0.3,0.3,0.6,0.5c0.3,0.1,0.7,0.2,1.4,0.3c0.6,0.1,1.5,0.1,2.5,0.1c1.5,0,3.3-0.1,4.7-0.4c0.7-0.2,1.3-0.4,1.7-0.7
		c0.4-0.3,0.7-0.7,0.7-1.1c0,0,0,0,0,0c0-0.2-0.1-0.4-0.3-0.7c-0.4-0.4-1-0.7-1.7-1c-2.3-0.9-6-1.5-8.2-1.5c-0.5,0-1,0-1.3,0.1
		c-0.2,0-0.3,0.1-0.4,0.2c-0.1,0.1-0.1,0.1-0.1,0.2C47.2,26.3,47.2,26.3,47.2,26.3L47.2,26.3L47.2,26.3c0-0.1,0-0.1,0-0.1
		c0-0.1,0-0.1,0.1-0.2c0.1-0.1,0.3-0.1,0.6-0.2c0.3,0,0.6-0.1,1-0.1c1.7,0,4.2,0.4,6.3,0.9c1.1,0.3,2,0.6,2.7,1
		c0.3,0.2,0.6,0.4,0.8,0.6c0.2,0.2,0.3,0.4,0.3,0.6c0,0,0,0,0,0c0,0.4-0.2,0.8-0.7,1.1c-0.6,0.4-1.6,0.7-2.8,0.9
		c-1.1,0.2-2.4,0.2-3.6,0.2c-1,0-1.8,0-2.5-0.1c-0.8-0.1-1.3-0.2-1.6-0.4c-0.1-0.1-0.2-0.2-0.3-0.3c-0.1-0.1-0.1-0.2-0.1-0.4
		c0-0.3,0.2-0.7,0.2-1.1c0-0.1,0-0.2,0-0.3C48,27.7,47.6,27,47.2,26.3L47.2,26.3L47.2,26.3z"/>
	<path class="st48" d="M48.4,29.3c0,0-0.8,1.6,2.2,1.3C50.6,30.5,48.3,30.7,48.4,29.3z"/>
	<path class="st16" d="M42.4,22.7c3.7,2.5,9.9,6.5,16,9.5c6.1,3,12.6,4.7,16.6,3.3c1.5-0.5,1.2-1.6,0.5-2.8
		c-0.4-0.4-0.8-0.9-1.4-1.4c-3.3-3-10.9-8.5-13-9.5c-2.2-1-7.3-1.4-9.9-1.7c-3.9-0.5-6.8-0.6-8.8-0.4C42.2,19.7,38.7,20.2,42.4,22.7
		L42.4,22.7z"/>
	<path d="M42.4,22.7L42.4,22.7c3.7,2.5,9.9,6.5,16,9.5C63,34.4,67.8,36,71.7,36c1.2,0,2.3-0.1,3.3-0.5c0.4-0.1,0.7-0.3,0.9-0.5
		c0.2-0.2,0.3-0.5,0.3-0.7c0-0.5-0.3-1.1-0.6-1.6l0,0l0,0c-0.4-0.4-0.8-0.9-1.4-1.4c-1.7-1.5-4.4-3.7-6.9-5.5
		c-1.3-0.9-2.5-1.8-3.6-2.5c-1.1-0.7-1.9-1.2-2.5-1.5c-1.1-0.5-2.9-0.9-4.8-1.1c-1.9-0.3-3.8-0.4-5.1-0.6c-2.6-0.3-4.8-0.5-6.5-0.5
		c-0.8,0-1.6,0-2.3,0.1h0h0c-0.1,0-0.5,0.1-0.9,0.2c-0.2,0.1-0.4,0.2-0.6,0.4c-0.2,0.2-0.3,0.3-0.3,0.6c0,0.2,0.1,0.5,0.4,0.8
		C41.3,21.9,41.7,22.3,42.4,22.7L42.4,22.7L42.4,22.7c-0.6-0.4-1-0.8-1.3-1.1c-0.3-0.3-0.4-0.6-0.4-0.8c0-0.2,0.1-0.4,0.2-0.5
		c0.2-0.2,0.5-0.4,0.8-0.4c0.3-0.1,0.5-0.1,0.6-0.1l0,0l0,0c0.7-0.1,1.4-0.1,2.2-0.1c1.7,0,3.9,0.1,6.5,0.5c1.3,0.2,3.2,0.3,5.1,0.6
		c1.9,0.3,3.7,0.6,4.8,1.1c0.5,0.2,1.4,0.8,2.5,1.5c3.2,2.1,8.1,5.8,10.5,8c0.5,0.5,1,0.9,1.4,1.4l0,0l0,0c0.4,0.6,0.6,1.1,0.6,1.6
		c0,0.3-0.1,0.5-0.2,0.7c-0.2,0.2-0.4,0.4-0.8,0.5c-1,0.3-2,0.5-3.2,0.5c-3.8,0-8.7-1.5-13.3-3.8C52.3,29.1,46.1,25.2,42.4,22.7
		L42.4,22.7L42.4,22.7z"/>
	<path class="st48" d="M58.2,32.1c-4.2-2.1-8.5-4.6-12-6.8c-1.1,0.5-0.7,1.5-0.7,1.5c4,2.1,9,4.7,12.2,6.3l0,0
		C57.7,33,57.6,32.3,58.2,32.1L58.2,32.1z"/>
	<path class="st46" d="M58.2,32.1L58.2,32.1c-4.2-2.1-8.5-4.7-11.9-6.9l0,0l0,0c-0.3,0.1-0.5,0.3-0.6,0.5c-0.1,0.2-0.2,0.4-0.2,0.6
		c0,0.1,0,0.2,0,0.3c0,0,0,0.1,0,0.1c0,0,0,0,0,0l0,0l0,0h0l0,0h0l0,0l0,0l0,0c4,2.1,9,4.7,12.2,6.3l0.1,0V33v0l0,0l0,0
		c0,0,0-0.1,0-0.1c0-0.1,0-0.3,0.1-0.4C57.9,32.4,58,32.2,58.2,32.1L58.2,32.1L58.2,32.1L58.2,32.1L58.2,32.1
		c-0.2,0.1-0.4,0.2-0.4,0.4c-0.1,0.2-0.1,0.3-0.1,0.4c0,0.1,0,0.1,0,0.1l0,0h0l0,0h0l0,0c-3.2-1.7-8.1-4.3-12.2-6.3l0,0l0,0l0,0l0,0
		l0,0l0,0l0,0l0,0c0,0-0.1-0.2-0.1-0.4c0-0.2,0-0.3,0.1-0.5c0.1-0.2,0.3-0.3,0.6-0.5l0,0l0,0C49.7,27.5,54,30,58.2,32.1L58.2,32.1
		L58.2,32.1L58.2,32.1L58.2,32.1z"/>
	<path class="st45" d="M46.2,25.2c-1.5-0.9-2.8-1.8-3.9-2.6c-3.6-2.5-0.1-3,0-3c-4,0.4-4.6,1.8-3.2,3.2c0.7,0.8,3.3,2.2,6.5,3.8
		C45.5,26.7,45.1,25.7,46.2,25.2L46.2,25.2z"/>
	<path class="st46" d="M46.2,25.2L46.2,25.2c-1.4-1-2.8-1.8-3.9-2.6c-0.6-0.4-1-0.8-1.3-1.1c-0.3-0.3-0.4-0.6-0.4-0.8
		c0-0.2,0.1-0.4,0.2-0.5c0.2-0.2,0.5-0.4,0.8-0.4c0.3-0.1,0.5-0.1,0.6-0.1l0-0.1c-1.4,0.1-2.4,0.4-3,0.7c-0.3,0.2-0.6,0.4-0.7,0.6
		c-0.2,0.2-0.2,0.4-0.2,0.7c0,0.4,0.2,0.9,0.7,1.3c0.4,0.4,1.2,0.9,2.3,1.6c1.1,0.7,2.6,1.4,4.1,2.2l0.1,0.1l0-0.1l0,0
		c0,0-0.1-0.2-0.1-0.4c0-0.2,0-0.3,0.1-0.5C45.8,25.6,45.9,25.4,46.2,25.2L46.2,25.2L46.2,25.2L46.2,25.2L46.2,25.2
		c-0.3,0.1-0.5,0.3-0.7,0.5c-0.1,0.2-0.2,0.4-0.2,0.6c0,0.3,0.1,0.4,0.1,0.4l0,0l0,0c-1.6-0.8-3-1.6-4.1-2.2c-1.1-0.7-2-1.2-2.3-1.6
		c-0.4-0.4-0.7-0.9-0.7-1.3c0-0.2,0.1-0.4,0.2-0.6c0.2-0.3,0.6-0.6,1.2-0.8c0.6-0.2,1.4-0.4,2.4-0.5l0,0l0,0c-0.1,0-0.5,0.1-0.9,0.2
		c-0.2,0.1-0.4,0.2-0.6,0.4c-0.2,0.2-0.3,0.3-0.3,0.6c0,0.2,0.1,0.5,0.4,0.8c0.3,0.3,0.7,0.7,1.3,1.1C43.4,23.5,44.7,24.3,46.2,25.2
		L46.2,25.2L46.2,25.2L46.2,25.2L46.2,25.2z"/>
	<path class="st47" d="M74.9,35.4c-4,1.4-10.5-0.4-16.6-3.3c0,0-0.1,0-0.1-0.1c-0.6,0.3-0.5,1-0.5,1l0,0c0,0,0.1,0,0.1,0
		c5.7,3,12.7,4.7,16.2,3.6c2.7-0.8,2.9-1.9,1.4-4.1C76.2,33.8,76.4,34.9,74.9,35.4L74.9,35.4z"/>
	<path class="st46" d="M74.9,35.4L74.9,35.4c-1,0.3-2.1,0.4-3.3,0.4c-3.8,0-8.7-1.5-13.3-3.8c0,0-0.1,0-0.1-0.1l0,0l0,0
		c-0.2,0.1-0.3,0.3-0.4,0.4c-0.1,0.2-0.1,0.3-0.1,0.4c0,0.1,0,0.1,0,0.1l0,0h0l0,0v0l0,0c0,0,0.1,0,0.1,0c4.6,2.4,10,4,13.7,4
		c0.9,0,1.8-0.1,2.5-0.3c0.8-0.2,1.4-0.5,1.8-0.8c0.4-0.3,0.6-0.7,0.6-1.1c0-0.6-0.3-1.3-1-2.2l-0.1,0c0.4,0.6,0.6,1.1,0.6,1.6
		c0,0.3-0.1,0.5-0.2,0.7C75.6,35.1,75.3,35.3,74.9,35.4L74.9,35.4L74.9,35.4c0.4-0.1,0.7-0.3,0.9-0.5c0.2-0.2,0.3-0.5,0.3-0.7
		c0-0.5-0.3-1.1-0.6-1.6l0,0l0,0c0.6,0.9,0.9,1.6,0.9,2.2c0,0.4-0.2,0.8-0.5,1.1c-0.4,0.3-0.9,0.6-1.7,0.8c-0.7,0.2-1.5,0.3-2.5,0.3
		c-3.7,0-9.1-1.6-13.7-3.9c0,0-0.1,0-0.1,0l0,0h0l0,0v0l0,0l0,0c0,0,0-0.1,0-0.1c0-0.1,0-0.3,0.1-0.4c0.1-0.2,0.2-0.3,0.4-0.4l0,0
		l0,0c0,0,0.1,0,0.1,0.1c4.6,2.3,9.5,3.8,13.4,3.8C72.9,36,74,35.8,74.9,35.4L74.9,35.4L74.9,35.4z"/>
	<path class="st50" d="M74.3,31.5c-0.1-0.1-0.1-0.1-0.2-0.2c-1.5-1.4-4-3.3-6.3-5.1c-6.4-2.4-20.2-1.4-21.4-0.9
		c3.5,2.2,7.7,4.8,12,6.8C58.2,32.1,67.2,30.4,74.3,31.5L74.3,31.5z"/>
	<path class="st50" d="M74.3,31.5L74.3,31.5c0-0.1-0.1-0.2-0.2-0.2c-1.5-1.4-4-3.3-6.3-5.1l0,0l0,0c-3.2-1.2-8.2-1.5-12.6-1.5
		c-2.2,0-4.3,0.1-5.9,0.2c-0.8,0.1-1.5,0.1-2,0.2c-0.3,0-0.5,0.1-0.6,0.1c-0.2,0-0.3,0.1-0.4,0.1l-0.1,0l0.1,0
		c3.5,2.2,7.7,4.8,12,6.8l0,0l0,0c0,0,5.2-1,10.7-1C70.7,31.1,72.5,31.2,74.3,31.5l0.1,0.1L74.3,31.5L74.3,31.5L74.3,31.5
		c-1.7-0.3-3.5-0.4-5.3-0.4c-5.6,0-10.7,0.9-10.8,1l0,0l0,0c-4.2-2.1-8.5-4.6-12-6.8l0,0l0,0c0.1,0,0.2-0.1,0.4-0.1
		c0.6-0.1,1.7-0.3,3.2-0.3c1.5-0.1,3.3-0.2,5.2-0.2c4.4,0,9.4,0.4,12.5,1.5l0,0l0,0c2.4,1.8,4.8,3.7,6.3,5.1
		C74.1,31.3,74.1,31.4,74.3,31.5L74.3,31.5L74.3,31.5L74.3,31.5L74.3,31.5z"/>
	<path class="st31" d="M67.7,26.2c-2.8-2.1-5.5-3.9-6.7-4.4c-2.2-1-7.3-1.4-9.9-1.7c-3.9-0.5-6.8-0.6-8.8-0.4c-0.1,0-3.6,0.6,0,3
		c1.1,0.7,2.4,1.6,3.9,2.6C47.5,24.7,61.3,23.8,67.7,26.2L67.7,26.2z"/>
	<path class="st31" d="M67.7,26.2L67.7,26.2c-1.4-1.1-2.7-2-3.9-2.8c-1.2-0.8-2.1-1.4-2.7-1.7c-1.1-0.5-2.9-0.9-4.8-1.1
		c-1.9-0.3-3.8-0.4-5.1-0.6c-2.6-0.3-4.8-0.5-6.5-0.5c-0.8,0-1.6,0-2.3,0.1h0h0c-0.1,0-0.5,0.1-0.9,0.2c-0.2,0.1-0.4,0.2-0.6,0.4
		c-0.2,0.2-0.3,0.3-0.3,0.6c0,0.2,0.1,0.5,0.4,0.8c0.3,0.3,0.7,0.7,1.3,1.1c1.1,0.7,2.4,1.6,3.9,2.6l0,0l0,0c0.1,0,0.2-0.1,0.4-0.1
		c0.6-0.1,1.7-0.3,3.2-0.3c1.5-0.1,3.3-0.2,5.2-0.2C59.5,24.7,64.5,25,67.7,26.2L67.7,26.2L67.7,26.2L67.7,26.2
		c-3.2-1.2-8.2-1.6-12.6-1.6c-2.2,0-4.3,0.1-5.9,0.2c-0.8,0.1-1.5,0.1-2,0.2c-0.3,0-0.5,0.1-0.6,0.1c-0.2,0-0.3,0.1-0.4,0.1l0,0l0,0
		c-1.5-0.9-2.8-1.8-3.9-2.6c-0.6-0.4-1-0.8-1.3-1.1c-0.3-0.3-0.4-0.6-0.4-0.8c0-0.2,0.1-0.4,0.2-0.5c0.2-0.2,0.5-0.4,0.8-0.4
		c0.3-0.1,0.5-0.1,0.6-0.1l0,0l0,0c0.7-0.1,1.4-0.1,2.2-0.1c1.7,0,3.9,0.1,6.5,0.5c1.3,0.2,3.2,0.3,5.1,0.6c1.9,0.3,3.7,0.6,4.8,1.1
		c0.6,0.3,1.5,0.9,2.7,1.6C64.9,24.2,66.3,25.2,67.7,26.2L67.7,26.2L67.7,26.2L67.7,26.2L67.7,26.2z"/>
	<path class="st49" d="M74.3,31.5c-7.1-1.1-16,0.6-16,0.6c0,0,0.1,0,0.1,0.1c6.1,3,12.6,4.7,16.6,3.3c1.5-0.5,1.2-1.6,0.5-2.8
		C75.1,32.3,74.7,31.9,74.3,31.5L74.3,31.5z"/>
	<path class="st49" d="M74.3,31.5L74.3,31.5c-1.7-0.3-3.5-0.4-5.3-0.4c-5.6,0-10.7,0.9-10.8,1l-0.1,0l0.1,0.1c0,0,0.1,0,0.1,0.1
		C63,34.4,67.8,36,71.7,36c1.2,0,2.3-0.1,3.3-0.5c0.4-0.1,0.7-0.3,0.9-0.5c0.2-0.2,0.3-0.5,0.3-0.7c0-0.5-0.3-1.1-0.6-1.6l0,0l0,0
		C75.1,32.2,74.7,31.8,74.3,31.5L74.3,31.5L74.3,31.5L74.3,31.5L74.3,31.5c0.4,0.4,0.8,0.8,1.1,1.2l0,0l0,0c0.4,0.6,0.6,1.1,0.6,1.6
		c0,0.3-0.1,0.5-0.2,0.7c-0.2,0.2-0.4,0.4-0.8,0.5c-1,0.3-2,0.5-3.2,0.5c-3.8,0-8.7-1.5-13.3-3.8c0,0-0.1,0-0.1-0.1l0,0l0,0
		c0,0,5.2-1,10.7-1C70.7,31.1,72.5,31.2,74.3,31.5L74.3,31.5L74.3,31.5L74.3,31.5L74.3,31.5z"/>
	<g>
		<defs>
			<path id="SVGID_1_" d="M76,33.8c0,0.1,0,0.2,0,0.2c0,0,0,0,0,0C76.1,34,76.1,33.9,76,33.8C76,33.8,76,33.8,76,33.8L76,33.8z"/>
		</defs>
		<clipPath id="SVGID_2_">
			<use xlink:href="#SVGID_1_"  style="overflow:visible;"/>
		</clipPath>
		<rect x="76" y="33.8" class="st81" width="0.1" height="0.3"/>
	</g>
	<path class="st60" d="M75.8,33.2c0.1,0.2,0.2,0.4,0.2,0.6c0,0,0,0,0,0C76,33.6,75.9,33.4,75.8,33.2L75.8,33.2z"/>
	<path class="st62" d="M55.1,24.7C55.1,24.7,55.1,24.7,55.1,24.7c-1.2,0-2.4,0-3.4,0.1c5.7,0.9,13.6,2.7,20.2,6.4
		c0.8,0.1,1.5,0.1,2.3,0.2c0,0-0.1-0.1-0.1-0.1c-1.5-1.4-4-3.3-6.3-5.1c-3-1.1-7.6-1.5-11.8-1.5c0,0-0.1,0-0.1,0c0,0,0,0,0,0
		C55.5,24.7,55.3,24.7,55.1,24.7L55.1,24.7z"/>
	<path class="st62" d="M55.9,24.7c4.2,0,8.8,0.4,11.8,1.5c2.4,1.8,4.8,3.7,6.3,5.1c0,0,0.1,0.1,0.1,0.1c0,0,0.1,0,0.1,0
		c-0.1,0-0.1-0.1-0.2-0.2c-1.5-1.4-4-3.3-6.4-5.1c0,0,0,0,0,0l0,0.1C64.7,25.1,60.1,24.7,55.9,24.7L55.9,24.7z M55.7,24.7
		C55.7,24.7,55.7,24.7,55.7,24.7C55.7,24.7,55.7,24.7,55.7,24.7L55.7,24.7z M55.1,24.7C55.1,24.7,55.1,24.7,55.1,24.7
		c-1.2,0-2.4,0-3.4,0.1l0,0C52.7,24.7,53.9,24.7,55.1,24.7C55.1,24.7,55.1,24.7,55.1,24.7L55.1,24.7L55.1,24.7z"/>
	<path class="st43" d="M44.6,19.6c-0.8,0-1.6,0-2.2,0.1c0,0-0.3,0-0.6,0.1c-0.3,0.1-0.6,0.2-0.8,0.4c-0.1,0.1-0.2,0.3-0.2,0.5
		c0,0.2,0.1,0.5,0.4,0.8c0.3,0.3,0.7,0.7,1.3,1.1c0.6,0.4,1.3,0.8,2,1.3c0.6,0,3.2,0.2,6.9,0.7c1.2-0.1,2.5-0.1,3.9-0.1
		c4.3,0,9.1,0.3,12.3,1.4c-1.3-1-2.6-1.9-3.7-2.6c-1.2-0.8-2.1-1.4-2.7-1.6c-1.1-0.5-2.9-0.8-4.8-1.1c-1.9-0.3-3.8-0.4-5.1-0.6
		C48.5,19.7,46.3,19.6,44.6,19.6L44.6,19.6z"/>
	<path class="st43" d="M44.6,19.5c-0.8,0-1.6,0-2.3,0.1c0,0-0.2,0-0.5,0.1c0.2,0,0.3,0,0.5-0.1l0,0l0,0c-0.1,0-2.2,0.3-1.5,1.6
		c0.2,0.4,0.7,0.8,1.5,1.4c0.6,0.4,1.2,0.8,1.9,1.3c0,0,0,0,0.1,0c-0.7-0.5-1.4-0.9-2-1.3c-0.6-0.4-1-0.8-1.3-1.1
		c-0.3-0.3-0.4-0.6-0.4-0.8c0-0.2,0.1-0.4,0.2-0.5c0.2-0.2,0.5-0.4,0.8-0.4c0.3-0.1,0.5-0.1,0.6-0.1C43,19.6,43.8,19.6,44.6,19.5
		c1.8,0.1,3.9,0.2,6.5,0.5c1.3,0.2,3.2,0.3,5.1,0.6c1.9,0.3,3.7,0.6,4.8,1.1c0.6,0.3,1.5,0.9,2.7,1.6c1.1,0.7,2.4,1.7,3.7,2.6
		c-3.2-1.1-8-1.4-12.3-1.4c-1.4,0-2.7,0-3.9,0.1c0.1,0,0.3,0,0.4,0.1c1.1,0,2.2-0.1,3.4-0.1c0,0,0,0,0,0l0,0c0.2,0,0.4,0,0.6,0
		c0,0,0,0,0,0c0,0,0.1,0,0.1,0c4.2,0,8.8,0.4,11.8,1.5l0-0.1c0,0,0,0,0,0l0,0l0,0c-2.8-2.1-5.5-3.9-6.7-4.4c-2.2-1-7.3-1.4-9.9-1.7
		C48.5,19.7,46.3,19.5,44.6,19.5L44.6,19.5z"/>
	<path class="st61" d="M72,31.3c1.4,0.8,2.7,1.7,4,2.7c-0.1-0.4-0.3-0.9-0.6-1.3c-0.3-0.3-0.7-0.7-1.1-1.1
		C73.5,31.4,72.8,31.3,72,31.3L72,31.3z"/>
	<path class="st61" d="M71.8,31.2c0.1,0,0.1,0.1,0.2,0.1c0.8,0.1,1.5,0.1,2.2,0.2c0.4,0.4,0.8,0.8,1.1,1.1c0.3,0.5,0.5,0.9,0.6,1.3
		c0,0,0.1,0.1,0.1,0.1c0-0.1,0-0.2,0-0.2c-0.1-0.2-0.1-0.4-0.2-0.6c-0.1-0.2-0.2-0.4-0.3-0.5c-0.3-0.4-0.7-0.7-1.2-1.2c0,0,0,0,0,0
		l0,0l0,0l0,0l0,0c0,0,0,0,0,0c0,0-0.1,0-0.1,0C73.4,31.3,72.6,31.2,71.8,31.2L71.8,31.2z"/>
	<path class="st64" d="M46.2,25.3c-0.3,0.1-0.5,0.3-0.6,0.5c-0.1,0.2-0.1,0.4-0.1,0.5l0,0c0,0,0,0,0,0v0c0,0,0,0,0,0v0c0,0,0,0,0,0
		c0,0,0,0,0,0c0,0,0,0,0,0l0,0c0,0,0,0,0,0l0,0c0,0,0,0,0,0l0,0c0,0,0,0,0,0v0c0,0.2,0,0.3,0.1,0.4c0,0,0,0,0,0
		c0.7,0.4,1.5,0.8,2.3,1.2c1.5,0.5,3.1,0.9,4.8,1.3C50.3,27.9,48.2,26.5,46.2,25.3L46.2,25.3z"/>
	<path class="st60" d="M45.6,26.7C45.6,26.7,45.6,26.7,45.6,26.7L45.6,26.7L45.6,26.7c0.6,0.4,1.3,0.7,1.9,1.1
		c0.1,0,0.2,0.1,0.4,0.1C47.1,27.5,46.3,27.1,45.6,26.7L45.6,26.7z M45.5,26.3c0,0.2,0,0.3,0.1,0.4C45.5,26.6,45.5,26.5,45.5,26.3
		L45.5,26.3z M45.5,26.3C45.5,26.3,45.5,26.3,45.5,26.3C45.5,26.3,45.5,26.3,45.5,26.3L45.5,26.3z M45.5,26.3
		C45.5,26.3,45.5,26.3,45.5,26.3C45.5,26.3,45.5,26.3,45.5,26.3L45.5,26.3z M45.5,26.3C45.5,26.3,45.5,26.3,45.5,26.3
		C45.5,26.3,45.5,26.3,45.5,26.3L45.5,26.3z M45.5,26.3C45.5,26.3,45.5,26.3,45.5,26.3C45.5,26.3,45.5,26.3,45.5,26.3L45.5,26.3z
		 M45.5,26.3C45.5,26.3,45.5,26.3,45.5,26.3C45.5,26.3,45.5,26.3,45.5,26.3L45.5,26.3z M45.5,26.3C45.5,26.3,45.5,26.3,45.5,26.3
		C45.5,26.3,45.5,26.3,45.5,26.3L45.5,26.3z M45.5,26.3C45.5,26.3,45.5,26.3,45.5,26.3C45.5,26.3,45.5,26.3,45.5,26.3L45.5,26.3z
		 M46.3,25.3c-0.3,0.1-0.5,0.3-0.6,0.5c-0.1,0.2-0.1,0.4-0.1,0.5l0,0c0-0.2,0-0.3,0.1-0.5C45.8,25.6,45.9,25.4,46.3,25.3
		c1.9,1.2,4.1,2.6,6.4,3.9c0,0,0,0,0.1,0C50.4,27.9,48.2,26.5,46.3,25.3L46.3,25.3z"/>
	<path class="st63" d="M41.7,19.8c-0.7,0.1-1.3,0.2-1.8,0.4c-0.6,0.2-1,0.5-1.2,0.8c-0.1,0.2-0.2,0.4-0.2,0.6c0,0.4,0.2,0.8,0.7,1.3
		c0.4,0.4,1.2,0.9,2.3,1.6c1.1,0.6,2.5,1.4,4,2.2c0-0.1,0-0.2,0-0.3c0-0.2,0-0.4,0.2-0.6c0.1-0.2,0.3-0.3,0.6-0.5
		c-1.5-0.9-2.8-1.8-3.8-2.5c-0.6-0.4-1-0.8-1.3-1.1c-0.3-0.3-0.4-0.6-0.4-0.8c0-0.2,0.1-0.4,0.3-0.6c0.2-0.2,0.4-0.3,0.6-0.4
		C41.5,19.8,41.6,19.8,41.7,19.8C41.7,19.8,41.7,19.8,41.7,19.8L41.7,19.8z"/>
	<path class="st60" d="M41.8,19.7c-3.5,0.5-4,1.8-2.7,3.2c0.7,0.8,3.3,2.2,6.5,3.8c0,0,0.1,0,0.1,0l0-0.1l0,0c0,0,0,0,0,0
		c0,0,0,0,0,0c0-0.1-0.1-0.2-0.1-0.4v0c0,0,0,0,0,0l0,0c0,0,0,0,0,0l0,0c0,0,0,0,0,0l0,0c0,0,0,0,0,0c0,0,0,0,0,0c0,0,0,0,0,0v0
		c0,0,0,0,0,0v0c0,0,0,0,0,0l0,0l0,0c0-0.2,0-0.3,0.1-0.5c0.1-0.2,0.3-0.3,0.6-0.5c0,0,0,0,0,0c-1.5-0.9-2.8-1.8-3.9-2.6
		c-0.2-0.2-0.5-0.3-0.6-0.5c-0.3-0.2-0.5-0.4-0.7-0.6c-0.2-0.2-0.3-0.4-0.3-0.6c-0.2-0.6,0.3-0.9,0.7-1.1c0,0,0,0,0.1,0
		C41.5,19.8,41.6,19.8,41.8,19.7c-0.1,0-0.2,0.1-0.3,0.1c-0.2,0.1-0.4,0.2-0.6,0.4c-0.2,0.2-0.3,0.3-0.3,0.6c0,0.2,0.1,0.5,0.4,0.8
		c0.3,0.3,0.7,0.7,1.3,1.1c1.1,0.7,2.4,1.6,3.8,2.5c-0.3,0.1-0.5,0.3-0.6,0.5c-0.1,0.2-0.2,0.4-0.2,0.6c0,0.1,0,0.3,0,0.3
		c-1.5-0.8-2.9-1.5-4-2.2c-1.1-0.7-2-1.2-2.3-1.6c-0.4-0.4-0.7-0.9-0.7-1.3c0-0.2,0.1-0.4,0.2-0.6c0.2-0.3,0.6-0.6,1.2-0.8
		C40.4,20,41,19.9,41.8,19.7C41.7,19.7,41.7,19.7,41.8,19.7L41.8,19.7z"/>
	<path class="st43" d="M40.7,21c0,0.2,0.2,0.4,0.3,0.6c0.2,0.2,0.4,0.4,0.7,0.6c-0.5-0.4-0.7-0.7-0.9-1C40.8,21.2,40.7,21.1,40.7,21
		L40.7,21z M41.8,19.7C41.8,19.7,41.8,19.7,41.8,19.7C41.7,19.7,41.7,19.7,41.8,19.7C41.7,19.8,41.7,19.8,41.8,19.7
		c-0.2,0.1-0.2,0.1-0.3,0.1c0,0,0,0-0.1,0C41.5,19.8,41.7,19.8,41.8,19.7L41.8,19.7z"/>
	<path class="st66" d="M41.4,19.9c-0.5,0.2-0.9,0.6-0.7,1.1c0-0.1,0-0.1,0-0.2c0-0.2,0.1-0.4,0.3-0.6C41,20.1,41.2,20,41.4,19.9
		L41.4,19.9z"/>
	<path class="st67" d="M42.3,19.7c-0.2,0-0.4,0-0.5,0.1c-0.1,0-0.3,0.1-0.4,0.1c-0.2,0.1-0.4,0.2-0.5,0.3c-0.2,0.2-0.3,0.3-0.3,0.6
		c0,0.1,0,0.1,0,0.2c0,0.1,0.1,0.2,0.1,0.3C40.2,20,42.2,19.7,42.3,19.7L42.3,19.7z"/>
</g>
</svg>
