<?xml version="1.0" encoding="utf-8"?>
<!-- Generator: Adobe Illustrator 22.0.0, SVG Export Plug-In . SVG Version: 6.00 Build 0)  -->
<svg version="1.1" id="Layer_1" xmlns="http://www.w3.org/2000/svg" xmlns:xlink="http://www.w3.org/1999/xlink" x="0px" y="0px"
	 viewBox="0 0 85 250" style="enable-background:new 0 0 85 250;" xml:space="preserve">
<style type="text/css">
	.st0{fill:url(#SVGID_1_);}
	.st1{fill:#5C153B;}
	.st2{fill:url(#SVGID_2_);}
	.st3{fill:url(#SVGID_3_);}
	.st4{opacity:0.26;fill:url(#SVGID_4_);}
	.st5{opacity:0.26;fill:url(#SVGID_5_);}
	.st6{opacity:0.42;}
	.st7{fill:url(#SVGID_6_);}
	.st8{fill:url(#SVGID_7_);}
	.st9{fill:url(#SVGID_8_);}
	.st10{opacity:0.26;fill:url(#SVGID_9_);}
	.st11{opacity:0.26;fill:url(#SVGID_10_);}
	.st12{fill:url(#SVGID_11_);}
	.st13{fill:url(#SVGID_12_);}
	.st14{fill:url(#SVGID_13_);}
	.st15{opacity:0.26;fill:url(#SVGID_14_);}
	.st16{fill:url(#SVGID_15_);}
	.st17{fill:url(#SVGID_16_);}
	.st18{opacity:0.26;fill:url(#SVGID_17_);}
	.st19{fill:url(#SVGID_18_);}
	.st20{fill:url(#SVGID_19_);}
	.st21{opacity:0.26;fill:url(#SVGID_20_);}
	.st22{fill:url(#SVGID_21_);}
	.st23{fill:url(#SVGID_22_);}
	.st24{fill:url(#SVGID_23_);}
	.st25{fill:url(#SVGID_24_);}
	.st26{fill:url(#SVGID_25_);}
	.st27{fill:url(#SVGID_26_);}
	.st28{fill:url(#SVGID_27_);}
	.st29{fill:url(#SVGID_28_);}
	.st30{fill:url(#SVGID_29_);}
	.st31{fill:url(#SVGID_30_);}
	.st32{fill:url(#SVGID_31_);}
	.st33{fill:url(#SVGID_32_);}
	.st34{fill:url(#SVGID_33_);}
	.st35{opacity:0.26;fill:url(#SVGID_34_);}
	.st36{opacity:0.26;fill:url(#SVGID_35_);}
	.st37{opacity:0.26;fill:url(#SVGID_36_);}
	.st38{fill:url(#SVGID_37_);}
	.st39{opacity:0.26;fill:url(#SVGID_38_);}
	.st40{opacity:0.26;fill:url(#SVGID_39_);}
	.st41{opacity:0.5;}
</style>
<g>
	<g>
		<g>
			<g>
				<linearGradient id="SVGID_1_" gradientUnits="userSpaceOnUse" x1="-10.0017" y1="-22.1175" x2="91.3723" y2="99.5312">
					<stop  offset="0" style="stop-color:#ECE3C2"/>
					<stop  offset="1" style="stop-color:#6E6B49"/>
				</linearGradient>
				<path class="st0" d="M84.8,41.3c0,1.3-0.1,2.5-0.2,3.8c0,0,0,0,0,0c0,0,0,0,0,0c-0.3,3-0.9,6-1.8,8.8l0,0
					c-0.8,2.5-1.9,4.9-3.2,7.2C75.6,68.3,69.4,74.2,61.9,78c-2.7,1.4-5.7,2.5-8.7,3.2h0c-0.5,0.1-1.2,0.4-1.9,0.8
					c-1.2,0.7-1.9,1.5-2.3,1.9c-1.8,2.1-2.6,4.6-2.8,5.6c0,0.2-1.4,0.4-3.2,0.4c-1.8,0-3.2-0.2-3.2-0.4c-0.3-1-1-3.6-2.8-5.6
					c-0.4-0.4-1.1-1.2-2.2-1.9c0,0-0.1,0-0.1-0.1c-0.7-0.4-1.4-0.7-1.9-0.8c-3-0.7-5.9-1.8-8.7-3.2c-5.7-2.8-10.6-6.9-14.4-11.8
					c-1.2-1.6-2.3-3.2-3.3-5c-1.3-2.3-2.4-4.8-3.2-7.3l0,0c-0.9-2.8-1.6-5.8-1.8-8.8c0,0,0,0,0,0c0,0,0,0,0,0
					c-0.1-1.2-0.2-2.5-0.2-3.8c0-22.7,18.8-41.1,41.9-41.1C48,0.2,53,1.1,57.5,2.8c2.5,0.9,5,2.1,7.2,3.5
					C76.8,13.5,84.8,26.5,84.8,41.3z"/>
				<path class="st1" d="M42.8,90.2c-0.9,0-1.7,0-2.3-0.1c-0.8-0.1-1.1-0.2-1.1-0.5c-0.3-1.3-1.1-3.7-2.8-5.5
					c-0.4-0.4-1-1.2-2.1-1.8c0,0-0.1,0-0.1-0.1c-0.6-0.3-1.2-0.6-1.9-0.8c-3-0.7-5.9-1.8-8.7-3.2c-5.6-2.8-10.6-6.9-14.5-11.8
					c-1.2-1.6-2.4-3.3-3.3-5C4.7,59,3.6,56.5,2.7,54c0,0,0,0,0,0c-0.9-2.9-1.6-5.8-1.8-8.8c0,0,0,0,0,0c-0.1-1.3-0.2-2.5-0.2-3.8
					c0-5.6,1.1-11,3.3-16.1c2.1-4.9,5.2-9.3,9-13.1c3.9-3.8,8.4-6.8,13.4-8.9C31.6,1.1,37.2,0,42.8,0c5.1,0,10,0.9,14.8,2.6
					c2.5,0.9,5,2.1,7.3,3.5c6,3.6,11.1,8.7,14.6,14.7C83.1,27,85,34.1,85,41.3c0,1.3-0.1,2.5-0.2,3.8c0,0,0,0,0,0c0,0,0,0,0,0
					c-0.3,3-0.9,6-1.8,8.8c0,0,0,0,0,0c-0.8,2.5-1.9,4.9-3.2,7.2c-2,3.6-4.6,6.9-7.6,9.8c-3,2.9-6.5,5.3-10.2,7.2
					c-2.8,1.4-5.7,2.5-8.8,3.2c0,0,0,0,0,0c-0.7,0.2-1.3,0.5-1.9,0.8c-1.2,0.7-1.9,1.5-2.2,1.9c-1.7,1.9-2.5,4.3-2.8,5.5
					c0,0.2-0.3,0.4-1.1,0.5C44.5,90.1,43.7,90.2,42.8,90.2z M39.8,89.5c0.2,0.1,1.3,0.3,3,0.3s2.8-0.2,3-0.3
					c0.3-1.3,1.1-3.8,2.9-5.7c0.4-0.4,1.1-1.3,2.3-2c0.6-0.4,1.3-0.6,2-0.9c0,0,0,0,0,0c3-0.7,5.9-1.8,8.7-3.2
					C69.3,74,75.4,68.2,79.4,61c1.3-2.3,2.3-4.7,3.1-7.1c0,0,0,0,0,0c0.9-2.8,1.5-5.8,1.8-8.7h0c0,0,0,0,0,0c0,0,0,0,0,0
					c0,0,0,0,0,0c0.1-1.2,0.2-2.5,0.2-3.8c0-14.3-7.5-27.4-19.9-34.9C62.4,5.1,60,3.9,57.5,3c-4.7-1.7-9.6-2.6-14.6-2.6
					c-23,0-41.7,18.3-41.7,40.9c0,1.3,0.1,2.5,0.2,3.8c0,0,0,0,0,0c0,0,0,0,0,0c0,0,0,0,0,0l0,0c0.3,3,0.9,5.9,1.8,8.7c0,0,0,0,0,0
					c0.8,2.5,1.9,5,3.2,7.3c1,1.7,2.1,3.4,3.3,4.9C13.5,71,18.4,75,24,77.8c2.8,1.4,5.7,2.4,8.6,3.2c0.7,0.2,1.4,0.5,2,0.9
					c0,0,0.1,0,0.1,0.1c1.2,0.7,1.9,1.5,2.2,1.9C38.7,85.7,39.5,88.2,39.8,89.5z M1.3,45.1C1.3,45.1,1.3,45.1,1.3,45.1
					C1.3,45.1,1.3,45.1,1.3,45.1z"/>
			</g>
			<g>
				<linearGradient id="SVGID_2_" gradientUnits="userSpaceOnUse" x1="1.0804" y1="52.0788" x2="84.6144" y2="52.0788">
					<stop  offset="0" style="stop-color:#FEE4CF"/>
					<stop  offset="0.5077" style="stop-color:#F0BA76"/>
					<stop  offset="0.5785" style="stop-color:#E3B272"/>
					<stop  offset="0.692" style="stop-color:#C7A068"/>
					<stop  offset="0.8339" style="stop-color:#9F885B"/>
					<stop  offset="0.9974" style="stop-color:#6F6B49"/>
					<stop  offset="1" style="stop-color:#6E6B49"/>
				</linearGradient>
				<path class="st2" d="M84.6,45.1c-0.3,3-0.9,6-1.8,8.8l0,0C76.6,59.3,42.8,59,42.8,59S9.1,59.3,2.9,53.9l0,0
					c-0.9-2.8-1.6-5.8-1.8-8.8c0.1,0.4,1.8,4.2,41.8,4.2S84.5,45.5,84.6,45.1z"/>
				<path class="st1" d="M43.4,59.2c-0.3,0-0.5,0-0.6,0c-0.1,0-8.5,0.1-17.7-0.6c-12.3-0.8-19.8-2.4-22.4-4.6c0,0,0,0,0,0
					c0,0,0-0.1-0.1-0.1c-0.9-2.9-1.6-5.8-1.8-8.8c0-0.1,0.1-0.2,0.2-0.2c0.1,0,0.2,0.1,0.2,0.2c0,0,0.3,1.1,5.8,2.1
					c7,1.3,19.1,1.9,35.8,1.9c16.7,0,28.8-0.7,35.8-1.9c5.5-1,5.8-2,5.8-2.1c0-0.1,0.1-0.2,0.2-0.2c0.1,0,0.2,0.1,0.2,0.2
					c-0.3,3-0.9,6-1.8,8.8c0,0,0,0.1-0.1,0.1c0,0,0,0,0,0c-2.6,2.2-10.1,3.8-22.4,4.6C52.7,59.2,45.4,59.2,43.4,59.2z M42.8,58.8
					c0.3,0,33.6,0.2,39.8-5c0.9-2.6,1.4-5.3,1.7-8.1c-1.7,1.3-9.1,3.7-41.5,3.7C10.5,49.5,3,47,1.4,45.7c0.3,2.7,0.9,5.4,1.7,8.1
					C9.3,59,42.5,58.8,42.8,58.8z"/>
			</g>
			<g>
				<linearGradient id="SVGID_3_" gradientUnits="userSpaceOnUse" x1="6.1637" y1="70.2825" x2="79.6125" y2="70.2825">
					<stop  offset="0" style="stop-color:#FEE4CF"/>
					<stop  offset="0.5077" style="stop-color:#F0BA76"/>
					<stop  offset="0.5785" style="stop-color:#E3B272"/>
					<stop  offset="0.692" style="stop-color:#C7A068"/>
					<stop  offset="0.8339" style="stop-color:#9F885B"/>
					<stop  offset="0.9974" style="stop-color:#6F6B49"/>
					<stop  offset="1" style="stop-color:#6E6B49"/>
				</linearGradient>
				<path class="st3" d="M79.6,61.1C75.6,68.3,69.4,74.2,61.9,78c-9.4,1.4-19.1,1.5-19.1,1.5s-9.5-0.1-18.9-1.5
					c-7.5-3.7-13.7-9.6-17.7-16.7c2.7,1.9,10.9,4.9,36.6,4.9C69.2,66.1,77.2,63,79.6,61.1z"/>
				<path class="st1" d="M42.8,79.7c-0.1,0-9.6-0.1-18.9-1.5c0,0,0,0-0.1,0C16.3,74.4,10.1,68.6,6,61.3c0-0.1,0-0.2,0-0.3
					c0.1-0.1,0.2-0.1,0.3,0c2.5,1.8,10.6,4.8,36.5,4.8c26.4,0,34.3-3.1,36.7-5c0.1-0.1,0.2-0.1,0.3,0c0.1,0.1,0.1,0.2,0,0.3
					c-2,3.6-4.6,6.9-7.6,9.8c-3,2.9-6.5,5.3-10.2,7.2c0,0,0,0-0.1,0C52.5,79.5,42.9,79.7,42.8,79.7z M24,77.8
					c9.3,1.3,18.7,1.5,18.8,1.5c0.1,0,9.7-0.1,19-1.5c7.2-3.6,13.2-9.1,17.2-16c-3.2,1.9-12,4.6-36.2,4.6c-11.4,0-20.4-0.6-27-1.7
					c-4.9-0.9-7.6-1.9-9-2.7C10.8,68.7,16.8,74.2,24,77.8z"/>
			</g>
			<linearGradient id="SVGID_4_" gradientUnits="userSpaceOnUse" x1="35.5919" y1="31.6819" x2="59.885" y2="63.8754">
				<stop  offset="0" style="stop-color:#ECE3C2"/>
				<stop  offset="1" style="stop-color:#6E6B49"/>
			</linearGradient>
			<path class="st4" d="M84.8,41.3c0,1.3-0.1,2.5-0.2,3.8c0,0,0,0,0,0c0,0,0,0,0,0c-0.3,3-0.9,6-1.8,8.8l0,0
				c-0.8,2.5-1.9,4.9-3.2,7.2C75.6,68.3,69.4,74.2,61.9,78c-2.7,1.4-5.7,2.5-8.7,3.2h0c-0.5,0.1-1.2,0.4-1.9,0.8
				c-1.2,0.7-1.9,1.5-2.3,1.9c-1.8,2.1-2.6,4.6-2.8,5.6c0,0.2-1.4,0.4-3.2,0.4c-1.8,0-3.2-0.2-3.2-0.4c-0.3-1-1-3.6-2.8-5.6
				c-0.4-0.5-1.1-1.2-2.3-1.9c-0.7-0.4-1.4-0.7-1.9-0.8c-3-0.7-5.9-1.8-8.7-3.2c-5.7-2.8-10.6-6.9-14.4-11.8
				c9.9,4.3,21.2,5.3,31.5,2.2C56.7,63.6,69,49.1,70.1,33c0.6-8.1-1.9-16.3-6.4-23c-1.8-2.6-3.8-5-6.2-7.1
				C73.5,8.6,84.8,23.7,84.8,41.3z"/>
			<linearGradient id="SVGID_5_" gradientUnits="userSpaceOnUse" x1="48.8899" y1="38.8837" x2="62.2471" y2="59.7051">
				<stop  offset="0" style="stop-color:#ECE3C2"/>
				<stop  offset="1" style="stop-color:#6E6B49"/>
			</linearGradient>
			<path class="st5" d="M84.8,41.3c0,1.3-0.1,2.5-0.2,3.8c0,0,0,0,0,0c0,0,0,0,0,0c-0.3,3-0.9,6-1.8,8.8l0,0
				c-0.8,2.5-1.9,4.9-3.2,7.2C75.6,68.3,69.4,74.2,61.9,78c-2.7,1.4-5.7,2.5-8.7,3.2h0c-0.5,0.1-1.2,0.4-1.9,0.8
				c-1.2,0.7-1.9,1.5-2.3,1.9c-1.8,2.1-2.6,4.6-2.8,5.6c0,0.2-1.4,0.4-3.2,0.4c-1.8,0-3.2-0.2-3.2-0.4c-0.3-1-1-3.6-2.8-5.6
				c-0.4-0.4-1.1-1.2-2.2-1.9c8.1-0.7,16-3.4,22.7-7.8c10.6-6.9,18.3-18,20.9-30.2c1.2-5.9,1.3-12-0.3-17.8
				c-2.2-7.7-7.4-14.2-13.1-20C76.8,13.5,84.8,26.5,84.8,41.3z"/>
		</g>
		<g class="st6">
			<g>
				<path class="st1" d="M42.2,98.7c-0.1,0-0.2-0.1-0.2-0.2L41,89.9c0-0.1,0.1-0.2,0.2-0.2c0.1,0,0.2,0.1,0.2,0.2l0.9,8.5
					C42.4,98.6,42.3,98.7,42.2,98.7C42.2,98.7,42.2,98.7,42.2,98.7z"/>
			</g>
			<g>
				<path class="st1" d="M40.8,98.5c-0.1,0-0.2-0.1-0.2-0.2c-1.1-5.4-2.9-12.7-2.9-12.8c0-0.1,0-0.2,0.2-0.2c0.1,0,0.2,0,0.2,0.2
					c0,0.1,1.8,7.4,2.9,12.8C41.1,98.3,41,98.4,40.8,98.5C40.9,98.4,40.9,98.5,40.8,98.5z"/>
			</g>
			<g>
				<path class="st1" d="M39.8,99c-0.1,0-0.2-0.1-0.2-0.1c-2.7-8.3-5.2-16.7-5.3-16.8c0-0.1,0-0.2,0.1-0.3c0.1,0,0.2,0,0.3,0.1
					c0,0.1,2.6,8.5,5.3,16.8C40,98.8,39.9,98.9,39.8,99C39.8,99,39.8,99,39.8,99z"/>
			</g>
			<g>
				<path class="st1" d="M38.4,99c-0.1,0-0.2,0-0.2-0.1c-3.7-8.3-7.4-17.9-7.4-18c0-0.1,0-0.2,0.1-0.3c0.1,0,0.2,0,0.3,0.1
					c0,0.1,3.7,9.8,7.4,18C38.7,98.8,38.6,98.9,38.4,99C38.5,99,38.5,99,38.4,99z"/>
			</g>
			<g>
				<path class="st1" d="M37,98.6c-0.1,0-0.1,0-0.2-0.1c-3.3-5.6-9.4-18.7-9.5-18.8c0-0.1,0-0.2,0.1-0.3c0.1,0,0.2,0,0.3,0.1
					c0.1,0.1,6.1,13.2,9.5,18.8c0.1,0.1,0,0.2-0.1,0.3C37,98.6,37,98.6,37,98.6z"/>
			</g>
			<g>
				<path class="st1" d="M35.7,98.7c-0.1,0-0.1,0-0.2-0.1C30.4,91,23.7,78.4,23.6,78.2c-0.1-0.1,0-0.2,0.1-0.3
					c0.1-0.1,0.2,0,0.3,0.1c0.1,0.1,6.8,12.8,11.9,20.3c0.1,0.1,0,0.2-0.1,0.3C35.8,98.7,35.7,98.7,35.7,98.7z"/>
			</g>
			<g>
				<path class="st1" d="M34.8,98.7c-0.1,0-0.1,0-0.2-0.1c-1.7-2.4-3.4-4.9-5-7.3c-3.4-5.1-4.4-6.6-4.7-7.1c-1.6-2.6-3.1-5.3-4.5-8
					c-0.1-0.1,0-0.2,0.1-0.3c0.1-0.1,0.2,0,0.3,0.1c1.4,2.7,2.9,5.4,4.5,8c0.3,0.5,1.3,2,4.7,7.1c1.7,2.5,3.4,4.9,5,7.3
					c0.1,0.1,0,0.2-0.1,0.3C34.8,98.7,34.8,98.7,34.8,98.7z"/>
			</g>
			<g>
				<path class="st1" d="M33.7,98.8c-0.1,0-0.1,0-0.2-0.1c-13.9-18.6-17.9-25.9-17.9-26c-0.1-0.1,0-0.2,0.1-0.3
					c0.1-0.1,0.2,0,0.3,0.1c0,0.1,4,7.3,17.9,25.9c0.1,0.1,0,0.2,0,0.3C33.8,98.8,33.7,98.8,33.7,98.8z"/>
			</g>
			<g>
				<path class="st1" d="M43.5,98.7C43.5,98.7,43.5,98.7,43.5,98.7c-0.1,0-0.2-0.1-0.2-0.2l0.9-8.5c0-0.1,0.1-0.2,0.2-0.2
					c0.1,0,0.2,0.1,0.2,0.2l-0.9,8.5C43.7,98.6,43.6,98.7,43.5,98.7z"/>
			</g>
			<g>
				<path class="st1" d="M44.8,98.5C44.8,98.5,44.8,98.4,44.8,98.5c-0.2,0-0.2-0.1-0.2-0.2c1.1-5.4,2.9-12.7,2.9-12.8
					c0-0.1,0.1-0.2,0.2-0.2c0.1,0,0.2,0.1,0.2,0.2c0,0.1-1.8,7.4-2.9,12.8C45,98.4,44.9,98.5,44.8,98.5z"/>
			</g>
			<g>
				<path class="st1" d="M45.9,99C45.9,99,45.9,99,45.9,99c-0.2,0-0.2-0.2-0.2-0.3c2.7-8.3,5.2-16.7,5.3-16.8c0-0.1,0.1-0.2,0.3-0.1
					c0.1,0,0.2,0.1,0.1,0.3c0,0.1-2.6,8.5-5.3,16.8C46.1,98.9,46,99,45.9,99z"/>
			</g>
			<g>
				<path class="st1" d="M47.2,99C47.2,99,47.2,99,47.2,99c-0.2-0.1-0.2-0.2-0.2-0.3c3.7-8.3,7.3-17.9,7.4-18c0-0.1,0.2-0.2,0.3-0.1
					c0.1,0,0.2,0.2,0.1,0.3c0,0.1-3.7,9.8-7.4,18C47.4,98.9,47.3,99,47.2,99z"/>
			</g>
			<g>
				<path class="st1" d="M48.7,98.6c0,0-0.1,0-0.1,0c-0.1-0.1-0.1-0.2-0.1-0.3c3.3-5.6,9.4-18.7,9.5-18.8c0-0.1,0.2-0.1,0.3-0.1
					c0.1,0,0.1,0.2,0.1,0.3c-0.1,0.1-6.2,13.2-9.5,18.8C48.9,98.5,48.8,98.6,48.7,98.6z"/>
			</g>
			<g>
				<path class="st1" d="M50,98.7c0,0-0.1,0-0.1,0c-0.1-0.1-0.1-0.2-0.1-0.3c5.1-7.5,11.8-20.2,11.9-20.3c0.1-0.1,0.2-0.1,0.3-0.1
					c0.1,0.1,0.1,0.2,0.1,0.3C62,78.4,55.3,91,50.2,98.6C50.1,98.6,50.1,98.7,50,98.7z"/>
			</g>
			<g>
				<path class="st1" d="M50.9,98.7c0,0-0.1,0-0.1,0c-0.1-0.1-0.1-0.2-0.1-0.3c1.7-2.4,3.4-4.9,5-7.3c3.4-5.1,4.4-6.6,4.7-7.1
					c1.6-2.6,3.1-5.3,4.5-8c0.1-0.1,0.2-0.1,0.3-0.1c0.1,0.1,0.1,0.2,0.1,0.3c-1.4,2.7-2.9,5.5-4.5,8c-0.3,0.5-1.3,2-4.7,7.1
					c-1.7,2.5-3.4,4.9-5,7.3C51.1,98.7,51,98.7,50.9,98.7z"/>
			</g>
			<g>
				<path class="st1" d="M52,98.8c0,0-0.1,0-0.1,0c-0.1-0.1-0.1-0.2,0-0.3c13.9-18.6,17.9-25.9,17.9-25.9c0.1-0.1,0.2-0.1,0.3-0.1
					c0.1,0.1,0.1,0.2,0.1,0.3c0,0.1-4,7.4-17.9,26C52.1,98.8,52.1,98.8,52,98.8z"/>
			</g>
		</g>
		<g>
			<g>
				<g>
					<linearGradient id="SVGID_6_" gradientUnits="userSpaceOnUse" x1="50.4694" y1="136.6584" x2="45.2395" y2="124.7907">
						<stop  offset="0" style="stop-color:#ECE3C2"/>
						<stop  offset="1" style="stop-color:#6E6B49"/>
					</linearGradient>
					<path class="st7" d="M59.2,119.7c0,0.2-7.3,0.4-16.3,0.4c-9,0-16.3-0.2-16.3-0.4c0-0.2,7.3-0.4,16.3-0.4
						C52,119.3,59.2,119.5,59.2,119.7z"/>
					<path class="st1" d="M43,120.3c-4.3,0-8.4,0-11.5-0.1c-5-0.1-5-0.2-5-0.5s0-0.4,5-0.5c3.1-0.1,7.2-0.1,11.5-0.1
						c4.3,0,8.4,0,11.5,0.1c5,0.1,5,0.2,5,0.5s0,0.4-5,0.5C51.4,120.2,47.3,120.3,43,120.3z M29,119.7c2.7,0.1,7.6,0.2,14,0.2
						c6.4,0,11.3-0.1,14-0.2c-2.7-0.1-7.6-0.2-14-0.2C36.6,119.5,31.7,119.6,29,119.7z M59.1,119.8L59.1,119.8L59.1,119.8z"/>
				</g>
				<g>
					<linearGradient id="SVGID_7_" gradientUnits="userSpaceOnUse" x1="26.2524" y1="121.3659" x2="59.7457" y2="121.3659">
						<stop  offset="0" style="stop-color:#ECE3C2"/>
						<stop  offset="1" style="stop-color:#6E6B49"/>
					</linearGradient>
					<path class="st8" d="M59.7,121c0,0.9-0.5,1.6-0.5,1.6c0,0,0,0,0,0c0,0.2-7.3,0.4-16.3,0.4c-9,0-16.3-0.2-16.3-0.4
						c0,0-0.5-0.6-0.5-1.5c0-0.9,0.5-1.5,0.5-1.5c0,0.2,7.3,0.4,16.3,0.4c9,0,16.3-0.2,16.3-0.4C59.2,119.7,59.7,120.1,59.7,121z"/>
					<path class="st1" d="M43,123.3c-4.3,0-8.4,0-11.5-0.1c-4.5-0.1-4.9-0.2-5-0.4c-0.1-0.2-0.5-0.8-0.5-1.6c0-1,0.5-1.6,0.5-1.6
						c0.1-0.1,0.1-0.1,0.2-0.1c0,0,0,0,0.1,0c0.6,0.2,6.9,0.3,16.1,0.3c9.3,0,15.5-0.2,16.1-0.3c0,0,0,0,0,0c0.1,0,0.2,0,0.2,0
						c0,0,0.6,0.5,0.6,1.5c0,0.8-0.4,1.5-0.5,1.7c0,0.2-0.4,0.3-5,0.4C51.4,123.2,47.3,123.3,43,123.3z M26.9,122.5
						c0.7,0.2,6.9,0.3,16.1,0.3c9.2,0,15.4-0.2,16.1-0.3c0.1-0.1,0.4-0.8,0.4-1.5c0-0.6-0.2-1-0.4-1.1c-0.4,0.1-1.6,0.2-4.7,0.2
						c-3.1,0.1-7.2,0.1-11.5,0.1c-4.3,0-8.4,0-11.5-0.1c-3-0.1-4.2-0.1-4.7-0.2c-0.1,0.2-0.4,0.7-0.4,1.3
						C26.5,121.9,26.8,122.4,26.9,122.5z M59,122.7C59,122.7,59,122.7,59,122.7C59,122.7,59,122.7,59,122.7z M26.9,122.6
						C26.9,122.6,26.9,122.7,26.9,122.6C26.9,122.7,26.9,122.6,26.9,122.6z M59,122.6C59,122.6,59,122.7,59,122.6
						C59,122.7,59,122.6,59,122.6z M59.2,122.7L59.2,122.7L59.2,122.7z M59,119.7C59,119.7,59,119.7,59,119.7
						C59,119.7,59,119.7,59,119.7z M26.9,119.7C26.9,119.7,26.9,119.7,26.9,119.7C26.9,119.7,26.9,119.7,26.9,119.7z M59,119.7
						C59,119.7,59,119.7,59,119.7C59,119.7,59,119.7,59,119.7z M26.9,119.7C26.9,119.7,26.9,119.7,26.9,119.7
						C26.9,119.7,26.9,119.7,26.9,119.7z M26.9,119.7C26.9,119.7,26.9,119.7,26.9,119.7C26.9,119.7,26.9,119.7,26.9,119.7z
						 M59,119.6C59,119.7,59,119.7,59,119.6C59,119.7,59,119.7,59,119.6z M26.9,119.7C26.9,119.7,26.9,119.7,26.9,119.7
						C26.9,119.7,26.9,119.7,26.9,119.7z"/>
				</g>
				<g>
					<linearGradient id="SVGID_8_" gradientUnits="userSpaceOnUse" x1="25.1111" y1="132.8947" x2="60.8875" y2="132.8947">
						<stop  offset="0" style="stop-color:#FEE4CF"/>
						<stop  offset="0.5077" style="stop-color:#F0BA76"/>
						<stop  offset="0.5785" style="stop-color:#E3B272"/>
						<stop  offset="0.692" style="stop-color:#C7A068"/>
						<stop  offset="0.8339" style="stop-color:#9F885B"/>
						<stop  offset="0.9974" style="stop-color:#6F6B49"/>
						<stop  offset="1" style="stop-color:#6E6B49"/>
					</linearGradient>
					<path class="st9" d="M60.9,132.2c-0.1,4.1-4.4,9.8-9.9,11H35c-3.6-0.8-6.7-3.5-8.4-6.4c-0.9-1.6-1.5-3.2-1.5-4.6
						c-0.1-4.1,1.6-9.5,1.6-9.5c0,0.2,6.1,0.4,13.9,0.4c0.8,0,1.5,0,2.3,0c9,0,16.3-0.2,16.3-0.4c0,0,0,0,0,0l0,0
						C59.3,122.7,61,128.1,60.9,132.2z"/>
					<path class="st1" d="M51,143.3H35c0,0,0,0,0,0c-3.3-0.7-6.6-3.2-8.5-6.5c-1-1.6-1.5-3.3-1.5-4.7c-0.1-4.1,1.6-9.5,1.6-9.5
						c0-0.1,0.1-0.2,0.2-0.1c0,0,0.1,0,0.1,0c0.5,0.1,5.5,0.3,13.8,0.3c0.8,0,1.5,0,2.3,0c9.3,0,15.5-0.2,16.1-0.3
						c0,0,0.1-0.1,0.1,0l0,0c0.1,0,0.2,0.1,0.2,0.1c0,0.1,1.7,5.5,1.6,9.5C61,136.3,56.6,142.1,51,143.3
						C51.1,143.3,51,143.3,51,143.3z M35,142.9h16c5.4-1.2,9.6-6.7,9.7-10.8l0,0c0.1-3.6-1.3-8.3-1.5-9.2c-0.5,0.1-1.7,0.2-4.6,0.2
						c-3.1,0.1-7.2,0.1-11.5,0.1c-0.8,0-1.6,0-2.3,0c-3.8,0-7.4-0.1-9.9-0.1c-1.3,0-2.3-0.1-3-0.1c-0.4,0-0.7-0.1-0.9-0.1
						c-0.3,1-1.6,5.7-1.5,9.2c0,1.4,0.5,3,1.5,4.5C28.7,139.8,31.8,142.2,35,142.9z M59,122.7C59,122.7,59,122.7,59,122.7
						C59,122.7,59,122.7,59,122.7z M26.9,122.7C26.9,122.7,26.9,122.7,26.9,122.7C26.9,122.7,26.9,122.7,26.9,122.7z M59,122.6
						C59,122.6,59,122.7,59,122.6C59,122.7,59,122.6,59,122.6z M26.9,122.7C26.9,122.7,26.9,122.7,26.9,122.7
						C26.9,122.7,26.9,122.7,26.9,122.7z M26.9,122.7C26.9,122.7,26.9,122.7,26.9,122.7C26.9,122.7,26.9,122.7,26.9,122.7z
						 M26.9,122.7C26.9,122.7,26.9,122.7,26.9,122.7C26.9,122.7,26.9,122.7,26.9,122.7z M26.9,122.7
						C26.9,122.7,26.9,122.7,26.9,122.7C26.9,122.7,26.9,122.7,26.9,122.7z M26.9,122.7C26.9,122.7,26.9,122.7,26.9,122.7
						C26.9,122.7,26.9,122.7,26.9,122.7z M26.9,122.7C26.9,122.7,26.9,122.7,26.9,122.7C26.9,122.7,26.9,122.7,26.9,122.7z
						 M26.9,122.7L26.9,122.7L26.9,122.7z"/>
				</g>
				<g>
					<path class="st1" d="M61.1,131c0,0,0,0.1,0,0.1c0,0,0,0,0,0c0,0,0,0,0,0c0,0,0,0-0.1,0c0,0,0,0-0.1,0c0,0-0.1,0-0.1,0
						c0,0-0.1,0-0.1,0c-0.1,0-0.2,0-0.3,0c-0.2,0-0.3,0-0.5,0c-0.3,0-0.7,0-1,0c-0.7,0-1.3,0-2,0c-1.3,0-2.6,0-3.9,0
						c-2.6,0-5.2,0-7.9,0c2.6,0,5.2-0.1,7.9-0.2c1.3,0,2.6-0.1,3.9-0.1c0.7,0,1.3-0.1,2-0.1c0.3,0,0.7,0,1-0.1c0.2,0,0.3,0,0.5,0
						c0.1,0,0.2,0,0.2,0c0,0,0.1,0,0.1,0c0,0,0,0,0,0c0,0,0,0,0,0c0,0,0,0,0,0c0,0,0,0,0,0c0,0,0,0,0,0c0,0,0,0.1,0,0.1
						c0-0.1,0.1-0.2,0.2-0.2S61.1,130.9,61.1,131z"/>
					<path class="st1" d="M60.8,134.2c0,0,0,0.1,0,0.1c0,0,0,0,0,0l0,0l0,0l0,0l0,0c0,0,0,0-0.1,0c0,0-0.1,0-0.1,0
						c-0.1,0-0.1,0-0.1,0c-0.1,0-0.2,0-0.3,0c-0.2,0-0.4,0-0.6,0c-0.4,0-0.7,0-1.1,0c-0.7,0-1.5,0-2.2,0.1c-1.5,0-2.9,0-4.4,0
						c-2.9,0-5.9,0-8.8,0c2.9,0,5.9-0.1,8.8-0.2c1.5,0,2.9-0.1,4.4-0.1c0.7,0,1.5-0.1,2.2-0.1c0.4,0,0.7,0,1.1-0.1
						c0.2,0,0.4,0,0.5,0c0.1,0,0.2,0,0.3,0c0,0,0.1,0,0.1,0c0,0,0,0,0,0c0,0,0,0,0,0l0,0l0,0c0,0,0,0,0,0c0,0,0,0,0,0c0,0,0,0,0,0
						c0,0,0,0.1,0,0.1c0-0.1,0.1-0.2,0.2-0.2C60.7,134,60.8,134,60.8,134.2z"/>
					<path class="st1" d="M59.7,122.1c0,0,0,0.1,0,0.1c0,0,0,0,0,0l0,0l0,0l0,0l0,0c0,0,0,0-0.1,0c0,0-0.1,0-0.1,0c0,0-0.1,0-0.1,0
						c-0.1,0-0.2,0-0.2,0c-0.2,0-0.3,0-0.5,0c-0.3,0-0.6,0-1,0c-0.6,0-1.3,0-1.9,0c-1.3,0-2.6,0-3.9,0c-2.6,0-5.2,0-7.8-0.1
						c2.6,0,5.2-0.1,7.7-0.2c1.3,0,2.6-0.1,3.9-0.1c0.6,0,1.3-0.1,1.9-0.1c0.3,0,0.6,0,1-0.1c0.2,0,0.3,0,0.5,0c0.1,0,0.2,0,0.2,0
						c0,0,0.1,0,0.1,0c0,0,0,0,0,0c0,0,0,0,0,0l0,0l0,0c0,0,0,0,0,0c0,0,0,0,0,0c0,0,0,0,0,0c0,0,0,0.1,0,0.1c0-0.1,0.1-0.2,0.2-0.2
						C59.6,121.9,59.7,122,59.7,122.1z"/>
					<path class="st1" d="M59.7,123.5c0,0,0,0.1,0,0.1c0,0,0,0,0,0.1c0,0,0,0,0,0c0,0,0,0,0,0c0,0,0,0-0.1,0c0,0,0,0-0.1,0
						c0,0-0.1,0-0.1,0c-0.1,0-0.1,0-0.2,0c-0.1,0-0.3,0-0.4,0c-0.3,0-0.5,0-0.7,0c-0.5,0-1,0-1.5,0.1c-1,0-2,0-3,0.1c-2,0-4,0-6,0
						l-3,0c-1,0-2,0-3,0l-6-0.1l6,0c1,0,2,0,3,0l3,0c2,0,4-0.1,6-0.1c1,0,2-0.1,3-0.1c0.5,0,1,0,1.5-0.1c0.2,0,0.5,0,0.7-0.1
						c0.1,0,0.2,0,0.4,0c0.1,0,0.1,0,0.2,0c0,0,0.1,0,0.1,0c0,0,0,0,0,0c0,0,0,0,0,0l0,0c0,0,0,0,0,0c0,0,0,0,0,0c0,0,0,0.1,0,0.1
						c0-0.1,0.1-0.2,0.2-0.2C59.6,123.3,59.7,123.4,59.7,123.5z"/>
					<path class="st1" d="M46.9,141.1l-4.2,0.1c-1.4,0-2.8,0-4.2,0c-1.4,0-2.8,0-4.2,0c-0.7,0-1.4,0-2.1,0c-0.4,0-0.7,0-1.1,0
						c-0.2,0-0.4,0-0.5,0c-0.1,0-0.2,0-0.3,0c0,0-0.1,0-0.1,0c0,0-0.1,0-0.1,0c0,0,0,0-0.1,0l0,0c0,0,0,0,0,0l0,0c0,0,0,0,0,0
						c0,0-0.1-0.1-0.1-0.1c0-0.1,0.1-0.2,0.2-0.2c0.1,0,0.2,0.1,0.2,0.2c0,0,0-0.1,0-0.1l0,0c0,0,0,0,0,0c0,0,0,0,0,0l0,0
						c0,0,0,0,0,0c0,0,0,0,0,0c0,0,0.1,0,0.1,0c0.1,0,0.2,0,0.3,0c0.2,0,0.3,0,0.5,0c0.3,0,0.7,0,1,0.1c0.7,0,1.4,0.1,2.1,0.1
						c1.4,0,2.8,0.1,4.2,0.1c1.4,0,2.8,0.1,4.2,0.1L46.9,141.1z"/>
					<path class="st1" d="M60.5,126.7c0,0,0,0.1,0,0.1c0,0,0,0,0,0c0,0,0,0,0,0l0,0c0,0,0,0-0.1,0c0,0-0.1,0-0.1,0c0,0-0.1,0-0.1,0
						c-0.1,0-0.2,0-0.2,0c-0.2,0-0.3,0-0.5,0c-0.3,0-0.6,0-0.9,0c-0.6,0-1.2,0-1.8,0.1c-1.2,0-2.4,0-3.6,0.1c-2.4,0-4.8,0-7.3,0
						l-1.8,0l-0.9,0l-0.9,0l-3.6-0.1l-7.3-0.1l7.3,0l3.6,0l0.9,0l0.9,0l1.8,0c2.4,0,4.8-0.1,7.3-0.1c1.2,0,2.4-0.1,3.6-0.1
						c0.6,0,1.2,0,1.8-0.1c0.3,0,0.6,0,0.9-0.1c0.1,0,0.3,0,0.4,0c0.1,0,0.1,0,0.2,0c0,0,0.1,0,0.1,0c0,0,0,0,0,0c0,0,0,0,0,0
						c0,0,0,0,0,0c0,0,0,0,0,0c0,0,0,0,0,0c0,0,0,0.1,0,0.1c0-0.1,0.1-0.2,0.2-0.2C60.4,126.5,60.5,126.6,60.5,126.7z"/>
					<path class="st1" d="M59.9,120.9c0,0,0,0.1,0,0.1c0,0,0,0,0,0c0,0,0,0,0,0l0,0c0,0,0,0-0.1,0c0,0-0.1,0-0.1,0c0,0-0.1,0-0.1,0
						c-0.1,0-0.2,0-0.2,0c-0.1,0-0.3,0-0.4,0c-0.3,0-0.6,0-0.9,0c-0.6,0-1.2,0-1.8,0.1c-1.2,0-2.3,0-3.5,0.1c-2.3,0-4.7,0-7,0
						l-1.8,0l-0.9,0l-0.9,0l-3.5-0.1l-7-0.1l7,0l3.5,0l0.9,0l0.9,0l1.8,0c2.3,0,4.7-0.1,7-0.1c1.2,0,2.3-0.1,3.5-0.1
						c0.6,0,1.2,0,1.7-0.1c0.3,0,0.6,0,0.9-0.1c0.1,0,0.3,0,0.4,0c0.1,0,0.1,0,0.2,0c0,0,0.1,0,0.1,0c0,0,0,0,0,0c0,0,0,0,0,0l0,0
						c0,0,0,0,0,0c0,0,0,0,0,0c0,0,0,0.1,0,0.1c0-0.1,0.1-0.2,0.2-0.2S59.9,120.8,59.9,120.9z"/>
					<path class="st1" d="M55.4,125.1c-0.1,0.4-0.2,0.7-0.3,1c-0.1,0.3-0.2,0.7-0.3,1c-0.2,0.7-0.5,1.3-0.8,2
						c-0.1,0.2-0.2,0.3-0.2,0.5l-0.1,0.2l-0.1,0.2c-0.1,0.2-0.2,0.3-0.3,0.5l-0.3,0.5c-0.1,0.2-0.2,0.3-0.3,0.5l-0.3,0.5l-0.3,0.4
						c-0.1,0.1-0.2,0.3-0.3,0.4c-0.9,1.1-2,2.2-3.2,3l-0.4,0.3l-0.5,0.3l-0.5,0.3c-0.2,0.1-0.3,0.2-0.5,0.3c-0.6,0.4-1.3,0.7-2,1
						c-1.4,0.6-2.8,1-4.3,1.2c-1.5,0.2-3,0.3-4.4,0.1c-0.7-0.1-1.5-0.2-2.2-0.5c-0.4-0.1-0.7-0.2-1.1-0.4l-0.5-0.2
						c-0.1,0-0.2-0.1-0.3-0.1c-0.1,0-0.2-0.1-0.2-0.1c-1.3-0.7-2.5-1.5-3.5-2.6c0.3,0.2,0.5,0.5,0.8,0.7c0.3,0.2,0.6,0.4,0.9,0.6
						c0.6,0.4,1.2,0.8,1.9,1.1c0.2,0.1,0.3,0.1,0.5,0.2l0.5,0.2c0.3,0.1,0.7,0.2,1,0.3c0.7,0.2,1.4,0.3,2.1,0.4
						c1.4,0.1,2.9,0.1,4.3-0.2c1.4-0.2,2.8-0.7,4.2-1.2c0.7-0.3,1.3-0.6,2-0.9c0.2-0.1,0.3-0.2,0.5-0.3l0.5-0.3l0.5-0.3l0.4-0.3
						c1.2-0.8,2.2-1.8,3.2-2.9C53.1,130.5,54.5,127.9,55.4,125.1z"/>
					<path class="st1" d="M57.2,122.8c0.3,1.1,0.4,2.2,0.6,3.3c0.1,1.1,0.2,2.2,0.1,3.4c0,1.1-0.2,2.2-0.4,3.3
						c-0.1,0.5-0.3,1.1-0.4,1.6c-0.2,0.5-0.4,1.1-0.6,1.6c0.2-0.5,0.4-1,0.6-1.6c0.2-0.5,0.3-1.1,0.4-1.6c0.2-1.1,0.3-2.2,0.3-3.3
						c0-1.1-0.1-2.2-0.2-3.3c-0.1-1.1-0.4-2.2-0.6-3.3l0,0c0-0.1,0-0.2,0.1-0.2C57,122.6,57.2,122.7,57.2,122.8
						C57.2,122.8,57.2,122.8,57.2,122.8z"/>
					<path class="st1" d="M56.4,132.2c-0.1,0.5-0.2,1.1-0.4,1.6c-0.2,0.5-0.3,1-0.5,1.6c-0.4,1-0.9,2-1.4,3
						c-0.3,0.5-0.6,0.9-0.9,1.4c-0.3,0.4-0.7,0.9-1,1.3c-0.7,0.8-1.6,1.6-2.4,2.3c-0.1,0.1-0.2,0.1-0.3,0c-0.1-0.1-0.1-0.2,0-0.3
						c0,0,0,0,0,0l0,0c0.9-0.6,1.7-1.4,2.5-2.2c0.4-0.4,0.7-0.8,1.1-1.2c0.3-0.4,0.6-0.9,0.9-1.3c0.6-0.9,1.1-1.9,1.5-2.9
						c0.2-0.5,0.4-1,0.6-1.5C56.2,133.3,56.3,132.8,56.4,132.2z"/>
					<path class="st1" d="M30.3,132.7c0.2,1,0.5,2,0.9,2.9c0.4,1,0.8,1.9,1.2,2.8c0.5,0.9,1,1.8,1.7,2.5c0.3,0.4,0.7,0.8,1,1.1
						c0.4,0.3,0.8,0.6,1.2,0.9l0,0c0.1,0.1,0.1,0.2,0.1,0.3c-0.1,0.1-0.2,0.1-0.3,0.1c0,0,0,0,0,0c-0.4-0.3-0.9-0.6-1.2-1
						c-0.4-0.4-0.7-0.8-1-1.2c-0.6-0.8-1.2-1.7-1.6-2.6c-0.5-0.9-0.8-1.9-1.2-2.8C30.8,134.7,30.5,133.7,30.3,132.7z"/>
				</g>
				<linearGradient id="SVGID_9_" gradientUnits="userSpaceOnUse" x1="26.5956" y1="132.8947" x2="60.8875" y2="132.8947">
					<stop  offset="0" style="stop-color:#ECE3C2"/>
					<stop  offset="1" style="stop-color:#6E6B49"/>
				</linearGradient>
				<path class="st10" d="M60.9,132.2c-0.1,4.1-4.4,9.8-9.9,11H35c-1.2-0.3-2.4-0.8-3.5-1.4c-2.1-1.2-3.8-3.1-4.9-5
					c1.7,0.7,3.6,1.1,5.4,1c4.4-0.1,8.7-2.9,10-7c0.8-2.6,0.2-5.5-1.3-7.7c0.8,0,1.5,0,2.3,0c2.4,0,4.7,0,6.7,0
					c5.6-0.1,9.5-0.2,9.5-0.4c0,0,0,0,0,0l0,0C59.3,122.7,61,128.1,60.9,132.2z"/>
				<linearGradient id="SVGID_10_" gradientUnits="userSpaceOnUse" x1="31.4939" y1="132.8947" x2="60.8875" y2="132.8947">
					<stop  offset="0" style="stop-color:#ECE3C2"/>
					<stop  offset="1" style="stop-color:#6E6B49"/>
				</linearGradient>
				<path class="st11" d="M60.9,132.2c-0.1,4.1-4.4,9.8-9.9,11H35c-1.2-0.3-2.4-0.8-3.5-1.4c5.2,0.7,10.5,0.3,15.4-1.5
					c3.6-1.3,7.2-3.6,8.1-7.2c0.7-2.7-0.5-5.7-2.4-7.8c-0.9-0.9-1.8-1.6-2.9-2.3c5.6-0.1,9.5-0.2,9.5-0.4c0,0,0,0,0,0l0,0
					C59.3,122.7,61,128.1,60.9,132.2z"/>
				<g>
					<g>
						<linearGradient id="SVGID_11_" gradientUnits="userSpaceOnUse" x1="24.8891" y1="131.4391" x2="60.4667" y2="131.4391">
							<stop  offset="0" style="stop-color:#D89867"/>
							<stop  offset="1" style="stop-color:#C1282D"/>
						</linearGradient>
						<path class="st12" d="M60,135.5c0,0.1-0.1,0.1-0.1,0.2c0,0.1-0.1,0.1-0.1,0.2c-0.2,0.4-0.4,0.8-0.6,1.2
							c-0.1,0.1-0.2,0.3-0.4,0.4c-0.1,0.1-0.2,0.2-0.3,0.2c-0.5,0.2-1.1,0.3-1.6,0.3c-4,0.3-8.1-0.2-12.5-1.6
							c-5.1-1.6-10.2-4.1-12.2-5.2c-1.4-0.8-5.4-3.2-6-5.1c-0.1-0.3-0.1-0.6-0.1-0.8c0-0.2,0.1-0.4,0.1-0.6c0.1-0.2,0.1-0.4,0.2-0.6
							c0-0.1,0.1-0.3,0.1-0.4c-0.5,0-0.9,0.2-1.2,0.6c-0.5,0.7-0.5,1.7-0.2,2.3c1,2.7,6.3,5.5,6.6,5.7c2,1,7.2,3.6,12.4,5.2
							c3.8,1.1,7.3,1.7,10.6,1.7c0.8,0,1.6,0,2.3-0.1c0.6,0,1.4-0.1,2-0.4c0.7-0.3,1.5-1.3,1.5-2.2C60.5,136.3,60.4,135.9,60,135.5z
							"/>
						<path class="st1" d="M54.6,139.4c-3.4,0-6.9-0.6-10.7-1.7c-5.2-1.6-10.4-4.2-12.4-5.2c-0.2-0.1-5.7-3-6.6-5.8
							c-0.2-0.7-0.3-1.7,0.3-2.5c0.3-0.4,0.8-0.6,1.3-0.7c0.1,0,0.1,0,0.2,0.1c0,0,0,0.1,0,0.2c0,0.1-0.1,0.3-0.1,0.4c0,0,0,0,0,0
							c-0.1,0.2-0.1,0.4-0.2,0.6l0,0.1c-0.1,0.2-0.1,0.4-0.1,0.5c0,0,0,0,0,0c0,0.2,0,0.5,0.1,0.7c0.7,1.9,4.5,4.2,6,5
							c2,1,7.1,3.6,12.1,5.1c4.5,1.4,8.5,1.9,12.5,1.6c0.5,0,1.1-0.1,1.6-0.3c0.1,0,0.2-0.1,0.3-0.2c0,0,0,0,0,0
							c0.1-0.1,0.2-0.2,0.3-0.3c0.3-0.4,0.5-0.8,0.6-1.1c0-0.1,0.1-0.1,0.1-0.2c0,0,0,0,0,0c0-0.1,0.1-0.1,0.1-0.2
							c0,0,0.1-0.1,0.1-0.1c0.1,0,0.1,0,0.2,0c0.4,0.4,0.5,0.8,0.5,1.1c0,1-0.8,2-1.6,2.3c-0.7,0.3-1.4,0.4-2.1,0.5
							C56.2,139.3,55.4,139.4,54.6,139.4z M26.2,123.9c-0.3,0.1-0.6,0.2-0.8,0.5c-0.5,0.6-0.4,1.5-0.2,2.1c0.9,2.6,6.3,5.4,6.5,5.6
							c2,1,7.2,3.6,12.3,5.2c3.8,1.1,7.2,1.7,10.6,1.7c0.8,0,1.5,0,2.3-0.1c0.6,0,1.3-0.1,2-0.4c0.7-0.3,1.4-1.2,1.4-2
							c0-0.2-0.1-0.4-0.2-0.7c0,0,0,0,0,0c0,0.1-0.1,0.1-0.1,0.2c-0.2,0.3-0.4,0.8-0.7,1.2c-0.1,0.2-0.2,0.3-0.4,0.4
							c-0.1,0.1-0.2,0.2-0.3,0.2c-0.5,0.2-1.1,0.3-1.7,0.4c-4,0.3-8.1-0.2-12.6-1.6c-5.1-1.6-10.2-4.1-12.2-5.2
							c-1.5-0.8-5.4-3.2-6.1-5.2c-0.1-0.3-0.1-0.6-0.1-0.9c0-0.2,0.1-0.4,0.1-0.6l0-0.1c0.1-0.2,0.1-0.4,0.2-0.6
							C26.2,124,26.2,124,26.2,123.9z"/>
					</g>
				</g>
			</g>
			<g>
				<g>
					<linearGradient id="SVGID_12_" gradientUnits="userSpaceOnUse" x1="30.3467" y1="134.584" x2="36.1272" y2="134.584">
						<stop  offset="0" style="stop-color:#D89867"/>
						<stop  offset="1" style="stop-color:#C1282D"/>
					</linearGradient>
					<path class="st13" d="M35.9,139.1c-0.3,0.5-1,0.8-1.6,0.9c-0.6,0-1.3-0.1-1.9-0.3c-0.6-0.2-1.2-0.4-1.6-0.9
						c-0.3-0.4-0.4-0.8-0.4-1.2c0-0.5,0.2-1,0.5-1.5c0.6-1.1,1.1-2.2,1.7-3.2c0.2-0.3,0.3-0.7,0.3-1.1c0-0.4-0.3-0.9-0.5-1.3
						c0-0.1-0.1-0.2-0.1-0.3c0,0,0,0,0-0.1c0.1-0.1,0.2-0.1,0.3-0.1c0.5-0.1,1.1-0.3,1.5-0.7c0.1-0.1,0.2-0.1,0.3-0.2
						c0.1,0,0.2-0.1,0.3,0c0,0,0,0,0,0c0.2,0.1,0.2,0.4,0.1,0.5c-0.1,0.2-0.3,0.3-0.5,0.4c-0.2,0.1-0.3,0.3-0.4,0.5
						c-0.1,0.2-0.1,0.5-0.1,0.7c0,0.2,0,0.3,0.1,0.5c0.1,0.6,0.5,1.1,0.8,1.6c0.7,1.2,1.2,2.5,1.4,3.9
						C36.2,137.9,36.2,138.6,35.9,139.1z"/>
					<path class="st1" d="M34,140.1c-0.6,0-1.2-0.2-1.7-0.3c-0.6-0.2-1.2-0.4-1.6-0.9c-0.3-0.4-0.4-0.8-0.4-1.2c0-0.5,0.2-1,0.5-1.6
						c0.4-0.7,0.7-1.4,1.1-2.2l0.6-1.1c0.2-0.3,0.3-0.7,0.3-1.1c0-0.3-0.2-0.6-0.4-0.9c-0.1-0.1-0.1-0.2-0.2-0.3
						c0-0.1-0.1-0.2-0.1-0.4c0,0,0-0.1,0.1-0.1c0.1-0.1,0.2-0.1,0.3-0.1c0.5-0.1,1-0.3,1.5-0.6l0,0c0.1-0.1,0.2-0.1,0.3-0.2
						c0.1-0.1,0.3-0.1,0.4,0c0,0,0,0,0.1,0c0.1,0,0.2,0.1,0.2,0.2c0,0.1,0,0.3,0,0.4c-0.1,0.2-0.2,0.3-0.4,0.4c0,0-0.1,0.1-0.1,0.1
						c-0.2,0.1-0.3,0.3-0.3,0.4c-0.1,0.2-0.1,0.4-0.1,0.7c0,0.1,0,0.3,0.1,0.5c0.1,0.5,0.4,0.9,0.6,1.3c0.1,0.1,0.1,0.2,0.2,0.3
						c0.7,1.2,1.2,2.5,1.4,3.9c0.1,0.6,0.1,1.3-0.2,1.8c-0.3,0.5-1,0.9-1.7,0.9C34.2,140.1,34.1,140.1,34,140.1z M34.6,129.3
						c0,0-0.1,0-0.2,0c-0.1,0-0.2,0.1-0.2,0.2l0,0c-0.5,0.3-1,0.6-1.6,0.7c-0.1,0-0.2,0-0.2,0.1c0,0,0,0,0,0c0,0.1,0,0.1,0.1,0.2
						c0,0.1,0.1,0.2,0.2,0.3c0.2,0.3,0.4,0.7,0.4,1c0,0.4-0.2,0.8-0.4,1.1L32,134c-0.4,0.7-0.7,1.4-1.1,2.2
						c-0.3,0.6-0.4,1.1-0.4,1.5c0,0.4,0.1,0.8,0.4,1.1c0.4,0.4,1,0.7,1.5,0.8c0.6,0.2,1.2,0.3,1.9,0.3c0.7,0,1.3-0.4,1.6-0.8v0
						c0.3-0.5,0.3-1.2,0.2-1.7c-0.2-1.3-0.7-2.7-1.3-3.8c-0.1-0.1-0.1-0.2-0.2-0.3c-0.3-0.4-0.5-0.9-0.6-1.4c0-0.2-0.1-0.3-0.1-0.5
						c0-0.3,0.1-0.5,0.2-0.7c0.1-0.2,0.2-0.3,0.4-0.5c0,0,0.1-0.1,0.1-0.1c0.1-0.1,0.2-0.2,0.3-0.3c0-0.1,0.1-0.2,0-0.3
						c0,0,0-0.1-0.1-0.1C34.7,129.3,34.7,129.3,34.6,129.3C34.6,129.3,34.6,129.3,34.6,129.3z"/>
				</g>
				<g>
					<path class="st1" d="M33.6,132.4c-0.4,0-0.7-0.2-0.9-0.5c0-0.1-0.1-0.1-0.1-0.3c0-0.1,0-0.1,0.1-0.2c0,0,0.1-0.1,0.2,0
						c0.1,0,0.1,0.1,0.1,0.1c0,0.1-0.1,0.1-0.1,0.1c0,0,0,0,0,0c0,0,0,0.1,0.1,0.1c0.2,0.3,0.5,0.4,0.8,0.4c0.1,0,0.2,0,0.2-0.1
						c0.1,0,0.1-0.1,0.1-0.2c0,0,0-0.1,0-0.1c0,0,0,0,0,0c-0.1,0-0.1,0-0.1-0.1c0-0.1,0-0.1,0.1-0.1c0.1,0,0.1,0,0.2,0
						c0.1,0,0.1,0.1,0.1,0.2c0,0.1,0,0.3-0.2,0.4c-0.1,0.1-0.2,0.1-0.3,0.1C33.7,132.4,33.6,132.4,33.6,132.4z"/>
				</g>
				<g>
					<path class="st1" d="M30.6,137.3c0.2,0.1,0.5,0.2,0.7,0.3c0.2,0.1,0.5,0.2,0.7,0.3c0.2,0.1,0.5,0.1,0.7,0.2c0.3,0,0.5,0,0.8,0
						c0.5,0,1-0.2,1.5-0.4c0.2-0.1,0.5-0.2,0.6-0.4c0.2-0.2,0.3-0.4,0.2-0.6c0-0.1,0-0.1,0.1-0.1c0.1,0,0.1,0,0.1,0.1c0,0,0,0,0,0
						c0.1,0.3-0.1,0.6-0.3,0.8c-0.2,0.2-0.4,0.3-0.7,0.4c-0.5,0.2-1,0.3-1.5,0.3c-0.3,0-0.5,0-0.8-0.1c-0.3,0-0.5-0.1-0.8-0.2
						c-0.2-0.1-0.5-0.2-0.7-0.3C31.1,137.5,30.9,137.4,30.6,137.3z"/>
					<path class="st1" d="M33.9,132.9c0.2,0.6,0.5,1.2,0.7,1.8c0.2,0.6,0.4,1.2,0.5,1.9c0,0.2,0,0.3,0,0.5c0,0.2,0,0.3,0,0.5
						c0,0.3-0.1,0.7-0.3,0.9c-0.2,0.3-0.4,0.5-0.7,0.7c-0.3,0.2-0.6,0.3-0.9,0.4c0.6-0.2,1.1-0.6,1.4-1.2c0.2-0.3,0.2-0.6,0.3-0.9
						c0-0.2,0-0.3,0-0.5c0-0.2,0-0.3,0-0.5c0-0.3-0.1-0.6-0.2-0.9c-0.1-0.3-0.2-0.6-0.3-0.9c-0.1-0.3-0.2-0.6-0.3-0.9
						C34,133.5,33.9,133.2,33.9,132.9z"/>
					<path class="st1" d="M32.8,136.8c0.3,0,0.6,0,0.9,0c0.3,0,0.6-0.1,0.9-0.3c0.3-0.1,0.5-0.3,0.7-0.5c0.1-0.1,0.2-0.2,0.2-0.4
						c0-0.1,0-0.3-0.1-0.4c0-0.1,0-0.1,0.1-0.1c0.1,0,0.1,0,0.1,0.1c0,0,0,0,0,0c0,0.1,0.1,0.3,0.1,0.5c0,0.1,0,0.2-0.1,0.2
						c0,0.1-0.1,0.1-0.2,0.2c-0.1,0.1-0.2,0.2-0.4,0.3c-0.1,0.1-0.3,0.1-0.4,0.2c-0.3,0.1-0.6,0.2-0.9,0.2
						C33.5,136.9,33.1,136.9,32.8,136.8z"/>
					<path class="st1" d="M33.8,130.6c-0.1,0.3-0.2,0.6-0.3,0.9c-0.1,0.3-0.1,0.6,0,0.9c0,0.3,0.1,0.6,0.2,0.9l0.3,0.9
						c0.2,0.6,0.3,1.2,0.3,1.8c0,0.6,0,1.2-0.2,1.8c0.1-0.6,0.2-1.2,0.1-1.8c0-0.1,0-0.2,0-0.2l0-0.2c0-0.1-0.1-0.3-0.1-0.4
						c-0.1-0.3-0.1-0.6-0.2-0.9c-0.1-0.3-0.2-0.6-0.2-0.9c-0.1-0.3-0.1-0.6-0.2-0.9c0-0.3,0-0.6,0.1-0.9c0-0.2,0.1-0.3,0.2-0.4
						C33.6,130.8,33.7,130.7,33.8,130.6z"/>
					<path class="st1" d="M35,134.9c0.3,0.5,0.5,1,0.6,1.5c0.1,0.3,0.1,0.5,0.2,0.8c0,0.1,0,0.3,0,0.4c0,0.1,0,0.1,0,0.2l0,0.2
						c0,0.1,0,0.1,0,0.2c0,0.1,0,0.1-0.1,0.2l-0.1,0.2c0,0.1-0.1,0.1-0.1,0.2c-0.1,0.3-0.3,0.5-0.5,0.7c-0.2,0.2-0.5,0.3-0.8,0.4
						c-0.3,0.1-0.6,0.1-0.9,0.1c-0.1,0-0.1-0.1-0.1-0.1c0-0.1,0.1-0.1,0.1-0.1c0,0,0,0,0,0c0.5,0.1,1.1-0.1,1.5-0.4
						c0.4-0.3,0.7-0.8,0.8-1.4l0-0.2c0-0.1,0-0.1,0-0.2c0-0.1,0-0.3,0-0.4c0-0.3-0.1-0.5-0.1-0.8C35.4,135.9,35.2,135.4,35,134.9z"
						/>
				</g>
				<g>
					<path class="st1" d="M34.1,133.3C34.1,133.3,34.1,133.3,34.1,133.3c-0.8,0-1.3-0.4-1.4-0.6c-0.1-0.1-0.2-0.2-0.2-0.4
						c0,0,0-0.1,0.1-0.2c0.1-0.1,0.2-0.1,0.2-0.1c0.1,0,0.1,0,0.1,0.1c0,0.1,0,0.1-0.1,0.1c0,0,0,0,0,0c0,0,0,0,0,0c0,0,0,0,0,0.1
						c0,0.1,0.1,0.2,0.1,0.2c0.2,0.2,0.6,0.5,1.3,0.5c0.3,0,0.4,0,0.4-0.1c0,0,0,0,0-0.1c0,0,0,0-0.1,0c-0.1,0-0.1,0-0.1-0.1
						c0-0.1,0-0.1,0.1-0.1c0.2,0,0.3,0.1,0.3,0.2c0,0.1,0,0.2,0,0.2C34.6,133.2,34.4,133.3,34.1,133.3z"/>
				</g>
				<g>
					<path class="st1" d="M32,134.1c-0.1,0-0.2-0.1-0.3-0.1c-0.1-0.1-0.1-0.2-0.1-0.3c-0.1-0.7,0.3-1.1,0.4-1.1
						c0.4-0.4,1-0.5,1.1-0.5c0,0,0,0,0,0l0,0h0c0,0,0,0,0,0c0,0,0,0,0.1,0c0,0,0,0,0,0.1c0,0,0,0,0,0c0,0,0,0,0,0v0c0,0,0,0,0,0
						c0,0,0,0,0,0v0c0,0,0,0,0,0l0,0c0,0,0,0,0,0l0,0c0,0,0,0,0,0l0,0c0,0,0,0,0,0l0,0c0,0,0,0,0,0c0,0,0,0,0,0c0,0,0,0,0,0
						c0,0,0,0,0,0v0c0,0,0,0,0,0l0,0c0,0,0,0,0,0c0,0.1,0,0.3,0,0.4c0,0.1,0,0.2,0,0.4c0,0.1,0,0.2,0,0.2c0,0.2,0,0.3-0.1,0.4
						c-0.1,0-0.2,0-0.3-0.1c-0.1-0.1-0.1-0.2-0.1-0.2c0-0.2,0-0.3,0-0.5c0,0,0,0.1-0.1,0.1c-0.1,0.2-0.2,0.5-0.2,0.7l0,0.1
						C32.3,133.8,32.2,134,32,134.1C32,134.1,32,134.1,32,134.1z M32.1,132.6c0,0-0.4,0.4-0.3,1c0,0.1,0,0.2,0.1,0.2
						c0,0,0.1,0.1,0.1,0.1c0.1,0,0.1-0.1,0.2-0.2l0-0.1c0.1-0.2,0.1-0.5,0.2-0.7c0.1-0.2,0.2-0.4,0.3-0.5
						C32.5,132.3,32.3,132.4,32.1,132.6C32.1,132.6,32.1,132.6,32.1,132.6z M32.9,132.5c-0.1,0.2-0.1,0.5-0.1,0.7
						c0,0.1,0,0.1,0.1,0.1c0,0,0.1,0,0.1,0c0,0,0,0,0-0.2c0-0.1,0-0.2,0-0.2C33,132.8,33,132.7,32.9,132.5
						C33,132.6,33,132.5,32.9,132.5z M32,132.6L32,132.6L32,132.6z"/>
				</g>
				<g>
					<linearGradient id="SVGID_13_" gradientUnits="userSpaceOnUse" x1="32.7646" y1="138.2385" x2="32.9868" y2="135.5718">
						<stop  offset="0" style="stop-color:#D89867"/>
						<stop  offset="1" style="stop-color:#C1282D"/>
					</linearGradient>
					<path class="st14" d="M34.7,129.2c-0.4,0.1-0.4,0.7-1,0.9c-0.3,0.1-0.7,0.1-0.7,0.1c-0.2,0-0.4-0.1-0.6-0.1c0,0-0.1,0-0.1,0
						c0.1-0.1,0.2-0.1,0.3-0.1c0.5-0.1,1.1-0.3,1.5-0.7c0.1-0.1,0.2-0.1,0.3-0.2C34.5,129.2,34.6,129.2,34.7,129.2z"/>
					<path class="st1" d="M33.1,130.4C33,130.4,33,130.4,33.1,130.4c-0.2,0-0.2,0-0.3,0c-0.1,0-0.2,0-0.3,0c0,0-0.1,0-0.1,0
						c0,0-0.1,0-0.1,0c0,0,0-0.1,0-0.1c0.1-0.1,0.2-0.1,0.3-0.2c0.5-0.1,1-0.3,1.5-0.6l0,0c0.1-0.1,0.2-0.1,0.3-0.2
						c0.1-0.1,0.3-0.1,0.4,0c0,0,0.1,0.1,0.1,0.1c0,0,0,0.1-0.1,0.1c-0.1,0-0.2,0.1-0.3,0.3c-0.1,0.2-0.3,0.5-0.7,0.6
						C33.5,130.3,33.2,130.4,33.1,130.4z M32.8,130.1c0.1,0,0.1,0,0.2,0c0,0,0.3,0,0.6-0.1c0.3-0.1,0.4-0.3,0.6-0.5
						c0,0,0-0.1,0.1-0.1c0,0,0,0-0.1,0.1l0,0C33.7,129.8,33.3,130,32.8,130.1z"/>
				</g>
				<linearGradient id="SVGID_14_" gradientUnits="userSpaceOnUse" x1="30.3467" y1="135.6803" x2="36.1272" y2="135.6803">
					<stop  offset="0" style="stop-color:#ECE3C2"/>
					<stop  offset="1" style="stop-color:#6E6B49"/>
				</linearGradient>
				<path class="st15" d="M35.9,139.1c-0.3,0.5-1,0.8-1.6,0.9c-0.6,0-1.3-0.1-1.9-0.3c-0.6-0.2-1.2-0.4-1.6-0.9
					c-0.3-0.4-0.4-0.8-0.4-1.2c0,0,0,0.1,0.1,0.1c0.3,0.7,0.9,1.3,1.6,1.6c0.7,0.3,1.6,0.1,2.2-0.4c0.5-0.5,0.7-1.2,0.8-1.9
					c0.1-0.9-0.1-1.9-0.5-2.8c-0.2-0.5-0.5-1-0.7-1.5c-0.2-0.5-0.2-1,0.1-1.4c0,0.2,0,0.3,0.1,0.5c0.1,0.6,0.5,1.1,0.8,1.6
					c0.7,1.2,1.2,2.5,1.4,3.9C36.2,137.9,36.2,138.6,35.9,139.1z"/>
			</g>
			<g>
				<g>
					<linearGradient id="SVGID_15_" gradientUnits="userSpaceOnUse" x1="54.3299" y1="125.1216" x2="60.1109" y2="125.1216">
						<stop  offset="0" style="stop-color:#FEE4CF"/>
						<stop  offset="0.5077" style="stop-color:#F0BA76"/>
						<stop  offset="0.5785" style="stop-color:#E3B272"/>
						<stop  offset="0.692" style="stop-color:#C7A068"/>
						<stop  offset="0.8339" style="stop-color:#9F885B"/>
						<stop  offset="0.9974" style="stop-color:#6F6B49"/>
						<stop  offset="1" style="stop-color:#6E6B49"/>
					</linearGradient>
					<path class="st16" d="M59.9,129.6c-0.3,0.5-1,0.8-1.6,0.9c-0.6,0-1.3-0.1-1.9-0.3c-0.6-0.2-1.2-0.4-1.6-0.9
						c-0.3-0.4-0.4-0.8-0.4-1.2c0-0.5,0.2-1,0.5-1.5c0.6-1.1,1.1-2.2,1.7-3.2c0.2-0.3,0.3-0.7,0.3-1.1c0-0.4-0.3-0.9-0.5-1.3
						c0-0.1-0.1-0.2-0.1-0.3c0,0,0,0,0-0.1c0.1-0.1,0.2-0.1,0.3-0.1c0.5-0.1,1.1-0.3,1.5-0.7c0.1-0.1,0.2-0.1,0.3-0.2
						c0.1,0,0.2-0.1,0.3,0c0,0,0,0,0,0c0.2,0.1,0.2,0.4,0.1,0.5c-0.1,0.2-0.3,0.3-0.5,0.4c-0.2,0.1-0.3,0.3-0.4,0.5
						c-0.1,0.2-0.2,0.5-0.1,0.7c0,0.2,0,0.3,0.1,0.5c0.1,0.6,0.5,1.1,0.8,1.6c0.7,1.2,1.2,2.5,1.4,3.9
						C60.1,128.5,60.2,129.1,59.9,129.6z"/>
					<path class="st1" d="M58,130.6c-0.6,0-1.2-0.2-1.7-0.3c-0.6-0.2-1.2-0.4-1.6-0.9c-0.3-0.4-0.4-0.8-0.4-1.2
						c0-0.5,0.2-0.9,0.5-1.5c0.4-0.9,0.9-1.7,1.3-2.6l0.3-0.6c0.2-0.3,0.3-0.7,0.3-1.1c0-0.3-0.2-0.6-0.4-0.9
						c-0.1-0.1-0.1-0.2-0.2-0.3c0-0.1-0.1-0.2-0.1-0.4c0,0,0-0.1,0.1-0.1c0.1-0.1,0.2-0.1,0.3-0.1c0.5-0.1,1-0.3,1.5-0.6l0,0
						c0.1-0.1,0.2-0.1,0.3-0.2c0.1-0.1,0.3-0.1,0.4,0c0,0,0,0,0.1,0c0.1,0,0.2,0.1,0.2,0.2c0,0.1,0,0.3,0,0.4
						c-0.1,0.2-0.2,0.3-0.4,0.4c0,0-0.1,0.1-0.1,0.1c-0.2,0.1-0.3,0.3-0.3,0.4c-0.1,0.2-0.1,0.4-0.1,0.7c0,0.1,0,0.3,0.1,0.4
						c0.1,0.5,0.4,0.9,0.6,1.3c0.1,0.1,0.1,0.2,0.2,0.3c0.7,1.2,1.2,2.5,1.4,3.9c0.1,0.6,0.1,1.3-0.2,1.8c-0.3,0.5-1,0.9-1.7,0.9
						C58.1,130.6,58.1,130.6,58,130.6z M58.6,119.8c0,0-0.1,0-0.2,0c-0.1,0-0.2,0.1-0.2,0.2l0,0c-0.5,0.3-1,0.6-1.6,0.7
						c-0.1,0-0.2,0-0.2,0.1c0,0,0,0,0,0c0,0.1,0,0.1,0.1,0.2c0,0.1,0.1,0.2,0.2,0.3c0.2,0.3,0.4,0.7,0.4,1c0,0.4-0.2,0.8-0.4,1.1
						l-0.3,0.6c-0.4,0.9-0.9,1.7-1.3,2.6c-0.3,0.6-0.4,1-0.4,1.5c0,0.4,0.1,0.8,0.4,1.1c0.4,0.4,1,0.7,1.5,0.8
						c0.6,0.2,1.2,0.3,1.9,0.3c0.7,0,1.3-0.4,1.6-0.8c0,0,0,0,0,0c0.3-0.5,0.3-1.1,0.2-1.7c-0.2-1.3-0.7-2.7-1.3-3.8
						c-0.1-0.1-0.1-0.2-0.2-0.3c-0.3-0.4-0.5-0.9-0.6-1.3c0-0.2-0.1-0.3-0.1-0.5c0-0.3,0.1-0.5,0.2-0.8c0.1-0.2,0.2-0.3,0.4-0.5
						c0,0,0.1-0.1,0.1-0.1c0.1-0.1,0.2-0.2,0.3-0.3c0-0.1,0.1-0.2,0-0.3c0,0,0-0.1-0.1-0.1C58.7,119.8,58.6,119.8,58.6,119.8
						C58.6,119.8,58.6,119.8,58.6,119.8z"/>
				</g>
				<g>
					<path class="st1" d="M54.6,127.9c0.2,0.1,0.5,0.2,0.7,0.3c0.2,0.1,0.5,0.2,0.7,0.3c0.2,0.1,0.5,0.1,0.7,0.2c0.3,0,0.5,0,0.8,0
						c0.5,0,1-0.1,1.5-0.4c0.2-0.1,0.5-0.2,0.6-0.4c0.2-0.2,0.3-0.4,0.2-0.6c0,0,0-0.1,0-0.1c0,0,0.1,0,0.1,0c0,0,0,0,0,0
						c0.1,0.3-0.1,0.5-0.3,0.7c-0.2,0.2-0.4,0.3-0.7,0.4c-0.5,0.2-1,0.3-1.5,0.3c-0.3,0-0.5,0-0.8,0c-0.3,0-0.5-0.1-0.8-0.2
						c-0.2-0.1-0.5-0.2-0.7-0.3C55.1,128.1,54.9,128,54.6,127.9z"/>
					<path class="st1" d="M57.8,123.5c0.2,0.6,0.5,1.2,0.7,1.8c0.1,0.3,0.2,0.6,0.3,0.9c0.1,0.3,0.2,0.6,0.2,0.9c0,0.2,0,0.3,0,0.5
						c0,0.2,0,0.3,0,0.5c0,0.3-0.1,0.6-0.3,0.9c-0.2,0.3-0.4,0.5-0.7,0.7c-0.3,0.2-0.6,0.3-0.9,0.4c0.3-0.1,0.6-0.3,0.9-0.5
						c0.3-0.2,0.5-0.4,0.6-0.7c0.2-0.3,0.2-0.6,0.3-0.9c0-0.2,0-0.3,0-0.5c0-0.2,0-0.3,0-0.5c-0.1-0.6-0.3-1.2-0.5-1.9
						c-0.1-0.3-0.2-0.6-0.3-0.9C58,124.1,57.9,123.8,57.8,123.5z"/>
					<path class="st1" d="M56.8,127.3c0.3,0,0.6,0,0.9,0c0.3,0,0.6-0.1,0.9-0.3c0.3-0.1,0.5-0.3,0.7-0.5c0.1-0.1,0.2-0.2,0.2-0.4
						c0-0.1,0-0.3-0.1-0.4c0,0,0-0.1,0-0.1c0,0,0.1,0,0.1,0c0,0,0,0,0,0c0,0.1,0.1,0.3,0.1,0.5c0,0.2-0.1,0.3-0.2,0.4
						c-0.2,0.2-0.5,0.4-0.8,0.5c-0.3,0.1-0.6,0.2-0.9,0.2C57.4,127.4,57.1,127.4,56.8,127.3z"/>
					<path class="st1" d="M57.7,121.1c-0.2,0.3-0.3,0.6-0.3,0.9c-0.1,0.3-0.1,0.6,0,0.9c0,0.3,0.1,0.6,0.2,0.9
						c0.1,0.3,0.2,0.6,0.3,0.9c0.1,0.3,0.2,0.6,0.2,0.9c0,0.1,0.1,0.3,0.1,0.5c0,0.2,0,0.3,0.1,0.5c0,0.2,0,0.3,0,0.5
						c0,0.1,0,0.2,0,0.2l0,0.2c0,0.2,0,0.3-0.1,0.5c0,0.2-0.1,0.3-0.1,0.4c0.2-0.6,0.2-1.2,0.1-1.8c-0.1-0.6-0.2-1.2-0.4-1.8
						c-0.1-0.3-0.2-0.6-0.3-0.9c-0.1-0.3-0.2-0.6-0.2-0.9C57.3,122.3,57.4,121.6,57.7,121.1z"/>
					<path class="st1" d="M59,125.5c0.3,0.5,0.5,1,0.6,1.5c0.1,0.3,0.1,0.5,0.2,0.8c0,0.1,0,0.3,0,0.4c0,0.1,0,0.1,0,0.2l0,0.2
						c0,0.1,0,0.1,0,0.2c0,0.1,0,0.1-0.1,0.2c0,0.1-0.1,0.3-0.2,0.4c-0.1,0.2-0.3,0.5-0.5,0.6c-0.2,0.2-0.5,0.3-0.8,0.4
						c-0.3,0.1-0.6,0.1-0.9,0.1c0,0,0,0,0-0.1c0,0,0,0,0.1,0c0,0,0,0,0,0c0.5,0.1,1.1-0.1,1.6-0.4c0.4-0.3,0.7-0.9,0.8-1.4l0-0.2
						c0-0.1,0-0.1,0-0.2c0-0.1,0-0.3,0-0.4c0-0.3-0.1-0.5-0.1-0.8C59.4,126.5,59.2,125.9,59,125.5z"/>
				</g>
				<g>
					<path class="st1" d="M57.6,123c-0.4,0-0.7-0.2-0.9-0.5c0-0.1-0.1-0.1-0.1-0.3c0-0.1,0-0.1,0.1-0.2c0,0,0.1-0.1,0.2,0
						c0.1,0,0.1,0.1,0.1,0.1c0,0.1-0.1,0.1-0.1,0.1c0,0,0,0,0,0c0,0,0,0.1,0.1,0.1c0.2,0.3,0.5,0.4,0.8,0.4c0.1,0,0.2,0,0.2-0.1
						c0.1,0,0.1-0.1,0.1-0.2c0,0,0-0.1,0-0.1c0,0,0,0,0,0c-0.1,0-0.1,0-0.1-0.1c0-0.1,0-0.1,0.1-0.1c0.1,0,0.1,0,0.2,0
						c0.1,0,0.1,0.1,0.1,0.2c0,0.1,0,0.3-0.2,0.4c-0.1,0.1-0.2,0.1-0.3,0.1C57.6,122.9,57.6,123,57.6,123z"/>
				</g>
				<g>
					<path class="st1" d="M58.1,123.8C58,123.8,58,123.8,58.1,123.8c-0.8,0-1.3-0.4-1.4-0.6c-0.1-0.1-0.2-0.2-0.2-0.4
						c0,0,0-0.1,0.1-0.2c0.1-0.1,0.2-0.1,0.2-0.1c0.1,0,0.1,0,0.1,0.1c0,0.1,0,0.1-0.1,0.1c0,0,0,0,0,0c0,0,0,0,0,0.1
						c0,0.1,0.1,0.2,0.1,0.2c0.2,0.2,0.6,0.5,1.3,0.5c0.3,0,0.4,0,0.4-0.1c0,0,0,0,0-0.1c0,0,0,0-0.1,0c-0.1,0-0.1,0-0.1-0.1
						c0-0.1,0-0.1,0.1-0.1c0.2,0,0.3,0.1,0.3,0.2c0,0.1,0,0.2,0,0.2C58.5,123.8,58.3,123.8,58.1,123.8z"/>
				</g>
				<g>
					<path class="st1" d="M55.9,124.6c-0.1,0-0.2-0.1-0.3-0.1c-0.1-0.1-0.1-0.2-0.1-0.3c-0.1-0.7,0.3-1.1,0.4-1.1
						c0.4-0.4,1-0.5,1.1-0.5c0,0,0,0,0,0c0,0,0,0,0,0s0,0,0,0c0,0,0,0,0,0c0,0,0,0,0.1,0c0,0,0,0,0,0.1c0,0,0,0,0,0s0,0,0,0
						c0,0,0,0,0,0c0,0,0,0,0,0v0c0,0,0,0,0,0s0,0,0,0l0,0c0,0,0,0,0,0c0,0.1,0,0.3,0,0.4c0,0.1,0,0.2,0,0.4c0,0.1,0,0.2,0,0.2
						c0,0.2,0,0.3-0.1,0.4c-0.1,0-0.2,0-0.3-0.1c-0.1-0.1-0.1-0.2-0.1-0.2c0-0.2,0-0.3,0-0.5c0,0,0,0.1-0.1,0.1
						c-0.1,0.2-0.2,0.5-0.2,0.7l0,0.1C56.3,124.4,56.2,124.6,55.9,124.6C56,124.6,56,124.6,55.9,124.6z M56.1,123.2
						c0,0-0.4,0.4-0.3,1c0,0.1,0,0.2,0.1,0.2c0,0,0.1,0.1,0.1,0.1c0.1,0,0.1-0.1,0.2-0.2l0-0.1c0.1-0.2,0.1-0.5,0.2-0.7
						c0.1-0.2,0.2-0.4,0.3-0.5C56.5,122.9,56.3,123,56.1,123.2C56.1,123.2,56.1,123.2,56.1,123.2z M56.9,123
						c-0.1,0.2-0.1,0.5-0.1,0.7c0,0.1,0,0.1,0.1,0.1c0,0,0.1,0,0.1,0c0,0,0,0,0-0.2c0-0.1,0-0.2,0-0.2C57,123.4,57,123.3,56.9,123
						C56.9,123.1,56.9,123.1,56.9,123z M56,123.1L56,123.1L56,123.1z"/>
				</g>
				<g>
					<linearGradient id="SVGID_16_" gradientUnits="userSpaceOnUse" x1="57.1191" y1="123.5374" x2="57.3334" y2="121.4598">
						<stop  offset="0" style="stop-color:#FEE4CF"/>
						<stop  offset="0.5077" style="stop-color:#F0BA76"/>
						<stop  offset="0.5785" style="stop-color:#E3B272"/>
						<stop  offset="0.692" style="stop-color:#C7A068"/>
						<stop  offset="0.8339" style="stop-color:#9F885B"/>
						<stop  offset="0.9974" style="stop-color:#6F6B49"/>
						<stop  offset="1" style="stop-color:#6E6B49"/>
					</linearGradient>
					<path class="st17" d="M58.7,119.7c-0.4,0.1-0.4,0.7-1,0.9c-0.3,0.1-0.7,0.1-0.7,0.1c-0.2,0-0.4-0.1-0.6-0.1c0,0-0.1,0-0.1,0
						c0.1-0.1,0.2-0.1,0.3-0.1c0.5-0.1,1.1-0.3,1.5-0.7c0.1-0.1,0.2-0.1,0.3-0.2C58.5,119.7,58.6,119.7,58.7,119.7z"/>
					<path class="st1" d="M57.1,120.9C57,120.9,57,120.9,57.1,120.9c-0.2,0-0.2,0-0.3,0c-0.1,0-0.2,0-0.3,0c0,0-0.1,0-0.1,0
						c0,0-0.1,0-0.1,0c0,0,0-0.1,0-0.1c0.1-0.1,0.2-0.1,0.3-0.2c0.5-0.1,1-0.3,1.5-0.6l0,0c0.1-0.1,0.2-0.1,0.3-0.2
						c0.1-0.1,0.3-0.1,0.4,0c0,0,0.1,0.1,0.1,0.1c0,0,0,0.1-0.1,0.1c-0.1,0-0.2,0.1-0.3,0.3c-0.1,0.2-0.3,0.5-0.7,0.6
						C57.4,120.9,57.2,120.9,57.1,120.9z M56.8,120.7c0.1,0,0.1,0,0.2,0c0,0,0.3,0,0.6-0.1c0.3-0.1,0.4-0.3,0.6-0.5
						c0,0,0-0.1,0.1-0.1c0,0,0,0-0.1,0.1l0,0C57.7,120.3,57.3,120.5,56.8,120.7z"/>
				</g>
				<linearGradient id="SVGID_17_" gradientUnits="userSpaceOnUse" x1="54.3299" y1="126.2274" x2="60.1109" y2="126.2274">
					<stop  offset="0" style="stop-color:#ECE3C2"/>
					<stop  offset="1" style="stop-color:#6E6B49"/>
				</linearGradient>
				<path class="st18" d="M59.9,129.6c-0.3,0.5-1,0.8-1.6,0.9c-0.6,0-1.3-0.1-1.9-0.3c-0.6-0.2-1.2-0.4-1.6-0.9
					c-0.3-0.4-0.4-0.8-0.4-1.2c0.1,0.1,0.2,0.3,0.4,0.5c0.6,0.5,1.5,0.4,2.1,0.1c1.1-0.5,1.3-1.9,1.3-2.1c0.1-0.9-0.2-1.7-0.3-2.6
					c-0.1-0.6-0.2-1.2-0.1-1.7c0-0.1,0.1-0.2,0.1-0.3c0,0.2,0,0.3,0.1,0.5c0.1,0.6,0.5,1.1,0.8,1.6c0.7,1.2,1.2,2.5,1.4,3.9
					C60.1,128.5,60.2,129.1,59.9,129.6z"/>
			</g>
			<g>
				<g>
					<linearGradient id="SVGID_18_" gradientUnits="userSpaceOnUse" x1="22.8795" y1="126.8104" x2="28.4093" y2="130.2478">
						<stop  offset="0" style="stop-color:#ECE3C2"/>
						<stop  offset="1" style="stop-color:#6E6B49"/>
					</linearGradient>
					<path class="st19" d="M27.6,131.2c-0.3,0.5-0.7,0.9-1.3,1.1c-0.5,0.2-1.1,0.1-1.6-0.1c-0.5-0.2-0.9-0.5-1.3-0.9
						c-0.2-0.1-0.3-0.3-0.4-0.5c-0.1-0.1-0.1-0.3-0.2-0.4c-0.1-0.5,0.2-0.9,0.6-1.3c0.3-0.3,0.8-0.6,1.1-0.9c0.4-0.4,0.6-1,0.6-1.6
						c0-0.2,0-0.7-0.2-0.8c-0.2-0.2-0.5,0-0.7,0.2c-0.2,0.2-0.4,0.3-0.6,0.3c-0.1,0-0.1,0-0.1-0.1c-0.1-0.1-0.2-0.4-0.1-0.6
						c0.1-0.2,0.3-0.4,0.5-0.6c0.2-0.2,0.4-0.3,0.5-0.6c0-0.2,0-0.4,0.1-0.5c0,0,0-0.1,0.1-0.1c0.2-0.1,0.4,0.1,0.6,0.3
						c0.2,0.4,0.3,1,0.6,1.4c0.2,0.2,0.5,0.4,0.7,0.5c0.1,0.1,0.3,0.2,0.4,0.3c0.6,0.5,1.1,1.3,1.3,2.1
						C28.3,129.3,28.1,130.3,27.6,131.2z"/>
					<path class="st1" d="M25.7,132.4c-0.3,0-0.6-0.1-1-0.2c-0.5-0.2-0.9-0.5-1.4-0.9c-0.1-0.1-0.3-0.3-0.4-0.5
						c-0.1-0.2-0.2-0.3-0.2-0.5c-0.1-0.6,0.3-1.1,0.6-1.3c0.1-0.1,0.3-0.3,0.5-0.4c0.2-0.2,0.4-0.3,0.6-0.6c0.4-0.4,0.6-1,0.5-1.5
						c0-0.2,0-0.6-0.2-0.8c-0.2-0.2-0.5,0.1-0.5,0.2c-0.2,0.1-0.4,0.4-0.7,0.3c-0.1,0-0.1-0.1-0.2-0.1c-0.2-0.2-0.2-0.4-0.1-0.7
						c0.1-0.3,0.3-0.4,0.5-0.6l0,0c0.2-0.2,0.4-0.3,0.4-0.5c0-0.1,0-0.1,0-0.2c0-0.1,0-0.3,0.1-0.4c0,0,0.1-0.1,0.1-0.1
						c0.1-0.1,0.2-0.1,0.3,0c0.2,0,0.3,0.2,0.4,0.3c0.1,0.2,0.2,0.4,0.2,0.6c0.1,0.3,0.2,0.5,0.3,0.7c0.1,0.2,0.3,0.3,0.5,0.4
						c0.1,0,0.1,0.1,0.2,0.1c0.1,0.1,0.3,0.2,0.4,0.3c0.7,0.6,1.1,1.3,1.3,2.1c0.2,1,0,2.1-0.5,3c-0.2,0.4-0.7,0.9-1.3,1.1
						C26.1,132.4,25.9,132.4,25.7,132.4z M24.7,125.5c0.1,0,0.2,0,0.3,0.1c0.2,0.2,0.2,0.6,0.2,0.9c0,0.6-0.2,1.2-0.6,1.7
						c-0.2,0.2-0.4,0.4-0.6,0.6c-0.2,0.1-0.3,0.2-0.4,0.4c-0.2,0.2-0.6,0.7-0.5,1.2c0,0.1,0.1,0.3,0.2,0.4c0.1,0.2,0.3,0.3,0.4,0.5
						c0.4,0.4,0.9,0.7,1.3,0.9c0.5,0.2,1.1,0.2,1.5,0.1c0.6-0.2,1-0.7,1.2-1c0,0,0,0,0,0c0.5-0.8,0.7-1.9,0.5-2.8
						c-0.2-0.8-0.6-1.5-1.3-2c-0.1-0.1-0.3-0.2-0.4-0.3c-0.1,0-0.1-0.1-0.2-0.1c-0.2-0.1-0.4-0.3-0.6-0.5c-0.2-0.2-0.3-0.5-0.4-0.8
						c-0.1-0.2-0.1-0.4-0.2-0.6c-0.1-0.1-0.2-0.2-0.3-0.2c0,0-0.1,0-0.1,0c0,0,0,0,0,0c0,0.1-0.1,0.2-0.1,0.3c0,0.1,0,0.1,0,0.2
						c-0.1,0.3-0.3,0.5-0.5,0.7l0,0c-0.2,0.1-0.4,0.3-0.5,0.5c-0.1,0.2,0,0.4,0.1,0.4c0,0,0.1,0,0.1,0.1c0.2,0,0.4-0.1,0.5-0.3
						C24.3,125.6,24.5,125.5,24.7,125.5z"/>
				</g>
				<g>
					<linearGradient id="SVGID_19_" gradientUnits="userSpaceOnUse" x1="24.0251" y1="131.4117" x2="23.9759" y2="127.6919">
						<stop  offset="0" style="stop-color:#ECE3C2"/>
						<stop  offset="1" style="stop-color:#6E6B49"/>
					</linearGradient>
					<path class="st20" d="M24.6,124.7c0,0.2-0.2,0.4-0.3,0.5c-0.2,0.1-0.4,0.2-0.6,0.3c-0.2,0.1-0.3,0.3-0.3,0.5v0
						c-0.1-0.1-0.2-0.4-0.1-0.6c0.1-0.2,0.3-0.4,0.5-0.6c0.2-0.2,0.4-0.3,0.5-0.6c0-0.2,0-0.4,0.1-0.5c0,0.1,0,0.1,0,0.2
						C24.4,124.2,24.6,124.5,24.6,124.7z"/>
					<path class="st1" d="M23.4,126.2C23.4,126.2,23.4,126.2,23.4,126.2c-0.2-0.2-0.3-0.5-0.2-0.7c0.1-0.2,0.3-0.4,0.5-0.6l0,0
						c0.2-0.2,0.4-0.3,0.4-0.5c0-0.1,0-0.1,0-0.2c0-0.1,0-0.3,0.1-0.4c0,0,0.1-0.1,0.1,0c0,0,0.1,0.1,0.1,0.1c0,0,0,0.1,0,0.1
						c0,0,0,0.1,0,0.1c0,0.1,0,0.2,0.1,0.3c0.1,0.1,0.1,0.2,0.1,0.4c0,0.2-0.1,0.5-0.4,0.6c-0.1,0.1-0.2,0.1-0.3,0.1
						c-0.1,0.1-0.2,0.1-0.3,0.2c-0.2,0.1-0.2,0.3-0.2,0.4v0C23.5,126.1,23.5,126.1,23.4,126.2C23.4,126.2,23.4,126.2,23.4,126.2z
						 M24.4,124.4c-0.1,0.3-0.3,0.5-0.5,0.6l0,0c-0.2,0.1-0.4,0.3-0.5,0.5c0,0.1,0,0.1,0,0.2c0.1-0.1,0.1-0.2,0.3-0.3
						c0.1-0.1,0.2-0.1,0.3-0.2c0.1,0,0.2-0.1,0.3-0.1c0.1,0,0.3-0.2,0.3-0.4c0,0,0,0,0,0C24.5,124.6,24.5,124.5,24.4,124.4
						C24.4,124.4,24.4,124.4,24.4,124.4z"/>
				</g>
				<g>
					<path class="st1" d="M24.5,128.2c-0.1,0.2,0,0.4,0.1,0.7c0.1,0.2,0.2,0.4,0.4,0.5c0.4,0.2,0.9,0.3,1.3,0.2
						c0.4-0.1,0.8-0.3,1.2-0.6c0.2-0.1,0.3-0.3,0.4-0.5c0.1-0.2,0-0.4-0.1-0.6c0,0,0-0.1,0-0.1c0,0,0.1,0,0.1,0c0,0,0,0,0,0
						c0.1,0.2,0.1,0.5,0,0.7c-0.1,0.2-0.2,0.4-0.4,0.6c-0.2,0.1-0.4,0.2-0.6,0.3c-0.2,0.1-0.4,0.2-0.7,0.2c-0.5,0.1-0.9,0-1.3-0.2
						c-0.2-0.1-0.3-0.3-0.4-0.5C24.5,128.6,24.5,128.4,24.5,128.2z"/>
					<path class="st1" d="M23.6,129.4c0,0.4,0.1,0.8,0.3,1.1c0.2,0.3,0.5,0.6,0.9,0.7c0.2,0.1,0.4,0.1,0.6,0.2
						c0.2,0,0.4,0.1,0.6,0.1c0.4,0,0.8-0.1,1.2-0.3c-0.1,0.1-0.3,0.2-0.5,0.3c-0.2,0.1-0.4,0.1-0.6,0.1c-0.2,0-0.4,0-0.6,0
						c-0.2,0-0.4-0.1-0.6-0.2c-0.2-0.1-0.4-0.2-0.6-0.3c-0.2-0.1-0.3-0.3-0.4-0.5C23.6,130.3,23.6,129.9,23.6,129.4z"/>
					<path class="st1" d="M25.2,127.6c0.2,0.1,0.4,0.1,0.6,0.1c0.2,0,0.4-0.1,0.6-0.2c0.2-0.1,0.3-0.2,0.4-0.4
						c0.1-0.2,0.2-0.4,0.2-0.6c0,0.2,0,0.4-0.1,0.6c-0.1,0.2-0.2,0.4-0.4,0.5c-0.2,0.1-0.4,0.2-0.6,0.2
						C25.5,127.8,25.3,127.7,25.2,127.6z"/>
					<path class="st1" d="M25.9,126c0.6,0.5,0.9,1.1,1.1,1.8c0.1,0.4,0.1,0.7,0.1,1.1c0,0.4-0.1,0.7-0.3,1c0.1-0.3,0.1-0.7,0.2-1
						c0-0.4,0-0.7-0.1-1c-0.1-0.3-0.2-0.7-0.4-1C26.4,126.6,26.2,126.3,25.9,126z"/>
					<path class="st1" d="M27.1,127.3c0.2,0.5,0.3,0.9,0.3,1.4c0,0.5,0,1-0.2,1.5c-0.2,0.5-0.5,0.9-0.9,1.2
						c-0.4,0.3-0.9,0.5-1.4,0.5c0.5-0.1,1-0.3,1.3-0.6c0.4-0.3,0.7-0.7,0.8-1.2c0.2-0.5,0.3-0.9,0.3-1.4
						C27.4,128.3,27.3,127.8,27.1,127.3z"/>
					<path class="st1" d="M24.8,124.2c0,0.3,0.1,0.5,0.2,0.8c0.1,0.2,0.3,0.5,0.5,0.7c0.2,0.2,0.3,0.4,0.5,0.7
						c0.1,0.3,0.2,0.5,0.3,0.8c0.1,0.6,0.1,1.1-0.1,1.7c-0.1,0.3-0.3,0.5-0.4,0.7c-0.2,0.2-0.4,0.4-0.6,0.6c0.1-0.1,0.2-0.2,0.3-0.3
						c0.1-0.1,0.2-0.2,0.3-0.3c0.2-0.2,0.3-0.5,0.4-0.7c0.2-0.5,0.2-1.1,0.1-1.6c-0.1-0.3-0.1-0.5-0.3-0.8c-0.1-0.2-0.3-0.5-0.4-0.7
						c-0.2-0.2-0.3-0.5-0.4-0.7C24.8,124.8,24.8,124.5,24.8,124.2z"/>
				</g>
				<g>
					<path class="st1" d="M25.1,126.3C25.1,126.3,25.1,126.3,25.1,126.3c-0.2,0-0.3-0.1-0.4-0.2c-0.1-0.2,0-0.3,0.1-0.4
						c0.1,0,0.1,0,0.1,0c0,0,0,0.1,0,0.1c0,0,0,0.1,0,0.1c0,0.1,0.1,0.1,0.2,0.1c0.1,0,0.1,0,0.3,0c0.1,0,0.2-0.1,0.3-0.2
						c0.1-0.1,0.1-0.1,0.2-0.2c0-0.1,0-0.1,0-0.2c0,0-0.1-0.1-0.1,0c0,0-0.1,0-0.1,0c0,0,0-0.1,0-0.1c0.1-0.1,0.3,0,0.4,0.1
						c0.1,0.1,0.1,0.2,0,0.4c-0.1,0.1-0.1,0.2-0.2,0.3c-0.1,0.1-0.2,0.2-0.4,0.2C25.3,126.2,25.2,126.3,25.1,126.3z"/>
				</g>
				<g>
					<path class="st1" d="M25.4,126.6c-0.1,0-0.1,0-0.2,0c-0.1,0-0.3,0-0.4-0.1c-0.1-0.1-0.1-0.2-0.1-0.4c0-0.1,0.1-0.2,0.3-0.3
						c0.1,0,0.1,0,0.1,0.1c0,0.1,0,0.1-0.1,0.1c-0.1,0-0.1,0.1-0.1,0.1c0,0.1,0,0.1,0,0.2c0.1,0.1,0.2,0.1,0.3,0.1
						c0.4,0,0.8,0,1.1-0.2c0.1,0,0.2-0.1,0.2-0.1c0-0.1,0.1-0.1,0-0.2c0,0-0.1-0.1-0.2-0.1c-0.1,0-0.1,0-0.2,0c-0.1,0-0.1,0-0.1-0.1
						s0-0.1,0.1-0.1c0.1,0,0.2-0.1,0.3-0.1c0.1,0,0.3,0.1,0.3,0.2c0.1,0.1,0,0.3-0.1,0.4c-0.1,0.1-0.2,0.2-0.3,0.2
						C26.1,126.5,25.7,126.6,25.4,126.6z"/>
				</g>
				<g>
					<path class="st1" d="M24.6,127.4C24.6,127.4,24.6,127.4,24.6,127.4c-0.1,0-0.2-0.1-0.2-0.1c0-0.1,0-0.2,0-0.3
						c0.2-0.3,0.5-0.6,0.8-0.6c-0.1-0.2,0-0.4,0-0.6c0.1-0.2,0.3-0.4,0.6-0.4c0.1,0,0.3,0,0.3,0.1c0.1,0.1,0,0.2,0,0.3
						c0,0.1-0.1,0.1-0.1,0.1l0,0c-0.2,0.2-0.4,0.4-0.5,0.6c0.1,0.1,0.1,0.2,0.1,0.4c0,0.2,0.1,0.3,0.1,0.5c0,0.1,0,0.1-0.1,0.1
						c-0.1,0-0.1,0-0.1-0.1c0-0.1,0-0.3-0.1-0.4c0-0.1-0.1-0.2-0.1-0.3c-0.2,0.1-0.3,0.3-0.4,0.4c0,0.1-0.1,0.2-0.2,0.3
						C24.8,127.4,24.7,127.4,24.6,127.4z M24.9,126.8c-0.1,0.1-0.2,0.2-0.3,0.3c0,0.1,0,0.1,0,0.1c0,0,0,0,0,0c0,0,0.1,0,0.1,0
						c0.1-0.1,0.1-0.1,0.1-0.2C24.8,126.9,24.8,126.8,24.9,126.8z M26,125.6C25.9,125.6,25.9,125.6,26,125.6c-0.2,0-0.4,0.2-0.5,0.3
						c0,0.1-0.1,0.2-0.1,0.3c0.1-0.2,0.3-0.4,0.5-0.5l0,0C25.9,125.7,26,125.7,26,125.6C26,125.6,26,125.6,26,125.6
						C26,125.6,26,125.6,26,125.6z"/>
				</g>
				<linearGradient id="SVGID_20_" gradientUnits="userSpaceOnUse" x1="23.0086" y1="129.2725" x2="28.1769" y2="129.2725">
					<stop  offset="0" style="stop-color:#ECE3C2"/>
					<stop  offset="1" style="stop-color:#6E6B49"/>
				</linearGradient>
				<path class="st21" d="M27.6,131.2c-0.3,0.5-0.7,0.9-1.3,1.1c-0.5,0.2-1.1,0.1-1.6-0.1c-0.5-0.2-0.9-0.5-1.3-0.9
					c-0.2-0.1-0.3-0.3-0.4-0.5c0.9,0.5,2,0.5,2.9,0.1c1-0.5,1.7-1.6,1.7-2.7c0-0.5-0.1-1-0.4-1.4c-0.1-0.2-0.3-0.4-0.4-0.5
					c0.6,0.5,1.1,1.3,1.3,2.1C28.3,129.3,28.1,130.3,27.6,131.2z"/>
			</g>
		</g>
		<g>
			<g>
				<path class="st1" d="M26.7,119.9C26.7,119.9,26.7,119.9,26.7,119.9c-0.2,0-0.2-0.2-0.2-0.3l6-19.8c0-0.1,0.1-0.2,0.3-0.1
					c0.1,0,0.2,0.1,0.1,0.3l-6,19.8C26.9,119.8,26.8,119.9,26.7,119.9z"/>
			</g>
			<g>
				<path class="st1" d="M59.2,119.9c-0.1,0-0.2-0.1-0.2-0.1L52.6,100c0-0.1,0-0.2,0.1-0.3c0.1,0,0.2,0,0.3,0.1l6.4,19.8
					C59.5,119.7,59.4,119.8,59.2,119.9C59.3,119.9,59.3,119.9,59.2,119.9z"/>
			</g>
			<g>
				<path class="st1" d="M53.3,120.2c-0.1,0-0.2-0.1-0.2-0.2l-4-19.5c0-0.1,0-0.2,0.2-0.2c0.1,0,0.2,0,0.2,0.2l4,19.5
					C53.6,120,53.5,120.1,53.3,120.2C53.4,120.2,53.3,120.2,53.3,120.2z"/>
			</g>
			<g>
				<path class="st1" d="M46,120.3c-0.1,0-0.2-0.1-0.2-0.2l-1.5-19.5c0-0.1,0.1-0.2,0.2-0.2c0.1,0,0.2,0.1,0.2,0.2l1.5,19.5
					C46.2,120.2,46.1,120.2,46,120.3C46,120.3,46,120.3,46,120.3z"/>
			</g>
			<g>
				<path class="st1" d="M36.3,120.2C36.3,120.2,36.3,120.2,36.3,120.2c-0.1,0-0.2-0.1-0.2-0.2l2-19.5c0-0.1,0.1-0.2,0.2-0.2
					c0.1,0,0.2,0.1,0.2,0.2l-2,19.5C36.5,120.2,36.4,120.2,36.3,120.2z"/>
			</g>
			<g>
				<path class="st1" d="M33.2,119.6C33.2,119.6,33.2,119.6,33.2,119.6c-0.1,0-0.2-0.1-0.2-0.2l3-18.9c0-0.1,0.1-0.2,0.2-0.2
					c0.1,0,0.2,0.1,0.2,0.2l-3,18.9C33.4,119.5,33.3,119.6,33.2,119.6z"/>
			</g>
			<g>
				<path class="st1" d="M42.1,119.5c-0.1,0-0.2-0.1-0.2-0.2v-18.7c0-0.1,0.1-0.2,0.2-0.2c0.1,0,0.2,0.1,0.2,0.2v18.7
					C42.3,119.4,42.2,119.5,42.1,119.5z"/>
			</g>
			<g>
				<path class="st1" d="M51.3,119.5c-0.1,0-0.2-0.1-0.2-0.2l-3.3-18.8c0-0.1,0.1-0.2,0.2-0.2c0.1,0,0.2,0.1,0.2,0.2l3.3,18.8
					C51.5,119.4,51.5,119.5,51.3,119.5C51.3,119.5,51.3,119.5,51.3,119.5z"/>
			</g>
		</g>
		<g>
			<linearGradient id="SVGID_21_" gradientUnits="userSpaceOnUse" x1="32.7491" y1="98.7781" x2="52.835" y2="98.7781">
				<stop  offset="0" style="stop-color:#D89867"/>
				<stop  offset="1" style="stop-color:#C1282D"/>
			</linearGradient>
			<path class="st22" d="M52.8,98.9c0,0.1-0.6,0.3-1.7,0.4c-1.8-0.2-4.9-0.3-8.3-0.3c-3.5,0-6.5,0.1-8.3,0.3
				c-1.1-0.1-1.7-0.2-1.7-0.4c0-0.4,4.5-0.7,10-0.7S52.8,98.6,52.8,98.9z"/>
			<path class="st1" d="M34.5,99.5C34.5,99.5,34.5,99.5,34.5,99.5c-1.8-0.2-1.9-0.3-1.9-0.6c0-0.2,0.2-0.3,0.9-0.4
				c0.5-0.1,1.2-0.2,2.2-0.2c1.9-0.1,4.4-0.2,7.1-0.2c2.7,0,5.2,0.1,7.1,0.2c0.9,0.1,1.7,0.1,2.2,0.2c0.7,0.1,0.9,0.2,0.9,0.4
				c0,0.2-0.1,0.4-1.9,0.6c0,0,0,0,0,0c-1.9-0.2-5-0.3-8.3-0.3C39.5,99.2,36.3,99.3,34.5,99.5C34.5,99.5,34.5,99.5,34.5,99.5z
				 M33.1,98.9c0.2,0.1,0.6,0.1,1.4,0.2c1.9-0.2,5-0.3,8.3-0.3c3.3,0,6.4,0.1,8.3,0.3c0.8-0.1,1.2-0.2,1.4-0.2
				c-0.9-0.2-4.3-0.5-9.7-0.5C37.4,98.4,34,98.7,33.1,98.9z M52.7,99L52.7,99L52.7,99z"/>
		</g>
		<g>
			<g>
				<path class="st1" d="M41.8,100.4c-0.1,0-0.2-0.1-0.2-0.2c0-0.1-2-10.3-3.8-24.4c-1.7-13-3.5-32.1-2.8-49
					c0.5-12.3,2.6-18.9,4.2-22.3C41,0.8,42.7,0,42.8,0C42.9,0,43,0,43,0.1c0,0.1,0,0.2-0.1,0.3l0,0c0,0-1.7,0.7-3.4,4.3
					c-1.6,3.3-3.7,9.9-4.2,22.1c-0.7,16.9,1.2,36,2.8,49C40,89.9,42,100,42,100.2C42,100.3,41.9,100.4,41.8,100.4
					C41.8,100.4,41.8,100.4,41.8,100.4z"/>
			</g>
			<g>
				<path class="st1" d="M39.6,100.4c-0.1,0-0.2,0-0.2-0.1c0-0.1-4.7-11.4-9-25.7c-2.5-8.4-4.4-16.2-5.6-23.2
					c-1.5-8.7-2-16.1-1.3-22.1c0.6-6,1.8-11.2,3.5-15.6c1.4-3.5,3.1-6.5,5.1-8.8c3.5-4,6.6-4.8,6.7-4.8c0.1,0,0.2,0,0.2,0.1
					c0,0.1,0,0.2-0.2,0.2c0,0-3.1,0.8-6.5,4.7c-3.1,3.6-7.2,10.7-8.5,24.1c-1.4,13.4,3,31.9,6.9,45.1c4.3,14.3,8.9,25.5,9,25.7
					C39.9,100.2,39.8,100.3,39.6,100.4C39.7,100.4,39.7,100.4,39.6,100.4z"/>
			</g>
			<g>
				<path class="st1" d="M37.3,100.5c-0.1,0-0.1,0-0.2-0.1c-11.7-18.9-19.1-36-22-50.9c-1.4-6.9-1.8-13.4-1.2-19.2
					c0.6-5.6,2.1-10.6,4.5-14.9C22.1,8.5,26.2,4.9,29,3.2c3-2,5.2-2.3,5.2-2.3c0.1,0,0.2,0.1,0.2,0.2c0,0.1-0.1,0.2-0.2,0.2l0,0
					c0,0-2.1,0.3-5.1,2.3c-2.7,1.8-6.8,5.3-10.5,12c-4.9,8.8-5.9,20.1-3.2,33.8c3,14.9,10.4,31.9,22,50.8c0.1,0.1,0,0.2-0.1,0.3
					C37.4,100.4,37.3,100.5,37.3,100.5z"/>
			</g>
			<g>
				<path class="st1" d="M35,100c-0.1,0-0.1,0-0.2-0.1c-0.3-0.4-0.6-0.8-0.8-1.2l-0.7-1C27.7,89.6,21.9,81.2,17,72.5
					c-4.9-8.9-9.5-17.7-10.8-27.3c-0.6-4.1-0.6-8.3,0-12.4C6.8,28.6,8,24.7,9.7,21C13.3,13.2,19.1,7,26.6,3.2c0.1-0.1,0.2,0,0.3,0.1
					c0.1,0.1,0,0.2-0.1,0.3C12.3,11,4.2,27.7,6.6,45.1c1.3,9.6,5.9,18.3,10.8,27.2C22.2,81,28,89.4,33.7,97.5l0.7,1
					c0.3,0.4,0.6,0.8,0.8,1.2c0.1,0.1,0,0.2-0.1,0.3C35.1,100,35,100,35,100z"/>
			</g>
			<g>
				<path class="st1" d="M40.7,100.5c-0.1,0-0.2-0.1-0.2-0.1C35,80.4,31.5,63,30,48.5c-1.1-11-1.1-20.1,0.1-28
					c1.3-8.9,4.1-13.9,6.2-16.6c2.3-2.9,4.2-3.7,4.3-3.8c0.1,0,0.2,0,0.3,0.1c0,0.1,0,0.2-0.1,0.3c0,0-2,0.8-4.2,3.7
					c-2,2.6-4.8,7.6-6.1,16.4c-2.7,18.2,0.8,45,10.3,79.7C40.9,100.3,40.8,100.4,40.7,100.5C40.7,100.4,40.7,100.5,40.7,100.5z"/>
			</g>
			<g>
				<path class="st1" d="M38.4,100.4c-0.1,0-0.2,0-0.2-0.1C31.7,86.7,27,76.1,23.6,65.4c-4-12.4-5.6-23.4-5.2-34.6
					c0.2-5.5,1.2-10.5,3.1-14.9c1.5-3.5,3.4-6.6,5.9-9.2c4.1-4.5,8.2-6.1,8.3-6.1c0.1,0,0.2,0,0.3,0.1c0,0.1,0,0.2-0.1,0.3
					c0,0-4.1,1.6-8.1,6c-3.8,4.1-8.3,11.5-8.8,23.8c-0.9,23.9,8.1,44.7,19.9,69.3C38.7,100.2,38.6,100.3,38.4,100.4
					C38.5,100.4,38.5,100.4,38.4,100.4z"/>
			</g>
			<g>
				<path class="st1" d="M35.9,100c-0.1,0-0.1,0-0.2-0.1c-6.3-9.6-13.5-20.7-18.8-32.2C11,55,8.5,44.3,9.3,34.8
					c0.5-5.7,1.8-11,3.8-15.6c1.7-3.7,3.9-7.1,6.5-9.9c4.5-4.9,8.8-6.8,8.9-6.8c0.1,0,0.2,0,0.3,0.1c0,0.1,0,0.2-0.1,0.3
					c0,0-4.3,1.9-8.7,6.7C15.8,14,10.7,22,9.7,34.8C8,55.4,22.4,79.1,36.1,99.7c0.1,0.1,0,0.2-0.1,0.3C36,100,35.9,100,35.9,100z"/>
			</g>
			<g>
				<path class="st1" d="M33.8,99.8c-0.1,0-0.1,0-0.2-0.1c-2-2.6-4-5.2-6-7.8C19,80.5,14.7,74.7,11.5,68.9C9.5,65.4,7.2,61.2,5.3,56
					c-2.2-6.1-3-12-2.6-17.8c0.5-6.6,2.6-13,6.3-19.1c2.4-3.9,5.3-7.6,8.8-11C17.9,8,18,8,18.1,8.1c0.1,0.1,0.1,0.2,0,0.3
					c-6.3,6.1-14,16.2-15,29.8C2.2,51.4,8,61.8,11.8,68.7c3.2,5.8,7.6,11.6,16.2,23c2,2.6,4,5.2,6,7.8c0.1,0.1,0.1,0.2,0,0.3
					C33.9,99.8,33.9,99.8,33.8,99.8z"/>
			</g>
			<g>
				<path class="st1" d="M42.8,100.5c-0.1,0-0.2-0.1-0.2-0.2c-1.8-24.2-2.7-53-3.1-68c-0.5-21.4,3.1-32,3.2-32.1
					c0-0.1,0.2-0.2,0.3-0.1c0.1,0,0.2,0.2,0.1,0.3c0,0.1-3.7,10.7-3.1,32c0.4,15,1.3,43.8,3.1,68C43,100.3,42.9,100.4,42.8,100.5
					C42.8,100.5,42.8,100.5,42.8,100.5z"/>
			</g>
			<g>
				<path class="st1" d="M43.9,100.4C43.9,100.4,43.9,100.4,43.9,100.4c-0.2,0-0.2-0.1-0.2-0.2c0-0.1,2-10.3,3.8-24.4
					c1.7-13,3.5-32,2.8-49c-0.5-12.2-2.5-18.7-4.2-22.1c-1.8-3.6-3.4-4.3-3.4-4.3c-0.1,0-0.2-0.2-0.1-0.3C42.7,0,42.8,0,42.9,0
					c0.1,0,1.8,0.8,3.6,4.5c1.7,3.4,3.8,10,4.2,22.3c0.7,17-1.2,36-2.8,49c-1.8,14.1-3.8,24.3-3.8,24.4
					C44.1,100.3,44,100.4,43.9,100.4z"/>
			</g>
			<g>
				<path class="st1" d="M46.1,100.4C46,100.4,46,100.4,46.1,100.4c-0.2-0.1-0.2-0.2-0.2-0.3c0-0.1,4.7-11.4,9-25.7
					c3.9-13.2,8.3-31.7,6.9-45.1C60.4,16,56.4,8.8,53.2,5.2c-3.4-3.9-6.4-4.6-6.5-4.7c-0.1,0-0.2-0.1-0.2-0.2c0-0.1,0.1-0.2,0.2-0.1
					C47,0.2,50.1,1,53.5,5c2,2.3,3.8,5.3,5.1,8.8c1.7,4.4,2.9,9.6,3.5,15.6c0.6,6,0.2,13.4-1.3,22.1c-1.2,7-3.1,14.8-5.6,23.2
					c-4.3,14.3-8.9,25.6-9,25.7C46.2,100.3,46.1,100.4,46.1,100.4z"/>
			</g>
			<g>
				<path class="st1" d="M48.4,100.5c0,0-0.1,0-0.1,0c-0.1-0.1-0.1-0.2-0.1-0.3c11.6-18.9,19-36,22-50.8c2.7-13.7,1.6-25-3.2-33.8
					c-3.7-6.7-7.8-10.3-10.5-12c-3-1.9-5.1-2.2-5.1-2.3c-0.1,0-0.2-0.1-0.2-0.2c0-0.1,0.1-0.2,0.2-0.2c0.1,0,2.2,0.3,5.2,2.3
					c2.8,1.8,6.9,5.4,10.7,12.2c2.4,4.3,3.9,9.3,4.5,14.9c0.6,5.8,0.2,12.2-1.2,19.2c-3,14.9-10.4,32-22.1,50.9
					C48.5,100.4,48.5,100.5,48.4,100.5z"/>
			</g>
			<g>
				<path class="st1" d="M50.7,100c0,0-0.1,0-0.1,0c-0.1-0.1-0.1-0.2-0.1-0.3c0.3-0.4,0.6-0.8,0.8-1.2l0.7-1
					c5.6-8.1,11.4-16.5,16.3-25.2c4.9-8.9,9.4-17.6,10.8-27.2C81.5,27.7,73.4,11,59,3.6c-0.1-0.1-0.1-0.2-0.1-0.3
					c0.1-0.1,0.2-0.1,0.3-0.1C66.6,7,72.4,13.2,76,21c1.7,3.7,2.9,7.6,3.5,11.8c0.6,4.1,0.6,8.3,0,12.4c-1.3,9.6-5.9,18.4-10.8,27.3
					C63.8,81.2,58,89.6,52.4,97.7l-0.7,1c-0.3,0.4-0.6,0.8-0.8,1.2C50.8,100,50.8,100,50.7,100z"/>
			</g>
			<g>
				<path class="st1" d="M45,100.5C45,100.5,45,100.4,45,100.5c-0.2,0-0.2-0.1-0.2-0.3c9.6-34.7,13-61.5,10.3-79.7
					c-1.3-8.8-4-13.8-6.1-16.4c-2.2-2.8-4.1-3.6-4.1-3.6c-0.1,0-0.2-0.2-0.1-0.3c0-0.1,0.2-0.2,0.3-0.1c0.1,0,2,0.8,4.3,3.8
					c2.1,2.7,4.8,7.7,6.2,16.6c1.2,7.9,1.2,17.1,0.1,28c-1.5,14.5-5,32-10.5,51.8C45.2,100.4,45.1,100.5,45,100.5z"/>
			</g>
			<g>
				<path class="st1" d="M47.3,100.4C47.2,100.4,47.2,100.4,47.3,100.4c-0.2-0.1-0.2-0.2-0.2-0.3c11.8-24.6,20.8-45.3,19.9-69.3
					c-0.5-12.3-5-19.8-8.8-23.9C54,2.5,50,1,50,1c-0.1,0-0.2-0.2-0.1-0.3c0-0.1,0.2-0.2,0.3-0.1c0,0,4.1,1.6,8.3,6.1
					c2.4,2.6,4.4,5.7,5.9,9.2c1.8,4.4,2.9,9.4,3.1,14.9c0.4,11.2-1.2,22.1-5.2,34.6c-3.4,10.7-8.2,21.3-14.7,34.9
					C47.4,100.3,47.3,100.4,47.3,100.4z"/>
			</g>
			<g>
				<path class="st1" d="M49.8,100c0,0-0.1,0-0.1,0c-0.1-0.1-0.1-0.2-0.1-0.3c13.6-20.6,28-44.3,26.3-64.8C75,22,69.8,14,65.7,9.5
					c-4.4-4.8-8.7-6.7-8.7-6.7c-0.1,0-0.2-0.2-0.1-0.3s0.2-0.1,0.3-0.1c0,0,4.4,1.9,8.9,6.8c2.6,2.9,4.8,6.2,6.5,9.9
					c2.1,4.6,3.4,9.9,3.8,15.6c0.8,9.5-1.7,20.2-7.6,32.9C63.5,79.2,56.3,90.3,50,99.9C50,99.9,49.9,100,49.8,100z"/>
			</g>
			<g>
				<path class="st1" d="M51.9,99.8c0,0-0.1,0-0.1,0c-0.1-0.1-0.1-0.2,0-0.3c2-2.6,4-5.2,6-7.8c8.6-11.5,12.9-17.2,16.2-23
					c3.8-6.9,9.7-17.3,8.7-30.5c-1-13.6-8.7-23.7-15-29.8c-0.1-0.1-0.1-0.2,0-0.3c0.1-0.1,0.2-0.1,0.3,0c3.5,3.4,6.4,7.1,8.8,11
					c3.7,6.1,5.8,12.5,6.3,19.1c0.4,5.9-0.4,11.7-2.6,17.8c-1.8,5.2-4.2,9.4-6.1,12.9C71,74.7,66.6,80.5,58,91.9c-2,2.6-4,5.2-6,7.8
					C52,99.8,51.9,99.8,51.9,99.8z"/>
			</g>
			<g>
				<path class="st1" d="M42.9,100.5C42.9,100.5,42.9,100.5,42.9,100.5c-0.1,0-0.2-0.1-0.2-0.2c1.8-24.2,2.7-53,3.1-68
					c0.5-21.3-3.1-31.9-3.1-32c0-0.1,0-0.2,0.1-0.3c0.1,0,0.2,0,0.3,0.1c0,0.1,3.7,10.7,3.2,32.1c-0.4,15-1.3,43.8-3.1,68
					C43.1,100.4,43,100.5,42.9,100.5z"/>
			</g>
		</g>
		<g>
			<linearGradient id="SVGID_22_" gradientUnits="userSpaceOnUse" x1="32.7491" y1="99.7586" x2="52.835" y2="99.7586">
				<stop  offset="0" style="stop-color:#D89867"/>
				<stop  offset="1" style="stop-color:#C1282D"/>
			</linearGradient>
			<path class="st23" d="M52.8,98.9v1c0,0.4-4.5,0.7-10,0.7s-10-0.3-10-0.7v-1c0,0.2,1.2,0.4,3.1,0.5c1.8,0.1,4.2,0.2,6.9,0.2
				c2.7,0,5.1-0.1,6.9-0.2C51.6,99.3,52.8,99.1,52.8,98.9z"/>
			<path class="st1" d="M42.8,100.8c-2.7,0-5.2-0.1-7.1-0.2c-0.9-0.1-1.7-0.1-2.2-0.2c-0.7-0.1-0.9-0.2-0.9-0.4v-1
				c0-0.1,0.1-0.2,0.2-0.2c0.1,0,0.1,0,0.2,0.1c0.1,0,0.6,0.2,3,0.4c1.9,0.1,4.3,0.2,6.9,0.2c2.6,0,5-0.1,6.9-0.2
				c2.4-0.2,2.9-0.3,3-0.4c0-0.1,0.1-0.1,0.2-0.1c0.1,0,0.2,0.1,0.2,0.2v1c0,0.2-0.2,0.3-0.9,0.4c-0.5,0.1-1.2,0.2-2.2,0.2
				C48,100.7,45.5,100.8,42.8,100.8z M32.9,99.9c0.5,0.2,4,0.6,9.9,0.6c5.8,0,9.4-0.3,9.9-0.6v-0.6c-0.4,0.1-1.2,0.2-2.9,0.4
				c-1.9,0.1-4.3,0.2-6.9,0.2c-2.6,0-5.1-0.1-6.9-0.2c-1.7-0.1-2.5-0.2-2.9-0.4V99.9z"/>
		</g>
	</g>
	<g>
		<g>
			<linearGradient id="SVGID_23_" gradientUnits="userSpaceOnUse" x1="31.7983" y1="149.2643" x2="36.169" y2="155.34">
				<stop  offset="2.307690e-02" style="stop-color:#ECE3C2"/>
				<stop  offset="0.5436" style="stop-color:#EAAA3B"/>
				<stop  offset="1" style="stop-color:#E98D50"/>
			</linearGradient>
			<path class="st24" d="M34.4,147.6c0,0,0.8,1,0.8,2.7c0,1.7,0.1,4.2-0.4,5.7c-0.5,1.4-1.5,0.4-1.5,0.4l-0.7-6.8
				C32.5,149.6,33.3,147.6,34.4,147.6z"/>
			<path class="st1" d="M33.9,156.9c-0.4,0-0.8-0.4-0.8-0.4c0,0,0-0.1,0-0.1l-0.7-6.8c0,0,0,0,0-0.1c0-0.1,0.8-2.1,2-2.1h0
				c0,0,0.1,0,0.1,0.1c0,0,0.8,1.1,0.8,2.8l0,0.4c0,1.7,0.1,4-0.4,5.4c-0.2,0.5-0.5,0.8-0.8,0.9C34.1,156.9,34,156.9,33.9,156.9z
				 M33.4,156.4c0.1,0.1,0.4,0.3,0.7,0.2c0.2,0,0.4-0.3,0.6-0.7c0.5-1.3,0.4-3.6,0.4-5.2l0-0.4c0-1.4-0.6-2.3-0.7-2.5
				c-0.7,0.1-1.4,1.3-1.6,1.8L33.4,156.4z"/>
		</g>
		<g>
			<linearGradient id="SVGID_24_" gradientUnits="userSpaceOnUse" x1="50.2972" y1="149.2643" x2="54.6679" y2="155.34">
				<stop  offset="2.307690e-02" style="stop-color:#ECE3C2"/>
				<stop  offset="0.5436" style="stop-color:#EAAA3B"/>
				<stop  offset="1" style="stop-color:#E98D50"/>
			</linearGradient>
			<path class="st25" d="M52.9,147.6c0,0,0.8,1,0.8,2.7c0,1.7,0.1,4.2-0.4,5.7c-0.5,1.4-1.5,0.4-1.5,0.4l-0.7-6.8
				C51,149.6,51.8,147.6,52.9,147.6z"/>
			<path class="st1" d="M52.4,156.9c-0.4,0-0.8-0.4-0.8-0.4c0,0,0-0.1,0-0.1l-0.7-6.8c0,0,0,0,0-0.1c0-0.1,0.8-2.1,2-2.1h0
				c0,0,0.1,0,0.1,0.1c0,0,0.8,1.1,0.8,2.8l0,0.4c0,1.7,0.1,4-0.4,5.4c-0.2,0.5-0.5,0.8-0.8,0.9C52.6,156.9,52.5,156.9,52.4,156.9z
				 M51.9,156.4c0.1,0.1,0.4,0.3,0.7,0.2c0.2,0,0.4-0.3,0.6-0.7c0.5-1.3,0.4-3.6,0.4-5.2l0-0.4c0-1.4-0.6-2.3-0.7-2.5
				c-0.7,0.1-1.4,1.3-1.6,1.8L51.9,156.4z"/>
		</g>
		<g>
			<g>
				<g>
					<linearGradient id="SVGID_25_" gradientUnits="userSpaceOnUse" x1="12.4362" y1="145.4875" x2="17.0239" y2="157.5302">
						<stop  offset="0" style="stop-color:#ECE3C2"/>
						<stop  offset="1" style="stop-color:#6E6B49"/>
					</linearGradient>
					<path class="st26" d="M15.5,152.7h-2.7c-0.8,0-1.5-1.6-1.5-3.5c0-2,0.7-3.5,1.5-3.5h2.7c-0.6,0-1.1,0.9-1.4,2.1
						c-0.1,0.4-0.1,0.9-0.1,1.4s0,1,0.1,1.4C14.4,151.9,14.9,152.7,15.5,152.7z"/>
					<path class="st1" d="M15.5,152.9h-2.7c-1,0-1.7-1.6-1.7-3.7c0-2.1,0.7-3.7,1.7-3.7h2.7c0.1,0,0.2,0.1,0.2,0.2
						c0,0.1-0.1,0.2-0.2,0.2c-0.5,0-0.9,0.8-1.2,2c-0.1,0.4-0.1,0.9-0.1,1.4c0,0.5,0,0.9,0.1,1.4c0.2,1.2,0.7,2,1.2,2
						c0.1,0,0.2,0.1,0.2,0.2C15.7,152.8,15.7,152.9,15.5,152.9z M12.8,145.9c-0.6,0-1.3,1.4-1.3,3.3c0,2,0.7,3.3,1.3,3.3h1.9
						c-0.3-0.4-0.6-1-0.8-1.9c-0.1-0.5-0.1-0.9-0.1-1.4c0-0.5,0-1,0.1-1.4c0.2-0.8,0.4-1.5,0.8-1.9H12.8z"/>
				</g>
				<g>
					<linearGradient id="SVGID_26_" gradientUnits="userSpaceOnUse" x1="14.041" y1="145.2699" x2="18.4292" y2="156.789">
						<stop  offset="0" style="stop-color:#ECE3C2"/>
						<stop  offset="1" style="stop-color:#6E6B49"/>
					</linearGradient>
					<path class="st27" d="M17,149.2c0,2-0.7,3.5-1.5,3.5c-0.6,0-1.1-0.9-1.4-2.1c-0.1-0.4-0.1-0.9-0.1-1.4s0-1,0.1-1.4
						c0.2-1.3,0.8-2.1,1.4-2.1C16.4,145.7,17,147.2,17,149.2z"/>
					<path class="st1" d="M15.5,152.9c-0.7,0-1.3-0.9-1.6-2.3c-0.1-0.5-0.1-0.9-0.1-1.4c0-0.5,0-1,0.1-1.4c0.3-1.4,0.9-2.3,1.6-2.3
						c1,0,1.7,1.6,1.7,3.7C17.2,151.3,16.5,152.9,15.5,152.9z M15.5,145.9c-0.5,0-0.9,0.8-1.2,2c-0.1,0.4-0.1,0.9-0.1,1.4
						c0,0.5,0,0.9,0.1,1.4c0.2,1.2,0.7,2,1.2,2c0.6,0,1.3-1.4,1.3-3.3C16.8,147.2,16.1,145.9,15.5,145.9z"/>
				</g>
				<g>
					<linearGradient id="SVGID_27_" gradientUnits="userSpaceOnUse" x1="12.4359" y1="145.4879" x2="17.0236" y2="157.5306">
						<stop  offset="0" style="stop-color:#ECE3C2"/>
						<stop  offset="1" style="stop-color:#6E6B49"/>
					</linearGradient>
					<path class="st28" d="M15.5,152.7h-2.7c-0.6,0-1.1-0.9-1.4-2.1c-0.1-0.4-0.1-0.9-0.1-1.4c0-2,0.7-3.5,1.5-3.5h2.7
						c-0.6,0-1.1,0.9-1.4,2.1c0,0,0,0,0,0.1c-0.1,0.4-0.1,0.9-0.1,1.4c0,0.5,0,1,0.1,1.4C14.4,151.9,14.9,152.7,15.5,152.7z"/>
					<path class="st1" d="M15.5,152.9h-2.7c-0.7,0-1.3-0.9-1.6-2.3c-0.1-0.5-0.1-0.9-0.1-1.4c0-2.1,0.7-3.7,1.7-3.7h2.7
						c0.1,0,0.2,0.1,0.2,0.2c0,0.1-0.1,0.2-0.2,0.2c-0.5,0-0.9,0.8-1.2,2l0,0c-0.1,0.4-0.1,0.9-0.1,1.3c0,0.5,0,0.9,0.1,1.4
						c0.2,1.2,0.7,2,1.2,2c0.1,0,0.2,0.1,0.2,0.2S15.7,152.9,15.5,152.9z M12.8,145.9c-0.6,0-1.3,1.4-1.3,3.3c0,0.5,0,0.9,0.1,1.4
						c0.2,1.2,0.7,2,1.2,2h1.9c-0.3-0.4-0.6-1-0.8-1.9c-0.1-0.5-0.1-0.9-0.1-1.4c0-0.5,0-1,0.1-1.4l0-0.1c0.2-0.8,0.4-1.5,0.8-1.9
						H12.8z"/>
				</g>
				<g>
					<linearGradient id="SVGID_28_" gradientUnits="userSpaceOnUse" x1="14.041" y1="145.2699" x2="18.4292" y2="156.789">
						<stop  offset="0" style="stop-color:#ECE3C2"/>
						<stop  offset="1" style="stop-color:#6E6B49"/>
					</linearGradient>
					<path class="st29" d="M17,149.2c0,2-0.7,3.5-1.5,3.5c-0.6,0-1.1-0.9-1.4-2.1c-0.1-0.4-0.1-0.9-0.1-1.4s0-1,0.1-1.4
						c0.2-1.3,0.8-2.1,1.4-2.1C16.4,145.7,17,147.2,17,149.2z"/>
					<path class="st1" d="M15.5,152.9c-0.7,0-1.3-0.9-1.6-2.3c-0.1-0.5-0.1-0.9-0.1-1.4c0-0.5,0-1,0.1-1.4c0.3-1.4,0.9-2.3,1.6-2.3
						c1,0,1.7,1.6,1.7,3.7C17.2,151.3,16.5,152.9,15.5,152.9z M15.5,145.9c-0.5,0-0.9,0.8-1.2,2c-0.1,0.4-0.1,0.9-0.1,1.4
						c0,0.5,0,0.9,0.1,1.4c0.2,1.2,0.7,2,1.2,2c0.6,0,1.3-1.4,1.3-3.3C16.8,147.2,16.1,145.9,15.5,145.9z"/>
				</g>
				<g>
					
						<linearGradient id="SVGID_29_" gradientUnits="userSpaceOnUse" x1="-5037.127" y1="145.4875" x2="-5032.5391" y2="157.5302" gradientTransform="matrix(-1 0 0 1 -4963.8438 0)">
						<stop  offset="0" style="stop-color:#ECE3C2"/>
						<stop  offset="1" style="stop-color:#6E6B49"/>
					</linearGradient>
					<path class="st30" d="M70.2,152.7h2.7c0.8,0,1.5-1.6,1.5-3.5c0-2-0.7-3.5-1.5-3.5h-2.7c0.6,0,1.1,0.9,1.4,2.1
						c0.1,0.4,0.1,0.9,0.1,1.4s0,1-0.1,1.4C71.3,151.9,70.8,152.7,70.2,152.7z"/>
					<path class="st1" d="M72.9,152.9h-2.7c-0.1,0-0.2-0.1-0.2-0.2c0-0.1,0.1-0.2,0.2-0.2c0.5,0,0.9-0.8,1.2-2
						c0.1-0.4,0.1-0.9,0.1-1.4s0-0.9-0.1-1.4c-0.2-1.2-0.7-2-1.2-2c-0.1,0-0.2-0.1-0.2-0.2c0-0.1,0.1-0.2,0.2-0.2h2.7
						c1,0,1.7,1.6,1.7,3.7C74.6,151.3,73.9,152.9,72.9,152.9z M71,152.5h1.9c0.6,0,1.3-1.4,1.3-3.3c0-2-0.7-3.3-1.3-3.3H71
						c0.3,0.4,0.6,1,0.8,1.9c0.1,0.5,0.1,0.9,0.1,1.4c0,0.5,0,1-0.1,1.4C71.6,151.5,71.3,152.1,71,152.5z"/>
				</g>
				<g>
					
						<linearGradient id="SVGID_30_" gradientUnits="userSpaceOnUse" x1="-5035.522" y1="145.2699" x2="-5031.1338" y2="156.789" gradientTransform="matrix(-1 0 0 1 -4963.8438 0)">
						<stop  offset="0" style="stop-color:#ECE3C2"/>
						<stop  offset="1" style="stop-color:#6E6B49"/>
					</linearGradient>
					<path class="st31" d="M68.7,149.2c0,2,0.7,3.5,1.5,3.5c0.6,0,1.1-0.9,1.4-2.1c0.1-0.4,0.1-0.9,0.1-1.4s0-1-0.1-1.4
						c-0.2-1.3-0.8-2.1-1.4-2.1C69.4,145.7,68.7,147.2,68.7,149.2z"/>
					<path class="st1" d="M70.2,152.9c-1,0-1.7-1.6-1.7-3.7c0-2.1,0.7-3.7,1.7-3.7c0.7,0,1.3,0.9,1.6,2.3c0.1,0.5,0.1,0.9,0.1,1.4
						c0,0.5,0,1-0.1,1.4C71.5,152.1,70.9,152.9,70.2,152.9z M70.2,145.9c-0.6,0-1.3,1.4-1.3,3.3c0,2,0.7,3.3,1.3,3.3
						c0.5,0,0.9-0.8,1.2-2c0.1-0.4,0.1-0.9,0.1-1.4s0-0.9-0.1-1.4C71.1,146.7,70.7,145.9,70.2,145.9z"/>
				</g>
				<g>
					<linearGradient id="SVGID_31_" gradientUnits="userSpaceOnUse" x1="70.3892" y1="145.3091" x2="74.9769" y2="157.3518">
						<stop  offset="0" style="stop-color:#ECE3C2"/>
						<stop  offset="1" style="stop-color:#6E6B49"/>
					</linearGradient>
					<path class="st32" d="M74.4,149.2c0,2-0.7,3.5-1.5,3.5h-2.7c0.6,0,1.1-0.9,1.4-2.1c0-0.1,0-0.1,0-0.2c0.1-0.4,0.1-0.8,0.1-1.2
						c0-0.5,0-1-0.1-1.4c-0.2-1.3-0.8-2.1-1.4-2.1h2.7c0.6,0,1.2,1,1.4,2.3C74.4,148.4,74.4,148.8,74.4,149.2z"/>
					<path class="st1" d="M72.9,152.9h-2.7c-0.1,0-0.2-0.1-0.2-0.2s0.1-0.2,0.2-0.2c0.5,0,0.9-0.8,1.2-2c0-0.1,0-0.1,0-0.2
						c0.1-0.4,0.1-0.8,0.1-1.2c0-0.5,0-0.9-0.1-1.4c-0.2-1.2-0.7-2-1.2-2c-0.1,0-0.2-0.1-0.2-0.2c0-0.1,0.1-0.2,0.2-0.2h2.7
						c0.7,0,1.4,1,1.6,2.5c0.1,0.4,0.1,0.8,0.1,1.2C74.6,151.3,73.8,152.9,72.9,152.9z M71,152.5h1.9c0.6,0,1.3-1.4,1.3-3.3
						c0-0.4,0-0.8-0.1-1.2c-0.2-1.3-0.7-2.2-1.2-2.2H71c0.3,0.4,0.6,1,0.8,1.9c0.1,0.5,0.1,0.9,0.1,1.4c0,0.4,0,0.9-0.1,1.3
						c0,0.1,0,0.1,0,0.2C71.6,151.5,71.3,152.1,71,152.5z"/>
				</g>
				<g>
					
						<linearGradient id="SVGID_32_" gradientUnits="userSpaceOnUse" x1="-5035.522" y1="145.2699" x2="-5031.1338" y2="156.789" gradientTransform="matrix(-1 0 0 1 -4963.8438 0)">
						<stop  offset="0" style="stop-color:#ECE3C2"/>
						<stop  offset="1" style="stop-color:#6E6B49"/>
					</linearGradient>
					<path class="st33" d="M68.7,149.2c0,2,0.7,3.5,1.5,3.5c0.6,0,1.1-0.9,1.4-2.1c0.1-0.4,0.1-0.9,0.1-1.4s0-1-0.1-1.4
						c-0.2-1.3-0.8-2.1-1.4-2.1C69.4,145.7,68.7,147.2,68.7,149.2z"/>
					<path class="st1" d="M70.2,152.9c-1,0-1.7-1.6-1.7-3.7c0-2.1,0.7-3.7,1.7-3.7c0.7,0,1.3,0.9,1.6,2.3c0.1,0.5,0.1,0.9,0.1,1.4
						c0,0.5,0,1-0.1,1.4C71.5,152.1,70.9,152.9,70.2,152.9z M70.2,145.9c-0.6,0-1.3,1.4-1.3,3.3c0,2,0.7,3.3,1.3,3.3
						c0.5,0,0.9-0.8,1.2-2c0.1-0.4,0.1-0.9,0.1-1.4s0-0.9-0.1-1.4C71.1,146.7,70.7,145.9,70.2,145.9z"/>
				</g>
				<g>
					<linearGradient id="SVGID_33_" gradientUnits="userSpaceOnUse" x1="42.8597" y1="147.4634" x2="42.8597" y2="152.1435">
						<stop  offset="0" style="stop-color:#ECE3C2"/>
						<stop  offset="1" style="stop-color:#6E6B49"/>
					</linearGradient>
					<path class="st34" d="M70.6,149.2c0,0.2,0,0.4,0,0.6c-0.1,0.5-0.3,0.9-0.5,0.9v0H15.7v0c-0.2,0-0.4-0.4-0.5-0.9
						c0-0.2,0-0.4,0-0.6c0-0.1,0-0.2,0-0.3c0-0.1,0-0.2,0-0.3c0.1-0.6,0.3-0.9,0.5-0.9v0h54.4v0c0.2,0,0.4,0.4,0.5,0.9
						C70.6,148.8,70.6,149,70.6,149.2z"/>
					<path class="st1" d="M70.1,151H15.7c0,0-0.1,0-0.1,0c-0.3-0.1-0.5-0.5-0.6-1.1c0-0.2,0-0.4,0-0.6c0-0.1,0-0.2,0-0.4
						c0-0.1,0-0.2,0-0.3c0.1-0.6,0.3-1,0.6-1.1c0,0,0.1,0,0.1,0h54.4c0,0,0.1,0,0.1,0c0.3,0.1,0.5,0.5,0.6,1.1c0,0.2,0,0.4,0,0.6
						c0,0.2,0,0.4,0,0.6c-0.1,0.6-0.3,1-0.6,1.1C70.1,151,70.1,151,70.1,151z M15.7,150.6H70c0,0,0.1,0,0.1,0c0,0,0.2-0.2,0.3-0.8
						c0-0.2,0-0.4,0-0.6c0-0.2,0-0.4,0-0.6c-0.1-0.5-0.2-0.7-0.3-0.8c0,0-0.1,0-0.1,0H15.7c0,0,0,0-0.1,0c0,0-0.2,0.2-0.3,0.8
						c0,0.1,0,0.2,0,0.3c0,0.1,0,0.2,0,0.3c0,0.2,0,0.4,0,0.6C15.5,150.3,15.6,150.5,15.7,150.6C15.7,150.5,15.7,150.6,15.7,150.6z"
						/>
				</g>
				<linearGradient id="SVGID_34_" gradientUnits="userSpaceOnUse" x1="70.1827" y1="150.3639" x2="74.3846" y2="150.3639">
					<stop  offset="0" style="stop-color:#ECE3C2"/>
					<stop  offset="1" style="stop-color:#6E6B49"/>
				</linearGradient>
				<path class="st35" d="M74.4,149.2c0,2-0.7,3.5-1.5,3.5h-2.7c0.6,0,1.1-0.9,1.4-2.1c0-0.1,0-0.1,0-0.2c0.3-0.2,0.6-0.3,0.9-0.5
					c0.7-0.4,1.3-1,1.7-1.7c0-0.1,0.1-0.1,0.1-0.2C74.4,148.4,74.4,148.8,74.4,149.2z"/>
				<linearGradient id="SVGID_35_" gradientUnits="userSpaceOnUse" x1="15.138" y1="149.1973" x2="70.5813" y2="149.1973">
					<stop  offset="0" style="stop-color:#ECE3C2"/>
					<stop  offset="1" style="stop-color:#6E6B49"/>
				</linearGradient>
				<path class="st36" d="M70.6,149.2c0,0.2,0,0.4,0,0.6c-0.1,0.5-0.3,0.9-0.5,0.9v0H15.7v0c-0.2,0-0.4-0.4-0.5-0.9
					c0-0.2,0-0.4,0-0.6c0-0.1,0-0.2,0-0.3c1.2,0.2,2.3,0.4,3.1,0.5c2.5,0.4,6.8,1.1,13.7,0.9c2-0.1,3.5-0.2,3.7-0.2
					c1.8-0.1,7.7-0.2,22.5-0.4c5.5-0.5,9.6-1,9.9-1.2c0.5-0.2,1-0.5,1-0.5c0.2-0.1,0.4-0.3,0.5-0.4h0.5v0c0.2,0,0.4,0.4,0.5,0.9
					C70.6,148.8,70.6,149,70.6,149.2z"/>
			</g>
			<g>
				<path class="st1" d="M23,150.1l1.4,0l1.4,0l2.7,0c1.8,0,3.6,0,5.4-0.1c1.8,0,3.6,0,5.4,0l5.4,0l5.4,0c1.8,0,3.6,0,5.4,0
					c1.8,0,3.6,0,5.4,0.1l2.7,0l1.4,0l1.4,0l-1.4,0l-1.4,0l-2.7,0c-1.8,0-3.6,0-5.4,0.1c-1.8,0-3.6,0-5.4,0l-5.4,0l-5.4,0
					c-1.8,0-3.6,0-5.4,0c-1.8,0-3.6,0-5.4-0.1l-2.7,0l-1.4,0L23,150.1z"/>
				<path class="st1" d="M54.6,149.4l16-0.2c0.1,0,0.2,0.1,0.2,0.2c0,0.1-0.1,0.2-0.2,0.2c0,0,0,0,0,0L54.6,149.4z"/>
				<path class="st1" d="M72.3,147.3c0.1,0.5,0.2,0.9,0.2,1.4c0,0.5,0.1,1,0,1.4c0,0.5-0.1,1-0.2,1.4c-0.1,0.5-0.4,1-0.7,1.3
					c-0.1,0.1-0.2,0.1-0.3,0c-0.1-0.1-0.1-0.2,0-0.3c0,0,0,0,0,0l0,0c0.3-0.3,0.6-0.7,0.7-1.1c0.2-0.4,0.2-0.9,0.3-1.4
					c0.1-0.5,0.1-0.9,0.1-1.4C72.4,148.2,72.3,147.7,72.3,147.3z"/>
				<path class="st1" d="M73.1,149.4c0,0.3,0,0.6,0,0.9c0,0.3,0,0.6-0.1,0.9c0,0.3-0.1,0.6-0.2,0.9c-0.1,0.3-0.2,0.6-0.5,0.8
					c-0.1,0.1-0.2,0.1-0.3,0c-0.1-0.1-0.1-0.2,0-0.3c0,0,0,0,0,0l0,0c0.2-0.2,0.3-0.4,0.5-0.7c0.1-0.3,0.2-0.5,0.3-0.8
					c0.1-0.3,0.1-0.6,0.2-0.9C73.1,150,73.1,149.7,73.1,149.4z"/>
				<path class="st1" d="M13.4,149.4c0,0.3,0,0.6,0.1,0.9c0,0.3,0.1,0.6,0.2,0.9c0.1,0.3,0.2,0.6,0.4,0.8c0.2,0.2,0.4,0.4,0.6,0.6
					c0.1,0.1,0.1,0.2,0.1,0.3c-0.1,0.1-0.2,0.1-0.3,0.1c0,0,0,0,0,0c-0.3-0.2-0.5-0.5-0.7-0.8c-0.2-0.3-0.2-0.6-0.3-0.9
					c-0.1-0.3-0.1-0.6-0.1-0.9C13.4,150,13.4,149.7,13.4,149.4z"/>
				<path class="st1" d="M12.3,147.3c-0.1,0.5-0.1,0.9-0.1,1.4c0,0.5,0,0.9,0.1,1.4c0.1,0.5,0.2,0.9,0.3,1.4
					c0.1,0.2,0.2,0.4,0.3,0.6c0.1,0.2,0.3,0.4,0.4,0.5l0,0c0.1,0.1,0.1,0.2,0,0.3c-0.1,0.1-0.2,0.1-0.3,0c0,0,0,0,0,0
					c-0.2-0.2-0.3-0.4-0.4-0.6c-0.1-0.2-0.2-0.5-0.3-0.7c-0.1-0.5-0.2-1-0.3-1.4c0-0.5,0-1,0-1.4C12.2,148.2,12.2,147.7,12.3,147.3z
					"/>
			</g>
			<linearGradient id="SVGID_36_" gradientUnits="userSpaceOnUse" x1="11.4535" y1="150.2875" x2="15.5366" y2="150.2875">
				<stop  offset="0" style="stop-color:#ECE3C2"/>
				<stop  offset="1" style="stop-color:#6E6B49"/>
			</linearGradient>
			<path class="st37" d="M15.5,152.7h-2.7c-0.6,0-1.1-0.9-1.4-2.1c0.7-0.2,1.3-0.7,1.7-1.2c0.4-0.5,0.7-1,1-1.6
				c-0.1,0.4-0.1,0.9-0.1,1.4c0,0.5,0,1,0.1,1.4C14.4,151.9,14.9,152.7,15.5,152.7z"/>
		</g>
		<g>
			<g>
				<linearGradient id="SVGID_37_" gradientUnits="userSpaceOnUse" x1="28.0937" y1="159.3206" x2="93.6093" y2="292.5892">
					<stop  offset="2.307690e-02" style="stop-color:#ECE3C2"/>
					<stop  offset="0.5436" style="stop-color:#EAAA3B"/>
					<stop  offset="1" style="stop-color:#E98D50"/>
				</linearGradient>
				<path class="st38" d="M65.9,218c-0.2,3.1-0.6,5.7-0.9,7.8c-0.2,1-0.7,1.8-1.6,2.4c-3.7,2.4-7.9,5.5-12.2,9.7
					c-3.7,3.6-6.6,7.2-8.9,10.3c-0.3,0.4-0.8,0.4-1.1,0.1c-3.3-2.9-6.7-6.4-10.2-10.3c-3-3.4-5.6-6.7-7.8-9.8
					c-0.5-0.7-0.7-1.6-0.6-2.5c0.4-2.3,0.4-5.1,0.3-8.2c-0.4-8.4-2-19.4-2.3-30.8c-0.4-14.7,0.6-28,0.9-30.8c0-0.3,0.3-0.6,0.6-0.6
					c3-0.5,6.1-0.2,9.2,0.2c0-1.4-0.5-2.8-0.7-4.2c-0.1-0.9-0.3-3.4,1-3.7c1-0.2,2.6-0.2,3,0.1c-0.9,1.4-0.9,3-0.6,4.7
					c0.2,1.2,0.6,2.4,0.7,3.7c1,0.2,2.1,0.3,3.1,0.5c4,0.5,8,0.6,11.9,0.3c0.2-1.8-0.5-3.6-0.7-5.3c-0.1-1-0.3-3.7,1-4
					c1-0.2,2.6-0.2,3,0.1c-0.9,1.5-0.9,3.3-0.6,5c0.2,1.3,0.6,2.5,0.7,3.8c3.6-0.5,7.2-1.3,10.7-2.4c0.5-0.2,1,0.2,1,0.7
					c-0.1,0.6-0.1,1.3-0.2,2.3c-0.4,5.4-1,16.9,0.3,29.5C66.2,201.2,66.2,211.4,65.9,218z"/>
				<path class="st1" d="M41.7,248.6c-0.2,0-0.4-0.1-0.6-0.2c-3.6-3.2-7-6.7-10.2-10.3c-2.8-3.1-5.4-6.4-7.8-9.8
					c-0.5-0.8-0.8-1.7-0.6-2.6c0.3-2.1,0.4-4.7,0.3-8.2c-0.2-3.6-0.6-7.8-1-12.1c-0.5-5.7-1.2-12.2-1.4-18.7
					c-0.4-14.8,0.7-28.3,0.9-30.8c0-0.4,0.3-0.7,0.7-0.8c3.1-0.5,6.3-0.2,9,0.2c0-0.8-0.2-1.6-0.4-2.4c-0.1-0.5-0.3-1.1-0.3-1.7
					c-0.1-0.6-0.4-3.5,1.1-3.9c0.9-0.2,2.6-0.3,3.2,0.1c0.1,0,0.1,0.1,0,0.2c-0.8,1.2-0.9,2.7-0.6,4.6c0.1,0.3,0.2,0.7,0.2,1.1
					c0.2,0.8,0.4,1.7,0.5,2.5c1.1,0.2,2,0.3,3,0.4c3.9,0.5,7.8,0.6,11.8,0.3c0.1-1.1-0.2-2.3-0.4-3.4c-0.1-0.6-0.2-1.2-0.3-1.8
					c-0.1-0.6-0.4-3.8,1.1-4.2c0.9-0.2,2.6-0.3,3.2,0.1c0.1,0,0.1,0.1,0,0.2c-0.8,1.3-0.9,2.9-0.6,4.9c0.1,0.4,0.2,0.8,0.2,1.1
					c0.2,0.8,0.4,1.7,0.4,2.6c3.6-0.5,7.1-1.3,10.5-2.4c0.3-0.1,0.6,0,0.8,0.1c0.2,0.2,0.4,0.5,0.3,0.8c-0.1,0.7-0.1,1.5-0.2,2.3
					c-0.4,5.6-1,17,0.3,29.5c1.6,15.2,1.5,25.5,1.2,31.5c0,0,0,0,0,0c-0.2,3.1-0.6,5.8-0.9,7.8c-0.2,1-0.8,1.9-1.6,2.5
					c-4.4,2.8-8.5,6.1-12.2,9.7c-3.3,3.2-6.2,6.6-8.8,10.3C42.3,248.5,42,248.6,41.7,248.6C41.7,248.6,41.7,248.6,41.7,248.6z
					 M25.5,155.1c-1.2,0-2.3,0.1-3.5,0.3c-0.3,0-0.5,0.3-0.5,0.5c-0.2,2.5-1.3,16-0.9,30.8c0.2,6.5,0.8,13,1.4,18.7
					c0.4,4.4,0.8,8.5,1,12.2c0.2,3.5,0.1,6.1-0.3,8.2c-0.1,0.8,0.1,1.7,0.6,2.4c2.4,3.4,5.1,6.6,7.8,9.8c3.2,3.6,6.6,7.1,10.2,10.3
					c0.1,0.1,0.3,0.2,0.5,0.1c0.2,0,0.3-0.1,0.4-0.2c2.6-3.7,5.6-7.2,8.9-10.4c3.7-3.6,7.8-6.9,12.3-9.7c0.8-0.5,1.4-1.3,1.5-2.3
					c0.3-2,0.7-4.7,0.9-7.8c0.4-5.9,0.4-16.2-1.2-31.4c-1.3-12.6-0.8-23.9-0.3-29.6c0.1-0.8,0.1-1.6,0.2-2.3c0-0.2-0.1-0.4-0.2-0.5
					c-0.2-0.1-0.4-0.2-0.5-0.1c-3.5,1.1-7.1,1.9-10.8,2.4c0,0-0.1,0-0.1,0c0,0-0.1-0.1-0.1-0.1c-0.1-0.9-0.3-1.8-0.4-2.7
					c-0.1-0.4-0.2-0.8-0.2-1.1c-0.4-2-0.2-3.6,0.5-5c-0.5-0.2-1.8-0.3-2.8,0c-1,0.3-1,2.5-0.8,3.8c0.1,0.6,0.2,1.2,0.3,1.8
					c0.2,1.2,0.5,2.4,0.4,3.6c0,0.1-0.1,0.1-0.1,0.1c-4,0.3-8,0.2-12-0.3c-1-0.1-2-0.3-3.1-0.5c-0.1,0-0.1-0.1-0.1-0.1
					c-0.1-0.9-0.3-1.7-0.5-2.6c-0.1-0.3-0.2-0.7-0.2-1.1c-0.4-1.9-0.2-3.4,0.5-4.6c-0.5-0.2-1.8-0.2-2.8,0c-1,0.2-1,2.3-0.8,3.5
					c0.1,0.5,0.2,1.1,0.3,1.6c0.2,0.8,0.4,1.7,0.4,2.6c0,0,0,0.1-0.1,0.1c0,0-0.1,0-0.1,0C29.4,155.4,27.4,155.1,25.5,155.1z
					 M65.9,218L65.9,218L65.9,218z"/>
			</g>
			<linearGradient id="SVGID_38_" gradientUnits="userSpaceOnUse" x1="93.0085" y1="257.5669" x2="55.0895" y2="207.5622">
				<stop  offset="0" style="stop-color:#CE4931"/>
				<stop  offset="1" style="stop-color:#EAAA3B"/>
			</linearGradient>
			<path class="st39" d="M65.9,218c-0.2,3.1-0.6,5.7-0.9,7.8c-0.2,1-0.7,1.8-1.6,2.4c-3.7,2.4-7.9,5.5-12.2,9.7
				c-3.7,3.6-6.6,7.2-8.9,10.3c-0.3,0.4-0.8,0.4-1.1,0.1c-3.3-2.9-6.7-6.4-10.2-10.3c-3-3.4-5.6-6.7-7.8-9.8
				c-0.5-0.7-0.7-1.6-0.6-2.5c0.2-1.1,0.3-2.2,0.3-3.5c0-1.5,0-3,0-4.7c4.6,6.1,14.1,7.7,21.3,4.5c7.7-3.5,12.7-11.2,15-19.2
				c2.3-8,2.2-16.5,2.4-24.8c0.1-3.9,0.3-7.9,0.9-11.8c0.4-2.5,0.7-6.3,2-9.2c-0.1,1.8-0.3,4.3-0.4,7.3c0,0,0,0,0,0
				c-0.2,5.9-0.2,13.8,0.7,22.3C66.2,201.2,66.2,211.4,65.9,218z"/>
			<linearGradient id="SVGID_39_" gradientUnits="userSpaceOnUse" x1="88.9838" y1="256.1552" x2="54.6042" y2="210.818">
				<stop  offset="0" style="stop-color:#CE4931"/>
				<stop  offset="1" style="stop-color:#EAAA3B"/>
			</linearGradient>
			<path class="st40" d="M65.9,218c-0.2,3.1-0.6,5.7-0.9,7.8c-0.2,1-0.7,1.8-1.6,2.4c-3.7,2.4-7.9,5.5-12.2,9.7
				c-3.7,3.6-6.6,7.2-8.9,10.3c-0.3,0.4-0.8,0.4-1.1,0.1c-3.3-2.9-6.7-6.4-10.2-10.3c-3-3.4-5.6-6.7-7.8-9.8
				c-0.5-0.7-0.7-1.6-0.6-2.5c0.2-1.1,0.3-2.2,0.3-3.5c3.8,8.5,11.9,17.2,25.8,11.8c19.2-7.4,16.1-32.3,15.3-44.6
				c-0.8-12.2,0-25.1,0-25.3c-0.2,5.9-0.2,13.8,0.7,22.3C66.2,201.2,66.2,211.4,65.9,218z"/>
			<g class="st41">
				<path class="st1" d="M59.7,155.2c-0.2,1.3-0.4,2.7-0.5,4c0,0.3-0.1,0.7-0.1,1l-0.1,1l-0.1,1c0,0.3-0.1,0.7-0.1,1
					c-0.2,2.7-0.3,5.4-0.3,8.1c0,2.7,0.1,5.4,0.3,8.1l0.2,2l0.2,2c0.1,0.7,0.1,1.3,0.2,2c0.1,0.7,0.1,1.3,0.2,2
					c0.2,2.7,0.4,5.4,0.5,8.1c0.1,2.7,0.2,5.4,0.3,8.1c0.1,2.7,0.1,5.4,0,8.1l0,1c0,0.3,0,0.7,0,1l0,1c0,0.3,0,0.7-0.1,1l-0.1,1
					l-0.1,1l-0.1,0.5c0,0.2,0,0.3-0.1,0.5l-0.1,1l0.1-1c0-0.2,0-0.3,0.1-0.5l0-0.5l0.1-1l0.1-1c0-0.3,0-0.7,0.1-1l0-1
					c0-0.3,0-0.7,0-1l0-1c0.1-2.7,0-5.4,0-8.1c-0.1-2.7-0.2-5.4-0.3-8.1c-0.2-2.7-0.3-5.4-0.6-8.1c-0.1-0.7-0.1-1.3-0.2-2
					c-0.1-0.7-0.1-1.3-0.2-2l-0.2-2l-0.2-2c-0.2-2.7-0.4-5.4-0.4-8.1c0-2.7,0-5.4,0.2-8.1c0-0.3,0-0.7,0.1-1l0.1-1l0.1-1
					c0-0.3,0.1-0.7,0.1-1c0.1-1.3,0.3-2.7,0.5-4c0-0.1,0.1-0.1,0.2-0.1C59.6,155,59.7,155.1,59.7,155.2L59.7,155.2L59.7,155.2z"/>
				<path class="st1" d="M25.3,157.6c1.7,0,3.3,0.2,4.9,0.3c1.6,0.1,3.3,0.3,4.9,0.6c0.8,0.1,1.6,0.3,2.4,0.4
					c0.4,0.1,0.8,0.2,1.2,0.2l0.3,0.1c0.1,0,0.2,0,0.3,0c0.2,0,0.4,0.1,0.6,0.1c0.8,0.1,1.6,0.1,2.5,0.1c0.4,0,0.8,0,1.2,0
					c0.4,0,0.8,0,1.2,0c0.8,0,1.6-0.1,2.5-0.2c0.8-0.1,1.6-0.1,2.5-0.2c1.6-0.2,3.3-0.4,4.9-0.7c1.6-0.3,3.2-0.6,4.9-1
					c0.8-0.2,1.6-0.4,2.4-0.6c0.8-0.2,1.6-0.5,2.3-0.8l0,0c0.1,0,0.2,0,0.2,0.1c0,0.1,0,0.2-0.1,0.2l0,0c-0.8,0.3-1.6,0.6-2.4,0.8
					c-0.8,0.2-1.6,0.4-2.4,0.6c-1.6,0.4-3.2,0.7-4.9,0.9c-1.6,0.3-3.3,0.5-4.9,0.6c-1.6,0.2-3.3,0.3-5,0.4c-0.4,0-0.8,0-1.2,0
					c-0.4,0-0.8,0-1.2,0c-0.8,0-1.7-0.1-2.5-0.2c-0.2,0-0.4-0.1-0.6-0.1c-0.1,0-0.2,0-0.3,0l-0.3-0.1c-0.4-0.1-0.8-0.2-1.2-0.2
					c-0.8-0.2-1.6-0.3-2.4-0.4c-1.6-0.3-3.3-0.5-4.9-0.6C28.6,157.8,26.9,157.7,25.3,157.6z"/>
				<path class="st1" d="M31.5,157c2,0.2,4.1,0.4,6.1,0.6c1,0.1,2,0.3,3,0.5l0.4,0c0.1,0,0.2,0,0.4,0l0.4,0l0.2,0l0.2,0
					c0.3,0,0.5,0,0.8,0l0.8,0c1,0,2-0.1,3-0.2c0.5,0,1-0.1,1.5-0.1l0.8-0.1c0.3,0,0.5,0,0.8-0.1l0.8-0.1l0.8-0.1
					c0.5-0.1,1-0.1,1.5-0.2c1-0.1,2-0.3,3-0.5c-0.2,0.1-0.5,0.1-0.7,0.2c-0.2,0.1-0.5,0.1-0.7,0.2l-0.8,0.1l-0.8,0.1
					c-1,0.2-2,0.3-3,0.4c-2,0.2-4.1,0.4-6.1,0.5l-0.8,0c-0.3,0-0.5,0-0.8,0l-0.2,0l-0.2,0l-0.4,0c-0.1,0-0.3,0-0.4,0l-0.4-0.1
					c-1-0.2-2-0.3-3-0.5c-1-0.2-2-0.3-3-0.4L31.5,157z"/>
				<path class="st1" d="M62.5,197.8c0.2,2.7,0.4,5.3,0.4,8c0.1,2.7,0.1,5.4,0,8c0,1.3-0.1,2.7-0.2,4c0,0.7-0.1,1.3-0.1,2
					c-0.1,0.7-0.1,1.3-0.2,2c-0.1,1.3-0.3,2.7-0.5,4c-0.2,1.3-0.5,2.6-0.9,3.9c0,0.1-0.1,0.1-0.2,0.1c-0.1,0-0.1-0.1-0.1-0.2l0,0
					l0,0c0.4-1.3,0.6-2.6,0.9-3.9c0.2-1.3,0.4-2.6,0.6-4c0.1-0.7,0.1-1.3,0.2-2c0.1-0.7,0.1-1.3,0.2-2c0.1-1.3,0.2-2.7,0.2-4
					c0.1-2.7,0.1-5.4,0-8C62.8,203.2,62.7,200.5,62.5,197.8z"/>
				<path class="st1" d="M24.6,191.2c0.1,1.4,0.2,2.7,0.3,4.1c0.1,1.4,0.3,2.7,0.4,4.1c0.2,1.4,0.3,2.7,0.5,4.1
					c0.2,1.4,0.4,2.7,0.6,4.1c0.4,2.7,0.6,5.5,0.6,8.3c0,1.4-0.1,2.8-0.2,4.1c-0.1,1.4-0.3,2.7-0.5,4.1c0.2-1.4,0.3-2.7,0.4-4.1
					c0.1-1.4,0.1-2.7,0.1-4.1c0-2.7-0.2-5.5-0.6-8.2c-0.2-1.4-0.4-2.7-0.6-4.1c-0.2-1.4-0.3-2.7-0.5-4.1c-0.1-1.4-0.2-2.7-0.3-4.1
					C24.7,193.9,24.6,192.6,24.6,191.2z"/>
				<path class="st1" d="M51.8,224.1c1.2,0,2.3-0.1,3.5-0.2c1.2-0.1,2.3-0.3,3.5-0.5c1.1-0.2,2.3-0.5,3.4-0.8l0.8-0.2
					c0.3-0.1,0.6-0.2,0.8-0.3l0.4-0.1c0.1,0,0.3-0.1,0.4-0.2l0.8-0.3l0,0c0.1,0,0.2,0,0.2,0.1c0,0.1,0,0.2-0.1,0.2c0,0,0,0,0,0
					l-0.8,0.3c-0.1,0-0.3,0.1-0.4,0.1l-0.4,0.1c-0.3,0.1-0.6,0.2-0.8,0.3l-0.8,0.2c-1.1,0.3-2.3,0.5-3.4,0.7
					c-1.2,0.2-2.3,0.3-3.5,0.4C54.2,224,53,224.1,51.8,224.1z"/>
			</g>
		</g>
	</g>
	<g>
		<g>
			<path class="st1" d="M27.8,151.4c-0.2,0-0.4-0.1-0.6-0.2c-0.4-0.3-0.4-0.8-0.4-1.3c0.2-3.4,0.5-6.8,0.8-10.2
				c0.4-4.4,1-9,1.7-13.8c0.2-1.6,0.5-3.8,0.9-5.9c0,0,0,0,0,0c0,0,0.2-0.5,0.6-0.5c0.2,0,0.4,0.1,0.7,0.3c0.1,0.1,0.1,0.2,0,0.3
				c-0.1,0.1-0.2,0.1-0.3,0c0,0-0.1,0.1-0.1,0.3c-0.1,0.7-2.4,19.6-2.2,27.3c0,0.1-0.1,0.2-0.2,0.2c0,0,0,0,0,0
				c-0.1,0-0.2-0.1-0.2-0.2c-0.2-7.8,2.1-26.7,2.2-27.4c0-0.2,0.1-0.3,0.1-0.4c-0.1,0.1-0.2,0.2-0.2,0.2c-0.3,2.1-0.6,4.2-0.9,5.9
				c-0.7,4.9-1.2,9.4-1.7,13.8c-0.3,3.3-0.6,6.7-0.8,10.1c0,0.4,0,0.7,0.2,1c0.1,0.1,0.3,0.1,0.5,0.1c0.2-0.1,0.3-0.1,0.3-0.3
				c0-0.1,0.1-0.2,0.2-0.2c0.1,0,0.2,0.1,0.2,0.2c-0.1,0.4-0.4,0.5-0.6,0.6C28,151.4,27.9,151.4,27.8,151.4z"/>
		</g>
		<g>
			<path class="st1" d="M54.5,147.8C54.5,147.8,54.5,147.8,54.5,147.8c-0.1,0-0.2-0.1-0.2-0.2c0.1-2.9-0.2-5.8-0.2-5.8
				c0-0.1,0.1-0.2,0.2-0.2c0.1,0,0.2,0.1,0.2,0.2c0,0,0.3,3,0.2,5.8C54.7,147.7,54.6,147.8,54.5,147.8z"/>
		</g>
		<g>
			<path class="st1" d="M55.2,151.6c-0.4,0-0.8-0.3-1-0.8c0-0.1,0-0.2,0.1-0.3c0.1,0,0.2,0,0.3,0.1c0.1,0.3,0.3,0.6,0.7,0.5
				c0.1,0,0.3-0.1,0.3-0.2c0.5-0.7-0.1-6.2-0.6-9.7c0-0.1,0.1-0.2,0.2-0.2c0.1,0,0.2,0.1,0.2,0.2c0.1,0.9,1.3,8.9,0.6,10
				C55.8,151.5,55.6,151.6,55.2,151.6C55.3,151.6,55.3,151.6,55.2,151.6z"/>
		</g>
	</g>
</g>
</svg>
