<?xml version="1.0" encoding="utf-8"?>
<!-- Generator: Adobe Illustrator 22.0.0, SVG Export Plug-In . SVG Version: 6.00 Build 0)  -->
<svg version="1.1" id="Layer_1" xmlns="http://www.w3.org/2000/svg" xmlns:xlink="http://www.w3.org/1999/xlink" x="0px" y="0px"
	 viewBox="0 0 53.9 18.9" style="enable-background:new 0 0 53.9 18.9;" xml:space="preserve">
<style type="text/css">
	.st0{fill:#3B89BA;}
</style>
<g>
	<path class="st0" d="M53.1,8.4c-2-2.1-3.9-4.1-5.9-6.2c-0.3-0.3-0.6-0.6-0.9-0.9c-0.7-0.8-2.1-0.8-2.8,0c-0.4,0.5-0.6,1.1-0.5,1.7
		l0,0v4.9h-9.5c-1,0-1.9,0.9-1.9,1.9s0.9,1.9,1.9,1.9H43v5.5l0,0c0.1,0.4,0.2,0.8,0.5,1.1c0.8,0.7,2,0.8,2.8,0
		c2-2.1,3.9-4.1,5.9-6.2c0.3-0.3,0.6-0.6,0.9-0.9C53.9,10.4,53.9,9.2,53.1,8.4z"/>
	<path class="st0" d="M1.1,11.2c2,2.1,3.9,4.1,5.9,6.2c0.3,0.3,0.6,0.6,0.9,0.9c0.7,0.8,2.1,0.8,2.8,0c0.4-0.5,0.6-1.1,0.5-1.7l0,0
		v-4.9h9.5c1,0,1.9-0.9,1.9-1.9s-0.9-1.9-1.9-1.9h-9.5V2.4l0,0C11.2,2,11,1.6,10.7,1.3c-0.8-0.7-2-0.8-2.8,0C5.9,3.4,4,5.4,2,7.5
		C1.7,7.8,1.4,8.1,1.1,8.4C0.4,9.2,0.4,10.4,1.1,11.2z"/>
	<circle class="st0" cx="27.1" cy="9.8" r="1.9"/>
</g>
</svg>
